<?xml version="1.0" encoding="utf-8" standalone="no"?>
<!DOCTYPE svg PUBLIC "-//W3C//DTD SVG 1.1//EN"
  "http://www.w3.org/Graphics/SVG/1.1/DTD/svg11.dtd">
<!-- Created with matplotlib (https://matplotlib.org/) -->
<svg height="288pt" version="1.1" viewBox="0 0 432 288" width="432pt" xmlns="http://www.w3.org/2000/svg" xmlns:xlink="http://www.w3.org/1999/xlink">
 <defs>
  <style type="text/css">
*{stroke-linecap:butt;stroke-linejoin:round;}
  </style>
 </defs>
 <g id="figure_1">
  <g id="patch_1">
   <path d="M 0 288 
L 432 288 
L 432 0 
L 0 0 
z
" style="fill:#ffffff;"/>
  </g>
  <g id="axes_1">
   <g id="patch_2">
    <path d="M 54 252 
L 388.8 252 
L 388.8 34.56 
L 54 34.56 
z
" style="fill:#ffffff;"/>
   </g>
   <g id="matplotlib.axis_1">
    <g id="xtick_1">
     <g id="line2d_1">
      <defs>
       <path d="M 0 0 
L 0 3.5 
" id="mad181b1d7b" style="stroke:#000000;stroke-width:2.8;"/>
      </defs>
      <g>
       <use style="stroke:#000000;stroke-width:2.8;" x="69.218182" xlink:href="#mad181b1d7b" y="252"/>
      </g>
     </g>
     <g id="text_1">
      <!-- 0.0 -->
      <defs>
       <path d="M 46 36.53125 
Q 46 50.203125 43.4375 55.78125 
Q 40.875 61.375 34.8125 61.375 
Q 28.765625 61.375 26.171875 55.78125 
Q 23.578125 50.203125 23.578125 36.53125 
Q 23.578125 22.703125 26.171875 17.03125 
Q 28.765625 11.375 34.8125 11.375 
Q 40.828125 11.375 43.40625 17.03125 
Q 46 22.703125 46 36.53125 
z
M 64.796875 36.375 
Q 64.796875 18.265625 56.984375 8.421875 
Q 49.171875 -1.421875 34.8125 -1.421875 
Q 20.40625 -1.421875 12.59375 8.421875 
Q 4.78125 18.265625 4.78125 36.375 
Q 4.78125 54.546875 12.59375 64.375 
Q 20.40625 74.21875 34.8125 74.21875 
Q 49.171875 74.21875 56.984375 64.375 
Q 64.796875 54.546875 64.796875 36.375 
z
" id="DejaVuSans-Bold-48"/>
       <path d="M 10.203125 18.890625 
L 27.78125 18.890625 
L 27.78125 0 
L 10.203125 0 
z
" id="DejaVuSans-Bold-46"/>
      </defs>
      <g transform="translate(58.589744 268.118125)scale(0.12 -0.12)">
       <use xlink:href="#DejaVuSans-Bold-48"/>
       <use x="69.580078" xlink:href="#DejaVuSans-Bold-46"/>
       <use x="107.568359" xlink:href="#DejaVuSans-Bold-48"/>
      </g>
     </g>
    </g>
    <g id="xtick_2">
     <g id="line2d_2">
      <g>
       <use style="stroke:#000000;stroke-width:2.8;" x="130.86145" xlink:href="#mad181b1d7b" y="252"/>
      </g>
     </g>
     <g id="text_2">
      <!-- 0.2 -->
      <defs>
       <path d="M 28.8125 13.8125 
L 60.890625 13.8125 
L 60.890625 0 
L 7.90625 0 
L 7.90625 13.8125 
L 34.515625 37.3125 
Q 38.09375 40.53125 39.796875 43.609375 
Q 41.5 46.6875 41.5 50 
Q 41.5 55.125 38.0625 58.25 
Q 34.625 61.375 28.90625 61.375 
Q 24.515625 61.375 19.28125 59.5 
Q 14.0625 57.625 8.109375 53.90625 
L 8.109375 69.921875 
Q 14.453125 72.015625 20.65625 73.109375 
Q 26.859375 74.21875 32.8125 74.21875 
Q 45.90625 74.21875 53.15625 68.453125 
Q 60.40625 62.703125 60.40625 52.390625 
Q 60.40625 46.4375 57.328125 41.28125 
Q 54.25 36.140625 44.390625 27.484375 
z
" id="DejaVuSans-Bold-50"/>
      </defs>
      <g transform="translate(120.233012 268.118125)scale(0.12 -0.12)">
       <use xlink:href="#DejaVuSans-Bold-48"/>
       <use x="69.580078" xlink:href="#DejaVuSans-Bold-46"/>
       <use x="107.568359" xlink:href="#DejaVuSans-Bold-50"/>
      </g>
     </g>
    </g>
    <g id="xtick_3">
     <g id="line2d_3">
      <g>
       <use style="stroke:#000000;stroke-width:2.8;" x="192.504718" xlink:href="#mad181b1d7b" y="252"/>
      </g>
     </g>
     <g id="text_3">
      <!-- 0.4 -->
      <defs>
       <path d="M 36.8125 57.421875 
L 16.21875 26.90625 
L 36.8125 26.90625 
z
M 33.6875 72.90625 
L 54.59375 72.90625 
L 54.59375 26.90625 
L 64.984375 26.90625 
L 64.984375 13.28125 
L 54.59375 13.28125 
L 54.59375 0 
L 36.8125 0 
L 36.8125 13.28125 
L 4.5 13.28125 
L 4.5 29.390625 
z
" id="DejaVuSans-Bold-52"/>
      </defs>
      <g transform="translate(181.876281 268.118125)scale(0.12 -0.12)">
       <use xlink:href="#DejaVuSans-Bold-48"/>
       <use x="69.580078" xlink:href="#DejaVuSans-Bold-46"/>
       <use x="107.568359" xlink:href="#DejaVuSans-Bold-52"/>
      </g>
     </g>
    </g>
    <g id="xtick_4">
     <g id="line2d_4">
      <g>
       <use style="stroke:#000000;stroke-width:2.8;" x="254.147986" xlink:href="#mad181b1d7b" y="252"/>
      </g>
     </g>
     <g id="text_4">
      <!-- 0.6 -->
      <defs>
       <path d="M 36.1875 35.984375 
Q 31.25 35.984375 28.78125 32.78125 
Q 26.3125 29.59375 26.3125 23.1875 
Q 26.3125 16.796875 28.78125 13.59375 
Q 31.25 10.40625 36.1875 10.40625 
Q 41.15625 10.40625 43.625 13.59375 
Q 46.09375 16.796875 46.09375 23.1875 
Q 46.09375 29.59375 43.625 32.78125 
Q 41.15625 35.984375 36.1875 35.984375 
z
M 59.421875 71 
L 59.421875 57.515625 
Q 54.78125 59.71875 50.671875 60.765625 
Q 46.578125 61.8125 42.671875 61.8125 
Q 34.28125 61.8125 29.59375 57.140625 
Q 24.90625 52.484375 24.125 43.3125 
Q 27.34375 45.703125 31.09375 46.890625 
Q 34.859375 48.09375 39.3125 48.09375 
Q 50.484375 48.09375 57.34375 41.546875 
Q 64.203125 35.015625 64.203125 24.421875 
Q 64.203125 12.703125 56.53125 5.640625 
Q 48.875 -1.421875 35.984375 -1.421875 
Q 21.78125 -1.421875 13.984375 8.171875 
Q 6.203125 17.78125 6.203125 35.40625 
Q 6.203125 53.46875 15.3125 63.796875 
Q 24.421875 74.125 40.28125 74.125 
Q 45.3125 74.125 50.046875 73.34375 
Q 54.78125 72.5625 59.421875 71 
z
" id="DejaVuSans-Bold-54"/>
      </defs>
      <g transform="translate(243.519549 268.118125)scale(0.12 -0.12)">
       <use xlink:href="#DejaVuSans-Bold-48"/>
       <use x="69.580078" xlink:href="#DejaVuSans-Bold-46"/>
       <use x="107.568359" xlink:href="#DejaVuSans-Bold-54"/>
      </g>
     </g>
    </g>
    <g id="xtick_5">
     <g id="line2d_5">
      <g>
       <use style="stroke:#000000;stroke-width:2.8;" x="315.791254" xlink:href="#mad181b1d7b" y="252"/>
      </g>
     </g>
     <g id="text_5">
      <!-- 0.8 -->
      <defs>
       <path d="M 34.8125 32.625 
Q 29.546875 32.625 26.703125 29.734375 
Q 23.875 26.859375 23.875 21.484375 
Q 23.875 16.109375 26.703125 13.25 
Q 29.546875 10.40625 34.8125 10.40625 
Q 40.046875 10.40625 42.828125 13.25 
Q 45.609375 16.109375 45.609375 21.484375 
Q 45.609375 26.90625 42.828125 29.765625 
Q 40.046875 32.625 34.8125 32.625 
z
M 21.09375 38.8125 
Q 14.453125 40.828125 11.078125 44.96875 
Q 7.71875 49.125 7.71875 55.328125 
Q 7.71875 64.546875 14.59375 69.375 
Q 21.484375 74.21875 34.8125 74.21875 
Q 48.046875 74.21875 54.921875 69.40625 
Q 61.8125 64.59375 61.8125 55.328125 
Q 61.8125 49.125 58.421875 44.96875 
Q 55.03125 40.828125 48.390625 38.8125 
Q 55.8125 36.765625 59.59375 32.15625 
Q 63.375 27.546875 63.375 20.515625 
Q 63.375 9.671875 56.171875 4.125 
Q 48.96875 -1.421875 34.8125 -1.421875 
Q 20.609375 -1.421875 13.359375 4.125 
Q 6.109375 9.671875 6.109375 20.515625 
Q 6.109375 27.546875 9.890625 32.15625 
Q 13.671875 36.765625 21.09375 38.8125 
z
M 25.484375 53.421875 
Q 25.484375 49.078125 27.90625 46.734375 
Q 30.328125 44.390625 34.8125 44.390625 
Q 39.203125 44.390625 41.59375 46.734375 
Q 44 49.078125 44 53.421875 
Q 44 57.765625 41.59375 60.078125 
Q 39.203125 62.40625 34.8125 62.40625 
Q 30.328125 62.40625 27.90625 60.0625 
Q 25.484375 57.71875 25.484375 53.421875 
z
" id="DejaVuSans-Bold-56"/>
      </defs>
      <g transform="translate(305.162817 268.118125)scale(0.12 -0.12)">
       <use xlink:href="#DejaVuSans-Bold-48"/>
       <use x="69.580078" xlink:href="#DejaVuSans-Bold-46"/>
       <use x="107.568359" xlink:href="#DejaVuSans-Bold-56"/>
      </g>
     </g>
    </g>
    <g id="xtick_6">
     <g id="line2d_6">
      <g>
       <use style="stroke:#000000;stroke-width:2.8;" x="377.434522" xlink:href="#mad181b1d7b" y="252"/>
      </g>
     </g>
     <g id="text_6">
      <!-- 1.0 -->
      <defs>
       <path d="M 11.71875 12.984375 
L 28.328125 12.984375 
L 28.328125 60.109375 
L 11.28125 56.59375 
L 11.28125 69.390625 
L 28.21875 72.90625 
L 46.09375 72.90625 
L 46.09375 12.984375 
L 62.703125 12.984375 
L 62.703125 0 
L 11.71875 0 
z
" id="DejaVuSans-Bold-49"/>
      </defs>
      <g transform="translate(366.806085 268.118125)scale(0.12 -0.12)">
       <use xlink:href="#DejaVuSans-Bold-49"/>
       <use x="69.580078" xlink:href="#DejaVuSans-Bold-46"/>
       <use x="107.568359" xlink:href="#DejaVuSans-Bold-48"/>
      </g>
     </g>
    </g>
    <g id="text_7">
     <!-- Fraction of spots discarded (sorted by confidence) -->
     <defs>
      <path d="M 9.1875 72.90625 
L 59.90625 72.90625 
L 59.90625 58.6875 
L 27.984375 58.6875 
L 27.984375 45.125 
L 58.015625 45.125 
L 58.015625 30.90625 
L 27.984375 30.90625 
L 27.984375 0 
L 9.1875 0 
z
" id="DejaVuSans-Bold-70"/>
      <path d="M 49.03125 39.796875 
Q 46.734375 40.875 44.453125 41.375 
Q 42.1875 41.890625 39.890625 41.890625 
Q 33.15625 41.890625 29.515625 37.5625 
Q 25.875 33.25 25.875 25.203125 
L 25.875 0 
L 8.40625 0 
L 8.40625 54.6875 
L 25.875 54.6875 
L 25.875 45.703125 
Q 29.25 51.078125 33.609375 53.53125 
Q 37.984375 56 44.09375 56 
Q 44.96875 56 45.984375 55.921875 
Q 47.015625 55.859375 48.96875 55.609375 
z
" id="DejaVuSans-Bold-114"/>
      <path d="M 32.90625 24.609375 
Q 27.4375 24.609375 24.671875 22.75 
Q 21.921875 20.90625 21.921875 17.28125 
Q 21.921875 13.96875 24.140625 12.078125 
Q 26.375 10.203125 30.328125 10.203125 
Q 35.25 10.203125 38.625 13.734375 
Q 42 17.28125 42 22.609375 
L 42 24.609375 
z
M 59.625 31.203125 
L 59.625 0 
L 42 0 
L 42 8.109375 
Q 38.484375 3.125 34.078125 0.84375 
Q 29.6875 -1.421875 23.390625 -1.421875 
Q 14.890625 -1.421875 9.59375 3.53125 
Q 4.296875 8.5 4.296875 16.40625 
Q 4.296875 26.03125 10.90625 30.515625 
Q 17.53125 35.015625 31.6875 35.015625 
L 42 35.015625 
L 42 36.375 
Q 42 40.53125 38.71875 42.453125 
Q 35.453125 44.390625 28.515625 44.390625 
Q 22.90625 44.390625 18.0625 43.265625 
Q 13.234375 42.140625 9.078125 39.890625 
L 9.078125 53.21875 
Q 14.703125 54.59375 20.359375 55.296875 
Q 26.03125 56 31.6875 56 
Q 46.484375 56 53.046875 50.171875 
Q 59.625 44.34375 59.625 31.203125 
z
" id="DejaVuSans-Bold-97"/>
      <path d="M 52.59375 52.984375 
L 52.59375 38.71875 
Q 49.03125 41.15625 45.4375 42.328125 
Q 41.84375 43.5 37.984375 43.5 
Q 30.671875 43.5 26.59375 39.234375 
Q 22.515625 34.96875 22.515625 27.296875 
Q 22.515625 19.625 26.59375 15.34375 
Q 30.671875 11.078125 37.984375 11.078125 
Q 42.09375 11.078125 45.78125 12.296875 
Q 49.46875 13.53125 52.59375 15.921875 
L 52.59375 1.609375 
Q 48.484375 0.09375 44.265625 -0.65625 
Q 40.046875 -1.421875 35.796875 -1.421875 
Q 21 -1.421875 12.640625 6.171875 
Q 4.296875 13.765625 4.296875 27.296875 
Q 4.296875 40.828125 12.640625 48.40625 
Q 21 56 35.796875 56 
Q 40.09375 56 44.265625 55.25 
Q 48.4375 54.5 52.59375 52.984375 
z
" id="DejaVuSans-Bold-99"/>
      <path d="M 27.484375 70.21875 
L 27.484375 54.6875 
L 45.515625 54.6875 
L 45.515625 42.1875 
L 27.484375 42.1875 
L 27.484375 19 
Q 27.484375 15.1875 29 13.84375 
Q 30.515625 12.5 35.015625 12.5 
L 44 12.5 
L 44 0 
L 29 0 
Q 18.65625 0 14.328125 4.3125 
Q 10.015625 8.640625 10.015625 19 
L 10.015625 42.1875 
L 1.3125 42.1875 
L 1.3125 54.6875 
L 10.015625 54.6875 
L 10.015625 70.21875 
z
" id="DejaVuSans-Bold-116"/>
      <path d="M 8.40625 54.6875 
L 25.875 54.6875 
L 25.875 0 
L 8.40625 0 
z
M 8.40625 75.984375 
L 25.875 75.984375 
L 25.875 61.71875 
L 8.40625 61.71875 
z
" id="DejaVuSans-Bold-105"/>
      <path d="M 34.421875 43.5 
Q 28.609375 43.5 25.5625 39.328125 
Q 22.515625 35.15625 22.515625 27.296875 
Q 22.515625 19.4375 25.5625 15.25 
Q 28.609375 11.078125 34.421875 11.078125 
Q 40.140625 11.078125 43.15625 15.25 
Q 46.1875 19.4375 46.1875 27.296875 
Q 46.1875 35.15625 43.15625 39.328125 
Q 40.140625 43.5 34.421875 43.5 
z
M 34.421875 56 
Q 48.53125 56 56.46875 48.375 
Q 64.40625 40.765625 64.40625 27.296875 
Q 64.40625 13.8125 56.46875 6.1875 
Q 48.53125 -1.421875 34.421875 -1.421875 
Q 20.265625 -1.421875 12.28125 6.1875 
Q 4.296875 13.8125 4.296875 27.296875 
Q 4.296875 40.765625 12.28125 48.375 
Q 20.265625 56 34.421875 56 
z
" id="DejaVuSans-Bold-111"/>
      <path d="M 63.375 33.296875 
L 63.375 0 
L 45.796875 0 
L 45.796875 5.421875 
L 45.796875 25.484375 
Q 45.796875 32.5625 45.484375 35.25 
Q 45.171875 37.9375 44.390625 39.203125 
Q 43.359375 40.921875 41.59375 41.875 
Q 39.84375 42.828125 37.59375 42.828125 
Q 32.125 42.828125 29 38.59375 
Q 25.875 34.375 25.875 26.90625 
L 25.875 0 
L 8.40625 0 
L 8.40625 54.6875 
L 25.875 54.6875 
L 25.875 46.6875 
Q 29.828125 51.46875 34.265625 53.734375 
Q 38.71875 56 44.09375 56 
Q 53.5625 56 58.46875 50.1875 
Q 63.375 44.390625 63.375 33.296875 
z
" id="DejaVuSans-Bold-110"/>
      <path id="DejaVuSans-Bold-32"/>
      <path d="M 44.390625 75.984375 
L 44.390625 64.5 
L 34.71875 64.5 
Q 31 64.5 29.53125 63.15625 
Q 28.078125 61.8125 28.078125 58.5 
L 28.078125 54.6875 
L 43.015625 54.6875 
L 43.015625 42.1875 
L 28.078125 42.1875 
L 28.078125 0 
L 10.59375 0 
L 10.59375 42.1875 
L 1.90625 42.1875 
L 1.90625 54.6875 
L 10.59375 54.6875 
L 10.59375 58.5 
Q 10.59375 67.4375 15.578125 71.703125 
Q 20.5625 75.984375 31 75.984375 
z
" id="DejaVuSans-Bold-102"/>
      <path d="M 51.125 52.984375 
L 51.125 39.703125 
Q 45.515625 42.046875 40.28125 43.21875 
Q 35.0625 44.390625 30.421875 44.390625 
Q 25.4375 44.390625 23.015625 43.140625 
Q 20.609375 41.890625 20.609375 39.3125 
Q 20.609375 37.203125 22.4375 36.078125 
Q 24.265625 34.96875 29 34.421875 
L 32.078125 33.984375 
Q 45.515625 32.28125 50.140625 28.375 
Q 54.78125 24.46875 54.78125 16.109375 
Q 54.78125 7.375 48.328125 2.96875 
Q 41.890625 -1.421875 29.109375 -1.421875 
Q 23.6875 -1.421875 17.890625 -0.5625 
Q 12.109375 0.296875 6 2 
L 6 15.28125 
Q 11.234375 12.75 16.71875 11.46875 
Q 22.21875 10.203125 27.875 10.203125 
Q 33.015625 10.203125 35.59375 11.609375 
Q 38.1875 13.03125 38.1875 15.828125 
Q 38.1875 18.171875 36.40625 19.3125 
Q 34.625 20.453125 29.296875 21.09375 
L 26.21875 21.484375 
Q 14.546875 22.953125 9.859375 26.90625 
Q 5.171875 30.859375 5.171875 38.921875 
Q 5.171875 47.609375 11.125 51.796875 
Q 17.09375 56 29.390625 56 
Q 34.234375 56 39.546875 55.265625 
Q 44.875 54.546875 51.125 52.984375 
z
" id="DejaVuSans-Bold-115"/>
      <path d="M 25.875 7.90625 
L 25.875 -20.796875 
L 8.40625 -20.796875 
L 8.40625 54.6875 
L 25.875 54.6875 
L 25.875 46.6875 
Q 29.5 51.46875 33.890625 53.734375 
Q 38.28125 56 44 56 
Q 54.109375 56 60.59375 47.96875 
Q 67.09375 39.9375 67.09375 27.296875 
Q 67.09375 14.65625 60.59375 6.609375 
Q 54.109375 -1.421875 44 -1.421875 
Q 38.28125 -1.421875 33.890625 0.84375 
Q 29.5 3.125 25.875 7.90625 
z
M 37.5 43.3125 
Q 31.890625 43.3125 28.875 39.1875 
Q 25.875 35.0625 25.875 27.296875 
Q 25.875 19.53125 28.875 15.40625 
Q 31.890625 11.28125 37.5 11.28125 
Q 43.109375 11.28125 46.0625 15.375 
Q 49.03125 19.484375 49.03125 27.296875 
Q 49.03125 35.109375 46.0625 39.203125 
Q 43.109375 43.3125 37.5 43.3125 
z
" id="DejaVuSans-Bold-112"/>
      <path d="M 45.609375 46.6875 
L 45.609375 75.984375 
L 63.1875 75.984375 
L 63.1875 0 
L 45.609375 0 
L 45.609375 7.90625 
Q 42 3.078125 37.640625 0.828125 
Q 33.296875 -1.421875 27.59375 -1.421875 
Q 17.484375 -1.421875 10.984375 6.609375 
Q 4.5 14.65625 4.5 27.296875 
Q 4.5 39.9375 10.984375 47.96875 
Q 17.484375 56 27.59375 56 
Q 33.25 56 37.625 53.734375 
Q 42 51.46875 45.609375 46.6875 
z
M 34.078125 11.28125 
Q 39.703125 11.28125 42.65625 15.375 
Q 45.609375 19.484375 45.609375 27.296875 
Q 45.609375 35.109375 42.65625 39.203125 
Q 39.703125 43.3125 34.078125 43.3125 
Q 28.515625 43.3125 25.5625 39.203125 
Q 22.609375 35.109375 22.609375 27.296875 
Q 22.609375 19.484375 25.5625 15.375 
Q 28.515625 11.28125 34.078125 11.28125 
z
" id="DejaVuSans-Bold-100"/>
      <path d="M 62.984375 27.484375 
L 62.984375 22.515625 
L 22.125 22.515625 
Q 22.75 16.359375 26.5625 13.28125 
Q 30.375 10.203125 37.203125 10.203125 
Q 42.71875 10.203125 48.5 11.84375 
Q 54.296875 13.484375 60.40625 16.796875 
L 60.40625 3.328125 
Q 54.203125 0.984375 48 -0.21875 
Q 41.796875 -1.421875 35.59375 -1.421875 
Q 20.75 -1.421875 12.515625 6.125 
Q 4.296875 13.671875 4.296875 27.296875 
Q 4.296875 40.671875 12.375 48.328125 
Q 20.453125 56 34.625 56 
Q 47.515625 56 55.25 48.234375 
Q 62.984375 40.484375 62.984375 27.484375 
z
M 45.015625 33.296875 
Q 45.015625 38.28125 42.109375 41.328125 
Q 39.203125 44.390625 34.515625 44.390625 
Q 29.4375 44.390625 26.265625 41.53125 
Q 23.09375 38.671875 22.3125 33.296875 
z
" id="DejaVuSans-Bold-101"/>
      <path d="M 37.703125 -13.1875 
L 23.1875 -13.1875 
Q 15.71875 -1.125 12.15625 9.734375 
Q 8.59375 20.609375 8.59375 31.296875 
Q 8.59375 42 12.171875 52.953125 
Q 15.765625 63.921875 23.1875 75.875 
L 37.703125 75.875 
Q 31.453125 64.3125 28.328125 53.25 
Q 25.203125 42.1875 25.203125 31.390625 
Q 25.203125 20.609375 28.296875 9.515625 
Q 31.390625 -1.5625 37.703125 -13.1875 
z
" id="DejaVuSans-Bold-40"/>
      <path d="M 37.5 11.28125 
Q 43.109375 11.28125 46.0625 15.375 
Q 49.03125 19.484375 49.03125 27.296875 
Q 49.03125 35.109375 46.0625 39.203125 
Q 43.109375 43.3125 37.5 43.3125 
Q 31.890625 43.3125 28.875 39.1875 
Q 25.875 35.0625 25.875 27.296875 
Q 25.875 19.53125 28.875 15.40625 
Q 31.890625 11.28125 37.5 11.28125 
z
M 25.875 46.6875 
Q 29.5 51.46875 33.890625 53.734375 
Q 38.28125 56 44 56 
Q 54.109375 56 60.59375 47.96875 
Q 67.09375 39.9375 67.09375 27.296875 
Q 67.09375 14.65625 60.59375 6.609375 
Q 54.109375 -1.421875 44 -1.421875 
Q 38.28125 -1.421875 33.890625 0.84375 
Q 29.5 3.125 25.875 7.90625 
L 25.875 0 
L 8.40625 0 
L 8.40625 75.984375 
L 25.875 75.984375 
z
" id="DejaVuSans-Bold-98"/>
      <path d="M 1.21875 54.6875 
L 18.703125 54.6875 
L 33.40625 17.578125 
L 45.90625 54.6875 
L 63.375 54.6875 
L 40.375 -5.171875 
Q 36.921875 -14.3125 32.296875 -17.9375 
Q 27.6875 -21.578125 20.125 -21.578125 
L 10.015625 -21.578125 
L 10.015625 -10.109375 
L 15.484375 -10.109375 
Q 19.921875 -10.109375 21.9375 -8.6875 
Q 23.96875 -7.28125 25.09375 -3.609375 
L 25.59375 -2.09375 
z
" id="DejaVuSans-Bold-121"/>
      <path d="M 8.015625 -13.1875 
Q 14.265625 -1.5625 17.390625 9.515625 
Q 20.515625 20.609375 20.515625 31.390625 
Q 20.515625 42.1875 17.390625 53.25 
Q 14.265625 64.3125 8.015625 75.875 
L 22.515625 75.875 
Q 29.9375 63.921875 33.515625 52.953125 
Q 37.109375 42 37.109375 31.296875 
Q 37.109375 20.609375 33.546875 9.734375 
Q 29.984375 -1.125 22.515625 -13.1875 
z
" id="DejaVuSans-Bold-41"/>
     </defs>
     <g transform="translate(50.509688 287.731875)scale(0.12 -0.12)">
      <use xlink:href="#DejaVuSans-Bold-70"/>
      <use x="61.935547" xlink:href="#DejaVuSans-Bold-114"/>
      <use x="111.251953" xlink:href="#DejaVuSans-Bold-97"/>
      <use x="178.732422" xlink:href="#DejaVuSans-Bold-99"/>
      <use x="238.009766" xlink:href="#DejaVuSans-Bold-116"/>
      <use x="285.8125" xlink:href="#DejaVuSans-Bold-105"/>
      <use x="320.089844" xlink:href="#DejaVuSans-Bold-111"/>
      <use x="388.791016" xlink:href="#DejaVuSans-Bold-110"/>
      <use x="459.982422" xlink:href="#DejaVuSans-Bold-32"/>
      <use x="494.796875" xlink:href="#DejaVuSans-Bold-111"/>
      <use x="563.498047" xlink:href="#DejaVuSans-Bold-102"/>
      <use x="607.003906" xlink:href="#DejaVuSans-Bold-32"/>
      <use x="641.818359" xlink:href="#DejaVuSans-Bold-115"/>
      <use x="701.339844" xlink:href="#DejaVuSans-Bold-112"/>
      <use x="772.921875" xlink:href="#DejaVuSans-Bold-111"/>
      <use x="841.623047" xlink:href="#DejaVuSans-Bold-116"/>
      <use x="889.425781" xlink:href="#DejaVuSans-Bold-115"/>
      <use x="948.947266" xlink:href="#DejaVuSans-Bold-32"/>
      <use x="983.761719" xlink:href="#DejaVuSans-Bold-100"/>
      <use x="1055.34375" xlink:href="#DejaVuSans-Bold-105"/>
      <use x="1089.621094" xlink:href="#DejaVuSans-Bold-115"/>
      <use x="1149.142578" xlink:href="#DejaVuSans-Bold-99"/>
      <use x="1208.419922" xlink:href="#DejaVuSans-Bold-97"/>
      <use x="1275.900391" xlink:href="#DejaVuSans-Bold-114"/>
      <use x="1325.216797" xlink:href="#DejaVuSans-Bold-100"/>
      <use x="1396.798828" xlink:href="#DejaVuSans-Bold-101"/>
      <use x="1464.621094" xlink:href="#DejaVuSans-Bold-100"/>
      <use x="1536.203125" xlink:href="#DejaVuSans-Bold-32"/>
      <use x="1571.017578" xlink:href="#DejaVuSans-Bold-40"/>
      <use x="1616.720703" xlink:href="#DejaVuSans-Bold-115"/>
      <use x="1676.242188" xlink:href="#DejaVuSans-Bold-111"/>
      <use x="1744.943359" xlink:href="#DejaVuSans-Bold-114"/>
      <use x="1794.259766" xlink:href="#DejaVuSans-Bold-116"/>
      <use x="1842.0625" xlink:href="#DejaVuSans-Bold-101"/>
      <use x="1909.884766" xlink:href="#DejaVuSans-Bold-100"/>
      <use x="1981.466797" xlink:href="#DejaVuSans-Bold-32"/>
      <use x="2016.28125" xlink:href="#DejaVuSans-Bold-98"/>
      <use x="2087.863281" xlink:href="#DejaVuSans-Bold-121"/>
      <use x="2153.048828" xlink:href="#DejaVuSans-Bold-32"/>
      <use x="2187.863281" xlink:href="#DejaVuSans-Bold-99"/>
      <use x="2247.140625" xlink:href="#DejaVuSans-Bold-111"/>
      <use x="2315.841797" xlink:href="#DejaVuSans-Bold-110"/>
      <use x="2387.033203" xlink:href="#DejaVuSans-Bold-102"/>
      <use x="2430.539062" xlink:href="#DejaVuSans-Bold-105"/>
      <use x="2464.816406" xlink:href="#DejaVuSans-Bold-100"/>
      <use x="2536.398438" xlink:href="#DejaVuSans-Bold-101"/>
      <use x="2604.220703" xlink:href="#DejaVuSans-Bold-110"/>
      <use x="2675.412109" xlink:href="#DejaVuSans-Bold-99"/>
      <use x="2734.689453" xlink:href="#DejaVuSans-Bold-101"/>
      <use x="2802.511719" xlink:href="#DejaVuSans-Bold-41"/>
     </g>
    </g>
   </g>
   <g id="matplotlib.axis_2">
    <g id="ytick_1">
     <g id="line2d_7">
      <defs>
       <path d="M 0 0 
L -3.5 0 
" id="mbe3501278b" style="stroke:#000000;stroke-width:2.8;"/>
      </defs>
      <g>
       <use style="stroke:#000000;stroke-width:2.8;" x="54" xlink:href="#mbe3501278b" y="228.447505"/>
      </g>
     </g>
     <g id="text_8">
      <!-- 0.825 -->
      <defs>
       <path d="M 10.59375 72.90625 
L 57.328125 72.90625 
L 57.328125 59.078125 
L 25.59375 59.078125 
L 25.59375 47.796875 
Q 27.734375 48.390625 29.90625 48.703125 
Q 32.078125 49.03125 34.421875 49.03125 
Q 47.75 49.03125 55.171875 42.359375 
Q 62.59375 35.6875 62.59375 23.78125 
Q 62.59375 11.96875 54.515625 5.265625 
Q 46.4375 -1.421875 32.078125 -1.421875 
Q 25.875 -1.421875 19.796875 -0.21875 
Q 13.71875 0.984375 7.71875 3.421875 
L 7.71875 18.21875 
Q 13.671875 14.796875 19.015625 13.078125 
Q 24.359375 11.375 29.109375 11.375 
Q 35.9375 11.375 39.859375 14.71875 
Q 43.796875 18.0625 43.796875 23.78125 
Q 43.796875 29.546875 39.859375 32.859375 
Q 35.9375 36.1875 29.109375 36.1875 
Q 25.046875 36.1875 20.453125 35.125 
Q 15.875 34.078125 10.59375 31.890625 
z
" id="DejaVuSans-Bold-53"/>
      </defs>
      <g transform="translate(9.044375 233.006567)scale(0.12 -0.12)">
       <use xlink:href="#DejaVuSans-Bold-48"/>
       <use x="69.580078" xlink:href="#DejaVuSans-Bold-46"/>
       <use x="107.568359" xlink:href="#DejaVuSans-Bold-56"/>
       <use x="177.148438" xlink:href="#DejaVuSans-Bold-50"/>
       <use x="246.728516" xlink:href="#DejaVuSans-Bold-53"/>
      </g>
     </g>
    </g>
    <g id="ytick_2">
     <g id="line2d_8">
      <g>
       <use style="stroke:#000000;stroke-width:2.8;" x="54" xlink:href="#mbe3501278b" y="202.161238"/>
      </g>
     </g>
     <g id="text_9">
      <!-- 0.850 -->
      <g transform="translate(9.044375 206.7203)scale(0.12 -0.12)">
       <use xlink:href="#DejaVuSans-Bold-48"/>
       <use x="69.580078" xlink:href="#DejaVuSans-Bold-46"/>
       <use x="107.568359" xlink:href="#DejaVuSans-Bold-56"/>
       <use x="177.148438" xlink:href="#DejaVuSans-Bold-53"/>
       <use x="246.728516" xlink:href="#DejaVuSans-Bold-48"/>
      </g>
     </g>
    </g>
    <g id="ytick_3">
     <g id="line2d_9">
      <g>
       <use style="stroke:#000000;stroke-width:2.8;" x="54" xlink:href="#mbe3501278b" y="175.874971"/>
      </g>
     </g>
     <g id="text_10">
      <!-- 0.875 -->
      <defs>
       <path d="M 6.6875 72.90625 
L 61.625 72.90625 
L 61.625 62.3125 
L 33.203125 0 
L 14.890625 0 
L 41.796875 59.078125 
L 6.6875 59.078125 
z
" id="DejaVuSans-Bold-55"/>
      </defs>
      <g transform="translate(9.044375 180.434033)scale(0.12 -0.12)">
       <use xlink:href="#DejaVuSans-Bold-48"/>
       <use x="69.580078" xlink:href="#DejaVuSans-Bold-46"/>
       <use x="107.568359" xlink:href="#DejaVuSans-Bold-56"/>
       <use x="177.148438" xlink:href="#DejaVuSans-Bold-55"/>
       <use x="246.728516" xlink:href="#DejaVuSans-Bold-53"/>
      </g>
     </g>
    </g>
    <g id="ytick_4">
     <g id="line2d_10">
      <g>
       <use style="stroke:#000000;stroke-width:2.8;" x="54" xlink:href="#mbe3501278b" y="149.588704"/>
      </g>
     </g>
     <g id="text_11">
      <!-- 0.900 -->
      <defs>
       <path d="M 10.015625 1.609375 
L 10.015625 15.09375 
Q 14.5 12.984375 18.59375 11.9375 
Q 22.703125 10.890625 26.703125 10.890625 
Q 35.109375 10.890625 39.796875 15.546875 
Q 44.484375 20.21875 45.3125 29.390625 
Q 42 26.953125 38.234375 25.734375 
Q 34.46875 24.515625 30.078125 24.515625 
Q 18.890625 24.515625 12.03125 31.03125 
Q 5.171875 37.546875 5.171875 48.1875 
Q 5.171875 59.96875 12.8125 67.046875 
Q 20.453125 74.125 33.296875 74.125 
Q 47.5625 74.125 55.375 64.5 
Q 63.1875 54.890625 63.1875 37.3125 
Q 63.1875 19.234375 54.046875 8.90625 
Q 44.921875 -1.421875 29 -1.421875 
Q 23.875 -1.421875 19.1875 -0.65625 
Q 14.5 0.09375 10.015625 1.609375 
z
M 33.203125 36.71875 
Q 38.140625 36.71875 40.625 39.90625 
Q 43.109375 43.109375 43.109375 49.515625 
Q 43.109375 55.859375 40.625 59.078125 
Q 38.140625 62.3125 33.203125 62.3125 
Q 28.265625 62.3125 25.78125 59.078125 
Q 23.296875 55.859375 23.296875 49.515625 
Q 23.296875 43.109375 25.78125 39.90625 
Q 28.265625 36.71875 33.203125 36.71875 
z
" id="DejaVuSans-Bold-57"/>
      </defs>
      <g transform="translate(9.044375 154.147767)scale(0.12 -0.12)">
       <use xlink:href="#DejaVuSans-Bold-48"/>
       <use x="69.580078" xlink:href="#DejaVuSans-Bold-46"/>
       <use x="107.568359" xlink:href="#DejaVuSans-Bold-57"/>
       <use x="177.148438" xlink:href="#DejaVuSans-Bold-48"/>
       <use x="246.728516" xlink:href="#DejaVuSans-Bold-48"/>
      </g>
     </g>
    </g>
    <g id="ytick_5">
     <g id="line2d_11">
      <g>
       <use style="stroke:#000000;stroke-width:2.8;" x="54" xlink:href="#mbe3501278b" y="123.302437"/>
      </g>
     </g>
     <g id="text_12">
      <!-- 0.925 -->
      <g transform="translate(9.044375 127.8615)scale(0.12 -0.12)">
       <use xlink:href="#DejaVuSans-Bold-48"/>
       <use x="69.580078" xlink:href="#DejaVuSans-Bold-46"/>
       <use x="107.568359" xlink:href="#DejaVuSans-Bold-57"/>
       <use x="177.148438" xlink:href="#DejaVuSans-Bold-50"/>
       <use x="246.728516" xlink:href="#DejaVuSans-Bold-53"/>
      </g>
     </g>
    </g>
    <g id="ytick_6">
     <g id="line2d_12">
      <g>
       <use style="stroke:#000000;stroke-width:2.8;" x="54" xlink:href="#mbe3501278b" y="97.01617"/>
      </g>
     </g>
     <g id="text_13">
      <!-- 0.950 -->
      <g transform="translate(9.044375 101.575233)scale(0.12 -0.12)">
       <use xlink:href="#DejaVuSans-Bold-48"/>
       <use x="69.580078" xlink:href="#DejaVuSans-Bold-46"/>
       <use x="107.568359" xlink:href="#DejaVuSans-Bold-57"/>
       <use x="177.148438" xlink:href="#DejaVuSans-Bold-53"/>
       <use x="246.728516" xlink:href="#DejaVuSans-Bold-48"/>
      </g>
     </g>
    </g>
    <g id="ytick_7">
     <g id="line2d_13">
      <g>
       <use style="stroke:#000000;stroke-width:2.8;" x="54" xlink:href="#mbe3501278b" y="70.729903"/>
      </g>
     </g>
     <g id="text_14">
      <!-- 0.975 -->
      <g transform="translate(9.044375 75.288966)scale(0.12 -0.12)">
       <use xlink:href="#DejaVuSans-Bold-48"/>
       <use x="69.580078" xlink:href="#DejaVuSans-Bold-46"/>
       <use x="107.568359" xlink:href="#DejaVuSans-Bold-57"/>
       <use x="177.148438" xlink:href="#DejaVuSans-Bold-55"/>
       <use x="246.728516" xlink:href="#DejaVuSans-Bold-53"/>
      </g>
     </g>
    </g>
    <g id="ytick_8">
     <g id="line2d_14">
      <g>
       <use style="stroke:#000000;stroke-width:2.8;" x="54" xlink:href="#mbe3501278b" y="44.443636"/>
      </g>
     </g>
     <g id="text_15">
      <!-- 1.000 -->
      <g transform="translate(9.044375 49.002699)scale(0.12 -0.12)">
       <use xlink:href="#DejaVuSans-Bold-49"/>
       <use x="69.580078" xlink:href="#DejaVuSans-Bold-46"/>
       <use x="107.568359" xlink:href="#DejaVuSans-Bold-48"/>
       <use x="177.148438" xlink:href="#DejaVuSans-Bold-48"/>
       <use x="246.728516" xlink:href="#DejaVuSans-Bold-48"/>
      </g>
     </g>
    </g>
    <g id="text_16">
     <!-- Accuracy -->
     <defs>
      <path d="M 53.421875 13.28125 
L 24.03125 13.28125 
L 19.390625 0 
L 0.484375 0 
L 27.484375 72.90625 
L 49.90625 72.90625 
L 76.90625 0 
L 58.015625 0 
z
M 28.71875 26.8125 
L 48.6875 26.8125 
L 38.71875 55.8125 
z
" id="DejaVuSans-Bold-65"/>
      <path d="M 7.8125 21.296875 
L 7.8125 54.6875 
L 25.390625 54.6875 
L 25.390625 49.21875 
Q 25.390625 44.78125 25.34375 38.0625 
Q 25.296875 31.34375 25.296875 29.109375 
Q 25.296875 22.515625 25.640625 19.609375 
Q 25.984375 16.703125 26.8125 15.375 
Q 27.875 13.671875 29.609375 12.734375 
Q 31.34375 11.8125 33.59375 11.8125 
Q 39.0625 11.8125 42.1875 16.015625 
Q 45.3125 20.21875 45.3125 27.6875 
L 45.3125 54.6875 
L 62.796875 54.6875 
L 62.796875 0 
L 45.3125 0 
L 45.3125 7.90625 
Q 41.359375 3.125 36.9375 0.84375 
Q 32.515625 -1.421875 27.203125 -1.421875 
Q 17.71875 -1.421875 12.765625 4.390625 
Q 7.8125 10.203125 7.8125 21.296875 
z
" id="DejaVuSans-Bold-117"/>
     </defs>
     <g transform="translate(-1.545 173.784375)rotate(-90)scale(0.12 -0.12)">
      <use xlink:href="#DejaVuSans-Bold-65"/>
      <use x="77.392578" xlink:href="#DejaVuSans-Bold-99"/>
      <use x="136.669922" xlink:href="#DejaVuSans-Bold-99"/>
      <use x="195.947266" xlink:href="#DejaVuSans-Bold-117"/>
      <use x="267.138672" xlink:href="#DejaVuSans-Bold-114"/>
      <use x="316.455078" xlink:href="#DejaVuSans-Bold-97"/>
      <use x="383.935547" xlink:href="#DejaVuSans-Bold-99"/>
      <use x="443.212891" xlink:href="#DejaVuSans-Bold-121"/>
     </g>
    </g>
   </g>
   <g id="line2d_15">
    <path clip-path="url(#p579f5c90f8)" d="M 69.218182 242.116364 
L 69.988723 239.976569 
L 69.988723 239.976569 
L 70.142831 240.07463 
L 70.142831 240.07463 
L 70.451047 239.74321 
L 70.451047 239.74321 
L 70.913372 238.451881 
L 70.913372 238.451881 
L 71.375696 238.744945 
L 71.375696 238.744945 
L 71.992129 238.606577 
L 72.300345 238.271665 
L 72.454453 238.369608 
L 73.070886 237.165229 
L 73.224994 236.730209 
L 74.149643 237.316449 
L 74.766076 237.173903 
L 75.536617 236.592356 
L 75.690725 236.153489 
L 75.844833 236.25145 
L 77.540023 233.55347 
L 78.156456 233.401559 
L 78.61878 232.06712 
L 78.772888 232.163933 
L 79.851646 231.755409 
L 80.468078 231.052942 
L 80.622186 230.603907 
L 80.930403 230.797421 
L 81.392727 229.993756 
L 81.855052 229.735779 
L 82.471484 229.024319 
L 82.779701 229.217395 
L 84.320783 227.4248 
L 84.628999 226.510622 
L 84.937215 226.148495 
L 85.091323 225.69001 
L 85.707756 224.96211 
L 86.324189 224.787744 
L 86.478297 224.326353 
L 86.478297 224.326353 
L 87.86527 223.509212 
L 89.406352 221.654425 
L 89.868677 221.375851 
L 89.868677 221.375851 
L 90.331001 220.531995 
L 90.639217 220.721235 
L 92.026191 217.60371 
L 92.334407 216.654207 
L 93.104948 214.841334 
L 95.416571 212.790657 
L 95.878895 213.067089 
L 97.419977 211.101751 
L 97.882301 210.218109 
L 98.806951 209.023582 
L 99.577491 207.147318 
L 100.193924 206.924619 
L 100.193924 206.924619 
L 100.810357 206.115161 
L 100.964465 205.619186 
L 101.580898 204.80455 
L 102.19733 205.163701 
L 102.813763 203.754345 
L 103.738412 202.516458 
L 104.200736 202.19089 
L 104.508953 201.77533 
L 105.125386 202.131485 
L 105.433602 201.714446 
L 106.050035 201.474601 
L 106.358251 201.653146 
L 107.437008 199.280551 
L 107.899333 198.343793 
L 108.823982 197.667086 
L 108.97809 197.755044 
L 109.902739 197.073573 
L 110.056847 197.161544 
L 110.981496 195.867129 
L 111.906145 195.784187 
L 111.906145 195.784187 
L 112.36847 195.436844 
L 112.676686 195.612622 
L 112.830794 195.088288 
L 112.830794 195.088288 
L 113.13901 195.263967 
L 113.601335 194.91409 
L 113.755443 195.002033 
L 114.063659 193.947741 
L 114.371876 194.122907 
L 114.8342 193.769378 
L 114.988308 193.857062 
L 114.988308 193.857062 
L 115.604741 192.971101 
L 116.375282 190.926729 
L 116.683498 191.099877 
L 117.299931 190.201609 
L 117.916364 190.547828 
L 118.686904 187.851739 
L 118.841013 187.937203 
L 119.611554 186.480608 
L 120.073878 186.735764 
L 120.844419 185.268562 
L 121.769068 184.510303 
L 122.539609 184.933721 
L 122.847825 184.467334 
L 123.464258 184.807198 
L 123.772474 184.338957 
L 126.084097 185.625548 
L 126.546421 184.594003 
L 126.700529 184.680143 
L 127.47107 184.464195 
L 128.703936 185.158225 
L 129.16626 184.114924 
L 130.090909 183.326841 
L 130.399125 183.50012 
L 131.015558 183.190411 
L 131.786099 182.965997 
L 132.248423 181.905447 
L 132.402532 181.991901 
L 133.481289 179.279067 
L 133.635397 179.364298 
L 133.789505 179.449637 
L 134.097722 178.288846 
L 134.25183 178.373666 
L 135.330587 177.631851 
L 135.638803 177.801625 
L 136.409344 176.883396 
L 136.871669 175.790774 
L 137.796318 175.621406 
L 137.950426 175.02921 
L 138.41275 174.603875 
L 138.720967 174.771932 
L 139.029183 173.581082 
L 139.337399 173.74825 
L 139.799724 173.317941 
L 139.799724 173.317941 
L 140.262048 171.519547 
L 140.416157 171.602171 
L 140.724373 170.398665 
L 141.186697 169.959275 
L 141.80313 169.599963 
L 143.035995 170.258247 
L 143.960644 168.674442 
L 144.114753 168.756497 
L 144.114753 168.756497 
L 145.347618 166.62416 
L 146.272267 165.710948 
L 146.8887 166.035192 
L 147.505132 164.951723 
L 148.275673 163.235643 
L 148.737998 163.475788 
L 149.35443 161.666178 
L 150.124971 159.924999 
L 150.587296 160.160355 
L 151.820161 159.356279 
L 152.128377 158.794291 
L 152.898918 159.18671 
L 153.515351 158.778947 
L 154.44 159.25304 
L 155.056433 158.842636 
L 156.443406 159.560621 
L 157.059839 158.412066 
L 157.213947 158.49182 
L 158.138596 156.756007 
L 158.292704 156.834989 
L 158.909137 156.410528 
L 159.063245 156.489545 
L 159.063245 156.489545 
L 159.52557 155.983666 
L 159.679678 156.062604 
L 160.604327 154.296692 
L 161.066651 154.531421 
L 161.683084 154.094921 
L 162.761841 154.645933 
L 163.378274 153.449322 
L 163.378274 153.449322 
L 164.457031 152.479813 
L 164.765247 151.874466 
L 165.227572 151.34494 
L 165.38168 151.42263 
L 165.998113 149.435431 
L 166.152221 149.512012 
L 166.768654 149.050287 
L 168.001519 145.023907 
L 169.080276 143.989263 
L 170.621358 144.731033 
L 171.237791 142.673333 
L 171.854223 142.967875 
L 172.470656 141.68306 
L 172.624764 141.756227 
L 173.549413 141.402807 
L 173.857629 140.753653 
L 174.474062 141.046166 
L 174.782278 140.393508 
L 175.244603 139.811495 
L 175.706928 140.030062 
L 176.169252 139.44454 
L 176.169252 139.44454 
L 176.631577 139.663268 
L 177.556226 139.293081 
L 178.480875 139.733899 
L 179.097307 139.213084 
L 179.867848 138.762535 
L 180.484281 137.41228 
L 181.100713 136.878861 
L 181.717146 134.686254 
L 181.717146 134.686254 
L 182.487687 133.380571 
L 183.412336 133.804417 
L 183.720552 133.110121 
L 184.182877 131.645287 
L 184.336985 131.714882 
L 185.107526 131.222018 
L 186.032175 130.794658 
L 187.110932 131.284097 
L 187.881473 129.927431 
L 188.806122 129.487441 
L 190.501312 130.258655 
L 191.425961 128.942987 
L 192.35061 129.365132 
L 193.429367 128.982384 
L 193.737583 129.124228 
L 194.354016 128.524288 
L 194.970449 128.808344 
L 195.895098 128.345473 
L 196.665639 126.910356 
L 197.744396 126.503681 
L 198.977261 127.070589 
L 199.439586 125.464511 
L 201.288884 126.315124 
L 201.905316 124.756375 
L 202.675857 125.110487 
L 203.29229 124.465546 
L 203.446398 124.536425 
L 203.908723 123.816023 
L 205.141588 124.383983 
L 206.220345 123.941257 
L 207.144994 123.42138 
L 208.37786 123.038856 
L 209.1484 120.510123 
L 210.535374 119.200517 
L 210.997699 119.408175 
L 212.230564 117.02512 
L 213.617537 117.639638 
L 214.696295 117.129147 
L 215.312727 117.405518 
L 216.853809 117.096658 
L 218.240783 117.729647 
L 219.165432 115.086379 
L 219.473648 115.224219 
L 220.398297 114.609138 
L 220.552405 114.678063 
L 221.322946 112.948814 
L 225.946191 115.039511 
L 227.179056 112.383526 
L 228.874246 112.068057 
L 229.953003 111.464003 
L 230.569436 111.745306 
L 231.339977 109.882022 
L 232.418734 109.251436 
L 234.113924 106.626203 
L 234.884465 104.688918 
L 236.425547 105.347337 
L 238.583061 103.959712 
L 239.970035 101.023942 
L 241.357008 99.219096 
L 242.281657 98.394925 
L 243.514522 97.681645 
L 244.130955 97.927833 
L 245.517929 97.261836 
L 248.291876 94.632213 
L 250.295282 90.32512 
L 251.836364 90.888083 
L 252.915121 89.989148 
L 253.83977 87.707816 
L 260.158205 90.038738 
L 261.236962 89.067538 
L 262.315719 86.670571 
L 265.397883 87.832248 
L 266.168423 86.67642 
L 267.555397 82.785456 
L 270.175236 83.721966 
L 271.408101 81.122148 
L 274.644373 82.276944 
L 275.877238 79.545176 
L 276.339563 78.102881 
L 276.647779 78.205814 
L 277.110104 75.131137 
L 279.575834 75.904365 
L 280.038159 74.390016 
L 280.038159 74.390016 
L 284.507296 75.830224 
L 285.123728 74.284474 
L 286.510702 74.739673 
L 286.973026 73.10328 
L 292.675029 75.031292 
L 293.291461 75.255378 
L 293.44557 73.382646 
L 294.678435 73.813767 
L 295.294868 72.061478 
L 296.065409 70.331627 
L 298.685247 71.192871 
L 299.147572 69.281054 
L 299.455788 69.379226 
L 299.918113 67.437588 
L 302.383843 68.193036 
L 303.154384 66.257966 
L 307.315305 67.552442 
L 308.239954 65.519485 
L 311.013901 66.399683 
L 311.93855 64.235649 
L 313.171415 62.093888 
L 313.787848 59.718949 
L 317.178228 60.578429 
L 318.102877 58.09884 
L 321.18504 58.84707 
L 322.263797 50.317662 
L 329.815098 51.249142 
L 331.047963 51.43002 
L 333.051369 48.094507 
L 340.140345 48.788474 
L 345.534131 49.523108 
L 350.465593 50.451926 
L 352.314891 50.894254 
L 354.164189 44.443636 
L 373.581818 44.443636 
L 373.581818 44.443636 
" style="fill:none;stroke:#06d6a0;stroke-linecap:square;stroke-width:1.5;"/>
   </g>
   <g id="line2d_16">
    <path clip-path="url(#p579f5c90f8)" d="M 69.218182 143.980967 
L 69.629137 144.113861 
L 69.629137 144.113861 
L 70.24557 143.610556 
L 70.451047 143.676933 
L 71.683913 141.250587 
L 72.505823 141.511522 
L 72.505823 141.511522 
L 73.122255 139.578269 
L 73.533211 139.706916 
L 73.944166 138.412146 
L 73.944166 138.412146 
L 74.149643 138.475811 
L 74.560598 137.176735 
L 74.560598 137.176735 
L 74.971554 137.302731 
L 75.382509 136.713798 
L 75.382509 136.713798 
L 75.587986 136.06085 
L 76.204419 136.248334 
L 76.204419 136.248334 
L 77.026329 133.622764 
L 77.026329 133.622764 
L 77.642762 133.806134 
L 78.053717 132.485491 
L 78.053717 132.485491 
L 78.259194 132.54596 
L 78.67015 131.944002 
L 78.67015 131.944002 
L 79.286582 132.124913 
L 79.49206 131.460244 
L 79.49206 131.460244 
L 80.108493 131.640652 
L 80.108493 131.640652 
L 80.519448 130.306045 
L 80.519448 130.306045 
L 81.13588 130.484677 
L 81.546835 129.874004 
L 81.752313 129.933372 
L 81.752313 129.933372 
L 82.163268 128.588958 
L 82.368746 128.647555 
L 82.779701 127.298536 
L 83.190656 126.680002 
L 83.190656 126.680002 
L 83.396133 126.73747 
L 84.012566 124.701426 
L 84.423521 124.076647 
L 84.423521 124.076647 
L 84.628999 124.13253 
L 84.628999 124.13253 
L 85.039954 123.505634 
L 85.245432 123.561233 
L 85.656387 122.19175 
L 85.656387 122.19175 
L 86.272819 121.614328 
L 86.478297 120.926277 
L 86.478297 120.926277 
L 86.683774 120.980329 
L 87.505685 120.452119 
L 87.711162 120.506026 
L 88.122117 119.8673 
L 88.122117 119.8673 
L 88.327595 119.920906 
L 88.944028 117.835493 
L 88.944028 117.835493 
L 89.354983 117.940189 
L 89.765938 117.294148 
L 90.382371 115.945293 
L 90.382371 115.945293 
L 90.587848 115.996512 
L 90.998803 114.590633 
L 91.615236 114.74192 
L 92.437146 113.428504 
L 92.642624 112.719654 
L 92.642624 112.719654 
L 92.848101 112.768951 
L 93.053579 112.0586 
L 93.464534 111.395633 
L 93.464534 111.395633 
L 93.670012 110.682745 
L 93.875489 110.730744 
L 93.875489 110.730744 
L 94.080967 110.01634 
L 94.080967 110.01634 
L 96.546697 110.59196 
L 96.957652 109.148293 
L 97.574085 109.290815 
L 97.98504 107.839927 
L 98.601473 107.980081 
L 99.012428 106.521905 
L 99.423383 106.613669 
L 99.834338 105.149153 
L 100.450771 105.284254 
L 100.450771 105.284254 
L 100.656249 104.548835 
L 101.067204 104.63821 
L 101.067204 104.63821 
L 101.478159 103.94494 
L 101.478159 103.94494 
L 101.683636 103.989278 
L 102.094591 102.508823 
L 102.711024 101.066261 
L 102.711024 101.066261 
L 103.327457 101.193598 
L 103.532934 100.447386 
L 103.532934 100.447386 
L 103.738412 100.489431 
L 103.738412 100.489431 
L 103.94389 99.741568 
L 104.149367 99.783146 
L 105.793188 96.936635 
L 105.998665 96.976373 
L 106.40962 96.258871 
L 108.258918 96.614853 
L 108.464396 95.851462 
L 109.080829 95.164458 
L 110.930127 95.516414 
L 110.930127 95.516414 
L 111.546559 94.822262 
L 111.546559 94.822262 
L 111.752037 94.048038 
L 111.752037 94.048038 
L 112.779425 94.240602 
L 112.984902 93.462316 
L 113.19038 93.500433 
L 113.601335 92.757959 
L 115.450633 93.099001 
L 115.861588 92.34948 
L 116.683498 92.500484 
L 116.683498 92.500484 
L 117.299931 91.783833 
L 117.299931 91.783833 
L 117.710886 91.026894 
L 119.765662 91.398372 
L 119.765662 91.398372 
L 120.176617 89.793745 
L 122.025915 90.122105 
L 122.025915 90.122105 
L 123.053303 89.457276 
L 125.108078 89.823837 
L 125.313556 89.003893 
L 126.135466 89.149634 
L 126.340944 88.325784 
L 126.340944 88.325784 
L 126.751899 87.535877 
L 126.751899 87.535877 
L 127.162854 87.606636 
L 127.984764 86.882749 
L 128.806674 87.023044 
L 128.806674 87.023044 
L 129.423107 86.257748 
L 129.423107 86.257748 
L 130.03954 86.361936 
L 130.655972 85.591165 
L 131.066928 83.905922 
L 132.094315 84.071174 
L 132.094315 84.071174 
L 132.916226 83.320804 
L 133.532658 82.533257 
L 133.943613 81.710243 
L 134.765524 81.836463 
L 135.176479 81.008079 
L 136.820299 81.257879 
L 137.025777 80.390668 
L 138.258642 78.769346 
L 139.080552 78.88771 
L 139.902463 78.097335 
L 139.902463 78.097335 
L 140.518895 78.184898 
L 141.751761 76.528008 
L 142.162716 75.665753 
L 143.806536 75.885433 
L 144.422969 75.041407 
L 146.066789 75.258798 
L 146.477745 74.378175 
L 146.8887 74.431534 
L 147.505132 73.572297 
L 149.559908 73.834954 
L 150.176341 72.963998 
L 150.176341 72.963998 
L 152.847549 73.303216 
L 153.258504 72.392371 
L 155.31328 72.650916 
L 155.929712 71.754044 
L 157.368055 71.932543 
L 158.395443 71.075126 
L 158.600921 71.100132 
L 158.600921 71.100132 
L 158.806398 70.13698 
L 162.710472 70.604132 
L 162.915949 69.622053 
L 164.970725 69.865558 
L 165.998113 68.967267 
L 166.820023 69.062969 
L 167.641933 68.129597 
L 169.491231 68.340243 
L 170.313142 67.391965 
L 170.313142 67.391965 
L 172.16244 67.598706 
L 172.573395 66.590541 
L 176.682946 67.043907 
L 177.299379 66.033999 
L 180.58702 66.39459 
L 181.203452 65.36255 
L 182.025362 64.344911 
L 183.258228 64.471268 
L 184.491093 62.359729 
L 185.929436 62.494292 
L 187.367779 61.494188 
L 192.093763 61.928958 
L 193.326628 60.872553 
L 202.367641 61.720995 
L 203.805984 59.37548 
L 215.518205 60.455576 
L 216.545593 59.214974 
L 217.778458 59.329038 
L 218.805846 58.063464 
L 219.833234 58.15225 
L 221.271577 56.895026 
L 223.737307 55.689098 
L 225.586605 54.40325 
L 227.641381 54.539871 
L 229.490679 53.205725 
L 234.216663 53.494862 
L 236.476916 52.107271 
L 238.326214 50.656048 
L 250.654868 51.260172 
L 253.531554 49.674734 
L 257.435627 49.844924 
L 260.312313 48.132937 
L 264.627342 48.274058 
L 268.325938 44.443636 
L 363.462048 44.443636 
L 363.462048 44.443636 
" style="fill:none;stroke:#073b4c;stroke-linecap:square;stroke-width:1.5;"/>
   </g>
   <g id="patch_3">
    <path d="M 54 252 
L 54 34.56 
" style="fill:none;stroke:#000000;stroke-linecap:square;stroke-linejoin:miter;stroke-width:2.8;"/>
   </g>
   <g id="patch_4">
    <path d="M 388.8 252 
L 388.8 34.56 
" style="fill:none;stroke:#000000;stroke-linecap:square;stroke-linejoin:miter;stroke-width:2.8;"/>
   </g>
   <g id="patch_5">
    <path d="M 54 252 
L 388.8 252 
" style="fill:none;stroke:#000000;stroke-linecap:square;stroke-linejoin:miter;stroke-width:2.8;"/>
   </g>
   <g id="patch_6">
    <path d="M 54 34.56 
L 388.8 34.56 
" style="fill:none;stroke:#000000;stroke-linecap:square;stroke-linejoin:miter;stroke-width:2.8;"/>
   </g>
   <g id="legend_1">
    <g id="patch_7">
     <path d="M 301.411875 246 
L 380.4 246 
Q 382.8 246 382.8 243.6 
L 382.8 209.5725 
Q 382.8 207.1725 380.4 207.1725 
L 301.411875 207.1725 
Q 299.011875 207.1725 299.011875 209.5725 
L 299.011875 243.6 
Q 299.011875 246 301.411875 246 
z
" style="fill:#ffffff;opacity:0.8;stroke:#cccccc;stroke-linejoin:miter;"/>
    </g>
    <g id="line2d_17">
     <path d="M 303.811875 216.890625 
L 327.811875 216.890625 
" style="fill:none;stroke:#06d6a0;stroke-linecap:square;stroke-width:1.5;"/>
    </g>
    <g id="line2d_18"/>
    <g id="text_17">
     <!-- Green -->
     <defs>
      <path d="M 74.703125 5.421875 
Q 67.671875 2 60.109375 0.28125 
Q 52.546875 -1.421875 44.484375 -1.421875 
Q 26.265625 -1.421875 15.625 8.765625 
Q 4.984375 18.953125 4.984375 36.375 
Q 4.984375 54 15.8125 64.109375 
Q 26.65625 74.21875 45.515625 74.21875 
Q 52.78125 74.21875 59.4375 72.84375 
Q 66.109375 71.484375 72.015625 68.796875 
L 72.015625 53.71875 
Q 65.921875 57.171875 59.890625 58.875 
Q 53.859375 60.59375 47.796875 60.59375 
Q 36.578125 60.59375 30.5 54.3125 
Q 24.421875 48.046875 24.421875 36.375 
Q 24.421875 24.8125 30.28125 18.5 
Q 36.140625 12.203125 46.921875 12.203125 
Q 49.859375 12.203125 52.375 12.5625 
Q 54.890625 12.9375 56.890625 13.71875 
L 56.890625 27.875 
L 45.40625 27.875 
L 45.40625 40.484375 
L 74.703125 40.484375 
z
" id="DejaVuSans-Bold-71"/>
     </defs>
     <g transform="translate(337.411875 221.090625)scale(0.12 -0.12)">
      <use xlink:href="#DejaVuSans-Bold-71"/>
      <use x="82.080078" xlink:href="#DejaVuSans-Bold-114"/>
      <use x="131.396484" xlink:href="#DejaVuSans-Bold-101"/>
      <use x="199.21875" xlink:href="#DejaVuSans-Bold-101"/>
      <use x="267.041016" xlink:href="#DejaVuSans-Bold-110"/>
     </g>
    </g>
    <g id="line2d_19">
     <path d="M 303.811875 234.504375 
L 327.811875 234.504375 
" style="fill:none;stroke:#073b4c;stroke-linecap:square;stroke-width:1.5;"/>
    </g>
    <g id="line2d_20"/>
    <g id="text_18">
     <!-- Blue -->
     <defs>
      <path d="M 38.375 44.671875 
Q 42.828125 44.671875 45.109375 46.625 
Q 47.40625 48.578125 47.40625 52.390625 
Q 47.40625 56.15625 45.109375 58.125 
Q 42.828125 60.109375 38.375 60.109375 
L 27.984375 60.109375 
L 27.984375 44.671875 
z
M 39.015625 12.796875 
Q 44.671875 12.796875 47.53125 15.1875 
Q 50.390625 17.578125 50.390625 22.40625 
Q 50.390625 27.15625 47.5625 29.515625 
Q 44.734375 31.890625 39.015625 31.890625 
L 27.984375 31.890625 
L 27.984375 12.796875 
z
M 56.5 39.015625 
Q 62.546875 37.25 65.859375 32.515625 
Q 69.1875 27.78125 69.1875 20.90625 
Q 69.1875 10.359375 62.0625 5.171875 
Q 54.9375 0 40.375 0 
L 9.1875 0 
L 9.1875 72.90625 
L 37.40625 72.90625 
Q 52.59375 72.90625 59.40625 68.3125 
Q 66.21875 63.71875 66.21875 53.609375 
Q 66.21875 48.296875 63.71875 44.5625 
Q 61.234375 40.828125 56.5 39.015625 
z
" id="DejaVuSans-Bold-66"/>
      <path d="M 8.40625 75.984375 
L 25.875 75.984375 
L 25.875 0 
L 8.40625 0 
z
" id="DejaVuSans-Bold-108"/>
     </defs>
     <g transform="translate(337.411875 238.704375)scale(0.12 -0.12)">
      <use xlink:href="#DejaVuSans-Bold-66"/>
      <use x="76.220703" xlink:href="#DejaVuSans-Bold-108"/>
      <use x="110.498047" xlink:href="#DejaVuSans-Bold-117"/>
      <use x="181.689453" xlink:href="#DejaVuSans-Bold-101"/>
     </g>
    </g>
   </g>
  </g>
 </g>
 <defs>
  <clipPath id="p579f5c90f8">
   <rect height="217.44" width="334.8" x="54" y="34.56"/>
  </clipPath>
 </defs>
</svg>
