<?xml version="1.0" encoding="utf-8" standalone="no"?>
<!DOCTYPE svg PUBLIC "-//W3C//DTD SVG 1.1//EN"
  "http://www.w3.org/Graphics/SVG/1.1/DTD/svg11.dtd">
<!-- Created with matplotlib (https://matplotlib.org/) -->
<svg height="216pt" version="1.1" viewBox="0 0 360 216" width="360pt" xmlns="http://www.w3.org/2000/svg" xmlns:xlink="http://www.w3.org/1999/xlink">
 <defs>
  <style type="text/css">
*{stroke-linecap:butt;stroke-linejoin:round;}
  </style>
 </defs>
 <g id="figure_1">
  <g id="patch_1">
   <path d="M 0 216 
L 360 216 
L 360 0 
L 0 0 
z
" style="fill:#ffffff;"/>
  </g>
  <g id="axes_1">
   <g id="patch_2">
    <path d="M 45 189 
L 324 189 
L 324 25.92 
L 45 25.92 
z
" style="fill:#ffffff;"/>
   </g>
   <g id="matplotlib.axis_1">
    <g id="xtick_1">
     <g id="line2d_1">
      <defs>
       <path d="M 0 0 
L 0 3.5 
" id="m672fc2e693" style="stroke:#000000;stroke-width:2.8;"/>
      </defs>
      <g>
       <use style="stroke:#000000;stroke-width:2.8;" x="54.471231" xlink:href="#m672fc2e693" y="189"/>
      </g>
     </g>
     <g id="text_1">
      <!-- 0 -->
      <defs>
       <path d="M 46 36.53125 
Q 46 50.203125 43.4375 55.78125 
Q 40.875 61.375 34.8125 61.375 
Q 28.765625 61.375 26.171875 55.78125 
Q 23.578125 50.203125 23.578125 36.53125 
Q 23.578125 22.703125 26.171875 17.03125 
Q 28.765625 11.375 34.8125 11.375 
Q 40.828125 11.375 43.40625 17.03125 
Q 46 22.703125 46 36.53125 
z
M 64.796875 36.375 
Q 64.796875 18.265625 56.984375 8.421875 
Q 49.171875 -1.421875 34.8125 -1.421875 
Q 20.40625 -1.421875 12.59375 8.421875 
Q 4.78125 18.265625 4.78125 36.375 
Q 4.78125 54.546875 12.59375 64.375 
Q 20.40625 74.21875 34.8125 74.21875 
Q 49.171875 74.21875 56.984375 64.375 
Q 64.796875 54.546875 64.796875 36.375 
z
" id="DejaVuSans-Bold-48"/>
      </defs>
      <g transform="translate(50.296544 205.118125)scale(0.12 -0.12)">
       <use xlink:href="#DejaVuSans-Bold-48"/>
      </g>
     </g>
    </g>
    <g id="xtick_2">
     <g id="line2d_2">
      <g>
       <use style="stroke:#000000;stroke-width:2.8;" x="118.682969" xlink:href="#m672fc2e693" y="189"/>
      </g>
     </g>
     <g id="text_2">
      <!-- 1000 -->
      <defs>
       <path d="M 11.71875 12.984375 
L 28.328125 12.984375 
L 28.328125 60.109375 
L 11.28125 56.59375 
L 11.28125 69.390625 
L 28.21875 72.90625 
L 46.09375 72.90625 
L 46.09375 12.984375 
L 62.703125 12.984375 
L 62.703125 0 
L 11.71875 0 
z
" id="DejaVuSans-Bold-49"/>
      </defs>
      <g transform="translate(101.984219 205.118125)scale(0.12 -0.12)">
       <use xlink:href="#DejaVuSans-Bold-49"/>
       <use x="69.580078" xlink:href="#DejaVuSans-Bold-48"/>
       <use x="139.160156" xlink:href="#DejaVuSans-Bold-48"/>
       <use x="208.740234" xlink:href="#DejaVuSans-Bold-48"/>
      </g>
     </g>
    </g>
    <g id="xtick_3">
     <g id="line2d_3">
      <g>
       <use style="stroke:#000000;stroke-width:2.8;" x="182.894707" xlink:href="#m672fc2e693" y="189"/>
      </g>
     </g>
     <g id="text_3">
      <!-- 2000 -->
      <defs>
       <path d="M 28.8125 13.8125 
L 60.890625 13.8125 
L 60.890625 0 
L 7.90625 0 
L 7.90625 13.8125 
L 34.515625 37.3125 
Q 38.09375 40.53125 39.796875 43.609375 
Q 41.5 46.6875 41.5 50 
Q 41.5 55.125 38.0625 58.25 
Q 34.625 61.375 28.90625 61.375 
Q 24.515625 61.375 19.28125 59.5 
Q 14.0625 57.625 8.109375 53.90625 
L 8.109375 69.921875 
Q 14.453125 72.015625 20.65625 73.109375 
Q 26.859375 74.21875 32.8125 74.21875 
Q 45.90625 74.21875 53.15625 68.453125 
Q 60.40625 62.703125 60.40625 52.390625 
Q 60.40625 46.4375 57.328125 41.28125 
Q 54.25 36.140625 44.390625 27.484375 
z
" id="DejaVuSans-Bold-50"/>
      </defs>
      <g transform="translate(166.195957 205.118125)scale(0.12 -0.12)">
       <use xlink:href="#DejaVuSans-Bold-50"/>
       <use x="69.580078" xlink:href="#DejaVuSans-Bold-48"/>
       <use x="139.160156" xlink:href="#DejaVuSans-Bold-48"/>
       <use x="208.740234" xlink:href="#DejaVuSans-Bold-48"/>
      </g>
     </g>
    </g>
    <g id="xtick_4">
     <g id="line2d_4">
      <g>
       <use style="stroke:#000000;stroke-width:2.8;" x="247.106444" xlink:href="#m672fc2e693" y="189"/>
      </g>
     </g>
     <g id="text_4">
      <!-- 3000 -->
      <defs>
       <path d="M 46.578125 39.3125 
Q 53.953125 37.40625 57.78125 32.6875 
Q 61.625 27.984375 61.625 20.703125 
Q 61.625 9.859375 53.3125 4.21875 
Q 45.015625 -1.421875 29.109375 -1.421875 
Q 23.484375 -1.421875 17.84375 -0.515625 
Q 12.203125 0.390625 6.6875 2.203125 
L 6.6875 16.703125 
Q 11.96875 14.0625 17.15625 12.71875 
Q 22.359375 11.375 27.390625 11.375 
Q 34.859375 11.375 38.84375 13.953125 
Q 42.828125 16.546875 42.828125 21.390625 
Q 42.828125 26.375 38.75 28.9375 
Q 34.671875 31.5 26.703125 31.5 
L 19.1875 31.5 
L 19.1875 43.609375 
L 27.09375 43.609375 
Q 34.1875 43.609375 37.640625 45.828125 
Q 41.109375 48.046875 41.109375 52.59375 
Q 41.109375 56.78125 37.734375 59.078125 
Q 34.375 61.375 28.21875 61.375 
Q 23.6875 61.375 19.046875 60.34375 
Q 14.40625 59.328125 9.8125 57.328125 
L 9.8125 71.09375 
Q 15.375 72.65625 20.84375 73.4375 
Q 26.3125 74.21875 31.59375 74.21875 
Q 45.796875 74.21875 52.84375 69.546875 
Q 59.90625 64.890625 59.90625 55.515625 
Q 59.90625 49.125 56.53125 45.046875 
Q 53.171875 40.96875 46.578125 39.3125 
z
" id="DejaVuSans-Bold-51"/>
      </defs>
      <g transform="translate(230.407694 205.118125)scale(0.12 -0.12)">
       <use xlink:href="#DejaVuSans-Bold-51"/>
       <use x="69.580078" xlink:href="#DejaVuSans-Bold-48"/>
       <use x="139.160156" xlink:href="#DejaVuSans-Bold-48"/>
       <use x="208.740234" xlink:href="#DejaVuSans-Bold-48"/>
      </g>
     </g>
    </g>
    <g id="xtick_5">
     <g id="line2d_5">
      <g>
       <use style="stroke:#000000;stroke-width:2.8;" x="311.318182" xlink:href="#m672fc2e693" y="189"/>
      </g>
     </g>
     <g id="text_5">
      <!-- 4000 -->
      <defs>
       <path d="M 36.8125 57.421875 
L 16.21875 26.90625 
L 36.8125 26.90625 
z
M 33.6875 72.90625 
L 54.59375 72.90625 
L 54.59375 26.90625 
L 64.984375 26.90625 
L 64.984375 13.28125 
L 54.59375 13.28125 
L 54.59375 0 
L 36.8125 0 
L 36.8125 13.28125 
L 4.5 13.28125 
L 4.5 29.390625 
z
" id="DejaVuSans-Bold-52"/>
      </defs>
      <g transform="translate(294.619432 205.118125)scale(0.12 -0.12)">
       <use xlink:href="#DejaVuSans-Bold-52"/>
       <use x="69.580078" xlink:href="#DejaVuSans-Bold-48"/>
       <use x="139.160156" xlink:href="#DejaVuSans-Bold-48"/>
       <use x="208.740234" xlink:href="#DejaVuSans-Bold-48"/>
      </g>
     </g>
    </g>
    <g id="text_6">
     <!-- Training data size -->
     <defs>
      <path d="M 0.484375 72.90625 
L 67.671875 72.90625 
L 67.671875 58.6875 
L 43.5 58.6875 
L 43.5 0 
L 24.703125 0 
L 24.703125 58.6875 
L 0.484375 58.6875 
z
" id="DejaVuSans-Bold-84"/>
      <path d="M 49.03125 39.796875 
Q 46.734375 40.875 44.453125 41.375 
Q 42.1875 41.890625 39.890625 41.890625 
Q 33.15625 41.890625 29.515625 37.5625 
Q 25.875 33.25 25.875 25.203125 
L 25.875 0 
L 8.40625 0 
L 8.40625 54.6875 
L 25.875 54.6875 
L 25.875 45.703125 
Q 29.25 51.078125 33.609375 53.53125 
Q 37.984375 56 44.09375 56 
Q 44.96875 56 45.984375 55.921875 
Q 47.015625 55.859375 48.96875 55.609375 
z
" id="DejaVuSans-Bold-114"/>
      <path d="M 32.90625 24.609375 
Q 27.4375 24.609375 24.671875 22.75 
Q 21.921875 20.90625 21.921875 17.28125 
Q 21.921875 13.96875 24.140625 12.078125 
Q 26.375 10.203125 30.328125 10.203125 
Q 35.25 10.203125 38.625 13.734375 
Q 42 17.28125 42 22.609375 
L 42 24.609375 
z
M 59.625 31.203125 
L 59.625 0 
L 42 0 
L 42 8.109375 
Q 38.484375 3.125 34.078125 0.84375 
Q 29.6875 -1.421875 23.390625 -1.421875 
Q 14.890625 -1.421875 9.59375 3.53125 
Q 4.296875 8.5 4.296875 16.40625 
Q 4.296875 26.03125 10.90625 30.515625 
Q 17.53125 35.015625 31.6875 35.015625 
L 42 35.015625 
L 42 36.375 
Q 42 40.53125 38.71875 42.453125 
Q 35.453125 44.390625 28.515625 44.390625 
Q 22.90625 44.390625 18.0625 43.265625 
Q 13.234375 42.140625 9.078125 39.890625 
L 9.078125 53.21875 
Q 14.703125 54.59375 20.359375 55.296875 
Q 26.03125 56 31.6875 56 
Q 46.484375 56 53.046875 50.171875 
Q 59.625 44.34375 59.625 31.203125 
z
" id="DejaVuSans-Bold-97"/>
      <path d="M 8.40625 54.6875 
L 25.875 54.6875 
L 25.875 0 
L 8.40625 0 
z
M 8.40625 75.984375 
L 25.875 75.984375 
L 25.875 61.71875 
L 8.40625 61.71875 
z
" id="DejaVuSans-Bold-105"/>
      <path d="M 63.375 33.296875 
L 63.375 0 
L 45.796875 0 
L 45.796875 5.421875 
L 45.796875 25.484375 
Q 45.796875 32.5625 45.484375 35.25 
Q 45.171875 37.9375 44.390625 39.203125 
Q 43.359375 40.921875 41.59375 41.875 
Q 39.84375 42.828125 37.59375 42.828125 
Q 32.125 42.828125 29 38.59375 
Q 25.875 34.375 25.875 26.90625 
L 25.875 0 
L 8.40625 0 
L 8.40625 54.6875 
L 25.875 54.6875 
L 25.875 46.6875 
Q 29.828125 51.46875 34.265625 53.734375 
Q 38.71875 56 44.09375 56 
Q 53.5625 56 58.46875 50.1875 
Q 63.375 44.390625 63.375 33.296875 
z
" id="DejaVuSans-Bold-110"/>
      <path d="M 45.609375 9.28125 
Q 42 4.5 37.640625 2.25 
Q 33.296875 0 27.59375 0 
Q 17.578125 0 11.03125 7.875 
Q 4.5 15.765625 4.5 27.984375 
Q 4.5 40.234375 11.03125 48.0625 
Q 17.578125 55.90625 27.59375 55.90625 
Q 33.296875 55.90625 37.640625 53.65625 
Q 42 51.421875 45.609375 46.578125 
L 45.609375 54.6875 
L 63.1875 54.6875 
L 63.1875 5.515625 
Q 63.1875 -7.671875 54.859375 -14.625 
Q 46.53125 -21.578125 30.71875 -21.578125 
Q 25.59375 -21.578125 20.796875 -20.796875 
Q 16.015625 -20.015625 11.1875 -18.40625 
L 11.1875 -4.78125 
Q 15.765625 -7.421875 20.15625 -8.71875 
Q 24.5625 -10.015625 29 -10.015625 
Q 37.59375 -10.015625 41.59375 -6.25 
Q 45.609375 -2.484375 45.609375 5.515625 
z
M 34.078125 43.3125 
Q 28.65625 43.3125 25.625 39.296875 
Q 22.609375 35.296875 22.609375 27.984375 
Q 22.609375 20.453125 25.53125 16.578125 
Q 28.46875 12.703125 34.078125 12.703125 
Q 39.546875 12.703125 42.578125 16.703125 
Q 45.609375 20.703125 45.609375 27.984375 
Q 45.609375 35.296875 42.578125 39.296875 
Q 39.546875 43.3125 34.078125 43.3125 
z
" id="DejaVuSans-Bold-103"/>
      <path id="DejaVuSans-Bold-32"/>
      <path d="M 45.609375 46.6875 
L 45.609375 75.984375 
L 63.1875 75.984375 
L 63.1875 0 
L 45.609375 0 
L 45.609375 7.90625 
Q 42 3.078125 37.640625 0.828125 
Q 33.296875 -1.421875 27.59375 -1.421875 
Q 17.484375 -1.421875 10.984375 6.609375 
Q 4.5 14.65625 4.5 27.296875 
Q 4.5 39.9375 10.984375 47.96875 
Q 17.484375 56 27.59375 56 
Q 33.25 56 37.625 53.734375 
Q 42 51.46875 45.609375 46.6875 
z
M 34.078125 11.28125 
Q 39.703125 11.28125 42.65625 15.375 
Q 45.609375 19.484375 45.609375 27.296875 
Q 45.609375 35.109375 42.65625 39.203125 
Q 39.703125 43.3125 34.078125 43.3125 
Q 28.515625 43.3125 25.5625 39.203125 
Q 22.609375 35.109375 22.609375 27.296875 
Q 22.609375 19.484375 25.5625 15.375 
Q 28.515625 11.28125 34.078125 11.28125 
z
" id="DejaVuSans-Bold-100"/>
      <path d="M 27.484375 70.21875 
L 27.484375 54.6875 
L 45.515625 54.6875 
L 45.515625 42.1875 
L 27.484375 42.1875 
L 27.484375 19 
Q 27.484375 15.1875 29 13.84375 
Q 30.515625 12.5 35.015625 12.5 
L 44 12.5 
L 44 0 
L 29 0 
Q 18.65625 0 14.328125 4.3125 
Q 10.015625 8.640625 10.015625 19 
L 10.015625 42.1875 
L 1.3125 42.1875 
L 1.3125 54.6875 
L 10.015625 54.6875 
L 10.015625 70.21875 
z
" id="DejaVuSans-Bold-116"/>
      <path d="M 51.125 52.984375 
L 51.125 39.703125 
Q 45.515625 42.046875 40.28125 43.21875 
Q 35.0625 44.390625 30.421875 44.390625 
Q 25.4375 44.390625 23.015625 43.140625 
Q 20.609375 41.890625 20.609375 39.3125 
Q 20.609375 37.203125 22.4375 36.078125 
Q 24.265625 34.96875 29 34.421875 
L 32.078125 33.984375 
Q 45.515625 32.28125 50.140625 28.375 
Q 54.78125 24.46875 54.78125 16.109375 
Q 54.78125 7.375 48.328125 2.96875 
Q 41.890625 -1.421875 29.109375 -1.421875 
Q 23.6875 -1.421875 17.890625 -0.5625 
Q 12.109375 0.296875 6 2 
L 6 15.28125 
Q 11.234375 12.75 16.71875 11.46875 
Q 22.21875 10.203125 27.875 10.203125 
Q 33.015625 10.203125 35.59375 11.609375 
Q 38.1875 13.03125 38.1875 15.828125 
Q 38.1875 18.171875 36.40625 19.3125 
Q 34.625 20.453125 29.296875 21.09375 
L 26.21875 21.484375 
Q 14.546875 22.953125 9.859375 26.90625 
Q 5.171875 30.859375 5.171875 38.921875 
Q 5.171875 47.609375 11.125 51.796875 
Q 17.09375 56 29.390625 56 
Q 34.234375 56 39.546875 55.265625 
Q 44.875 54.546875 51.125 52.984375 
z
" id="DejaVuSans-Bold-115"/>
      <path d="M 5.71875 54.6875 
L 53.421875 54.6875 
L 53.421875 42.484375 
L 24.609375 12.5 
L 53.421875 12.5 
L 53.421875 0 
L 4.5 0 
L 4.5 12.203125 
L 33.296875 42.1875 
L 5.71875 42.1875 
z
" id="DejaVuSans-Bold-122"/>
      <path d="M 62.984375 27.484375 
L 62.984375 22.515625 
L 22.125 22.515625 
Q 22.75 16.359375 26.5625 13.28125 
Q 30.375 10.203125 37.203125 10.203125 
Q 42.71875 10.203125 48.5 11.84375 
Q 54.296875 13.484375 60.40625 16.796875 
L 60.40625 3.328125 
Q 54.203125 0.984375 48 -0.21875 
Q 41.796875 -1.421875 35.59375 -1.421875 
Q 20.75 -1.421875 12.515625 6.125 
Q 4.296875 13.671875 4.296875 27.296875 
Q 4.296875 40.671875 12.375 48.328125 
Q 20.453125 56 34.625 56 
Q 47.515625 56 55.25 48.234375 
Q 62.984375 40.484375 62.984375 27.484375 
z
M 45.015625 33.296875 
Q 45.015625 38.28125 42.109375 41.328125 
Q 39.203125 44.390625 34.515625 44.390625 
Q 29.4375 44.390625 26.265625 41.53125 
Q 23.09375 38.671875 22.3125 33.296875 
z
" id="DejaVuSans-Bold-101"/>
     </defs>
     <g transform="translate(124.480312 224.731875)scale(0.12 -0.12)">
      <use xlink:href="#DejaVuSans-Bold-84"/>
      <use x="57.212891" xlink:href="#DejaVuSans-Bold-114"/>
      <use x="106.529297" xlink:href="#DejaVuSans-Bold-97"/>
      <use x="174.009766" xlink:href="#DejaVuSans-Bold-105"/>
      <use x="208.287109" xlink:href="#DejaVuSans-Bold-110"/>
      <use x="279.478516" xlink:href="#DejaVuSans-Bold-105"/>
      <use x="313.755859" xlink:href="#DejaVuSans-Bold-110"/>
      <use x="384.947266" xlink:href="#DejaVuSans-Bold-103"/>
      <use x="456.529297" xlink:href="#DejaVuSans-Bold-32"/>
      <use x="491.34375" xlink:href="#DejaVuSans-Bold-100"/>
      <use x="562.925781" xlink:href="#DejaVuSans-Bold-97"/>
      <use x="630.40625" xlink:href="#DejaVuSans-Bold-116"/>
      <use x="678.208984" xlink:href="#DejaVuSans-Bold-97"/>
      <use x="745.689453" xlink:href="#DejaVuSans-Bold-32"/>
      <use x="780.503906" xlink:href="#DejaVuSans-Bold-115"/>
      <use x="840.025391" xlink:href="#DejaVuSans-Bold-105"/>
      <use x="874.302734" xlink:href="#DejaVuSans-Bold-122"/>
      <use x="932.505859" xlink:href="#DejaVuSans-Bold-101"/>
     </g>
    </g>
   </g>
   <g id="matplotlib.axis_2">
    <g id="ytick_1">
     <g id="line2d_6">
      <defs>
       <path d="M 0 0 
L -3.5 0 
" id="m6bcd3968bd" style="stroke:#000000;stroke-width:2.8;"/>
      </defs>
      <g>
       <use style="stroke:#000000;stroke-width:2.8;" x="45" xlink:href="#m6bcd3968bd" y="181.667663"/>
      </g>
     </g>
     <g id="text_7">
      <!-- 0.775 -->
      <defs>
       <path d="M 10.203125 18.890625 
L 27.78125 18.890625 
L 27.78125 0 
L 10.203125 0 
z
" id="DejaVuSans-Bold-46"/>
       <path d="M 6.6875 72.90625 
L 61.625 72.90625 
L 61.625 62.3125 
L 33.203125 0 
L 14.890625 0 
L 41.796875 59.078125 
L 6.6875 59.078125 
z
" id="DejaVuSans-Bold-55"/>
       <path d="M 10.59375 72.90625 
L 57.328125 72.90625 
L 57.328125 59.078125 
L 25.59375 59.078125 
L 25.59375 47.796875 
Q 27.734375 48.390625 29.90625 48.703125 
Q 32.078125 49.03125 34.421875 49.03125 
Q 47.75 49.03125 55.171875 42.359375 
Q 62.59375 35.6875 62.59375 23.78125 
Q 62.59375 11.96875 54.515625 5.265625 
Q 46.4375 -1.421875 32.078125 -1.421875 
Q 25.875 -1.421875 19.796875 -0.21875 
Q 13.71875 0.984375 7.71875 3.421875 
L 7.71875 18.21875 
Q 13.671875 14.796875 19.015625 13.078125 
Q 24.359375 11.375 29.109375 11.375 
Q 35.9375 11.375 39.859375 14.71875 
Q 43.796875 18.0625 43.796875 23.78125 
Q 43.796875 29.546875 39.859375 32.859375 
Q 35.9375 36.1875 29.109375 36.1875 
Q 25.046875 36.1875 20.453125 35.125 
Q 15.875 34.078125 10.59375 31.890625 
z
" id="DejaVuSans-Bold-53"/>
      </defs>
      <g transform="translate(0.044375 186.226726)scale(0.12 -0.12)">
       <use xlink:href="#DejaVuSans-Bold-48"/>
       <use x="69.580078" xlink:href="#DejaVuSans-Bold-46"/>
       <use x="107.568359" xlink:href="#DejaVuSans-Bold-55"/>
       <use x="177.148438" xlink:href="#DejaVuSans-Bold-55"/>
       <use x="246.728516" xlink:href="#DejaVuSans-Bold-53"/>
      </g>
     </g>
    </g>
    <g id="ytick_2">
     <g id="line2d_7">
      <g>
       <use style="stroke:#000000;stroke-width:2.8;" x="45" xlink:href="#m6bcd3968bd" y="150.891533"/>
      </g>
     </g>
     <g id="text_8">
      <!-- 0.800 -->
      <defs>
       <path d="M 34.8125 32.625 
Q 29.546875 32.625 26.703125 29.734375 
Q 23.875 26.859375 23.875 21.484375 
Q 23.875 16.109375 26.703125 13.25 
Q 29.546875 10.40625 34.8125 10.40625 
Q 40.046875 10.40625 42.828125 13.25 
Q 45.609375 16.109375 45.609375 21.484375 
Q 45.609375 26.90625 42.828125 29.765625 
Q 40.046875 32.625 34.8125 32.625 
z
M 21.09375 38.8125 
Q 14.453125 40.828125 11.078125 44.96875 
Q 7.71875 49.125 7.71875 55.328125 
Q 7.71875 64.546875 14.59375 69.375 
Q 21.484375 74.21875 34.8125 74.21875 
Q 48.046875 74.21875 54.921875 69.40625 
Q 61.8125 64.59375 61.8125 55.328125 
Q 61.8125 49.125 58.421875 44.96875 
Q 55.03125 40.828125 48.390625 38.8125 
Q 55.8125 36.765625 59.59375 32.15625 
Q 63.375 27.546875 63.375 20.515625 
Q 63.375 9.671875 56.171875 4.125 
Q 48.96875 -1.421875 34.8125 -1.421875 
Q 20.609375 -1.421875 13.359375 4.125 
Q 6.109375 9.671875 6.109375 20.515625 
Q 6.109375 27.546875 9.890625 32.15625 
Q 13.671875 36.765625 21.09375 38.8125 
z
M 25.484375 53.421875 
Q 25.484375 49.078125 27.90625 46.734375 
Q 30.328125 44.390625 34.8125 44.390625 
Q 39.203125 44.390625 41.59375 46.734375 
Q 44 49.078125 44 53.421875 
Q 44 57.765625 41.59375 60.078125 
Q 39.203125 62.40625 34.8125 62.40625 
Q 30.328125 62.40625 27.90625 60.0625 
Q 25.484375 57.71875 25.484375 53.421875 
z
" id="DejaVuSans-Bold-56"/>
      </defs>
      <g transform="translate(0.044375 155.450596)scale(0.12 -0.12)">
       <use xlink:href="#DejaVuSans-Bold-48"/>
       <use x="69.580078" xlink:href="#DejaVuSans-Bold-46"/>
       <use x="107.568359" xlink:href="#DejaVuSans-Bold-56"/>
       <use x="177.148438" xlink:href="#DejaVuSans-Bold-48"/>
       <use x="246.728516" xlink:href="#DejaVuSans-Bold-48"/>
      </g>
     </g>
    </g>
    <g id="ytick_3">
     <g id="line2d_8">
      <g>
       <use style="stroke:#000000;stroke-width:2.8;" x="45" xlink:href="#m6bcd3968bd" y="120.115403"/>
      </g>
     </g>
     <g id="text_9">
      <!-- 0.825 -->
      <g transform="translate(0.044375 124.674466)scale(0.12 -0.12)">
       <use xlink:href="#DejaVuSans-Bold-48"/>
       <use x="69.580078" xlink:href="#DejaVuSans-Bold-46"/>
       <use x="107.568359" xlink:href="#DejaVuSans-Bold-56"/>
       <use x="177.148438" xlink:href="#DejaVuSans-Bold-50"/>
       <use x="246.728516" xlink:href="#DejaVuSans-Bold-53"/>
      </g>
     </g>
    </g>
    <g id="ytick_4">
     <g id="line2d_9">
      <g>
       <use style="stroke:#000000;stroke-width:2.8;" x="45" xlink:href="#m6bcd3968bd" y="89.339273"/>
      </g>
     </g>
     <g id="text_10">
      <!-- 0.850 -->
      <g transform="translate(0.044375 93.898335)scale(0.12 -0.12)">
       <use xlink:href="#DejaVuSans-Bold-48"/>
       <use x="69.580078" xlink:href="#DejaVuSans-Bold-46"/>
       <use x="107.568359" xlink:href="#DejaVuSans-Bold-56"/>
       <use x="177.148438" xlink:href="#DejaVuSans-Bold-53"/>
       <use x="246.728516" xlink:href="#DejaVuSans-Bold-48"/>
      </g>
     </g>
    </g>
    <g id="ytick_5">
     <g id="line2d_10">
      <g>
       <use style="stroke:#000000;stroke-width:2.8;" x="45" xlink:href="#m6bcd3968bd" y="58.563143"/>
      </g>
     </g>
     <g id="text_11">
      <!-- 0.875 -->
      <g transform="translate(0.044375 63.122205)scale(0.12 -0.12)">
       <use xlink:href="#DejaVuSans-Bold-48"/>
       <use x="69.580078" xlink:href="#DejaVuSans-Bold-46"/>
       <use x="107.568359" xlink:href="#DejaVuSans-Bold-56"/>
       <use x="177.148438" xlink:href="#DejaVuSans-Bold-55"/>
       <use x="246.728516" xlink:href="#DejaVuSans-Bold-53"/>
      </g>
     </g>
    </g>
    <g id="ytick_6">
     <g id="line2d_11">
      <g>
       <use style="stroke:#000000;stroke-width:2.8;" x="45" xlink:href="#m6bcd3968bd" y="27.787012"/>
      </g>
     </g>
     <g id="text_12">
      <!-- 0.900 -->
      <defs>
       <path d="M 10.015625 1.609375 
L 10.015625 15.09375 
Q 14.5 12.984375 18.59375 11.9375 
Q 22.703125 10.890625 26.703125 10.890625 
Q 35.109375 10.890625 39.796875 15.546875 
Q 44.484375 20.21875 45.3125 29.390625 
Q 42 26.953125 38.234375 25.734375 
Q 34.46875 24.515625 30.078125 24.515625 
Q 18.890625 24.515625 12.03125 31.03125 
Q 5.171875 37.546875 5.171875 48.1875 
Q 5.171875 59.96875 12.8125 67.046875 
Q 20.453125 74.125 33.296875 74.125 
Q 47.5625 74.125 55.375 64.5 
Q 63.1875 54.890625 63.1875 37.3125 
Q 63.1875 19.234375 54.046875 8.90625 
Q 44.921875 -1.421875 29 -1.421875 
Q 23.875 -1.421875 19.1875 -0.65625 
Q 14.5 0.09375 10.015625 1.609375 
z
M 33.203125 36.71875 
Q 38.140625 36.71875 40.625 39.90625 
Q 43.109375 43.109375 43.109375 49.515625 
Q 43.109375 55.859375 40.625 59.078125 
Q 38.140625 62.3125 33.203125 62.3125 
Q 28.265625 62.3125 25.78125 59.078125 
Q 23.296875 55.859375 23.296875 49.515625 
Q 23.296875 43.109375 25.78125 39.90625 
Q 28.265625 36.71875 33.203125 36.71875 
z
" id="DejaVuSans-Bold-57"/>
      </defs>
      <g transform="translate(0.044375 32.346075)scale(0.12 -0.12)">
       <use xlink:href="#DejaVuSans-Bold-48"/>
       <use x="69.580078" xlink:href="#DejaVuSans-Bold-46"/>
       <use x="107.568359" xlink:href="#DejaVuSans-Bold-57"/>
       <use x="177.148438" xlink:href="#DejaVuSans-Bold-48"/>
       <use x="246.728516" xlink:href="#DejaVuSans-Bold-48"/>
      </g>
     </g>
    </g>
    <g id="text_13">
     <!-- Test Accuracy -->
     <defs>
      <path d="M 53.421875 13.28125 
L 24.03125 13.28125 
L 19.390625 0 
L 0.484375 0 
L 27.484375 72.90625 
L 49.90625 72.90625 
L 76.90625 0 
L 58.015625 0 
z
M 28.71875 26.8125 
L 48.6875 26.8125 
L 38.71875 55.8125 
z
" id="DejaVuSans-Bold-65"/>
      <path d="M 52.59375 52.984375 
L 52.59375 38.71875 
Q 49.03125 41.15625 45.4375 42.328125 
Q 41.84375 43.5 37.984375 43.5 
Q 30.671875 43.5 26.59375 39.234375 
Q 22.515625 34.96875 22.515625 27.296875 
Q 22.515625 19.625 26.59375 15.34375 
Q 30.671875 11.078125 37.984375 11.078125 
Q 42.09375 11.078125 45.78125 12.296875 
Q 49.46875 13.53125 52.59375 15.921875 
L 52.59375 1.609375 
Q 48.484375 0.09375 44.265625 -0.65625 
Q 40.046875 -1.421875 35.796875 -1.421875 
Q 21 -1.421875 12.640625 6.171875 
Q 4.296875 13.765625 4.296875 27.296875 
Q 4.296875 40.828125 12.640625 48.40625 
Q 21 56 35.796875 56 
Q 40.09375 56 44.265625 55.25 
Q 48.4375 54.5 52.59375 52.984375 
z
" id="DejaVuSans-Bold-99"/>
      <path d="M 7.8125 21.296875 
L 7.8125 54.6875 
L 25.390625 54.6875 
L 25.390625 49.21875 
Q 25.390625 44.78125 25.34375 38.0625 
Q 25.296875 31.34375 25.296875 29.109375 
Q 25.296875 22.515625 25.640625 19.609375 
Q 25.984375 16.703125 26.8125 15.375 
Q 27.875 13.671875 29.609375 12.734375 
Q 31.34375 11.8125 33.59375 11.8125 
Q 39.0625 11.8125 42.1875 16.015625 
Q 45.3125 20.21875 45.3125 27.6875 
L 45.3125 54.6875 
L 62.796875 54.6875 
L 62.796875 0 
L 45.3125 0 
L 45.3125 7.90625 
Q 41.359375 3.125 36.9375 0.84375 
Q 32.515625 -1.421875 27.203125 -1.421875 
Q 17.71875 -1.421875 12.765625 4.390625 
Q 7.8125 10.203125 7.8125 21.296875 
z
" id="DejaVuSans-Bold-117"/>
      <path d="M 1.21875 54.6875 
L 18.703125 54.6875 
L 33.40625 17.578125 
L 45.90625 54.6875 
L 63.375 54.6875 
L 40.375 -5.171875 
Q 36.921875 -14.3125 32.296875 -17.9375 
Q 27.6875 -21.578125 20.125 -21.578125 
L 10.015625 -21.578125 
L 10.015625 -10.109375 
L 15.484375 -10.109375 
Q 19.921875 -10.109375 21.9375 -8.6875 
Q 23.96875 -7.28125 25.09375 -3.609375 
L 25.59375 -2.09375 
z
" id="DejaVuSans-Bold-121"/>
     </defs>
     <g transform="translate(-10.545 153.859688)rotate(-90)scale(0.12 -0.12)">
      <use xlink:href="#DejaVuSans-Bold-84"/>
      <use x="54.962891" xlink:href="#DejaVuSans-Bold-101"/>
      <use x="122.785156" xlink:href="#DejaVuSans-Bold-115"/>
      <use x="182.306641" xlink:href="#DejaVuSans-Bold-116"/>
      <use x="230.109375" xlink:href="#DejaVuSans-Bold-32"/>
      <use x="264.923828" xlink:href="#DejaVuSans-Bold-65"/>
      <use x="342.316406" xlink:href="#DejaVuSans-Bold-99"/>
      <use x="401.59375" xlink:href="#DejaVuSans-Bold-99"/>
      <use x="460.871094" xlink:href="#DejaVuSans-Bold-117"/>
      <use x="532.0625" xlink:href="#DejaVuSans-Bold-114"/>
      <use x="581.378906" xlink:href="#DejaVuSans-Bold-97"/>
      <use x="648.859375" xlink:href="#DejaVuSans-Bold-99"/>
      <use x="708.136719" xlink:href="#DejaVuSans-Bold-121"/>
     </g>
    </g>
   </g>
   <g id="LineCollection_1">
    <path clip-path="url(#p4bb24c06fd)" d="M 57.681818 177.532147 
L 57.681818 109.478537 
" style="fill:none;stroke:#073b4c;stroke-width:1.5;"/>
    <path clip-path="url(#p4bb24c06fd)" d="M 60.892405 181.587273 
L 60.892405 125.120029 
" style="fill:none;stroke:#073b4c;stroke-width:1.5;"/>
    <path clip-path="url(#p4bb24c06fd)" d="M 64.102992 115.161876 
L 64.102992 63.51661 
" style="fill:none;stroke:#073b4c;stroke-width:1.5;"/>
    <path clip-path="url(#p4bb24c06fd)" d="M 67.313579 125.141821 
L 67.313579 95.392251 
" style="fill:none;stroke:#073b4c;stroke-width:1.5;"/>
    <path clip-path="url(#p4bb24c06fd)" d="M 70.524166 112.272109 
L 70.524166 76.25476 
" style="fill:none;stroke:#073b4c;stroke-width:1.5;"/>
    <path clip-path="url(#p4bb24c06fd)" d="M 73.734753 106.696633 
L 73.734753 57.209208 
" style="fill:none;stroke:#073b4c;stroke-width:1.5;"/>
    <path clip-path="url(#p4bb24c06fd)" d="M 76.945339 109.795669 
L 76.945339 49.186202 
" style="fill:none;stroke:#073b4c;stroke-width:1.5;"/>
    <path clip-path="url(#p4bb24c06fd)" d="M 80.155926 106.229301 
L 80.155926 62.600951 
" style="fill:none;stroke:#073b4c;stroke-width:1.5;"/>
    <path clip-path="url(#p4bb24c06fd)" d="M 86.5771 115.1913 
L 86.5771 85.646155 
" style="fill:none;stroke:#073b4c;stroke-width:1.5;"/>
    <path clip-path="url(#p4bb24c06fd)" d="M 92.998274 121.526805 
L 92.998274 79.31065 
" style="fill:none;stroke:#073b4c;stroke-width:1.5;"/>
    <path clip-path="url(#p4bb24c06fd)" d="M 99.419448 103.707587 
L 99.419448 47.888107 
" style="fill:none;stroke:#073b4c;stroke-width:1.5;"/>
    <path clip-path="url(#p4bb24c06fd)" d="M 105.840621 104.773227 
L 105.840621 46.822467 
" style="fill:none;stroke:#073b4c;stroke-width:1.5;"/>
    <path clip-path="url(#p4bb24c06fd)" d="M 112.261795 108.544828 
L 112.261795 62.747336 
" style="fill:none;stroke:#073b4c;stroke-width:1.5;"/>
    <path clip-path="url(#p4bb24c06fd)" d="M 118.682969 111.446849 
L 118.682969 52.459286 
" style="fill:none;stroke:#073b4c;stroke-width:1.5;"/>
    <path clip-path="url(#p4bb24c06fd)" d="M 134.735903 104.768018 
L 134.735903 39.441354 
" style="fill:none;stroke:#073b4c;stroke-width:1.5;"/>
    <path clip-path="url(#p4bb24c06fd)" d="M 144.367664 96.103998 
L 144.367664 33.332727 
" style="fill:none;stroke:#073b4c;stroke-width:1.5;"/>
    <path clip-path="url(#p4bb24c06fd)" d="M 172.171346 103.90607 
L 172.171346 37.841243 
" style="fill:none;stroke:#073b4c;stroke-width:1.5;"/>
    <path clip-path="url(#p4bb24c06fd)" d="M 199.975029 100.23338 
L 199.975029 51.362314 
" style="fill:none;stroke:#073b4c;stroke-width:1.5;"/>
    <path clip-path="url(#p4bb24c06fd)" d="M 227.842923 101.124605 
L 227.842923 38.160502 
" style="fill:none;stroke:#073b4c;stroke-width:1.5;"/>
    <path clip-path="url(#p4bb24c06fd)" d="M 255.646605 105.62116 
L 255.646605 50.898504 
" style="fill:none;stroke:#073b4c;stroke-width:1.5;"/>
    <path clip-path="url(#p4bb24c06fd)" d="M 283.450288 111.794725 
L 283.450288 34.876559 
" style="fill:none;stroke:#073b4c;stroke-width:1.5;"/>
    <path clip-path="url(#p4bb24c06fd)" d="M 311.318182 106.707346 
L 311.318182 49.812319 
" style="fill:none;stroke:#073b4c;stroke-width:1.5;"/>
   </g>
   <g id="line2d_12">
    <defs>
     <path d="M 2 0 
L -2 -0 
" id="maa29cf930f" style="stroke:#073b4c;"/>
    </defs>
    <g clip-path="url(#p4bb24c06fd)">
     <use style="fill:#073b4c;stroke:#073b4c;" x="57.681818" xlink:href="#maa29cf930f" y="177.532147"/>
     <use style="fill:#073b4c;stroke:#073b4c;" x="60.892405" xlink:href="#maa29cf930f" y="181.587273"/>
     <use style="fill:#073b4c;stroke:#073b4c;" x="64.102992" xlink:href="#maa29cf930f" y="115.161876"/>
     <use style="fill:#073b4c;stroke:#073b4c;" x="67.313579" xlink:href="#maa29cf930f" y="125.141821"/>
     <use style="fill:#073b4c;stroke:#073b4c;" x="70.524166" xlink:href="#maa29cf930f" y="112.272109"/>
     <use style="fill:#073b4c;stroke:#073b4c;" x="73.734753" xlink:href="#maa29cf930f" y="106.696633"/>
     <use style="fill:#073b4c;stroke:#073b4c;" x="76.945339" xlink:href="#maa29cf930f" y="109.795669"/>
     <use style="fill:#073b4c;stroke:#073b4c;" x="80.155926" xlink:href="#maa29cf930f" y="106.229301"/>
     <use style="fill:#073b4c;stroke:#073b4c;" x="86.5771" xlink:href="#maa29cf930f" y="115.1913"/>
     <use style="fill:#073b4c;stroke:#073b4c;" x="92.998274" xlink:href="#maa29cf930f" y="121.526805"/>
     <use style="fill:#073b4c;stroke:#073b4c;" x="99.419448" xlink:href="#maa29cf930f" y="103.707587"/>
     <use style="fill:#073b4c;stroke:#073b4c;" x="105.840621" xlink:href="#maa29cf930f" y="104.773227"/>
     <use style="fill:#073b4c;stroke:#073b4c;" x="112.261795" xlink:href="#maa29cf930f" y="108.544828"/>
     <use style="fill:#073b4c;stroke:#073b4c;" x="118.682969" xlink:href="#maa29cf930f" y="111.446849"/>
     <use style="fill:#073b4c;stroke:#073b4c;" x="134.735903" xlink:href="#maa29cf930f" y="104.768018"/>
     <use style="fill:#073b4c;stroke:#073b4c;" x="144.367664" xlink:href="#maa29cf930f" y="96.103998"/>
     <use style="fill:#073b4c;stroke:#073b4c;" x="172.171346" xlink:href="#maa29cf930f" y="103.90607"/>
     <use style="fill:#073b4c;stroke:#073b4c;" x="199.975029" xlink:href="#maa29cf930f" y="100.23338"/>
     <use style="fill:#073b4c;stroke:#073b4c;" x="227.842923" xlink:href="#maa29cf930f" y="101.124605"/>
     <use style="fill:#073b4c;stroke:#073b4c;" x="255.646605" xlink:href="#maa29cf930f" y="105.62116"/>
     <use style="fill:#073b4c;stroke:#073b4c;" x="283.450288" xlink:href="#maa29cf930f" y="111.794725"/>
     <use style="fill:#073b4c;stroke:#073b4c;" x="311.318182" xlink:href="#maa29cf930f" y="106.707346"/>
    </g>
   </g>
   <g id="line2d_13">
    <g clip-path="url(#p4bb24c06fd)">
     <use style="fill:#073b4c;stroke:#073b4c;" x="57.681818" xlink:href="#maa29cf930f" y="109.478537"/>
     <use style="fill:#073b4c;stroke:#073b4c;" x="60.892405" xlink:href="#maa29cf930f" y="125.120029"/>
     <use style="fill:#073b4c;stroke:#073b4c;" x="64.102992" xlink:href="#maa29cf930f" y="63.51661"/>
     <use style="fill:#073b4c;stroke:#073b4c;" x="67.313579" xlink:href="#maa29cf930f" y="95.392251"/>
     <use style="fill:#073b4c;stroke:#073b4c;" x="70.524166" xlink:href="#maa29cf930f" y="76.25476"/>
     <use style="fill:#073b4c;stroke:#073b4c;" x="73.734753" xlink:href="#maa29cf930f" y="57.209208"/>
     <use style="fill:#073b4c;stroke:#073b4c;" x="76.945339" xlink:href="#maa29cf930f" y="49.186202"/>
     <use style="fill:#073b4c;stroke:#073b4c;" x="80.155926" xlink:href="#maa29cf930f" y="62.600951"/>
     <use style="fill:#073b4c;stroke:#073b4c;" x="86.5771" xlink:href="#maa29cf930f" y="85.646155"/>
     <use style="fill:#073b4c;stroke:#073b4c;" x="92.998274" xlink:href="#maa29cf930f" y="79.31065"/>
     <use style="fill:#073b4c;stroke:#073b4c;" x="99.419448" xlink:href="#maa29cf930f" y="47.888107"/>
     <use style="fill:#073b4c;stroke:#073b4c;" x="105.840621" xlink:href="#maa29cf930f" y="46.822467"/>
     <use style="fill:#073b4c;stroke:#073b4c;" x="112.261795" xlink:href="#maa29cf930f" y="62.747336"/>
     <use style="fill:#073b4c;stroke:#073b4c;" x="118.682969" xlink:href="#maa29cf930f" y="52.459286"/>
     <use style="fill:#073b4c;stroke:#073b4c;" x="134.735903" xlink:href="#maa29cf930f" y="39.441354"/>
     <use style="fill:#073b4c;stroke:#073b4c;" x="144.367664" xlink:href="#maa29cf930f" y="33.332727"/>
     <use style="fill:#073b4c;stroke:#073b4c;" x="172.171346" xlink:href="#maa29cf930f" y="37.841243"/>
     <use style="fill:#073b4c;stroke:#073b4c;" x="199.975029" xlink:href="#maa29cf930f" y="51.362314"/>
     <use style="fill:#073b4c;stroke:#073b4c;" x="227.842923" xlink:href="#maa29cf930f" y="38.160502"/>
     <use style="fill:#073b4c;stroke:#073b4c;" x="255.646605" xlink:href="#maa29cf930f" y="50.898504"/>
     <use style="fill:#073b4c;stroke:#073b4c;" x="283.450288" xlink:href="#maa29cf930f" y="34.876559"/>
     <use style="fill:#073b4c;stroke:#073b4c;" x="311.318182" xlink:href="#maa29cf930f" y="49.812319"/>
    </g>
   </g>
   <g id="line2d_14">
    <defs>
     <path d="M 0 3 
C 0.795609 3 1.55874 2.683901 2.12132 2.12132 
C 2.683901 1.55874 3 0.795609 3 0 
C 3 -0.795609 2.683901 -1.55874 2.12132 -2.12132 
C 1.55874 -2.683901 0.795609 -3 0 -3 
C -0.795609 -3 -1.55874 -2.683901 -2.12132 -2.12132 
C -2.683901 -1.55874 -3 -0.795609 -3 0 
C -3 0.795609 -2.683901 1.55874 -2.12132 2.12132 
C -1.55874 2.683901 -0.795609 3 0 3 
z
" id="m02731a3c33" style="stroke:#073b4c;"/>
    </defs>
    <g clip-path="url(#p4bb24c06fd)">
     <use style="fill:#073b4c;stroke:#073b4c;" x="57.681818" xlink:href="#m02731a3c33" y="143.505342"/>
     <use style="fill:#073b4c;stroke:#073b4c;" x="60.892405" xlink:href="#m02731a3c33" y="153.353651"/>
     <use style="fill:#073b4c;stroke:#073b4c;" x="64.102992" xlink:href="#m02731a3c33" y="89.339243"/>
     <use style="fill:#073b4c;stroke:#073b4c;" x="67.313579" xlink:href="#m02731a3c33" y="110.267036"/>
     <use style="fill:#073b4c;stroke:#073b4c;" x="70.524166" xlink:href="#m02731a3c33" y="94.263434"/>
     <use style="fill:#073b4c;stroke:#073b4c;" x="73.734753" xlink:href="#m02731a3c33" y="81.95292"/>
     <use style="fill:#073b4c;stroke:#073b4c;" x="76.945339" xlink:href="#m02731a3c33" y="79.490935"/>
     <use style="fill:#073b4c;stroke:#073b4c;" x="80.155926" xlink:href="#m02731a3c33" y="84.415126"/>
     <use style="fill:#073b4c;stroke:#073b4c;" x="86.5771" xlink:href="#m02731a3c33" y="100.418728"/>
     <use style="fill:#073b4c;stroke:#073b4c;" x="92.998274" xlink:href="#m02731a3c33" y="100.418728"/>
     <use style="fill:#073b4c;stroke:#073b4c;" x="99.419448" xlink:href="#m02731a3c33" y="75.797847"/>
     <use style="fill:#073b4c;stroke:#073b4c;" x="105.840621" xlink:href="#m02731a3c33" y="75.797847"/>
     <use style="fill:#073b4c;stroke:#073b4c;" x="112.261795" xlink:href="#m02731a3c33" y="85.646082"/>
     <use style="fill:#073b4c;stroke:#073b4c;" x="118.682969" xlink:href="#m02731a3c33" y="81.953067"/>
     <use style="fill:#073b4c;stroke:#073b4c;" x="134.735903" xlink:href="#m02731a3c33" y="72.104686"/>
     <use style="fill:#073b4c;stroke:#073b4c;" x="144.367664" xlink:href="#m02731a3c33" y="64.718363"/>
     <use style="fill:#073b4c;stroke:#073b4c;" x="172.171346" xlink:href="#m02731a3c33" y="70.873656"/>
     <use style="fill:#073b4c;stroke:#073b4c;" x="199.975029" xlink:href="#m02731a3c33" y="75.797847"/>
     <use style="fill:#073b4c;stroke:#073b4c;" x="227.842923" xlink:href="#m02731a3c33" y="69.642554"/>
     <use style="fill:#073b4c;stroke:#073b4c;" x="255.646605" xlink:href="#m02731a3c33" y="78.259832"/>
     <use style="fill:#073b4c;stroke:#073b4c;" x="283.450288" xlink:href="#m02731a3c33" y="73.335642"/>
     <use style="fill:#073b4c;stroke:#073b4c;" x="311.318182" xlink:href="#m02731a3c33" y="78.259832"/>
    </g>
   </g>
   <g id="patch_3">
    <path d="M 45 189 
L 45 25.92 
" style="fill:none;stroke:#000000;stroke-linecap:square;stroke-linejoin:miter;stroke-width:2.8;"/>
   </g>
   <g id="patch_4">
    <path d="M 324 189 
L 324 25.92 
" style="fill:none;stroke:#000000;stroke-linecap:square;stroke-linejoin:miter;stroke-width:2.8;"/>
   </g>
   <g id="patch_5">
    <path d="M 45 189 
L 324 189 
" style="fill:none;stroke:#000000;stroke-linecap:square;stroke-linejoin:miter;stroke-width:2.8;"/>
   </g>
   <g id="patch_6">
    <path d="M 45 25.92 
L 324 25.92 
" style="fill:none;stroke:#000000;stroke-linecap:square;stroke-linejoin:miter;stroke-width:2.8;"/>
   </g>
  </g>
 </g>
 <defs>
  <clipPath id="p4bb24c06fd">
   <rect height="163.08" width="279" x="45" y="25.92"/>
  </clipPath>
 </defs>
</svg>
