<?xml version="1.0" encoding="utf-8" standalone="no"?>
<!DOCTYPE svg PUBLIC "-//W3C//DTD SVG 1.1//EN"
  "http://www.w3.org/Graphics/SVG/1.1/DTD/svg11.dtd">
<!-- Created with matplotlib (https://matplotlib.org/) -->
<svg height="288pt" version="1.1" viewBox="0 0 432 288" width="432pt" xmlns="http://www.w3.org/2000/svg" xmlns:xlink="http://www.w3.org/1999/xlink">
 <defs>
  <style type="text/css">
*{stroke-linecap:butt;stroke-linejoin:round;}
  </style>
 </defs>
 <g id="figure_1">
  <g id="patch_1">
   <path d="M 0 288 
L 432 288 
L 432 0 
L 0 0 
z
" style="fill:#ffffff;"/>
  </g>
  <g id="axes_1">
   <g id="patch_2">
    <path d="M 54 252 
L 388.8 252 
L 388.8 34.56 
L 54 34.56 
z
" style="fill:#ffffff;"/>
   </g>
   <g id="matplotlib.axis_1">
    <g id="xtick_1">
     <g id="line2d_1">
      <defs>
       <path d="M 0 0 
L 0 3.5 
" id="m81f820d155" style="stroke:#000000;stroke-width:2.8;"/>
      </defs>
      <g>
       <use style="stroke:#000000;stroke-width:2.8;" x="54" xlink:href="#m81f820d155" y="252"/>
      </g>
     </g>
     <g id="text_1">
      <!-- $\mathdefault{10^{0}}$ -->
      <defs>
       <path d="M 11.71875 12.984375 
L 28.328125 12.984375 
L 28.328125 60.109375 
L 11.28125 56.59375 
L 11.28125 69.390625 
L 28.21875 72.90625 
L 46.09375 72.90625 
L 46.09375 12.984375 
L 62.703125 12.984375 
L 62.703125 0 
L 11.71875 0 
z
" id="DejaVuSans-Bold-49"/>
       <path d="M 46 36.53125 
Q 46 50.203125 43.4375 55.78125 
Q 40.875 61.375 34.8125 61.375 
Q 28.765625 61.375 26.171875 55.78125 
Q 23.578125 50.203125 23.578125 36.53125 
Q 23.578125 22.703125 26.171875 17.03125 
Q 28.765625 11.375 34.8125 11.375 
Q 40.828125 11.375 43.40625 17.03125 
Q 46 22.703125 46 36.53125 
z
M 64.796875 36.375 
Q 64.796875 18.265625 56.984375 8.421875 
Q 49.171875 -1.421875 34.8125 -1.421875 
Q 20.40625 -1.421875 12.59375 8.421875 
Q 4.78125 18.265625 4.78125 36.375 
Q 4.78125 54.546875 12.59375 64.375 
Q 20.40625 74.21875 34.8125 74.21875 
Q 49.171875 74.21875 56.984375 64.375 
Q 64.796875 54.546875 64.796875 36.375 
z
" id="DejaVuSans-Bold-48"/>
      </defs>
      <g transform="translate(42.48 268.118125)scale(0.12 -0.12)">
       <use transform="translate(0 0.765625)" xlink:href="#DejaVuSans-Bold-49"/>
       <use transform="translate(69.580078 0.765625)" xlink:href="#DejaVuSans-Bold-48"/>
       <use transform="translate(140.117188 39.046875)scale(0.7)" xlink:href="#DejaVuSans-Bold-48"/>
      </g>
     </g>
    </g>
    <g id="xtick_2">
     <g id="line2d_2">
      <g>
       <use style="stroke:#000000;stroke-width:2.8;" x="213.663504" xlink:href="#m81f820d155" y="252"/>
      </g>
     </g>
     <g id="text_2">
      <!-- $\mathdefault{10^{1}}$ -->
      <g transform="translate(202.143504 268.118125)scale(0.12 -0.12)">
       <use transform="translate(0 0.684375)" xlink:href="#DejaVuSans-Bold-49"/>
       <use transform="translate(69.580078 0.684375)" xlink:href="#DejaVuSans-Bold-48"/>
       <use transform="translate(140.117188 38.965625)scale(0.7)" xlink:href="#DejaVuSans-Bold-49"/>
      </g>
     </g>
    </g>
    <g id="xtick_3">
     <g id="line2d_3">
      <g>
       <use style="stroke:#000000;stroke-width:2.8;" x="373.327008" xlink:href="#m81f820d155" y="252"/>
      </g>
     </g>
     <g id="text_3">
      <!-- $\mathdefault{10^{2}}$ -->
      <defs>
       <path d="M 28.8125 13.8125 
L 60.890625 13.8125 
L 60.890625 0 
L 7.90625 0 
L 7.90625 13.8125 
L 34.515625 37.3125 
Q 38.09375 40.53125 39.796875 43.609375 
Q 41.5 46.6875 41.5 50 
Q 41.5 55.125 38.0625 58.25 
Q 34.625 61.375 28.90625 61.375 
Q 24.515625 61.375 19.28125 59.5 
Q 14.0625 57.625 8.109375 53.90625 
L 8.109375 69.921875 
Q 14.453125 72.015625 20.65625 73.109375 
Q 26.859375 74.21875 32.8125 74.21875 
Q 45.90625 74.21875 53.15625 68.453125 
Q 60.40625 62.703125 60.40625 52.390625 
Q 60.40625 46.4375 57.328125 41.28125 
Q 54.25 36.140625 44.390625 27.484375 
z
" id="DejaVuSans-Bold-50"/>
      </defs>
      <g transform="translate(361.807008 268.118125)scale(0.12 -0.12)">
       <use transform="translate(0 0.765625)" xlink:href="#DejaVuSans-Bold-49"/>
       <use transform="translate(69.580078 0.765625)" xlink:href="#DejaVuSans-Bold-48"/>
       <use transform="translate(140.117188 39.046875)scale(0.7)" xlink:href="#DejaVuSans-Bold-50"/>
      </g>
     </g>
    </g>
    <g id="xtick_4">
     <g id="line2d_4">
      <defs>
       <path d="M 0 0 
L 0 2 
" id="mdc56fc5a3a" style="stroke:#000000;stroke-width:0.6;"/>
      </defs>
      <g>
       <use style="stroke:#000000;stroke-width:0.6;" x="102.063504" xlink:href="#mdc56fc5a3a" y="252"/>
      </g>
     </g>
    </g>
    <g id="xtick_5">
     <g id="line2d_5">
      <g>
       <use style="stroke:#000000;stroke-width:0.6;" x="130.178851" xlink:href="#mdc56fc5a3a" y="252"/>
      </g>
     </g>
    </g>
    <g id="xtick_6">
     <g id="line2d_6">
      <g>
       <use style="stroke:#000000;stroke-width:0.6;" x="150.127008" xlink:href="#mdc56fc5a3a" y="252"/>
      </g>
     </g>
    </g>
    <g id="xtick_7">
     <g id="line2d_7">
      <g>
       <use style="stroke:#000000;stroke-width:0.6;" x="165.6" xlink:href="#mdc56fc5a3a" y="252"/>
      </g>
     </g>
    </g>
    <g id="xtick_8">
     <g id="line2d_8">
      <g>
       <use style="stroke:#000000;stroke-width:0.6;" x="178.242355" xlink:href="#mdc56fc5a3a" y="252"/>
      </g>
     </g>
    </g>
    <g id="xtick_9">
     <g id="line2d_9">
      <g>
       <use style="stroke:#000000;stroke-width:0.6;" x="188.931314" xlink:href="#mdc56fc5a3a" y="252"/>
      </g>
     </g>
    </g>
    <g id="xtick_10">
     <g id="line2d_10">
      <g>
       <use style="stroke:#000000;stroke-width:0.6;" x="198.190512" xlink:href="#mdc56fc5a3a" y="252"/>
      </g>
     </g>
    </g>
    <g id="xtick_11">
     <g id="line2d_11">
      <g>
       <use style="stroke:#000000;stroke-width:0.6;" x="206.357703" xlink:href="#mdc56fc5a3a" y="252"/>
      </g>
     </g>
    </g>
    <g id="xtick_12">
     <g id="line2d_12">
      <g>
       <use style="stroke:#000000;stroke-width:0.6;" x="261.727008" xlink:href="#mdc56fc5a3a" y="252"/>
      </g>
     </g>
    </g>
    <g id="xtick_13">
     <g id="line2d_13">
      <g>
       <use style="stroke:#000000;stroke-width:0.6;" x="289.842355" xlink:href="#mdc56fc5a3a" y="252"/>
      </g>
     </g>
    </g>
    <g id="xtick_14">
     <g id="line2d_14">
      <g>
       <use style="stroke:#000000;stroke-width:0.6;" x="309.790512" xlink:href="#mdc56fc5a3a" y="252"/>
      </g>
     </g>
    </g>
    <g id="xtick_15">
     <g id="line2d_15">
      <g>
       <use style="stroke:#000000;stroke-width:0.6;" x="325.263504" xlink:href="#mdc56fc5a3a" y="252"/>
      </g>
     </g>
    </g>
    <g id="xtick_16">
     <g id="line2d_16">
      <g>
       <use style="stroke:#000000;stroke-width:0.6;" x="337.905859" xlink:href="#mdc56fc5a3a" y="252"/>
      </g>
     </g>
    </g>
    <g id="xtick_17">
     <g id="line2d_17">
      <g>
       <use style="stroke:#000000;stroke-width:0.6;" x="348.594818" xlink:href="#mdc56fc5a3a" y="252"/>
      </g>
     </g>
    </g>
    <g id="xtick_18">
     <g id="line2d_18">
      <g>
       <use style="stroke:#000000;stroke-width:0.6;" x="357.854016" xlink:href="#mdc56fc5a3a" y="252"/>
      </g>
     </g>
    </g>
    <g id="xtick_19">
     <g id="line2d_19">
      <g>
       <use style="stroke:#000000;stroke-width:0.6;" x="366.021206" xlink:href="#mdc56fc5a3a" y="252"/>
      </g>
     </g>
    </g>
    <g id="text_4">
     <!-- Average Spot Intensity (UMP) -->
     <defs>
      <path d="M 53.421875 13.28125 
L 24.03125 13.28125 
L 19.390625 0 
L 0.484375 0 
L 27.484375 72.90625 
L 49.90625 72.90625 
L 76.90625 0 
L 58.015625 0 
z
M 28.71875 26.8125 
L 48.6875 26.8125 
L 38.71875 55.8125 
z
" id="DejaVuSans-Bold-65"/>
      <path d="M 1.515625 54.6875 
L 19 54.6875 
L 32.625 16.890625 
L 46.1875 54.6875 
L 63.71875 54.6875 
L 42.1875 0 
L 23 0 
z
" id="DejaVuSans-Bold-118"/>
      <path d="M 62.984375 27.484375 
L 62.984375 22.515625 
L 22.125 22.515625 
Q 22.75 16.359375 26.5625 13.28125 
Q 30.375 10.203125 37.203125 10.203125 
Q 42.71875 10.203125 48.5 11.84375 
Q 54.296875 13.484375 60.40625 16.796875 
L 60.40625 3.328125 
Q 54.203125 0.984375 48 -0.21875 
Q 41.796875 -1.421875 35.59375 -1.421875 
Q 20.75 -1.421875 12.515625 6.125 
Q 4.296875 13.671875 4.296875 27.296875 
Q 4.296875 40.671875 12.375 48.328125 
Q 20.453125 56 34.625 56 
Q 47.515625 56 55.25 48.234375 
Q 62.984375 40.484375 62.984375 27.484375 
z
M 45.015625 33.296875 
Q 45.015625 38.28125 42.109375 41.328125 
Q 39.203125 44.390625 34.515625 44.390625 
Q 29.4375 44.390625 26.265625 41.53125 
Q 23.09375 38.671875 22.3125 33.296875 
z
" id="DejaVuSans-Bold-101"/>
      <path d="M 49.03125 39.796875 
Q 46.734375 40.875 44.453125 41.375 
Q 42.1875 41.890625 39.890625 41.890625 
Q 33.15625 41.890625 29.515625 37.5625 
Q 25.875 33.25 25.875 25.203125 
L 25.875 0 
L 8.40625 0 
L 8.40625 54.6875 
L 25.875 54.6875 
L 25.875 45.703125 
Q 29.25 51.078125 33.609375 53.53125 
Q 37.984375 56 44.09375 56 
Q 44.96875 56 45.984375 55.921875 
Q 47.015625 55.859375 48.96875 55.609375 
z
" id="DejaVuSans-Bold-114"/>
      <path d="M 32.90625 24.609375 
Q 27.4375 24.609375 24.671875 22.75 
Q 21.921875 20.90625 21.921875 17.28125 
Q 21.921875 13.96875 24.140625 12.078125 
Q 26.375 10.203125 30.328125 10.203125 
Q 35.25 10.203125 38.625 13.734375 
Q 42 17.28125 42 22.609375 
L 42 24.609375 
z
M 59.625 31.203125 
L 59.625 0 
L 42 0 
L 42 8.109375 
Q 38.484375 3.125 34.078125 0.84375 
Q 29.6875 -1.421875 23.390625 -1.421875 
Q 14.890625 -1.421875 9.59375 3.53125 
Q 4.296875 8.5 4.296875 16.40625 
Q 4.296875 26.03125 10.90625 30.515625 
Q 17.53125 35.015625 31.6875 35.015625 
L 42 35.015625 
L 42 36.375 
Q 42 40.53125 38.71875 42.453125 
Q 35.453125 44.390625 28.515625 44.390625 
Q 22.90625 44.390625 18.0625 43.265625 
Q 13.234375 42.140625 9.078125 39.890625 
L 9.078125 53.21875 
Q 14.703125 54.59375 20.359375 55.296875 
Q 26.03125 56 31.6875 56 
Q 46.484375 56 53.046875 50.171875 
Q 59.625 44.34375 59.625 31.203125 
z
" id="DejaVuSans-Bold-97"/>
      <path d="M 45.609375 9.28125 
Q 42 4.5 37.640625 2.25 
Q 33.296875 0 27.59375 0 
Q 17.578125 0 11.03125 7.875 
Q 4.5 15.765625 4.5 27.984375 
Q 4.5 40.234375 11.03125 48.0625 
Q 17.578125 55.90625 27.59375 55.90625 
Q 33.296875 55.90625 37.640625 53.65625 
Q 42 51.421875 45.609375 46.578125 
L 45.609375 54.6875 
L 63.1875 54.6875 
L 63.1875 5.515625 
Q 63.1875 -7.671875 54.859375 -14.625 
Q 46.53125 -21.578125 30.71875 -21.578125 
Q 25.59375 -21.578125 20.796875 -20.796875 
Q 16.015625 -20.015625 11.1875 -18.40625 
L 11.1875 -4.78125 
Q 15.765625 -7.421875 20.15625 -8.71875 
Q 24.5625 -10.015625 29 -10.015625 
Q 37.59375 -10.015625 41.59375 -6.25 
Q 45.609375 -2.484375 45.609375 5.515625 
z
M 34.078125 43.3125 
Q 28.65625 43.3125 25.625 39.296875 
Q 22.609375 35.296875 22.609375 27.984375 
Q 22.609375 20.453125 25.53125 16.578125 
Q 28.46875 12.703125 34.078125 12.703125 
Q 39.546875 12.703125 42.578125 16.703125 
Q 45.609375 20.703125 45.609375 27.984375 
Q 45.609375 35.296875 42.578125 39.296875 
Q 39.546875 43.3125 34.078125 43.3125 
z
" id="DejaVuSans-Bold-103"/>
      <path id="DejaVuSans-Bold-32"/>
      <path d="M 59.90625 70.609375 
L 59.90625 55.171875 
Q 53.90625 57.859375 48.1875 59.21875 
Q 42.484375 60.59375 37.40625 60.59375 
Q 30.671875 60.59375 27.4375 58.734375 
Q 24.21875 56.890625 24.21875 52.984375 
Q 24.21875 50.046875 26.390625 48.40625 
Q 28.5625 46.78125 34.28125 45.609375 
L 42.28125 44 
Q 54.4375 41.546875 59.5625 36.5625 
Q 64.703125 31.59375 64.703125 22.40625 
Q 64.703125 10.359375 57.546875 4.46875 
Q 50.390625 -1.421875 35.6875 -1.421875 
Q 28.765625 -1.421875 21.78125 -0.09375 
Q 14.796875 1.21875 7.8125 3.8125 
L 7.8125 19.671875 
Q 14.796875 15.96875 21.3125 14.078125 
Q 27.828125 12.203125 33.890625 12.203125 
Q 40.046875 12.203125 43.3125 14.25 
Q 46.578125 16.3125 46.578125 20.125 
Q 46.578125 23.53125 44.359375 25.390625 
Q 42.140625 27.25 35.5 28.71875 
L 28.21875 30.328125 
Q 17.28125 32.671875 12.21875 37.796875 
Q 7.171875 42.921875 7.171875 51.609375 
Q 7.171875 62.5 14.203125 68.359375 
Q 21.234375 74.21875 34.421875 74.21875 
Q 40.4375 74.21875 46.78125 73.3125 
Q 53.125 72.40625 59.90625 70.609375 
z
" id="DejaVuSans-Bold-83"/>
      <path d="M 25.875 7.90625 
L 25.875 -20.796875 
L 8.40625 -20.796875 
L 8.40625 54.6875 
L 25.875 54.6875 
L 25.875 46.6875 
Q 29.5 51.46875 33.890625 53.734375 
Q 38.28125 56 44 56 
Q 54.109375 56 60.59375 47.96875 
Q 67.09375 39.9375 67.09375 27.296875 
Q 67.09375 14.65625 60.59375 6.609375 
Q 54.109375 -1.421875 44 -1.421875 
Q 38.28125 -1.421875 33.890625 0.84375 
Q 29.5 3.125 25.875 7.90625 
z
M 37.5 43.3125 
Q 31.890625 43.3125 28.875 39.1875 
Q 25.875 35.0625 25.875 27.296875 
Q 25.875 19.53125 28.875 15.40625 
Q 31.890625 11.28125 37.5 11.28125 
Q 43.109375 11.28125 46.0625 15.375 
Q 49.03125 19.484375 49.03125 27.296875 
Q 49.03125 35.109375 46.0625 39.203125 
Q 43.109375 43.3125 37.5 43.3125 
z
" id="DejaVuSans-Bold-112"/>
      <path d="M 34.421875 43.5 
Q 28.609375 43.5 25.5625 39.328125 
Q 22.515625 35.15625 22.515625 27.296875 
Q 22.515625 19.4375 25.5625 15.25 
Q 28.609375 11.078125 34.421875 11.078125 
Q 40.140625 11.078125 43.15625 15.25 
Q 46.1875 19.4375 46.1875 27.296875 
Q 46.1875 35.15625 43.15625 39.328125 
Q 40.140625 43.5 34.421875 43.5 
z
M 34.421875 56 
Q 48.53125 56 56.46875 48.375 
Q 64.40625 40.765625 64.40625 27.296875 
Q 64.40625 13.8125 56.46875 6.1875 
Q 48.53125 -1.421875 34.421875 -1.421875 
Q 20.265625 -1.421875 12.28125 6.1875 
Q 4.296875 13.8125 4.296875 27.296875 
Q 4.296875 40.765625 12.28125 48.375 
Q 20.265625 56 34.421875 56 
z
" id="DejaVuSans-Bold-111"/>
      <path d="M 27.484375 70.21875 
L 27.484375 54.6875 
L 45.515625 54.6875 
L 45.515625 42.1875 
L 27.484375 42.1875 
L 27.484375 19 
Q 27.484375 15.1875 29 13.84375 
Q 30.515625 12.5 35.015625 12.5 
L 44 12.5 
L 44 0 
L 29 0 
Q 18.65625 0 14.328125 4.3125 
Q 10.015625 8.640625 10.015625 19 
L 10.015625 42.1875 
L 1.3125 42.1875 
L 1.3125 54.6875 
L 10.015625 54.6875 
L 10.015625 70.21875 
z
" id="DejaVuSans-Bold-116"/>
      <path d="M 9.1875 72.90625 
L 27.984375 72.90625 
L 27.984375 0 
L 9.1875 0 
z
" id="DejaVuSans-Bold-73"/>
      <path d="M 63.375 33.296875 
L 63.375 0 
L 45.796875 0 
L 45.796875 5.421875 
L 45.796875 25.484375 
Q 45.796875 32.5625 45.484375 35.25 
Q 45.171875 37.9375 44.390625 39.203125 
Q 43.359375 40.921875 41.59375 41.875 
Q 39.84375 42.828125 37.59375 42.828125 
Q 32.125 42.828125 29 38.59375 
Q 25.875 34.375 25.875 26.90625 
L 25.875 0 
L 8.40625 0 
L 8.40625 54.6875 
L 25.875 54.6875 
L 25.875 46.6875 
Q 29.828125 51.46875 34.265625 53.734375 
Q 38.71875 56 44.09375 56 
Q 53.5625 56 58.46875 50.1875 
Q 63.375 44.390625 63.375 33.296875 
z
" id="DejaVuSans-Bold-110"/>
      <path d="M 51.125 52.984375 
L 51.125 39.703125 
Q 45.515625 42.046875 40.28125 43.21875 
Q 35.0625 44.390625 30.421875 44.390625 
Q 25.4375 44.390625 23.015625 43.140625 
Q 20.609375 41.890625 20.609375 39.3125 
Q 20.609375 37.203125 22.4375 36.078125 
Q 24.265625 34.96875 29 34.421875 
L 32.078125 33.984375 
Q 45.515625 32.28125 50.140625 28.375 
Q 54.78125 24.46875 54.78125 16.109375 
Q 54.78125 7.375 48.328125 2.96875 
Q 41.890625 -1.421875 29.109375 -1.421875 
Q 23.6875 -1.421875 17.890625 -0.5625 
Q 12.109375 0.296875 6 2 
L 6 15.28125 
Q 11.234375 12.75 16.71875 11.46875 
Q 22.21875 10.203125 27.875 10.203125 
Q 33.015625 10.203125 35.59375 11.609375 
Q 38.1875 13.03125 38.1875 15.828125 
Q 38.1875 18.171875 36.40625 19.3125 
Q 34.625 20.453125 29.296875 21.09375 
L 26.21875 21.484375 
Q 14.546875 22.953125 9.859375 26.90625 
Q 5.171875 30.859375 5.171875 38.921875 
Q 5.171875 47.609375 11.125 51.796875 
Q 17.09375 56 29.390625 56 
Q 34.234375 56 39.546875 55.265625 
Q 44.875 54.546875 51.125 52.984375 
z
" id="DejaVuSans-Bold-115"/>
      <path d="M 8.40625 54.6875 
L 25.875 54.6875 
L 25.875 0 
L 8.40625 0 
z
M 8.40625 75.984375 
L 25.875 75.984375 
L 25.875 61.71875 
L 8.40625 61.71875 
z
" id="DejaVuSans-Bold-105"/>
      <path d="M 1.21875 54.6875 
L 18.703125 54.6875 
L 33.40625 17.578125 
L 45.90625 54.6875 
L 63.375 54.6875 
L 40.375 -5.171875 
Q 36.921875 -14.3125 32.296875 -17.9375 
Q 27.6875 -21.578125 20.125 -21.578125 
L 10.015625 -21.578125 
L 10.015625 -10.109375 
L 15.484375 -10.109375 
Q 19.921875 -10.109375 21.9375 -8.6875 
Q 23.96875 -7.28125 25.09375 -3.609375 
L 25.59375 -2.09375 
z
" id="DejaVuSans-Bold-121"/>
      <path d="M 37.703125 -13.1875 
L 23.1875 -13.1875 
Q 15.71875 -1.125 12.15625 9.734375 
Q 8.59375 20.609375 8.59375 31.296875 
Q 8.59375 42 12.171875 52.953125 
Q 15.765625 63.921875 23.1875 75.875 
L 37.703125 75.875 
Q 31.453125 64.3125 28.328125 53.25 
Q 25.203125 42.1875 25.203125 31.390625 
Q 25.203125 20.609375 28.296875 9.515625 
Q 31.390625 -1.5625 37.703125 -13.1875 
z
" id="DejaVuSans-Bold-40"/>
      <path d="M 9.1875 72.90625 
L 27.984375 72.90625 
L 27.984375 29.203125 
Q 27.984375 20.171875 30.9375 16.28125 
Q 33.890625 12.40625 40.578125 12.40625 
Q 47.3125 12.40625 50.265625 16.28125 
Q 53.21875 20.171875 53.21875 29.203125 
L 53.21875 72.90625 
L 72.015625 72.90625 
L 72.015625 29.203125 
Q 72.015625 13.71875 64.25 6.140625 
Q 56.5 -1.421875 40.578125 -1.421875 
Q 24.703125 -1.421875 16.9375 6.140625 
Q 9.1875 13.71875 9.1875 29.203125 
z
" id="DejaVuSans-Bold-85"/>
      <path d="M 9.1875 72.90625 
L 33.109375 72.90625 
L 49.703125 33.890625 
L 66.40625 72.90625 
L 90.28125 72.90625 
L 90.28125 0 
L 72.515625 0 
L 72.515625 53.328125 
L 55.71875 14.015625 
L 43.796875 14.015625 
L 27 53.328125 
L 27 0 
L 9.1875 0 
z
" id="DejaVuSans-Bold-77"/>
      <path d="M 9.1875 72.90625 
L 40.375 72.90625 
Q 54.296875 72.90625 61.734375 66.71875 
Q 69.1875 60.546875 69.1875 49.125 
Q 69.1875 37.640625 61.734375 31.46875 
Q 54.296875 25.296875 40.375 25.296875 
L 27.984375 25.296875 
L 27.984375 0 
L 9.1875 0 
z
M 27.984375 59.28125 
L 27.984375 38.921875 
L 38.375 38.921875 
Q 43.84375 38.921875 46.828125 41.578125 
Q 49.8125 44.234375 49.8125 49.125 
Q 49.8125 54 46.828125 56.640625 
Q 43.84375 59.28125 38.375 59.28125 
z
" id="DejaVuSans-Bold-80"/>
      <path d="M 8.015625 -13.1875 
Q 14.265625 -1.5625 17.390625 9.515625 
Q 20.515625 20.609375 20.515625 31.390625 
Q 20.515625 42.1875 17.390625 53.25 
Q 14.265625 64.3125 8.015625 75.875 
L 22.515625 75.875 
Q 29.9375 63.921875 33.515625 52.953125 
Q 37.109375 42 37.109375 31.296875 
Q 37.109375 20.609375 33.546875 9.734375 
Q 29.984375 -1.125 22.515625 -13.1875 
z
" id="DejaVuSans-Bold-41"/>
     </defs>
     <g transform="translate(120.904688 287.731875)scale(0.12 -0.12)">
      <use xlink:href="#DejaVuSans-Bold-65"/>
      <use x="73.767578" xlink:href="#DejaVuSans-Bold-118"/>
      <use x="138.953125" xlink:href="#DejaVuSans-Bold-101"/>
      <use x="206.775391" xlink:href="#DejaVuSans-Bold-114"/>
      <use x="256.091797" xlink:href="#DejaVuSans-Bold-97"/>
      <use x="323.572266" xlink:href="#DejaVuSans-Bold-103"/>
      <use x="395.154297" xlink:href="#DejaVuSans-Bold-101"/>
      <use x="462.976562" xlink:href="#DejaVuSans-Bold-32"/>
      <use x="497.791016" xlink:href="#DejaVuSans-Bold-83"/>
      <use x="569.8125" xlink:href="#DejaVuSans-Bold-112"/>
      <use x="641.394531" xlink:href="#DejaVuSans-Bold-111"/>
      <use x="710.095703" xlink:href="#DejaVuSans-Bold-116"/>
      <use x="757.898438" xlink:href="#DejaVuSans-Bold-32"/>
      <use x="792.712891" xlink:href="#DejaVuSans-Bold-73"/>
      <use x="829.919922" xlink:href="#DejaVuSans-Bold-110"/>
      <use x="901.111328" xlink:href="#DejaVuSans-Bold-116"/>
      <use x="948.914062" xlink:href="#DejaVuSans-Bold-101"/>
      <use x="1016.736328" xlink:href="#DejaVuSans-Bold-110"/>
      <use x="1087.927734" xlink:href="#DejaVuSans-Bold-115"/>
      <use x="1147.449219" xlink:href="#DejaVuSans-Bold-105"/>
      <use x="1181.726562" xlink:href="#DejaVuSans-Bold-116"/>
      <use x="1229.529297" xlink:href="#DejaVuSans-Bold-121"/>
      <use x="1294.714844" xlink:href="#DejaVuSans-Bold-32"/>
      <use x="1329.529297" xlink:href="#DejaVuSans-Bold-40"/>
      <use x="1375.232422" xlink:href="#DejaVuSans-Bold-85"/>
      <use x="1456.433594" xlink:href="#DejaVuSans-Bold-77"/>
      <use x="1555.945312" xlink:href="#DejaVuSans-Bold-80"/>
      <use x="1629.236328" xlink:href="#DejaVuSans-Bold-41"/>
     </g>
    </g>
   </g>
   <g id="matplotlib.axis_2">
    <g id="ytick_1">
     <g id="line2d_20">
      <defs>
       <path d="M 0 0 
L -3.5 0 
" id="mc8d4cf391c" style="stroke:#000000;stroke-width:2.8;"/>
      </defs>
      <g>
       <use style="stroke:#000000;stroke-width:2.8;" x="54" xlink:href="#mc8d4cf391c" y="252"/>
      </g>
     </g>
     <g id="text_5">
      <!-- 0.6 -->
      <defs>
       <path d="M 10.203125 18.890625 
L 27.78125 18.890625 
L 27.78125 0 
L 10.203125 0 
z
" id="DejaVuSans-Bold-46"/>
       <path d="M 36.1875 35.984375 
Q 31.25 35.984375 28.78125 32.78125 
Q 26.3125 29.59375 26.3125 23.1875 
Q 26.3125 16.796875 28.78125 13.59375 
Q 31.25 10.40625 36.1875 10.40625 
Q 41.15625 10.40625 43.625 13.59375 
Q 46.09375 16.796875 46.09375 23.1875 
Q 46.09375 29.59375 43.625 32.78125 
Q 41.15625 35.984375 36.1875 35.984375 
z
M 59.421875 71 
L 59.421875 57.515625 
Q 54.78125 59.71875 50.671875 60.765625 
Q 46.578125 61.8125 42.671875 61.8125 
Q 34.28125 61.8125 29.59375 57.140625 
Q 24.90625 52.484375 24.125 43.3125 
Q 27.34375 45.703125 31.09375 46.890625 
Q 34.859375 48.09375 39.3125 48.09375 
Q 50.484375 48.09375 57.34375 41.546875 
Q 64.203125 35.015625 64.203125 24.421875 
Q 64.203125 12.703125 56.53125 5.640625 
Q 48.875 -1.421875 35.984375 -1.421875 
Q 21.78125 -1.421875 13.984375 8.171875 
Q 6.203125 17.78125 6.203125 35.40625 
Q 6.203125 53.46875 15.3125 63.796875 
Q 24.421875 74.125 40.28125 74.125 
Q 45.3125 74.125 50.046875 73.34375 
Q 54.78125 72.5625 59.421875 71 
z
" id="DejaVuSans-Bold-54"/>
      </defs>
      <g transform="translate(25.743125 256.559062)scale(0.12 -0.12)">
       <use xlink:href="#DejaVuSans-Bold-48"/>
       <use x="69.580078" xlink:href="#DejaVuSans-Bold-46"/>
       <use x="107.568359" xlink:href="#DejaVuSans-Bold-54"/>
      </g>
     </g>
    </g>
    <g id="ytick_2">
     <g id="line2d_21">
      <g>
       <use style="stroke:#000000;stroke-width:2.8;" x="54" xlink:href="#mc8d4cf391c" y="203.68"/>
      </g>
     </g>
     <g id="text_6">
      <!-- 0.7 -->
      <defs>
       <path d="M 6.6875 72.90625 
L 61.625 72.90625 
L 61.625 62.3125 
L 33.203125 0 
L 14.890625 0 
L 41.796875 59.078125 
L 6.6875 59.078125 
z
" id="DejaVuSans-Bold-55"/>
      </defs>
      <g transform="translate(25.743125 208.239062)scale(0.12 -0.12)">
       <use xlink:href="#DejaVuSans-Bold-48"/>
       <use x="69.580078" xlink:href="#DejaVuSans-Bold-46"/>
       <use x="107.568359" xlink:href="#DejaVuSans-Bold-55"/>
      </g>
     </g>
    </g>
    <g id="ytick_3">
     <g id="line2d_22">
      <g>
       <use style="stroke:#000000;stroke-width:2.8;" x="54" xlink:href="#mc8d4cf391c" y="155.36"/>
      </g>
     </g>
     <g id="text_7">
      <!-- 0.8 -->
      <defs>
       <path d="M 34.8125 32.625 
Q 29.546875 32.625 26.703125 29.734375 
Q 23.875 26.859375 23.875 21.484375 
Q 23.875 16.109375 26.703125 13.25 
Q 29.546875 10.40625 34.8125 10.40625 
Q 40.046875 10.40625 42.828125 13.25 
Q 45.609375 16.109375 45.609375 21.484375 
Q 45.609375 26.90625 42.828125 29.765625 
Q 40.046875 32.625 34.8125 32.625 
z
M 21.09375 38.8125 
Q 14.453125 40.828125 11.078125 44.96875 
Q 7.71875 49.125 7.71875 55.328125 
Q 7.71875 64.546875 14.59375 69.375 
Q 21.484375 74.21875 34.8125 74.21875 
Q 48.046875 74.21875 54.921875 69.40625 
Q 61.8125 64.59375 61.8125 55.328125 
Q 61.8125 49.125 58.421875 44.96875 
Q 55.03125 40.828125 48.390625 38.8125 
Q 55.8125 36.765625 59.59375 32.15625 
Q 63.375 27.546875 63.375 20.515625 
Q 63.375 9.671875 56.171875 4.125 
Q 48.96875 -1.421875 34.8125 -1.421875 
Q 20.609375 -1.421875 13.359375 4.125 
Q 6.109375 9.671875 6.109375 20.515625 
Q 6.109375 27.546875 9.890625 32.15625 
Q 13.671875 36.765625 21.09375 38.8125 
z
M 25.484375 53.421875 
Q 25.484375 49.078125 27.90625 46.734375 
Q 30.328125 44.390625 34.8125 44.390625 
Q 39.203125 44.390625 41.59375 46.734375 
Q 44 49.078125 44 53.421875 
Q 44 57.765625 41.59375 60.078125 
Q 39.203125 62.40625 34.8125 62.40625 
Q 30.328125 62.40625 27.90625 60.0625 
Q 25.484375 57.71875 25.484375 53.421875 
z
" id="DejaVuSans-Bold-56"/>
      </defs>
      <g transform="translate(25.743125 159.919063)scale(0.12 -0.12)">
       <use xlink:href="#DejaVuSans-Bold-48"/>
       <use x="69.580078" xlink:href="#DejaVuSans-Bold-46"/>
       <use x="107.568359" xlink:href="#DejaVuSans-Bold-56"/>
      </g>
     </g>
    </g>
    <g id="ytick_4">
     <g id="line2d_23">
      <g>
       <use style="stroke:#000000;stroke-width:2.8;" x="54" xlink:href="#mc8d4cf391c" y="107.04"/>
      </g>
     </g>
     <g id="text_8">
      <!-- 0.9 -->
      <defs>
       <path d="M 10.015625 1.609375 
L 10.015625 15.09375 
Q 14.5 12.984375 18.59375 11.9375 
Q 22.703125 10.890625 26.703125 10.890625 
Q 35.109375 10.890625 39.796875 15.546875 
Q 44.484375 20.21875 45.3125 29.390625 
Q 42 26.953125 38.234375 25.734375 
Q 34.46875 24.515625 30.078125 24.515625 
Q 18.890625 24.515625 12.03125 31.03125 
Q 5.171875 37.546875 5.171875 48.1875 
Q 5.171875 59.96875 12.8125 67.046875 
Q 20.453125 74.125 33.296875 74.125 
Q 47.5625 74.125 55.375 64.5 
Q 63.1875 54.890625 63.1875 37.3125 
Q 63.1875 19.234375 54.046875 8.90625 
Q 44.921875 -1.421875 29 -1.421875 
Q 23.875 -1.421875 19.1875 -0.65625 
Q 14.5 0.09375 10.015625 1.609375 
z
M 33.203125 36.71875 
Q 38.140625 36.71875 40.625 39.90625 
Q 43.109375 43.109375 43.109375 49.515625 
Q 43.109375 55.859375 40.625 59.078125 
Q 38.140625 62.3125 33.203125 62.3125 
Q 28.265625 62.3125 25.78125 59.078125 
Q 23.296875 55.859375 23.296875 49.515625 
Q 23.296875 43.109375 25.78125 39.90625 
Q 28.265625 36.71875 33.203125 36.71875 
z
" id="DejaVuSans-Bold-57"/>
      </defs>
      <g transform="translate(25.743125 111.599063)scale(0.12 -0.12)">
       <use xlink:href="#DejaVuSans-Bold-48"/>
       <use x="69.580078" xlink:href="#DejaVuSans-Bold-46"/>
       <use x="107.568359" xlink:href="#DejaVuSans-Bold-57"/>
      </g>
     </g>
    </g>
    <g id="ytick_5">
     <g id="line2d_24">
      <g>
       <use style="stroke:#000000;stroke-width:2.8;" x="54" xlink:href="#mc8d4cf391c" y="58.72"/>
      </g>
     </g>
     <g id="text_9">
      <!-- 1.0 -->
      <g transform="translate(25.743125 63.279063)scale(0.12 -0.12)">
       <use xlink:href="#DejaVuSans-Bold-49"/>
       <use x="69.580078" xlink:href="#DejaVuSans-Bold-46"/>
       <use x="107.568359" xlink:href="#DejaVuSans-Bold-48"/>
      </g>
     </g>
    </g>
    <g id="text_10">
     <!-- Test Accuracy -->
     <defs>
      <path d="M 0.484375 72.90625 
L 67.671875 72.90625 
L 67.671875 58.6875 
L 43.5 58.6875 
L 43.5 0 
L 24.703125 0 
L 24.703125 58.6875 
L 0.484375 58.6875 
z
" id="DejaVuSans-Bold-84"/>
      <path d="M 52.59375 52.984375 
L 52.59375 38.71875 
Q 49.03125 41.15625 45.4375 42.328125 
Q 41.84375 43.5 37.984375 43.5 
Q 30.671875 43.5 26.59375 39.234375 
Q 22.515625 34.96875 22.515625 27.296875 
Q 22.515625 19.625 26.59375 15.34375 
Q 30.671875 11.078125 37.984375 11.078125 
Q 42.09375 11.078125 45.78125 12.296875 
Q 49.46875 13.53125 52.59375 15.921875 
L 52.59375 1.609375 
Q 48.484375 0.09375 44.265625 -0.65625 
Q 40.046875 -1.421875 35.796875 -1.421875 
Q 21 -1.421875 12.640625 6.171875 
Q 4.296875 13.765625 4.296875 27.296875 
Q 4.296875 40.828125 12.640625 48.40625 
Q 21 56 35.796875 56 
Q 40.09375 56 44.265625 55.25 
Q 48.4375 54.5 52.59375 52.984375 
z
" id="DejaVuSans-Bold-99"/>
      <path d="M 7.8125 21.296875 
L 7.8125 54.6875 
L 25.390625 54.6875 
L 25.390625 49.21875 
Q 25.390625 44.78125 25.34375 38.0625 
Q 25.296875 31.34375 25.296875 29.109375 
Q 25.296875 22.515625 25.640625 19.609375 
Q 25.984375 16.703125 26.8125 15.375 
Q 27.875 13.671875 29.609375 12.734375 
Q 31.34375 11.8125 33.59375 11.8125 
Q 39.0625 11.8125 42.1875 16.015625 
Q 45.3125 20.21875 45.3125 27.6875 
L 45.3125 54.6875 
L 62.796875 54.6875 
L 62.796875 0 
L 45.3125 0 
L 45.3125 7.90625 
Q 41.359375 3.125 36.9375 0.84375 
Q 32.515625 -1.421875 27.203125 -1.421875 
Q 17.71875 -1.421875 12.765625 4.390625 
Q 7.8125 10.203125 7.8125 21.296875 
z
" id="DejaVuSans-Bold-117"/>
     </defs>
     <g transform="translate(15.15375 189.679688)rotate(-90)scale(0.12 -0.12)">
      <use xlink:href="#DejaVuSans-Bold-84"/>
      <use x="54.962891" xlink:href="#DejaVuSans-Bold-101"/>
      <use x="122.785156" xlink:href="#DejaVuSans-Bold-115"/>
      <use x="182.306641" xlink:href="#DejaVuSans-Bold-116"/>
      <use x="230.109375" xlink:href="#DejaVuSans-Bold-32"/>
      <use x="264.923828" xlink:href="#DejaVuSans-Bold-65"/>
      <use x="342.316406" xlink:href="#DejaVuSans-Bold-99"/>
      <use x="401.59375" xlink:href="#DejaVuSans-Bold-99"/>
      <use x="460.871094" xlink:href="#DejaVuSans-Bold-117"/>
      <use x="532.0625" xlink:href="#DejaVuSans-Bold-114"/>
      <use x="581.378906" xlink:href="#DejaVuSans-Bold-97"/>
      <use x="648.859375" xlink:href="#DejaVuSans-Bold-99"/>
      <use x="708.136719" xlink:href="#DejaVuSans-Bold-121"/>
     </g>
    </g>
   </g>
   <g id="line2d_25">
    <defs>
     <path d="M 0 3 
C 0.795609 3 1.55874 2.683901 2.12132 2.12132 
C 2.683901 1.55874 3 0.795609 3 0 
C 3 -0.795609 2.683901 -1.55874 2.12132 -2.12132 
C 1.55874 -2.683901 0.795609 -3 0 -3 
C -0.795609 -3 -1.55874 -2.683901 -2.12132 -2.12132 
C -2.683901 -1.55874 -3 -0.795609 -3 0 
C -3 0.795609 -2.683901 1.55874 -2.12132 2.12132 
C -1.55874 2.683901 -0.795609 3 0 3 
z
" id="mc2664cb90f" style="stroke:#073b4c;stroke-opacity:0.3;"/>
    </defs>
    <g clip-path="url(#p2bb5546860)">
     <use style="fill:#073b4c;fill-opacity:0.3;stroke:#073b4c;stroke-opacity:0.3;" x="218.758872" xlink:href="#mc2664cb90f" y="184.351995"/>
     <use style="fill:#073b4c;fill-opacity:0.3;stroke:#073b4c;stroke-opacity:0.3;" x="188.121756" xlink:href="#mc2664cb90f" y="202.230396"/>
     <use style="fill:#073b4c;fill-opacity:0.3;stroke:#073b4c;stroke-opacity:0.3;" x="166.946294" xlink:href="#mc2664cb90f" y="220.59199"/>
     <use style="fill:#073b4c;fill-opacity:0.3;stroke:#073b4c;stroke-opacity:0.3;" x="150.747211" xlink:href="#mc2664cb90f" y="229.289593"/>
     <use style="fill:#073b4c;fill-opacity:0.3;stroke:#073b4c;stroke-opacity:0.3;" x="137.624986" xlink:href="#mc2664cb90f" y="221.075212"/>
     <use style="fill:#073b4c;fill-opacity:0.3;stroke:#073b4c;stroke-opacity:0.3;" x="126.595284" xlink:href="#mc2664cb90f" y="252.483211"/>
     <use style="fill:#073b4c;fill-opacity:0.3;stroke:#073b4c;stroke-opacity:0.3;" x="117.081624" xlink:href="#mc2664cb90f" y="242.335998"/>
     <use style="fill:#073b4c;fill-opacity:0.3;stroke:#073b4c;stroke-opacity:0.3;" x="108.717161" xlink:href="#mc2664cb90f" y="246.684799"/>
     <use style="fill:#073b4c;fill-opacity:0.3;stroke:#073b4c;stroke-opacity:0.3;" x="101.253946" xlink:href="#mc2664cb90f" y="253.932792"/>
     <use style="fill:#073b4c;fill-opacity:0.3;stroke:#073b4c;stroke-opacity:0.3;" x="94.516516" xlink:href="#mc2664cb90f" y="250.067213"/>
     <use style="fill:#073b4c;fill-opacity:0.3;stroke:#073b4c;stroke-opacity:0.3;" x="266.822375" xlink:href="#mc2664cb90f" y="151.011193"/>
     <use style="fill:#073b4c;fill-opacity:0.3;stroke:#073b4c;stroke-opacity:0.3;" x="236.18526" xlink:href="#mc2664cb90f" y="164.057597"/>
     <use style="fill:#073b4c;fill-opacity:0.3;stroke:#073b4c;stroke-opacity:0.3;" x="215.009798" xlink:href="#mc2664cb90f" y="188.217603"/>
     <use style="fill:#073b4c;fill-opacity:0.3;stroke:#073b4c;stroke-opacity:0.3;" x="198.810715" xlink:href="#mc2664cb90f" y="194.015986"/>
     <use style="fill:#073b4c;fill-opacity:0.3;stroke:#073b4c;stroke-opacity:0.3;" x="185.68849" xlink:href="#mc2664cb90f" y="192.083211"/>
     <use style="fill:#073b4c;fill-opacity:0.3;stroke:#073b4c;stroke-opacity:0.3;" x="174.658788" xlink:href="#mc2664cb90f" y="201.747202"/>
     <use style="fill:#073b4c;fill-opacity:0.3;stroke:#073b4c;stroke-opacity:0.3;" x="165.145128" xlink:href="#mc2664cb90f" y="197.881594"/>
     <use style="fill:#073b4c;fill-opacity:0.3;stroke:#073b4c;stroke-opacity:0.3;" x="156.780665" xlink:href="#mc2664cb90f" y="204.1632"/>
     <use style="fill:#073b4c;fill-opacity:0.3;stroke:#073b4c;stroke-opacity:0.3;" x="149.31745" xlink:href="#mc2664cb90f" y="204.646393"/>
     <use style="fill:#073b4c;fill-opacity:0.3;stroke:#073b4c;stroke-opacity:0.3;" x="142.58002" xlink:href="#mc2664cb90f" y="217.692798"/>
     <use style="fill:#073b4c;fill-opacity:0.3;stroke:#073b4c;stroke-opacity:0.3;" x="294.937723" xlink:href="#mc2664cb90f" y="120.086388"/>
     <use style="fill:#073b4c;fill-opacity:0.3;stroke:#073b4c;stroke-opacity:0.3;" x="264.300607" xlink:href="#mc2664cb90f" y="155.843188"/>
     <use style="fill:#073b4c;fill-opacity:0.3;stroke:#073b4c;stroke-opacity:0.3;" x="243.125145" xlink:href="#mc2664cb90f" y="179.52"/>
     <use style="fill:#073b4c;fill-opacity:0.3;stroke:#073b4c;stroke-opacity:0.3;" x="226.926063" xlink:href="#mc2664cb90f" y="174.204811"/>
     <use style="fill:#073b4c;fill-opacity:0.3;stroke:#073b4c;stroke-opacity:0.3;" x="213.803837" xlink:href="#mc2664cb90f" y="166.473595"/>
     <use style="fill:#073b4c;fill-opacity:0.3;stroke:#073b4c;stroke-opacity:0.3;" x="202.774135" xlink:href="#mc2664cb90f" y="181.935998"/>
     <use style="fill:#073b4c;fill-opacity:0.3;stroke:#073b4c;stroke-opacity:0.3;" x="193.260475" xlink:href="#mc2664cb90f" y="176.137586"/>
     <use style="fill:#073b4c;fill-opacity:0.3;stroke:#073b4c;stroke-opacity:0.3;" x="184.896013" xlink:href="#mc2664cb90f" y="182.902414"/>
     <use style="fill:#073b4c;fill-opacity:0.3;stroke:#073b4c;stroke-opacity:0.3;" x="177.432797" xlink:href="#mc2664cb90f" y="184.351995"/>
     <use style="fill:#073b4c;fill-opacity:0.3;stroke:#073b4c;stroke-opacity:0.3;" x="170.695368" xlink:href="#mc2664cb90f" y="182.902414"/>
     <use style="fill:#073b4c;fill-opacity:0.3;stroke:#073b4c;stroke-opacity:0.3;" x="314.885879" xlink:href="#mc2664cb90f" y="110.422397"/>
     <use style="fill:#073b4c;fill-opacity:0.3;stroke:#073b4c;stroke-opacity:0.3;" x="284.248764" xlink:href="#mc2664cb90f" y="122.502414"/>
     <use style="fill:#073b4c;fill-opacity:0.3;stroke:#073b4c;stroke-opacity:0.3;" x="263.073301" xlink:href="#mc2664cb90f" y="146.179197"/>
     <use style="fill:#073b4c;fill-opacity:0.3;stroke:#073b4c;stroke-opacity:0.3;" x="246.874219" xlink:href="#mc2664cb90f" y="152.943997"/>
     <use style="fill:#073b4c;fill-opacity:0.3;stroke:#073b4c;stroke-opacity:0.3;" x="233.751993" xlink:href="#mc2664cb90f" y="157.292798"/>
     <use style="fill:#073b4c;fill-opacity:0.3;stroke:#073b4c;stroke-opacity:0.3;" x="222.722292" xlink:href="#mc2664cb90f" y="177.587196"/>
     <use style="fill:#073b4c;fill-opacity:0.3;stroke:#073b4c;stroke-opacity:0.3;" x="213.208632" xlink:href="#mc2664cb90f" y="152.460803"/>
     <use style="fill:#073b4c;fill-opacity:0.3;stroke:#073b4c;stroke-opacity:0.3;" x="204.844169" xlink:href="#mc2664cb90f" y="166.956789"/>
     <use style="fill:#073b4c;fill-opacity:0.3;stroke:#073b4c;stroke-opacity:0.3;" x="197.380954" xlink:href="#mc2664cb90f" y="182.419191"/>
     <use style="fill:#073b4c;fill-opacity:0.3;stroke:#073b4c;stroke-opacity:0.3;" x="190.643524" xlink:href="#mc2664cb90f" y="169.856009"/>
     <use style="fill:#073b4c;fill-opacity:0.3;stroke:#073b4c;stroke-opacity:0.3;" x="330.358872" xlink:href="#mc2664cb90f" y="94.959994"/>
     <use style="fill:#073b4c;fill-opacity:0.3;stroke:#073b4c;stroke-opacity:0.3;" x="299.721756" xlink:href="#mc2664cb90f" y="114.288005"/>
     <use style="fill:#073b4c;fill-opacity:0.3;stroke:#073b4c;stroke-opacity:0.3;" x="278.546294" xlink:href="#mc2664cb90f" y="132.166405"/>
     <use style="fill:#073b4c;fill-opacity:0.3;stroke:#073b4c;stroke-opacity:0.3;" x="262.347211" xlink:href="#mc2664cb90f" y="133.132792"/>
     <use style="fill:#073b4c;fill-opacity:0.3;stroke:#073b4c;stroke-opacity:0.3;" x="249.224986" xlink:href="#mc2664cb90f" y="142.796812"/>
     <use style="fill:#073b4c;fill-opacity:0.3;stroke:#073b4c;stroke-opacity:0.3;" x="238.195284" xlink:href="#mc2664cb90f" y="141.830396"/>
     <use style="fill:#073b4c;fill-opacity:0.3;stroke:#073b4c;stroke-opacity:0.3;" x="228.681624" xlink:href="#mc2664cb90f" y="153.910413"/>
     <use style="fill:#073b4c;fill-opacity:0.3;stroke:#073b4c;stroke-opacity:0.3;" x="220.317161" xlink:href="#mc2664cb90f" y="161.158406"/>
     <use style="fill:#073b4c;fill-opacity:0.3;stroke:#073b4c;stroke-opacity:0.3;" x="212.853946" xlink:href="#mc2664cb90f" y="152.460803"/>
     <use style="fill:#073b4c;fill-opacity:0.3;stroke:#073b4c;stroke-opacity:0.3;" x="206.116516" xlink:href="#mc2664cb90f" y="156.326411"/>
     <use style="fill:#073b4c;fill-opacity:0.3;stroke:#073b4c;stroke-opacity:0.3;" x="343.001227" xlink:href="#mc2664cb90f" y="79.980814"/>
     <use style="fill:#073b4c;fill-opacity:0.3;stroke:#073b4c;stroke-opacity:0.3;" x="312.364111" xlink:href="#mc2664cb90f" y="109.939203"/>
     <use style="fill:#073b4c;fill-opacity:0.3;stroke:#073b4c;stroke-opacity:0.3;" x="291.188649" xlink:href="#mc2664cb90f" y="120.086388"/>
     <use style="fill:#073b4c;fill-opacity:0.3;stroke:#073b4c;stroke-opacity:0.3;" x="274.989566" xlink:href="#mc2664cb90f" y="121.535998"/>
     <use style="fill:#073b4c;fill-opacity:0.3;stroke:#073b4c;stroke-opacity:0.3;" x="261.867341" xlink:href="#mc2664cb90f" y="125.884799"/>
     <use style="fill:#073b4c;fill-opacity:0.3;stroke:#073b4c;stroke-opacity:0.3;" x="250.837639" xlink:href="#mc2664cb90f" y="126.367993"/>
     <use style="fill:#073b4c;fill-opacity:0.3;stroke:#073b4c;stroke-opacity:0.3;" x="241.323979" xlink:href="#mc2664cb90f" y="138.44801"/>
     <use style="fill:#073b4c;fill-opacity:0.3;stroke:#073b4c;stroke-opacity:0.3;" x="232.959517" xlink:href="#mc2664cb90f" y="140.380814"/>
     <use style="fill:#073b4c;fill-opacity:0.3;stroke:#073b4c;stroke-opacity:0.3;" x="225.496301" xlink:href="#mc2664cb90f" y="148.595195"/>
     <use style="fill:#073b4c;fill-opacity:0.3;stroke:#073b4c;stroke-opacity:0.3;" x="218.758872" xlink:href="#mc2664cb90f" y="147.145614"/>
     <use style="fill:#073b4c;fill-opacity:0.3;stroke:#073b4c;stroke-opacity:0.3;" x="353.690186" xlink:href="#mc2664cb90f" y="80.947202"/>
     <use style="fill:#073b4c;fill-opacity:0.3;stroke:#073b4c;stroke-opacity:0.3;" x="323.05307" xlink:href="#mc2664cb90f" y="100.275212"/>
     <use style="fill:#073b4c;fill-opacity:0.3;stroke:#073b4c;stroke-opacity:0.3;" x="301.877608" xlink:href="#mc2664cb90f" y="109.939203"/>
     <use style="fill:#073b4c;fill-opacity:0.3;stroke:#073b4c;stroke-opacity:0.3;" x="285.678525" xlink:href="#mc2664cb90f" y="113.321588"/>
     <use style="fill:#073b4c;fill-opacity:0.3;stroke:#073b4c;stroke-opacity:0.3;" x="272.5563" xlink:href="#mc2664cb90f" y="126.851187"/>
     <use style="fill:#073b4c;fill-opacity:0.3;stroke:#073b4c;stroke-opacity:0.3;" x="261.526598" xlink:href="#mc2664cb90f" y="132.649599"/>
     <use style="fill:#073b4c;fill-opacity:0.3;stroke:#073b4c;stroke-opacity:0.3;" x="252.012938" xlink:href="#mc2664cb90f" y="127.817603"/>
     <use style="fill:#073b4c;fill-opacity:0.3;stroke:#073b4c;stroke-opacity:0.3;" x="243.648476" xlink:href="#mc2664cb90f" y="136.032013"/>
     <use style="fill:#073b4c;fill-opacity:0.3;stroke:#073b4c;stroke-opacity:0.3;" x="236.18526" xlink:href="#mc2664cb90f" y="133.615986"/>
     <use style="fill:#073b4c;fill-opacity:0.3;stroke:#073b4c;stroke-opacity:0.3;" x="229.447831" xlink:href="#mc2664cb90f" y="123.951995"/>
     <use style="fill:#073b4c;fill-opacity:0.3;stroke:#073b4c;stroke-opacity:0.3;" x="362.949383" xlink:href="#mc2664cb90f" y="66.451187"/>
     <use style="fill:#073b4c;fill-opacity:0.3;stroke:#073b4c;stroke-opacity:0.3;" x="332.312268" xlink:href="#mc2664cb90f" y="94.959994"/>
     <use style="fill:#073b4c;fill-opacity:0.3;stroke:#073b4c;stroke-opacity:0.3;" x="311.136805" xlink:href="#mc2664cb90f" y="88.678389"/>
     <use style="fill:#073b4c;fill-opacity:0.3;stroke:#073b4c;stroke-opacity:0.3;" x="294.937723" xlink:href="#mc2664cb90f" y="114.288005"/>
     <use style="fill:#073b4c;fill-opacity:0.3;stroke:#073b4c;stroke-opacity:0.3;" x="281.815497" xlink:href="#mc2664cb90f" y="109.939203"/>
     <use style="fill:#073b4c;fill-opacity:0.3;stroke:#073b4c;stroke-opacity:0.3;" x="270.785796" xlink:href="#mc2664cb90f" y="122.019191"/>
     <use style="fill:#073b4c;fill-opacity:0.3;stroke:#073b4c;stroke-opacity:0.3;" x="261.272136" xlink:href="#mc2664cb90f" y="127.817603"/>
     <use style="fill:#073b4c;fill-opacity:0.3;stroke:#073b4c;stroke-opacity:0.3;" x="252.907673" xlink:href="#mc2664cb90f" y="119.12"/>
     <use style="fill:#073b4c;fill-opacity:0.3;stroke:#073b4c;stroke-opacity:0.3;" x="245.444457" xlink:href="#mc2664cb90f" y="121.052804"/>
     <use style="fill:#073b4c;fill-opacity:0.3;stroke:#073b4c;stroke-opacity:0.3;" x="238.707028" xlink:href="#mc2664cb90f" y="120.086388"/>
     <use style="fill:#073b4c;fill-opacity:0.3;stroke:#073b4c;stroke-opacity:0.3;" x="371.116574" xlink:href="#mc2664cb90f" y="67.417603"/>
     <use style="fill:#073b4c;fill-opacity:0.3;stroke:#073b4c;stroke-opacity:0.3;" x="340.479459" xlink:href="#mc2664cb90f" y="82.396812"/>
     <use style="fill:#073b4c;fill-opacity:0.3;stroke:#073b4c;stroke-opacity:0.3;" x="319.303996" xlink:href="#mc2664cb90f" y="95.926411"/>
     <use style="fill:#073b4c;fill-opacity:0.3;stroke:#073b4c;stroke-opacity:0.3;" x="303.104914" xlink:href="#mc2664cb90f" y="102.69121"/>
     <use style="fill:#073b4c;fill-opacity:0.3;stroke:#073b4c;stroke-opacity:0.3;" x="289.982688" xlink:href="#mc2664cb90f" y="109.456009"/>
     <use style="fill:#073b4c;fill-opacity:0.3;stroke:#073b4c;stroke-opacity:0.3;" x="278.952987" xlink:href="#mc2664cb90f" y="114.288005"/>
     <use style="fill:#073b4c;fill-opacity:0.3;stroke:#073b4c;stroke-opacity:0.3;" x="269.439327" xlink:href="#mc2664cb90f" y="110.905591"/>
     <use style="fill:#073b4c;fill-opacity:0.3;stroke:#073b4c;stroke-opacity:0.3;" x="261.074864" xlink:href="#mc2664cb90f" y="110.905591"/>
     <use style="fill:#073b4c;fill-opacity:0.3;stroke:#073b4c;stroke-opacity:0.3;" x="253.611648" xlink:href="#mc2664cb90f" y="109.939203"/>
     <use style="fill:#073b4c;fill-opacity:0.3;stroke:#073b4c;stroke-opacity:0.3;" x="246.874219" xlink:href="#mc2664cb90f" y="114.288005"/>
     <use style="fill:#073b4c;fill-opacity:0.3;stroke:#073b4c;stroke-opacity:0.3;" x="378.422375" xlink:href="#mc2664cb90f" y="65.001606"/>
     <use style="fill:#073b4c;fill-opacity:0.3;stroke:#073b4c;stroke-opacity:0.3;" x="347.78526" xlink:href="#mc2664cb90f" y="76.115206"/>
     <use style="fill:#073b4c;fill-opacity:0.3;stroke:#073b4c;stroke-opacity:0.3;" x="326.609798" xlink:href="#mc2664cb90f" y="86.745614"/>
     <use style="fill:#073b4c;fill-opacity:0.3;stroke:#073b4c;stroke-opacity:0.3;" x="310.410715" xlink:href="#mc2664cb90f" y="93.510413"/>
     <use style="fill:#073b4c;fill-opacity:0.3;stroke:#073b4c;stroke-opacity:0.3;" x="297.28849" xlink:href="#mc2664cb90f" y="99.308796"/>
     <use style="fill:#073b4c;fill-opacity:0.3;stroke:#073b4c;stroke-opacity:0.3;" x="286.258788" xlink:href="#mc2664cb90f" y="96.409604"/>
     <use style="fill:#073b4c;fill-opacity:0.3;stroke:#073b4c;stroke-opacity:0.3;" x="276.745128" xlink:href="#mc2664cb90f" y="101.724794"/>
     <use style="fill:#073b4c;fill-opacity:0.3;stroke:#073b4c;stroke-opacity:0.3;" x="268.380665" xlink:href="#mc2664cb90f" y="106.556789"/>
     <use style="fill:#073b4c;fill-opacity:0.3;stroke:#073b4c;stroke-opacity:0.3;" x="260.91745" xlink:href="#mc2664cb90f" y="114.771198"/>
     <use style="fill:#073b4c;fill-opacity:0.3;stroke:#073b4c;stroke-opacity:0.3;" x="254.18002" xlink:href="#mc2664cb90f" y="116.220809"/>
    </g>
   </g>
   <g id="line2d_26">
    <path clip-path="url(#p2bb5546860)" d="M 131.607352 232.237121 
L 138.444592 227.018559 
L 144.569565 223.684479 
L 150.298537 217.30624 
L 155.645041 213.247361 
L 160.410632 206.434239 
L 165.12526 202.616959 
L 169.314566 200.056001 
L 173.106637 199.814401 
L 176.907204 193.871042 
L 180.40845 191.068481 
L 183.625673 189.522241 
L 186.735007 186.86464 
L 189.898291 186.767999 
L 192.8697 183.288958 
L 195.656544 180.486399 
L 198.544074 177.442238 
L 201.295249 173.479997 
L 203.819306 169.904317 
L 206.192596 171.740476 
L 208.704036 172.561917 
L 210.798804 169.03456 
L 212.888169 165.748802 
L 214.8576 165.313921 
L 216.909171 163.477762 
L 218.955789 165.265602 
L 220.56517 165.410563 
L 222.191589 162.559682 
L 224.11947 159.950404 
L 225.981281 156.857924 
L 227.743887 151.784323 
L 229.462797 153.475521 
L 231.227583 151.54272 
L 232.799832 145.792639 
L 234.381875 144.777921 
L 236.001548 145.30944 
L 237.48862 143.5216 
L 239.07262 143.231681 
L 240.469338 144.487999 
L 241.768318 140.187519 
L 243.0795 141.105602 
L 244.541125 137.336642 
L 245.922608 135.935362 
L 247.328444 135.838724 
L 248.550464 132.987843 
L 249.64999 126.657924 
L 251.425435 124.531842 
L 253.015404 123.517121 
L 254.464703 121.004482 
L 255.911877 122.840641 
L 257.159906 121.14944 
L 258.293477 121.82592 
L 259.380209 123.662079 
L 260.499015 127.334398 
L 261.804353 131.441597 
L 263.20201 130.475195 
L 264.073884 130.088634 
L 265.065025 131.199994 
L 266.215619 131.103353 
L 267.590617 129.991993 
L 269.102 127.575992 
L 270.737938 127.479353 
L 272.317578 124.290234 
L 274.070243 119.699835 
L 275.83221 116.848958 
L 277.574616 117.525437 
L 279.247043 116.075839 
L 281.177588 114.819521 
L 283.040018 114.143041 
L 285.068079 113.418241 
L 286.888905 115.254401 
L 288.771147 111.96864 
L 290.841666 111.96864 
L 292.854763 111.96864 
L 294.742811 109.987519 
L 297.302583 108.006402 
L 299.808745 107.23328 
L 302.06421 107.2816 
L 304.438033 106.315201 
L 306.938212 104.479041 
L 309.794638 102.497924 
L 312.776831 101.241606 
L 315.896758 99.308804 
L 318.949969 97.810884 
L 322.783176 95.781444 
L 326.17921 94.428484 
L 329.961501 93.172166 
L 334.212139 90.272966 
L 339.270494 85.875845 
L 344.819323 83.024964 
L 350.75007 79.497603 
" style="fill:none;stroke:#073b4c;stroke-linecap:square;stroke-width:1.5;"/>
   </g>
   <g id="line2d_27">
    <defs>
     <path d="M 0 3 
C 0.795609 3 1.55874 2.683901 2.12132 2.12132 
C 2.683901 1.55874 3 0.795609 3 0 
C 3 -0.795609 2.683901 -1.55874 2.12132 -2.12132 
C 1.55874 -2.683901 0.795609 -3 0 -3 
C -0.795609 -3 -1.55874 -2.683901 -2.12132 -2.12132 
C -2.683901 -1.55874 -3 -0.795609 -3 0 
C -3 0.795609 -2.683901 1.55874 -2.12132 2.12132 
C -1.55874 2.683901 -0.795609 3 0 3 
z
" id="m376c7e3fe8" style="stroke:#8a3619;stroke-opacity:0.3;"/>
    </defs>
    <g clip-path="url(#p2bb5546860)">
     <use style="fill:#8a3619;fill-opacity:0.3;stroke:#8a3619;stroke-opacity:0.3;" x="218.758872" xlink:href="#m376c7e3fe8" y="170.339203"/>
     <use style="fill:#8a3619;fill-opacity:0.3;stroke:#8a3619;stroke-opacity:0.3;" x="188.121756" xlink:href="#m376c7e3fe8" y="168.889593"/>
     <use style="fill:#8a3619;fill-opacity:0.3;stroke:#8a3619;stroke-opacity:0.3;" x="166.946294" xlink:href="#m376c7e3fe8" y="163.09121"/>
     <use style="fill:#8a3619;fill-opacity:0.3;stroke:#8a3619;stroke-opacity:0.3;" x="150.747211" xlink:href="#m376c7e3fe8" y="179.52"/>
     <use style="fill:#8a3619;fill-opacity:0.3;stroke:#8a3619;stroke-opacity:0.3;" x="137.624986" xlink:href="#m376c7e3fe8" y="185.801606"/>
     <use style="fill:#8a3619;fill-opacity:0.3;stroke:#8a3619;stroke-opacity:0.3;" x="126.595284" xlink:href="#m376c7e3fe8" y="187.734409"/>
     <use style="fill:#8a3619;fill-opacity:0.3;stroke:#8a3619;stroke-opacity:0.3;" x="117.081624" xlink:href="#m376c7e3fe8" y="184.835189"/>
     <use style="fill:#8a3619;fill-opacity:0.3;stroke:#8a3619;stroke-opacity:0.3;" x="108.717161" xlink:href="#m376c7e3fe8" y="189.183991"/>
     <use style="fill:#8a3619;fill-opacity:0.3;stroke:#8a3619;stroke-opacity:0.3;" x="101.253946" xlink:href="#m376c7e3fe8" y="199.331204"/>
     <use style="fill:#8a3619;fill-opacity:0.3;stroke:#8a3619;stroke-opacity:0.3;" x="94.516516" xlink:href="#m376c7e3fe8" y="201.747202"/>
     <use style="fill:#8a3619;fill-opacity:0.3;stroke:#8a3619;stroke-opacity:0.3;" x="266.822375" xlink:href="#m376c7e3fe8" y="116.704002"/>
     <use style="fill:#8a3619;fill-opacity:0.3;stroke:#8a3619;stroke-opacity:0.3;" x="236.18526" xlink:href="#m376c7e3fe8" y="110.422397"/>
     <use style="fill:#8a3619;fill-opacity:0.3;stroke:#8a3619;stroke-opacity:0.3;" x="215.009798" xlink:href="#m376c7e3fe8" y="119.12"/>
     <use style="fill:#8a3619;fill-opacity:0.3;stroke:#8a3619;stroke-opacity:0.3;" x="198.810715" xlink:href="#m376c7e3fe8" y="127.334409"/>
     <use style="fill:#8a3619;fill-opacity:0.3;stroke:#8a3619;stroke-opacity:0.3;" x="185.68849" xlink:href="#m376c7e3fe8" y="131.199988"/>
     <use style="fill:#8a3619;fill-opacity:0.3;stroke:#8a3619;stroke-opacity:0.3;" x="174.658788" xlink:href="#m376c7e3fe8" y="139.414398"/>
     <use style="fill:#8a3619;fill-opacity:0.3;stroke:#8a3619;stroke-opacity:0.3;" x="165.145128" xlink:href="#m376c7e3fe8" y="131.199988"/>
     <use style="fill:#8a3619;fill-opacity:0.3;stroke:#8a3619;stroke-opacity:0.3;" x="156.780665" xlink:href="#m376c7e3fe8" y="136.032013"/>
     <use style="fill:#8a3619;fill-opacity:0.3;stroke:#8a3619;stroke-opacity:0.3;" x="149.31745" xlink:href="#m376c7e3fe8" y="138.44801"/>
     <use style="fill:#8a3619;fill-opacity:0.3;stroke:#8a3619;stroke-opacity:0.3;" x="142.58002" xlink:href="#m376c7e3fe8" y="152.943997"/>
     <use style="fill:#8a3619;fill-opacity:0.3;stroke:#8a3619;stroke-opacity:0.3;" x="294.937723" xlink:href="#m376c7e3fe8" y="105.107208"/>
     <use style="fill:#8a3619;fill-opacity:0.3;stroke:#8a3619;stroke-opacity:0.3;" x="264.300607" xlink:href="#m376c7e3fe8" y="99.308796"/>
     <use style="fill:#8a3619;fill-opacity:0.3;stroke:#8a3619;stroke-opacity:0.3;" x="243.125145" xlink:href="#m376c7e3fe8" y="104.140791"/>
     <use style="fill:#8a3619;fill-opacity:0.3;stroke:#8a3619;stroke-opacity:0.3;" x="226.926063" xlink:href="#m376c7e3fe8" y="98.342408"/>
     <use style="fill:#8a3619;fill-opacity:0.3;stroke:#8a3619;stroke-opacity:0.3;" x="213.803837" xlink:href="#m376c7e3fe8" y="121.535998"/>
     <use style="fill:#8a3619;fill-opacity:0.3;stroke:#8a3619;stroke-opacity:0.3;" x="202.774135" xlink:href="#m376c7e3fe8" y="102.69121"/>
     <use style="fill:#8a3619;fill-opacity:0.3;stroke:#8a3619;stroke-opacity:0.3;" x="193.260475" xlink:href="#m376c7e3fe8" y="114.288005"/>
     <use style="fill:#8a3619;fill-opacity:0.3;stroke:#8a3619;stroke-opacity:0.3;" x="184.896013" xlink:href="#m376c7e3fe8" y="111.388813"/>
     <use style="fill:#8a3619;fill-opacity:0.3;stroke:#8a3619;stroke-opacity:0.3;" x="177.432797" xlink:href="#m376c7e3fe8" y="113.321588"/>
     <use style="fill:#8a3619;fill-opacity:0.3;stroke:#8a3619;stroke-opacity:0.3;" x="170.695368" xlink:href="#m376c7e3fe8" y="112.838394"/>
     <use style="fill:#8a3619;fill-opacity:0.3;stroke:#8a3619;stroke-opacity:0.3;" x="314.885879" xlink:href="#m376c7e3fe8" y="86.262391"/>
     <use style="fill:#8a3619;fill-opacity:0.3;stroke:#8a3619;stroke-opacity:0.3;" x="284.248764" xlink:href="#m376c7e3fe8" y="87.228807"/>
     <use style="fill:#8a3619;fill-opacity:0.3;stroke:#8a3619;stroke-opacity:0.3;" x="263.073301" xlink:href="#m376c7e3fe8" y="82.396812"/>
     <use style="fill:#8a3619;fill-opacity:0.3;stroke:#8a3619;stroke-opacity:0.3;" x="246.874219" xlink:href="#m376c7e3fe8" y="85.779197"/>
     <use style="fill:#8a3619;fill-opacity:0.3;stroke:#8a3619;stroke-opacity:0.3;" x="233.751993" xlink:href="#m376c7e3fe8" y="93.993607"/>
     <use style="fill:#8a3619;fill-opacity:0.3;stroke:#8a3619;stroke-opacity:0.3;" x="222.722292" xlink:href="#m376c7e3fe8" y="92.543997"/>
     <use style="fill:#8a3619;fill-opacity:0.3;stroke:#8a3619;stroke-opacity:0.3;" x="213.208632" xlink:href="#m376c7e3fe8" y="86.745614"/>
     <use style="fill:#8a3619;fill-opacity:0.3;stroke:#8a3619;stroke-opacity:0.3;" x="204.844169" xlink:href="#m376c7e3fe8" y="98.825602"/>
     <use style="fill:#8a3619;fill-opacity:0.3;stroke:#8a3619;stroke-opacity:0.3;" x="197.380954" xlink:href="#m376c7e3fe8" y="97.859186"/>
     <use style="fill:#8a3619;fill-opacity:0.3;stroke:#8a3619;stroke-opacity:0.3;" x="190.643524" xlink:href="#m376c7e3fe8" y="108.972787"/>
     <use style="fill:#8a3619;fill-opacity:0.3;stroke:#8a3619;stroke-opacity:0.3;" x="330.358872" xlink:href="#m376c7e3fe8" y="77.564788"/>
     <use style="fill:#8a3619;fill-opacity:0.3;stroke:#8a3619;stroke-opacity:0.3;" x="299.721756" xlink:href="#m376c7e3fe8" y="80.464008"/>
     <use style="fill:#8a3619;fill-opacity:0.3;stroke:#8a3619;stroke-opacity:0.3;" x="278.546294" xlink:href="#m376c7e3fe8" y="74.182403"/>
     <use style="fill:#8a3619;fill-opacity:0.3;stroke:#8a3619;stroke-opacity:0.3;" x="262.347211" xlink:href="#m376c7e3fe8" y="86.262391"/>
     <use style="fill:#8a3619;fill-opacity:0.3;stroke:#8a3619;stroke-opacity:0.3;" x="249.224986" xlink:href="#m376c7e3fe8" y="81.913589"/>
     <use style="fill:#8a3619;fill-opacity:0.3;stroke:#8a3619;stroke-opacity:0.3;" x="238.195284" xlink:href="#m376c7e3fe8" y="92.543997"/>
     <use style="fill:#8a3619;fill-opacity:0.3;stroke:#8a3619;stroke-opacity:0.3;" x="228.681624" xlink:href="#m376c7e3fe8" y="77.564788"/>
     <use style="fill:#8a3619;fill-opacity:0.3;stroke:#8a3619;stroke-opacity:0.3;" x="220.317161" xlink:href="#m376c7e3fe8" y="95.926411"/>
     <use style="fill:#8a3619;fill-opacity:0.3;stroke:#8a3619;stroke-opacity:0.3;" x="212.853946" xlink:href="#m376c7e3fe8" y="96.409604"/>
     <use style="fill:#8a3619;fill-opacity:0.3;stroke:#8a3619;stroke-opacity:0.3;" x="206.116516" xlink:href="#m376c7e3fe8" y="91.094386"/>
     <use style="fill:#8a3619;fill-opacity:0.3;stroke:#8a3619;stroke-opacity:0.3;" x="343.001227" xlink:href="#m376c7e3fe8" y="68.383991"/>
     <use style="fill:#8a3619;fill-opacity:0.3;stroke:#8a3619;stroke-opacity:0.3;" x="312.364111" xlink:href="#m376c7e3fe8" y="72.249599"/>
     <use style="fill:#8a3619;fill-opacity:0.3;stroke:#8a3619;stroke-opacity:0.3;" x="291.188649" xlink:href="#m376c7e3fe8" y="76.115206"/>
     <use style="fill:#8a3619;fill-opacity:0.3;stroke:#8a3619;stroke-opacity:0.3;" x="274.989566" xlink:href="#m376c7e3fe8" y="76.5984"/>
     <use style="fill:#8a3619;fill-opacity:0.3;stroke:#8a3619;stroke-opacity:0.3;" x="261.867341" xlink:href="#m376c7e3fe8" y="71.766405"/>
     <use style="fill:#8a3619;fill-opacity:0.3;stroke:#8a3619;stroke-opacity:0.3;" x="250.837639" xlink:href="#m376c7e3fe8" y="86.262391"/>
     <use style="fill:#8a3619;fill-opacity:0.3;stroke:#8a3619;stroke-opacity:0.3;" x="241.323979" xlink:href="#m376c7e3fe8" y="80.947202"/>
     <use style="fill:#8a3619;fill-opacity:0.3;stroke:#8a3619;stroke-opacity:0.3;" x="232.959517" xlink:href="#m376c7e3fe8" y="78.531204"/>
     <use style="fill:#8a3619;fill-opacity:0.3;stroke:#8a3619;stroke-opacity:0.3;" x="225.496301" xlink:href="#m376c7e3fe8" y="77.081594"/>
     <use style="fill:#8a3619;fill-opacity:0.3;stroke:#8a3619;stroke-opacity:0.3;" x="218.758872" xlink:href="#m376c7e3fe8" y="89.644805"/>
     <use style="fill:#8a3619;fill-opacity:0.3;stroke:#8a3619;stroke-opacity:0.3;" x="353.690186" xlink:href="#m376c7e3fe8" y="64.035189"/>
     <use style="fill:#8a3619;fill-opacity:0.3;stroke:#8a3619;stroke-opacity:0.3;" x="323.05307" xlink:href="#m376c7e3fe8" y="70.799988"/>
     <use style="fill:#8a3619;fill-opacity:0.3;stroke:#8a3619;stroke-opacity:0.3;" x="301.877608" xlink:href="#m376c7e3fe8" y="67.900797"/>
     <use style="fill:#8a3619;fill-opacity:0.3;stroke:#8a3619;stroke-opacity:0.3;" x="285.678525" xlink:href="#m376c7e3fe8" y="72.249599"/>
     <use style="fill:#8a3619;fill-opacity:0.3;stroke:#8a3619;stroke-opacity:0.3;" x="272.5563" xlink:href="#m376c7e3fe8" y="69.350407"/>
     <use style="fill:#8a3619;fill-opacity:0.3;stroke:#8a3619;stroke-opacity:0.3;" x="261.526598" xlink:href="#m376c7e3fe8" y="80.464008"/>
     <use style="fill:#8a3619;fill-opacity:0.3;stroke:#8a3619;stroke-opacity:0.3;" x="252.012938" xlink:href="#m376c7e3fe8" y="76.115206"/>
     <use style="fill:#8a3619;fill-opacity:0.3;stroke:#8a3619;stroke-opacity:0.3;" x="243.648476" xlink:href="#m376c7e3fe8" y="76.5984"/>
     <use style="fill:#8a3619;fill-opacity:0.3;stroke:#8a3619;stroke-opacity:0.3;" x="236.18526" xlink:href="#m376c7e3fe8" y="84.329587"/>
     <use style="fill:#8a3619;fill-opacity:0.3;stroke:#8a3619;stroke-opacity:0.3;" x="229.447831" xlink:href="#m376c7e3fe8" y="79.980814"/>
     <use style="fill:#8a3619;fill-opacity:0.3;stroke:#8a3619;stroke-opacity:0.3;" x="362.949383" xlink:href="#m376c7e3fe8" y="66.451187"/>
     <use style="fill:#8a3619;fill-opacity:0.3;stroke:#8a3619;stroke-opacity:0.3;" x="332.312268" xlink:href="#m376c7e3fe8" y="68.383991"/>
     <use style="fill:#8a3619;fill-opacity:0.3;stroke:#8a3619;stroke-opacity:0.3;" x="311.136805" xlink:href="#m376c7e3fe8" y="70.799988"/>
     <use style="fill:#8a3619;fill-opacity:0.3;stroke:#8a3619;stroke-opacity:0.3;" x="294.937723" xlink:href="#m376c7e3fe8" y="68.383991"/>
     <use style="fill:#8a3619;fill-opacity:0.3;stroke:#8a3619;stroke-opacity:0.3;" x="281.815497" xlink:href="#m376c7e3fe8" y="79.497592"/>
     <use style="fill:#8a3619;fill-opacity:0.3;stroke:#8a3619;stroke-opacity:0.3;" x="270.785796" xlink:href="#m376c7e3fe8" y="72.732792"/>
     <use style="fill:#8a3619;fill-opacity:0.3;stroke:#8a3619;stroke-opacity:0.3;" x="261.272136" xlink:href="#m376c7e3fe8" y="67.417603"/>
     <use style="fill:#8a3619;fill-opacity:0.3;stroke:#8a3619;stroke-opacity:0.3;" x="252.907673" xlink:href="#m376c7e3fe8" y="65.967993"/>
     <use style="fill:#8a3619;fill-opacity:0.3;stroke:#8a3619;stroke-opacity:0.3;" x="245.444457" xlink:href="#m376c7e3fe8" y="71.283211"/>
     <use style="fill:#8a3619;fill-opacity:0.3;stroke:#8a3619;stroke-opacity:0.3;" x="238.707028" xlink:href="#m376c7e3fe8" y="78.531204"/>
     <use style="fill:#8a3619;fill-opacity:0.3;stroke:#8a3619;stroke-opacity:0.3;" x="371.116574" xlink:href="#m376c7e3fe8" y="64.518412"/>
     <use style="fill:#8a3619;fill-opacity:0.3;stroke:#8a3619;stroke-opacity:0.3;" x="340.479459" xlink:href="#m376c7e3fe8" y="60.652804"/>
     <use style="fill:#8a3619;fill-opacity:0.3;stroke:#8a3619;stroke-opacity:0.3;" x="319.303996" xlink:href="#m376c7e3fe8" y="67.417603"/>
     <use style="fill:#8a3619;fill-opacity:0.3;stroke:#8a3619;stroke-opacity:0.3;" x="303.104914" xlink:href="#m376c7e3fe8" y="67.900797"/>
     <use style="fill:#8a3619;fill-opacity:0.3;stroke:#8a3619;stroke-opacity:0.3;" x="289.982688" xlink:href="#m376c7e3fe8" y="75.632013"/>
     <use style="fill:#8a3619;fill-opacity:0.3;stroke:#8a3619;stroke-opacity:0.3;" x="278.952987" xlink:href="#m376c7e3fe8" y="68.383991"/>
     <use style="fill:#8a3619;fill-opacity:0.3;stroke:#8a3619;stroke-opacity:0.3;" x="269.439327" xlink:href="#m376c7e3fe8" y="74.182403"/>
     <use style="fill:#8a3619;fill-opacity:0.3;stroke:#8a3619;stroke-opacity:0.3;" x="261.074864" xlink:href="#m376c7e3fe8" y="66.451187"/>
     <use style="fill:#8a3619;fill-opacity:0.3;stroke:#8a3619;stroke-opacity:0.3;" x="253.611648" xlink:href="#m376c7e3fe8" y="67.417603"/>
     <use style="fill:#8a3619;fill-opacity:0.3;stroke:#8a3619;stroke-opacity:0.3;" x="246.874219" xlink:href="#m376c7e3fe8" y="70.799988"/>
     <use style="fill:#8a3619;fill-opacity:0.3;stroke:#8a3619;stroke-opacity:0.3;" x="378.422375" xlink:href="#m376c7e3fe8" y="61.135998"/>
     <use style="fill:#8a3619;fill-opacity:0.3;stroke:#8a3619;stroke-opacity:0.3;" x="347.78526" xlink:href="#m376c7e3fe8" y="60.652804"/>
     <use style="fill:#8a3619;fill-opacity:0.3;stroke:#8a3619;stroke-opacity:0.3;" x="326.609798" xlink:href="#m376c7e3fe8" y="66.934409"/>
     <use style="fill:#8a3619;fill-opacity:0.3;stroke:#8a3619;stroke-opacity:0.3;" x="310.410715" xlink:href="#m376c7e3fe8" y="65.484799"/>
     <use style="fill:#8a3619;fill-opacity:0.3;stroke:#8a3619;stroke-opacity:0.3;" x="297.28849" xlink:href="#m376c7e3fe8" y="64.518412"/>
     <use style="fill:#8a3619;fill-opacity:0.3;stroke:#8a3619;stroke-opacity:0.3;" x="286.258788" xlink:href="#m376c7e3fe8" y="65.484799"/>
     <use style="fill:#8a3619;fill-opacity:0.3;stroke:#8a3619;stroke-opacity:0.3;" x="276.745128" xlink:href="#m376c7e3fe8" y="65.967993"/>
     <use style="fill:#8a3619;fill-opacity:0.3;stroke:#8a3619;stroke-opacity:0.3;" x="268.380665" xlink:href="#m376c7e3fe8" y="65.967993"/>
     <use style="fill:#8a3619;fill-opacity:0.3;stroke:#8a3619;stroke-opacity:0.3;" x="260.91745" xlink:href="#m376c7e3fe8" y="68.383991"/>
     <use style="fill:#8a3619;fill-opacity:0.3;stroke:#8a3619;stroke-opacity:0.3;" x="254.18002" xlink:href="#m376c7e3fe8" y="67.417603"/>
    </g>
   </g>
   <g id="line2d_28">
    <path clip-path="url(#p2bb5546860)" d="M 131.607352 175.557762 
L 138.444592 168.503041 
L 144.569565 164.879041 
L 150.298537 157.244482 
L 155.645041 152.702403 
L 160.410632 145.26112 
L 165.12526 137.819841 
L 169.314566 135.64544 
L 173.106637 138.689599 
L 176.907204 131.634877 
L 180.40845 129.460476 
L 183.625673 126.126396 
L 186.735007 122.550716 
L 189.898291 121.535998 
L 192.8697 117.477118 
L 195.656544 115.254398 
L 198.544074 113.756477 
L 201.295249 109.31104 
L 203.819306 104.57568 
L 206.192596 105.590401 
L 208.704036 111.195521 
L 210.798804 110.374083 
L 212.888169 107.233283 
L 214.8576 106.218562 
L 216.909171 104.044161 
L 218.955789 104.768963 
L 220.56517 102.884482 
L 222.191589 102.208002 
L 224.11947 97.907522 
L 225.981281 95.394883 
L 227.743887 86.793921 
L 229.462797 88.871681 
L 231.227583 88.533439 
L 232.799832 87.13216 
L 234.381875 87.518721 
L 236.001548 88.098559 
L 237.48862 88.00192 
L 239.07262 87.13216 
L 240.469338 87.856959 
L 241.768318 85.537597 
L 243.0795 85.295998 
L 244.541125 82.879997 
L 245.922608 81.237118 
L 247.328444 79.980797 
L 248.550464 78.627837 
L 249.64999 74.955518 
L 251.425435 74.134077 
L 253.015404 73.650875 
L 254.464703 71.814716 
L 255.911877 72.781118 
L 257.159906 71.766399 
L 258.293477 71.766399 
L 259.380209 72.39456 
L 260.499015 75.72864 
L 261.804353 80.65728 
L 263.20201 80.512319 
L 264.073884 81.09216 
L 265.065025 81.720321 
L 266.215619 81.913601 
L 267.590617 81.52704 
L 269.102 80.947199 
L 270.737938 79.7392 
L 272.317578 78.337918 
L 274.070243 76.356798 
L 275.83221 73.409278 
L 277.574616 74.037439 
L 279.247043 73.167678 
L 281.177588 73.4576 
L 283.040018 74.13408 
L 285.068079 73.312639 
L 286.888905 77.226561 
L 288.771147 76.260162 
L 290.841666 77.468163 
L 292.854763 76.308484 
L 294.742811 74.375683 
L 297.302583 73.699203 
L 299.808745 74.230722 
L 302.06421 73.892481 
L 304.438033 74.907199 
L 306.938212 74.81056 
L 309.794638 71.379838 
L 312.776831 71.621438 
L 315.896758 71.331516 
L 318.949969 71.379835 
L 322.783176 70.655036 
L 326.17921 70.944955 
L 329.961501 69.930237 
L 334.212139 69.108796 
L 339.270494 67.127675 
L 344.819323 66.837756 
L 350.75007 65.871357 
" style="fill:none;stroke:#8a3619;stroke-linecap:square;stroke-width:1.5;"/>
   </g>
   <g id="line2d_29">
    <defs>
     <path d="M 0 3 
C 0.795609 3 1.55874 2.683901 2.12132 2.12132 
C 2.683901 1.55874 3 0.795609 3 0 
C 3 -0.795609 2.683901 -1.55874 2.12132 -2.12132 
C 1.55874 -2.683901 0.795609 -3 0 -3 
C -0.795609 -3 -1.55874 -2.683901 -2.12132 -2.12132 
C -2.683901 -1.55874 -3 -0.795609 -3 0 
C -3 0.795609 -2.683901 1.55874 -2.12132 2.12132 
C -1.55874 2.683901 -0.795609 3 0 3 
z
" id="ma2a39918a2" style="stroke:#06d6a0;stroke-opacity:0.3;"/>
    </defs>
    <g clip-path="url(#p2bb5546860)">
     <use style="fill:#06d6a0;fill-opacity:0.3;stroke:#06d6a0;stroke-opacity:0.3;" x="231.521925" xlink:href="#ma2a39918a2" y="116.220809"/>
     <use style="fill:#06d6a0;fill-opacity:0.3;stroke:#06d6a0;stroke-opacity:0.3;" x="200.884809" xlink:href="#ma2a39918a2" y="98.342408"/>
     <use style="fill:#06d6a0;fill-opacity:0.3;stroke:#06d6a0;stroke-opacity:0.3;" x="179.709347" xlink:href="#ma2a39918a2" y="122.019191"/>
     <use style="fill:#06d6a0;fill-opacity:0.3;stroke:#06d6a0;stroke-opacity:0.3;" x="163.510264" xlink:href="#ma2a39918a2" y="103.174404"/>
     <use style="fill:#06d6a0;fill-opacity:0.3;stroke:#06d6a0;stroke-opacity:0.3;" x="150.388039" xlink:href="#ma2a39918a2" y="116.220809"/>
     <use style="fill:#06d6a0;fill-opacity:0.3;stroke:#06d6a0;stroke-opacity:0.3;" x="139.358337" xlink:href="#ma2a39918a2" y="122.502414"/>
     <use style="fill:#06d6a0;fill-opacity:0.3;stroke:#06d6a0;stroke-opacity:0.3;" x="129.844677" xlink:href="#ma2a39918a2" y="136.515206"/>
     <use style="fill:#06d6a0;fill-opacity:0.3;stroke:#06d6a0;stroke-opacity:0.3;" x="121.480215" xlink:href="#ma2a39918a2" y="128.300797"/>
     <use style="fill:#06d6a0;fill-opacity:0.3;stroke:#06d6a0;stroke-opacity:0.3;" x="114.016999" xlink:href="#ma2a39918a2" y="135.54879"/>
     <use style="fill:#06d6a0;fill-opacity:0.3;stroke:#06d6a0;stroke-opacity:0.3;" x="107.27957" xlink:href="#ma2a39918a2" y="127.817603"/>
     <use style="fill:#06d6a0;fill-opacity:0.3;stroke:#06d6a0;stroke-opacity:0.3;" x="279.585429" xlink:href="#ma2a39918a2" y="82.880006"/>
     <use style="fill:#06d6a0;fill-opacity:0.3;stroke:#06d6a0;stroke-opacity:0.3;" x="248.948313" xlink:href="#ma2a39918a2" y="79.497592"/>
     <use style="fill:#06d6a0;fill-opacity:0.3;stroke:#06d6a0;stroke-opacity:0.3;" x="227.772851" xlink:href="#ma2a39918a2" y="84.81281"/>
     <use style="fill:#06d6a0;fill-opacity:0.3;stroke:#06d6a0;stroke-opacity:0.3;" x="211.573768" xlink:href="#ma2a39918a2" y="84.81281"/>
     <use style="fill:#06d6a0;fill-opacity:0.3;stroke:#06d6a0;stroke-opacity:0.3;" x="198.451543" xlink:href="#ma2a39918a2" y="79.497592"/>
     <use style="fill:#06d6a0;fill-opacity:0.3;stroke:#06d6a0;stroke-opacity:0.3;" x="187.421841" xlink:href="#ma2a39918a2" y="87.228807"/>
     <use style="fill:#06d6a0;fill-opacity:0.3;stroke:#06d6a0;stroke-opacity:0.3;" x="177.908181" xlink:href="#ma2a39918a2" y="82.880006"/>
     <use style="fill:#06d6a0;fill-opacity:0.3;stroke:#06d6a0;stroke-opacity:0.3;" x="169.543718" xlink:href="#ma2a39918a2" y="86.745614"/>
     <use style="fill:#06d6a0;fill-opacity:0.3;stroke:#06d6a0;stroke-opacity:0.3;" x="162.080503" xlink:href="#ma2a39918a2" y="98.825602"/>
     <use style="fill:#06d6a0;fill-opacity:0.3;stroke:#06d6a0;stroke-opacity:0.3;" x="155.343073" xlink:href="#ma2a39918a2" y="90.611193"/>
     <use style="fill:#06d6a0;fill-opacity:0.3;stroke:#06d6a0;stroke-opacity:0.3;" x="307.700776" xlink:href="#ma2a39918a2" y="73.215986"/>
     <use style="fill:#06d6a0;fill-opacity:0.3;stroke:#06d6a0;stroke-opacity:0.3;" x="277.063661" xlink:href="#ma2a39918a2" y="72.249599"/>
     <use style="fill:#06d6a0;fill-opacity:0.3;stroke:#06d6a0;stroke-opacity:0.3;" x="255.888198" xlink:href="#ma2a39918a2" y="66.934409"/>
     <use style="fill:#06d6a0;fill-opacity:0.3;stroke:#06d6a0;stroke-opacity:0.3;" x="239.689116" xlink:href="#ma2a39918a2" y="77.564788"/>
     <use style="fill:#06d6a0;fill-opacity:0.3;stroke:#06d6a0;stroke-opacity:0.3;" x="226.56689" xlink:href="#ma2a39918a2" y="75.14879"/>
     <use style="fill:#06d6a0;fill-opacity:0.3;stroke:#06d6a0;stroke-opacity:0.3;" x="215.537189" xlink:href="#ma2a39918a2" y="77.081594"/>
     <use style="fill:#06d6a0;fill-opacity:0.3;stroke:#06d6a0;stroke-opacity:0.3;" x="206.023529" xlink:href="#ma2a39918a2" y="72.732792"/>
     <use style="fill:#06d6a0;fill-opacity:0.3;stroke:#06d6a0;stroke-opacity:0.3;" x="197.659066" xlink:href="#ma2a39918a2" y="80.464008"/>
     <use style="fill:#06d6a0;fill-opacity:0.3;stroke:#06d6a0;stroke-opacity:0.3;" x="190.19585" xlink:href="#ma2a39918a2" y="85.296003"/>
     <use style="fill:#06d6a0;fill-opacity:0.3;stroke:#06d6a0;stroke-opacity:0.3;" x="183.458421" xlink:href="#ma2a39918a2" y="87.228807"/>
     <use style="fill:#06d6a0;fill-opacity:0.3;stroke:#06d6a0;stroke-opacity:0.3;" x="327.648932" xlink:href="#ma2a39918a2" y="63.551995"/>
     <use style="fill:#06d6a0;fill-opacity:0.3;stroke:#06d6a0;stroke-opacity:0.3;" x="297.011817" xlink:href="#ma2a39918a2" y="67.417603"/>
     <use style="fill:#06d6a0;fill-opacity:0.3;stroke:#06d6a0;stroke-opacity:0.3;" x="275.836355" xlink:href="#ma2a39918a2" y="66.451187"/>
     <use style="fill:#06d6a0;fill-opacity:0.3;stroke:#06d6a0;stroke-opacity:0.3;" x="259.637272" xlink:href="#ma2a39918a2" y="66.451187"/>
     <use style="fill:#06d6a0;fill-opacity:0.3;stroke:#06d6a0;stroke-opacity:0.3;" x="246.515047" xlink:href="#ma2a39918a2" y="68.867213"/>
     <use style="fill:#06d6a0;fill-opacity:0.3;stroke:#06d6a0;stroke-opacity:0.3;" x="235.485345" xlink:href="#ma2a39918a2" y="70.799988"/>
     <use style="fill:#06d6a0;fill-opacity:0.3;stroke:#06d6a0;stroke-opacity:0.3;" x="225.971685" xlink:href="#ma2a39918a2" y="67.900797"/>
     <use style="fill:#06d6a0;fill-opacity:0.3;stroke:#06d6a0;stroke-opacity:0.3;" x="217.607222" xlink:href="#ma2a39918a2" y="71.766405"/>
     <use style="fill:#06d6a0;fill-opacity:0.3;stroke:#06d6a0;stroke-opacity:0.3;" x="210.144007" xlink:href="#ma2a39918a2" y="71.283211"/>
     <use style="fill:#06d6a0;fill-opacity:0.3;stroke:#06d6a0;stroke-opacity:0.3;" x="203.406577" xlink:href="#ma2a39918a2" y="68.383991"/>
     <use style="fill:#06d6a0;fill-opacity:0.3;stroke:#06d6a0;stroke-opacity:0.3;" x="343.121925" xlink:href="#ma2a39918a2" y="65.484799"/>
     <use style="fill:#06d6a0;fill-opacity:0.3;stroke:#06d6a0;stroke-opacity:0.3;" x="312.484809" xlink:href="#ma2a39918a2" y="61.619191"/>
     <use style="fill:#06d6a0;fill-opacity:0.3;stroke:#06d6a0;stroke-opacity:0.3;" x="291.309347" xlink:href="#ma2a39918a2" y="63.551995"/>
     <use style="fill:#06d6a0;fill-opacity:0.3;stroke:#06d6a0;stroke-opacity:0.3;" x="275.110264" xlink:href="#ma2a39918a2" y="63.068802"/>
     <use style="fill:#06d6a0;fill-opacity:0.3;stroke:#06d6a0;stroke-opacity:0.3;" x="261.988039" xlink:href="#ma2a39918a2" y="67.900797"/>
     <use style="fill:#06d6a0;fill-opacity:0.3;stroke:#06d6a0;stroke-opacity:0.3;" x="250.958337" xlink:href="#ma2a39918a2" y="68.867213"/>
     <use style="fill:#06d6a0;fill-opacity:0.3;stroke:#06d6a0;stroke-opacity:0.3;" x="241.444677" xlink:href="#ma2a39918a2" y="65.001606"/>
     <use style="fill:#06d6a0;fill-opacity:0.3;stroke:#06d6a0;stroke-opacity:0.3;" x="233.080215" xlink:href="#ma2a39918a2" y="67.900797"/>
     <use style="fill:#06d6a0;fill-opacity:0.3;stroke:#06d6a0;stroke-opacity:0.3;" x="225.616999" xlink:href="#ma2a39918a2" y="68.383991"/>
     <use style="fill:#06d6a0;fill-opacity:0.3;stroke:#06d6a0;stroke-opacity:0.3;" x="218.87957" xlink:href="#ma2a39918a2" y="64.035189"/>
     <use style="fill:#06d6a0;fill-opacity:0.3;stroke:#06d6a0;stroke-opacity:0.3;" x="355.76428" xlink:href="#ma2a39918a2" y="67.417603"/>
     <use style="fill:#06d6a0;fill-opacity:0.3;stroke:#06d6a0;stroke-opacity:0.3;" x="325.127164" xlink:href="#ma2a39918a2" y="62.585608"/>
     <use style="fill:#06d6a0;fill-opacity:0.3;stroke:#06d6a0;stroke-opacity:0.3;" x="303.951702" xlink:href="#ma2a39918a2" y="61.135998"/>
     <use style="fill:#06d6a0;fill-opacity:0.3;stroke:#06d6a0;stroke-opacity:0.3;" x="287.75262" xlink:href="#ma2a39918a2" y="62.585608"/>
     <use style="fill:#06d6a0;fill-opacity:0.3;stroke:#06d6a0;stroke-opacity:0.3;" x="274.630394" xlink:href="#ma2a39918a2" y="64.518412"/>
     <use style="fill:#06d6a0;fill-opacity:0.3;stroke:#06d6a0;stroke-opacity:0.3;" x="263.600692" xlink:href="#ma2a39918a2" y="62.585608"/>
     <use style="fill:#06d6a0;fill-opacity:0.3;stroke:#06d6a0;stroke-opacity:0.3;" x="254.087032" xlink:href="#ma2a39918a2" y="60.652804"/>
     <use style="fill:#06d6a0;fill-opacity:0.3;stroke:#06d6a0;stroke-opacity:0.3;" x="245.72257" xlink:href="#ma2a39918a2" y="62.102414"/>
     <use style="fill:#06d6a0;fill-opacity:0.3;stroke:#06d6a0;stroke-opacity:0.3;" x="238.259354" xlink:href="#ma2a39918a2" y="75.632013"/>
     <use style="fill:#06d6a0;fill-opacity:0.3;stroke:#06d6a0;stroke-opacity:0.3;" x="231.521925" xlink:href="#ma2a39918a2" y="61.619191"/>
     <use style="fill:#06d6a0;fill-opacity:0.3;stroke:#06d6a0;stroke-opacity:0.3;" x="366.453239" xlink:href="#ma2a39918a2" y="59.203194"/>
     <use style="fill:#06d6a0;fill-opacity:0.3;stroke:#06d6a0;stroke-opacity:0.3;" x="335.816123" xlink:href="#ma2a39918a2" y="59.203194"/>
     <use style="fill:#06d6a0;fill-opacity:0.3;stroke:#06d6a0;stroke-opacity:0.3;" x="314.640661" xlink:href="#ma2a39918a2" y="62.585608"/>
     <use style="fill:#06d6a0;fill-opacity:0.3;stroke:#06d6a0;stroke-opacity:0.3;" x="298.441579" xlink:href="#ma2a39918a2" y="60.16961"/>
     <use style="fill:#06d6a0;fill-opacity:0.3;stroke:#06d6a0;stroke-opacity:0.3;" x="285.319353" xlink:href="#ma2a39918a2" y="59.686388"/>
     <use style="fill:#06d6a0;fill-opacity:0.3;stroke:#06d6a0;stroke-opacity:0.3;" x="274.289652" xlink:href="#ma2a39918a2" y="59.686388"/>
     <use style="fill:#06d6a0;fill-opacity:0.3;stroke:#06d6a0;stroke-opacity:0.3;" x="264.775991" xlink:href="#ma2a39918a2" y="62.585608"/>
     <use style="fill:#06d6a0;fill-opacity:0.3;stroke:#06d6a0;stroke-opacity:0.3;" x="256.411529" xlink:href="#ma2a39918a2" y="62.585608"/>
     <use style="fill:#06d6a0;fill-opacity:0.3;stroke:#06d6a0;stroke-opacity:0.3;" x="248.948313" xlink:href="#ma2a39918a2" y="62.102414"/>
     <use style="fill:#06d6a0;fill-opacity:0.3;stroke:#06d6a0;stroke-opacity:0.3;" x="242.210884" xlink:href="#ma2a39918a2" y="62.102414"/>
     <use style="fill:#06d6a0;fill-opacity:0.3;stroke:#06d6a0;stroke-opacity:0.3;" x="375.712436" xlink:href="#ma2a39918a2" y="59.686388"/>
     <use style="fill:#06d6a0;fill-opacity:0.3;stroke:#06d6a0;stroke-opacity:0.3;" x="345.075321" xlink:href="#ma2a39918a2" y="59.686388"/>
     <use style="fill:#06d6a0;fill-opacity:0.3;stroke:#06d6a0;stroke-opacity:0.3;" x="323.899858" xlink:href="#ma2a39918a2" y="61.619191"/>
     <use style="fill:#06d6a0;fill-opacity:0.3;stroke:#06d6a0;stroke-opacity:0.3;" x="307.700776" xlink:href="#ma2a39918a2" y="60.652804"/>
     <use style="fill:#06d6a0;fill-opacity:0.3;stroke:#06d6a0;stroke-opacity:0.3;" x="294.578551" xlink:href="#ma2a39918a2" y="59.686388"/>
     <use style="fill:#06d6a0;fill-opacity:0.3;stroke:#06d6a0;stroke-opacity:0.3;" x="283.548849" xlink:href="#ma2a39918a2" y="59.686388"/>
     <use style="fill:#06d6a0;fill-opacity:0.3;stroke:#06d6a0;stroke-opacity:0.3;" x="274.035189" xlink:href="#ma2a39918a2" y="60.652804"/>
     <use style="fill:#06d6a0;fill-opacity:0.3;stroke:#06d6a0;stroke-opacity:0.3;" x="265.670726" xlink:href="#ma2a39918a2" y="63.068802"/>
     <use style="fill:#06d6a0;fill-opacity:0.3;stroke:#06d6a0;stroke-opacity:0.3;" x="258.207511" xlink:href="#ma2a39918a2" y="60.652804"/>
     <use style="fill:#06d6a0;fill-opacity:0.3;stroke:#06d6a0;stroke-opacity:0.3;" x="251.470081" xlink:href="#ma2a39918a2" y="60.16961"/>
     <use style="fill:#06d6a0;fill-opacity:0.3;stroke:#06d6a0;stroke-opacity:0.3;" x="383.879627" xlink:href="#ma2a39918a2" y="59.203194"/>
     <use style="fill:#06d6a0;fill-opacity:0.3;stroke:#06d6a0;stroke-opacity:0.3;" x="353.242512" xlink:href="#ma2a39918a2" y="59.203194"/>
     <use style="fill:#06d6a0;fill-opacity:0.3;stroke:#06d6a0;stroke-opacity:0.3;" x="332.067049" xlink:href="#ma2a39918a2" y="60.16961"/>
     <use style="fill:#06d6a0;fill-opacity:0.3;stroke:#06d6a0;stroke-opacity:0.3;" x="315.867967" xlink:href="#ma2a39918a2" y="59.686388"/>
     <use style="fill:#06d6a0;fill-opacity:0.3;stroke:#06d6a0;stroke-opacity:0.3;" x="302.745742" xlink:href="#ma2a39918a2" y="58.72"/>
     <use style="fill:#06d6a0;fill-opacity:0.3;stroke:#06d6a0;stroke-opacity:0.3;" x="291.71604" xlink:href="#ma2a39918a2" y="61.135998"/>
     <use style="fill:#06d6a0;fill-opacity:0.3;stroke:#06d6a0;stroke-opacity:0.3;" x="282.20238" xlink:href="#ma2a39918a2" y="59.686388"/>
     <use style="fill:#06d6a0;fill-opacity:0.3;stroke:#06d6a0;stroke-opacity:0.3;" x="273.837917" xlink:href="#ma2a39918a2" y="60.652804"/>
     <use style="fill:#06d6a0;fill-opacity:0.3;stroke:#06d6a0;stroke-opacity:0.3;" x="266.374702" xlink:href="#ma2a39918a2" y="59.686388"/>
     <use style="fill:#06d6a0;fill-opacity:0.3;stroke:#06d6a0;stroke-opacity:0.3;" x="259.637272" xlink:href="#ma2a39918a2" y="58.72"/>
     <use style="fill:#06d6a0;fill-opacity:0.3;stroke:#06d6a0;stroke-opacity:0.3;" x="391.185429" xlink:href="#ma2a39918a2" y="59.203194"/>
     <use style="fill:#06d6a0;fill-opacity:0.3;stroke:#06d6a0;stroke-opacity:0.3;" x="360.548313" xlink:href="#ma2a39918a2" y="58.72"/>
     <use style="fill:#06d6a0;fill-opacity:0.3;stroke:#06d6a0;stroke-opacity:0.3;" x="339.372851" xlink:href="#ma2a39918a2" y="59.203194"/>
     <use style="fill:#06d6a0;fill-opacity:0.3;stroke:#06d6a0;stroke-opacity:0.3;" x="323.173768" xlink:href="#ma2a39918a2" y="58.72"/>
     <use style="fill:#06d6a0;fill-opacity:0.3;stroke:#06d6a0;stroke-opacity:0.3;" x="310.051543" xlink:href="#ma2a39918a2" y="58.72"/>
     <use style="fill:#06d6a0;fill-opacity:0.3;stroke:#06d6a0;stroke-opacity:0.3;" x="299.021841" xlink:href="#ma2a39918a2" y="59.686388"/>
     <use style="fill:#06d6a0;fill-opacity:0.3;stroke:#06d6a0;stroke-opacity:0.3;" x="289.508181" xlink:href="#ma2a39918a2" y="58.72"/>
     <use style="fill:#06d6a0;fill-opacity:0.3;stroke:#06d6a0;stroke-opacity:0.3;" x="281.143718" xlink:href="#ma2a39918a2" y="60.16961"/>
     <use style="fill:#06d6a0;fill-opacity:0.3;stroke:#06d6a0;stroke-opacity:0.3;" x="273.680503" xlink:href="#ma2a39918a2" y="59.203194"/>
     <use style="fill:#06d6a0;fill-opacity:0.3;stroke:#06d6a0;stroke-opacity:0.3;" x="266.943073" xlink:href="#ma2a39918a2" y="59.686388"/>
    </g>
   </g>
   <g id="line2d_30">
    <path clip-path="url(#p2bb5546860)" d="M 144.370405 114.626243 
L 151.207645 110.132483 
L 157.332618 108.779524 
L 163.061591 104.672325 
L 168.408094 99.743685 
L 173.173686 96.023044 
L 177.888313 92.447364 
L 182.077619 91.336003 
L 185.869691 91.287684 
L 189.670258 87.808643 
L 193.171503 86.407361 
L 196.388726 85.247681 
L 199.49806 81.527043 
L 202.661345 80.512322 
L 205.632754 78.966081 
L 208.419597 76.84 
L 211.307127 75.631998 
L 214.058302 74.472319 
L 216.582359 72.152957 
L 218.955649 73.795839 
L 221.467089 78.14464 
L 223.561857 77.178239 
L 225.651223 75.487037 
L 227.620653 74.858877 
L 229.672224 75.245437 
L 231.718842 76.598397 
L 233.328223 76.260159 
L 234.954642 75.680321 
L 236.882523 74.375683 
L 238.744334 72.781123 
L 240.50694 67.369284 
L 242.22585 69.157124 
L 243.990636 69.253766 
L 245.562885 68.190728 
L 247.144928 66.692807 
L 248.764601 65.629769 
L 250.251673 65.388169 
L 251.835673 65.243208 
L 253.232391 65.678085 
L 254.531371 64.663364 
L 255.842553 65.243202 
L 257.304179 63.552004 
L 258.685661 62.923843 
L 260.091498 63.213763 
L 261.313517 63.117121 
L 262.413043 62.392319 
L 264.188488 62.054077 
L 265.778457 62.054077 
L 267.227756 61.474239 
L 268.67493 61.570878 
L 269.922959 61.232639 
L 271.05653 61.280959 
L 272.143262 61.667517 
L 273.262068 62.585596 
L 274.567406 64.904958 
L 275.965063 64.95328 
L 276.836937 65.0016 
L 277.828078 64.904958 
L 278.978672 64.808316 
L 280.35367 65.098239 
L 281.865053 64.518397 
L 283.500991 64.566717 
L 285.080631 64.035198 
L 286.833296 62.778877 
L 288.595263 61.232636 
L 290.337669 61.232636 
L 292.010097 61.232636 
L 293.940641 61.135998 
L 295.803072 61.280959 
L 297.831132 61.087678 
L 299.651958 62.537277 
L 301.534201 62.054077 
L 303.604719 62.102397 
L 305.617816 62.392319 
L 307.505865 61.619197 
L 310.065636 61.474236 
L 312.571798 61.667517 
L 314.827263 62.054077 
L 317.201086 62.295677 
L 319.701265 62.247358 
L 322.557692 60.846079 
L 325.539885 60.894398 
L 328.659811 61.280959 
L 331.713022 60.991037 
L 335.546229 60.942717 
L 338.942263 61.812478 
L 342.724554 61.522558 
L 346.975193 61.184317 
L 352.033548 60.797756 
L 357.582377 60.701115 
L 363.513123 60.701115 
" style="fill:none;stroke:#06d6a0;stroke-linecap:square;stroke-width:1.5;"/>
   </g>
   <g id="line2d_31">
    <path clip-path="url(#p2bb5546860)" d="M -1 155.36 
L 421.390512 155.36 
" style="fill:none;stroke:#000000;stroke-linecap:square;stroke-width:1.5;"/>
   </g>
   <g id="patch_3">
    <path d="M 54 252 
L 54 34.56 
" style="fill:none;stroke:#000000;stroke-linecap:square;stroke-linejoin:miter;stroke-width:2.8;"/>
   </g>
   <g id="patch_4">
    <path d="M 388.8 252 
L 388.8 34.56 
" style="fill:none;stroke:#000000;stroke-linecap:square;stroke-linejoin:miter;stroke-width:2.8;"/>
   </g>
   <g id="patch_5">
    <path d="M 54 252 
L 388.8 252 
" style="fill:none;stroke:#000000;stroke-linecap:square;stroke-linejoin:miter;stroke-width:2.8;"/>
   </g>
   <g id="patch_6">
    <path d="M 54 34.56 
L 388.8 34.56 
" style="fill:none;stroke:#000000;stroke-linecap:square;stroke-linejoin:miter;stroke-width:2.8;"/>
   </g>
   <g id="text_11">
    <!-- Both mRNAs same $k_i$ and $k_e$ dataset -->
    <defs>
     <path d="M 38.375 44.671875 
Q 42.828125 44.671875 45.109375 46.625 
Q 47.40625 48.578125 47.40625 52.390625 
Q 47.40625 56.15625 45.109375 58.125 
Q 42.828125 60.109375 38.375 60.109375 
L 27.984375 60.109375 
L 27.984375 44.671875 
z
M 39.015625 12.796875 
Q 44.671875 12.796875 47.53125 15.1875 
Q 50.390625 17.578125 50.390625 22.40625 
Q 50.390625 27.15625 47.5625 29.515625 
Q 44.734375 31.890625 39.015625 31.890625 
L 27.984375 31.890625 
L 27.984375 12.796875 
z
M 56.5 39.015625 
Q 62.546875 37.25 65.859375 32.515625 
Q 69.1875 27.78125 69.1875 20.90625 
Q 69.1875 10.359375 62.0625 5.171875 
Q 54.9375 0 40.375 0 
L 9.1875 0 
L 9.1875 72.90625 
L 37.40625 72.90625 
Q 52.59375 72.90625 59.40625 68.3125 
Q 66.21875 63.71875 66.21875 53.609375 
Q 66.21875 48.296875 63.71875 44.5625 
Q 61.234375 40.828125 56.5 39.015625 
z
" id="DejaVuSans-Bold-66"/>
     <path d="M 63.375 33.296875 
L 63.375 0 
L 45.796875 0 
L 45.796875 5.421875 
L 45.796875 25.390625 
Q 45.796875 32.5625 45.484375 35.25 
Q 45.171875 37.9375 44.390625 39.203125 
Q 43.359375 40.921875 41.59375 41.875 
Q 39.84375 42.828125 37.59375 42.828125 
Q 32.125 42.828125 29 38.59375 
Q 25.875 34.375 25.875 26.90625 
L 25.875 0 
L 8.40625 0 
L 8.40625 75.984375 
L 25.875 75.984375 
L 25.875 46.6875 
Q 29.828125 51.46875 34.265625 53.734375 
Q 38.71875 56 44.09375 56 
Q 53.5625 56 58.46875 50.1875 
Q 63.375 44.390625 63.375 33.296875 
z
" id="DejaVuSans-Bold-104"/>
     <path d="M 59.078125 45.609375 
Q 62.40625 50.6875 66.96875 53.34375 
Q 71.53125 56 77 56 
Q 86.421875 56 91.359375 50.1875 
Q 96.296875 44.390625 96.296875 33.296875 
L 96.296875 0 
L 78.71875 0 
L 78.71875 28.515625 
Q 78.765625 29.15625 78.78125 29.828125 
Q 78.8125 30.515625 78.8125 31.78125 
Q 78.8125 37.59375 77.09375 40.203125 
Q 75.390625 42.828125 71.578125 42.828125 
Q 66.609375 42.828125 63.890625 38.71875 
Q 61.1875 34.625 61.078125 26.859375 
L 61.078125 0 
L 43.5 0 
L 43.5 28.515625 
Q 43.5 37.59375 41.9375 40.203125 
Q 40.375 42.828125 36.375 42.828125 
Q 31.34375 42.828125 28.609375 38.703125 
Q 25.875 34.578125 25.875 26.90625 
L 25.875 0 
L 8.296875 0 
L 8.296875 54.6875 
L 25.875 54.6875 
L 25.875 46.6875 
Q 29.109375 51.3125 33.28125 53.65625 
Q 37.453125 56 42.484375 56 
Q 48.140625 56 52.484375 53.265625 
Q 56.84375 50.53125 59.078125 45.609375 
z
" id="DejaVuSans-Bold-109"/>
     <path d="M 35.890625 40.578125 
Q 41.796875 40.578125 44.359375 42.765625 
Q 46.921875 44.96875 46.921875 50 
Q 46.921875 54.984375 44.359375 57.125 
Q 41.796875 59.28125 35.890625 59.28125 
L 27.984375 59.28125 
L 27.984375 40.578125 
z
M 27.984375 27.59375 
L 27.984375 0 
L 9.1875 0 
L 9.1875 72.90625 
L 37.890625 72.90625 
Q 52.296875 72.90625 59 68.0625 
Q 65.71875 63.234375 65.71875 52.78125 
Q 65.71875 45.5625 62.21875 40.921875 
Q 58.734375 36.28125 51.703125 34.078125 
Q 55.5625 33.203125 58.609375 30.09375 
Q 61.671875 27 64.796875 20.703125 
L 75 0 
L 54.984375 0 
L 46.09375 18.109375 
Q 43.40625 23.578125 40.640625 25.578125 
Q 37.890625 27.59375 33.296875 27.59375 
z
" id="DejaVuSans-Bold-82"/>
     <path d="M 9.1875 72.90625 
L 30.171875 72.90625 
L 56.6875 22.90625 
L 56.6875 72.90625 
L 74.515625 72.90625 
L 74.515625 0 
L 53.515625 0 
L 27 50 
L 27 0 
L 9.1875 0 
z
" id="DejaVuSans-Bold-78"/>
     <path d="M 17.828125 75.984375 
L 35.40625 75.984375 
L 27.390625 34.8125 
L 50.984375 54.6875 
L 71.578125 54.6875 
L 39.796875 29.390625 
L 62.890625 0 
L 42.921875 0 
L 25.203125 23.578125 
L 20.609375 0 
L 3.078125 0 
z
" id="DejaVuSans-BoldOblique-107"/>
     <path d="M 13.71875 54.6875 
L 31.296875 54.6875 
L 20.609375 0 
L 3.078125 0 
z
M 17.828125 75.984375 
L 35.40625 75.984375 
L 32.625 61.71875 
L 14.984375 61.71875 
z
" id="DejaVuSans-BoldOblique-105"/>
     <path d="M 45.609375 46.6875 
L 45.609375 75.984375 
L 63.1875 75.984375 
L 63.1875 0 
L 45.609375 0 
L 45.609375 7.90625 
Q 42 3.078125 37.640625 0.828125 
Q 33.296875 -1.421875 27.59375 -1.421875 
Q 17.484375 -1.421875 10.984375 6.609375 
Q 4.5 14.65625 4.5 27.296875 
Q 4.5 39.9375 10.984375 47.96875 
Q 17.484375 56 27.59375 56 
Q 33.25 56 37.625 53.734375 
Q 42 51.46875 45.609375 46.6875 
z
M 34.078125 11.28125 
Q 39.703125 11.28125 42.65625 15.375 
Q 45.609375 19.484375 45.609375 27.296875 
Q 45.609375 35.109375 42.65625 39.203125 
Q 39.703125 43.3125 34.078125 43.3125 
Q 28.515625 43.3125 25.5625 39.203125 
Q 22.609375 35.109375 22.609375 27.296875 
Q 22.609375 19.484375 25.5625 15.375 
Q 28.515625 11.28125 34.078125 11.28125 
z
" id="DejaVuSans-Bold-100"/>
     <path d="M 62.890625 25.296875 
L 62.3125 22.515625 
L 21.390625 22.515625 
Q 21.390625 22.21875 21.34375 21.65625 
Q 21.296875 21.09375 21.296875 20.796875 
Q 21.296875 15.484375 24.484375 12.84375 
Q 27.6875 10.203125 34.078125 10.203125 
Q 39.59375 10.203125 45.71875 11.859375 
Q 51.859375 13.53125 58.59375 16.796875 
L 55.90625 3.21875 
Q 49.515625 0.875 43.1875 -0.265625 
Q 36.859375 -1.421875 30.328125 -1.421875 
Q 17.53125 -1.421875 10.5625 4.484375 
Q 3.609375 10.40625 3.609375 21.1875 
Q 3.609375 27.4375 5.828125 33.3125 
Q 8.0625 39.203125 12.3125 44.09375 
Q 17.328125 49.953125 24.328125 52.96875 
Q 31.34375 56 39.890625 56 
Q 50.984375 56 57.5 50.09375 
Q 64.015625 44.1875 64.015625 34.1875 
Q 64.015625 32.234375 63.75 30.046875 
Q 63.484375 27.875 62.890625 25.296875 
z
M 46.390625 33.296875 
Q 46.53125 33.9375 46.609375 34.59375 
Q 46.6875 35.25 46.6875 35.890625 
Q 46.6875 39.796875 44.34375 42.09375 
Q 42 44.390625 37.984375 44.390625 
Q 32.859375 44.390625 29.265625 41.578125 
Q 25.6875 38.765625 23.78125 33.296875 
z
" id="DejaVuSans-BoldOblique-101"/>
    </defs>
    <g transform="translate(120.2 24.56)scale(0.1 -0.1)">
     <use transform="translate(0 0.015625)" xlink:href="#DejaVuSans-Bold-66"/>
     <use transform="translate(76.220703 0.015625)" xlink:href="#DejaVuSans-Bold-111"/>
     <use transform="translate(144.921875 0.015625)" xlink:href="#DejaVuSans-Bold-116"/>
     <use transform="translate(192.724609 0.015625)" xlink:href="#DejaVuSans-Bold-104"/>
     <use transform="translate(263.916016 0.015625)" xlink:href="#DejaVuSans-Bold-32"/>
     <use transform="translate(298.730469 0.015625)" xlink:href="#DejaVuSans-Bold-109"/>
     <use transform="translate(402.929688 0.015625)" xlink:href="#DejaVuSans-Bold-82"/>
     <use transform="translate(479.931641 0.015625)" xlink:href="#DejaVuSans-Bold-78"/>
     <use transform="translate(563.623047 0.015625)" xlink:href="#DejaVuSans-Bold-65"/>
     <use transform="translate(641.015625 0.015625)" xlink:href="#DejaVuSans-Bold-115"/>
     <use transform="translate(700.537109 0.015625)" xlink:href="#DejaVuSans-Bold-32"/>
     <use transform="translate(735.351562 0.015625)" xlink:href="#DejaVuSans-Bold-115"/>
     <use transform="translate(794.873047 0.015625)" xlink:href="#DejaVuSans-Bold-97"/>
     <use transform="translate(862.353516 0.015625)" xlink:href="#DejaVuSans-Bold-109"/>
     <use transform="translate(966.552734 0.015625)" xlink:href="#DejaVuSans-Bold-101"/>
     <use transform="translate(1034.375 0.015625)" xlink:href="#DejaVuSans-Bold-32"/>
     <use transform="translate(1069.189453 0.015625)" xlink:href="#DejaVuSans-BoldOblique-107"/>
     <use transform="translate(1135.693359 -16.390625)scale(0.7)" xlink:href="#DejaVuSans-BoldOblique-105"/>
     <use transform="translate(1162.421875 0.015625)" xlink:href="#DejaVuSans-Bold-32"/>
     <use transform="translate(1197.236328 0.015625)" xlink:href="#DejaVuSans-Bold-97"/>
     <use transform="translate(1264.716797 0.015625)" xlink:href="#DejaVuSans-Bold-110"/>
     <use transform="translate(1335.908203 0.015625)" xlink:href="#DejaVuSans-Bold-100"/>
     <use transform="translate(1407.490234 0.015625)" xlink:href="#DejaVuSans-Bold-32"/>
     <use transform="translate(1442.304688 0.015625)" xlink:href="#DejaVuSans-BoldOblique-107"/>
     <use transform="translate(1508.808594 -16.390625)scale(0.7)" xlink:href="#DejaVuSans-BoldOblique-101"/>
     <use transform="translate(1559.018555 0.015625)" xlink:href="#DejaVuSans-Bold-32"/>
     <use transform="translate(1593.833008 0.015625)" xlink:href="#DejaVuSans-Bold-100"/>
     <use transform="translate(1665.415039 0.015625)" xlink:href="#DejaVuSans-Bold-97"/>
     <use transform="translate(1732.895508 0.015625)" xlink:href="#DejaVuSans-Bold-116"/>
     <use transform="translate(1780.698242 0.015625)" xlink:href="#DejaVuSans-Bold-97"/>
     <use transform="translate(1848.178711 0.015625)" xlink:href="#DejaVuSans-Bold-115"/>
     <use transform="translate(1907.700195 0.015625)" xlink:href="#DejaVuSans-Bold-101"/>
     <use transform="translate(1975.522461 0.015625)" xlink:href="#DejaVuSans-Bold-116"/>
    </g>
   </g>
   <g id="legend_1">
    <g id="patch_7">
     <path d="M 211.561875 246 
L 380.4 246 
Q 382.8 246 382.8 243.6 
L 382.8 191.95875 
Q 382.8 189.55875 380.4 189.55875 
L 211.561875 189.55875 
Q 209.161875 189.55875 209.161875 191.95875 
L 209.161875 243.6 
Q 209.161875 246 211.561875 246 
z
" style="fill:#ffffff;opacity:0.8;stroke:#cccccc;stroke-linejoin:miter;"/>
    </g>
    <g id="line2d_32"/>
    <g id="line2d_33">
     <g>
      <use style="fill:#073b4c;fill-opacity:0.3;stroke:#073b4c;stroke-opacity:0.3;" x="225.961875" xlink:href="#mc2664cb90f" y="199.276875"/>
     </g>
    </g>
    <g id="text_12">
     <!-- 64 frames, 5s FR -->
     <defs>
      <path d="M 36.8125 57.421875 
L 16.21875 26.90625 
L 36.8125 26.90625 
z
M 33.6875 72.90625 
L 54.59375 72.90625 
L 54.59375 26.90625 
L 64.984375 26.90625 
L 64.984375 13.28125 
L 54.59375 13.28125 
L 54.59375 0 
L 36.8125 0 
L 36.8125 13.28125 
L 4.5 13.28125 
L 4.5 29.390625 
z
" id="DejaVuSans-Bold-52"/>
      <path d="M 44.390625 75.984375 
L 44.390625 64.5 
L 34.71875 64.5 
Q 31 64.5 29.53125 63.15625 
Q 28.078125 61.8125 28.078125 58.5 
L 28.078125 54.6875 
L 43.015625 54.6875 
L 43.015625 42.1875 
L 28.078125 42.1875 
L 28.078125 0 
L 10.59375 0 
L 10.59375 42.1875 
L 1.90625 42.1875 
L 1.90625 54.6875 
L 10.59375 54.6875 
L 10.59375 58.5 
Q 10.59375 67.4375 15.578125 71.703125 
Q 20.5625 75.984375 31 75.984375 
z
" id="DejaVuSans-Bold-102"/>
      <path d="M 10.203125 18.890625 
L 27.78125 18.890625 
L 27.78125 4 
L 15.71875 -14.203125 
L 5.328125 -14.203125 
L 10.203125 4 
z
" id="DejaVuSans-Bold-44"/>
      <path d="M 10.59375 72.90625 
L 57.328125 72.90625 
L 57.328125 59.078125 
L 25.59375 59.078125 
L 25.59375 47.796875 
Q 27.734375 48.390625 29.90625 48.703125 
Q 32.078125 49.03125 34.421875 49.03125 
Q 47.75 49.03125 55.171875 42.359375 
Q 62.59375 35.6875 62.59375 23.78125 
Q 62.59375 11.96875 54.515625 5.265625 
Q 46.4375 -1.421875 32.078125 -1.421875 
Q 25.875 -1.421875 19.796875 -0.21875 
Q 13.71875 0.984375 7.71875 3.421875 
L 7.71875 18.21875 
Q 13.671875 14.796875 19.015625 13.078125 
Q 24.359375 11.375 29.109375 11.375 
Q 35.9375 11.375 39.859375 14.71875 
Q 43.796875 18.0625 43.796875 23.78125 
Q 43.796875 29.546875 39.859375 32.859375 
Q 35.9375 36.1875 29.109375 36.1875 
Q 25.046875 36.1875 20.453125 35.125 
Q 15.875 34.078125 10.59375 31.890625 
z
" id="DejaVuSans-Bold-53"/>
      <path d="M 9.1875 72.90625 
L 59.90625 72.90625 
L 59.90625 58.6875 
L 27.984375 58.6875 
L 27.984375 45.125 
L 58.015625 45.125 
L 58.015625 30.90625 
L 27.984375 30.90625 
L 27.984375 0 
L 9.1875 0 
z
" id="DejaVuSans-Bold-70"/>
     </defs>
     <g transform="translate(247.561875 203.476875)scale(0.12 -0.12)">
      <use xlink:href="#DejaVuSans-Bold-54"/>
      <use x="69.580078" xlink:href="#DejaVuSans-Bold-52"/>
      <use x="139.160156" xlink:href="#DejaVuSans-Bold-32"/>
      <use x="173.974609" xlink:href="#DejaVuSans-Bold-102"/>
      <use x="217.480469" xlink:href="#DejaVuSans-Bold-114"/>
      <use x="266.796875" xlink:href="#DejaVuSans-Bold-97"/>
      <use x="334.277344" xlink:href="#DejaVuSans-Bold-109"/>
      <use x="438.476562" xlink:href="#DejaVuSans-Bold-101"/>
      <use x="506.298828" xlink:href="#DejaVuSans-Bold-115"/>
      <use x="565.820312" xlink:href="#DejaVuSans-Bold-44"/>
      <use x="603.808594" xlink:href="#DejaVuSans-Bold-32"/>
      <use x="638.623047" xlink:href="#DejaVuSans-Bold-53"/>
      <use x="708.203125" xlink:href="#DejaVuSans-Bold-115"/>
      <use x="767.724609" xlink:href="#DejaVuSans-Bold-32"/>
      <use x="802.539062" xlink:href="#DejaVuSans-Bold-70"/>
      <use x="870.849609" xlink:href="#DejaVuSans-Bold-82"/>
     </g>
    </g>
    <g id="line2d_34"/>
    <g id="line2d_35">
     <g>
      <use style="fill:#8a3619;fill-opacity:0.3;stroke:#8a3619;stroke-opacity:0.3;" x="225.961875" xlink:href="#m376c7e3fe8" y="216.890625"/>
     </g>
    </g>
    <g id="text_13">
     <!-- 128 frames, 5s FR -->
     <g transform="translate(247.561875 221.090625)scale(0.12 -0.12)">
      <use xlink:href="#DejaVuSans-Bold-49"/>
      <use x="69.580078" xlink:href="#DejaVuSans-Bold-50"/>
      <use x="139.160156" xlink:href="#DejaVuSans-Bold-56"/>
      <use x="208.740234" xlink:href="#DejaVuSans-Bold-32"/>
      <use x="243.554688" xlink:href="#DejaVuSans-Bold-102"/>
      <use x="287.060547" xlink:href="#DejaVuSans-Bold-114"/>
      <use x="336.376953" xlink:href="#DejaVuSans-Bold-97"/>
      <use x="403.857422" xlink:href="#DejaVuSans-Bold-109"/>
      <use x="508.056641" xlink:href="#DejaVuSans-Bold-101"/>
      <use x="575.878906" xlink:href="#DejaVuSans-Bold-115"/>
      <use x="635.400391" xlink:href="#DejaVuSans-Bold-44"/>
      <use x="673.388672" xlink:href="#DejaVuSans-Bold-32"/>
      <use x="708.203125" xlink:href="#DejaVuSans-Bold-53"/>
      <use x="777.783203" xlink:href="#DejaVuSans-Bold-115"/>
      <use x="837.304688" xlink:href="#DejaVuSans-Bold-32"/>
      <use x="872.119141" xlink:href="#DejaVuSans-Bold-70"/>
      <use x="940.429688" xlink:href="#DejaVuSans-Bold-82"/>
     </g>
    </g>
    <g id="line2d_36"/>
    <g id="line2d_37">
     <g>
      <use style="fill:#06d6a0;fill-opacity:0.3;stroke:#06d6a0;stroke-opacity:0.3;" x="225.961875" xlink:href="#ma2a39918a2" y="234.504375"/>
     </g>
    </g>
    <g id="text_14">
     <!-- 1500 frames, 2s FR -->
     <g transform="translate(247.561875 238.704375)scale(0.12 -0.12)">
      <use xlink:href="#DejaVuSans-Bold-49"/>
      <use x="69.580078" xlink:href="#DejaVuSans-Bold-53"/>
      <use x="139.160156" xlink:href="#DejaVuSans-Bold-48"/>
      <use x="208.740234" xlink:href="#DejaVuSans-Bold-48"/>
      <use x="278.320312" xlink:href="#DejaVuSans-Bold-32"/>
      <use x="313.134766" xlink:href="#DejaVuSans-Bold-102"/>
      <use x="356.640625" xlink:href="#DejaVuSans-Bold-114"/>
      <use x="405.957031" xlink:href="#DejaVuSans-Bold-97"/>
      <use x="473.4375" xlink:href="#DejaVuSans-Bold-109"/>
      <use x="577.636719" xlink:href="#DejaVuSans-Bold-101"/>
      <use x="645.458984" xlink:href="#DejaVuSans-Bold-115"/>
      <use x="704.980469" xlink:href="#DejaVuSans-Bold-44"/>
      <use x="742.96875" xlink:href="#DejaVuSans-Bold-32"/>
      <use x="777.783203" xlink:href="#DejaVuSans-Bold-50"/>
      <use x="847.363281" xlink:href="#DejaVuSans-Bold-115"/>
      <use x="906.884766" xlink:href="#DejaVuSans-Bold-32"/>
      <use x="941.699219" xlink:href="#DejaVuSans-Bold-70"/>
      <use x="1010.009766" xlink:href="#DejaVuSans-Bold-82"/>
     </g>
    </g>
   </g>
  </g>
 </g>
 <defs>
  <clipPath id="p2bb5546860">
   <rect height="217.44" width="334.8" x="54" y="34.56"/>
  </clipPath>
 </defs>
</svg>
