<?xml version="1.0" encoding="utf-8" standalone="no"?>
<!DOCTYPE svg PUBLIC "-//W3C//DTD SVG 1.1//EN"
  "http://www.w3.org/Graphics/SVG/1.1/DTD/svg11.dtd">
<!-- Created with matplotlib (https://matplotlib.org/) -->
<svg height="288pt" version="1.1" viewBox="0 0 432 288" width="432pt" xmlns="http://www.w3.org/2000/svg" xmlns:xlink="http://www.w3.org/1999/xlink">
 <defs>
  <style type="text/css">
*{stroke-linecap:butt;stroke-linejoin:round;}
  </style>
 </defs>
 <g id="figure_1">
  <g id="patch_1">
   <path d="M 0 288 
L 432 288 
L 432 0 
L 0 0 
z
" style="fill:#ffffff;"/>
  </g>
  <g id="axes_1">
   <g id="patch_2">
    <path d="M 54 252 
L 388.8 252 
L 388.8 34.56 
L 54 34.56 
z
" style="fill:#ffffff;"/>
   </g>
   <g id="matplotlib.axis_1">
    <g id="xtick_1">
     <g id="line2d_1">
      <defs>
       <path d="M 0 0 
L 0 3.5 
" id="m537e641b5d" style="stroke:#000000;stroke-width:2.8;"/>
      </defs>
      <g>
       <use style="stroke:#000000;stroke-width:2.8;" x="84.436364" xlink:href="#m537e641b5d" y="252"/>
      </g>
     </g>
     <g id="text_1">
      <!-- 1.00 -->
      <defs>
       <path d="M 11.71875 12.984375 
L 28.328125 12.984375 
L 28.328125 60.109375 
L 11.28125 56.59375 
L 11.28125 69.390625 
L 28.21875 72.90625 
L 46.09375 72.90625 
L 46.09375 12.984375 
L 62.703125 12.984375 
L 62.703125 0 
L 11.71875 0 
z
" id="DejaVuSans-Bold-49"/>
       <path d="M 10.203125 18.890625 
L 27.78125 18.890625 
L 27.78125 0 
L 10.203125 0 
z
" id="DejaVuSans-Bold-46"/>
       <path d="M 46 36.53125 
Q 46 50.203125 43.4375 55.78125 
Q 40.875 61.375 34.8125 61.375 
Q 28.765625 61.375 26.171875 55.78125 
Q 23.578125 50.203125 23.578125 36.53125 
Q 23.578125 22.703125 26.171875 17.03125 
Q 28.765625 11.375 34.8125 11.375 
Q 40.828125 11.375 43.40625 17.03125 
Q 46 22.703125 46 36.53125 
z
M 64.796875 36.375 
Q 64.796875 18.265625 56.984375 8.421875 
Q 49.171875 -1.421875 34.8125 -1.421875 
Q 20.40625 -1.421875 12.59375 8.421875 
Q 4.78125 18.265625 4.78125 36.375 
Q 4.78125 54.546875 12.59375 64.375 
Q 20.40625 74.21875 34.8125 74.21875 
Q 49.171875 74.21875 56.984375 64.375 
Q 64.796875 54.546875 64.796875 36.375 
z
" id="DejaVuSans-Bold-48"/>
      </defs>
      <g transform="translate(69.633239 268.118125)scale(0.12 -0.12)">
       <use xlink:href="#DejaVuSans-Bold-49"/>
       <use x="69.580078" xlink:href="#DejaVuSans-Bold-46"/>
       <use x="107.568359" xlink:href="#DejaVuSans-Bold-48"/>
       <use x="177.148438" xlink:href="#DejaVuSans-Bold-48"/>
      </g>
     </g>
    </g>
    <g id="xtick_2">
     <g id="line2d_2">
      <g>
       <use style="stroke:#000000;stroke-width:2.8;" x="122.481818" xlink:href="#m537e641b5d" y="252"/>
      </g>
     </g>
     <g id="text_2">
      <!-- 1.25 -->
      <defs>
       <path d="M 28.8125 13.8125 
L 60.890625 13.8125 
L 60.890625 0 
L 7.90625 0 
L 7.90625 13.8125 
L 34.515625 37.3125 
Q 38.09375 40.53125 39.796875 43.609375 
Q 41.5 46.6875 41.5 50 
Q 41.5 55.125 38.0625 58.25 
Q 34.625 61.375 28.90625 61.375 
Q 24.515625 61.375 19.28125 59.5 
Q 14.0625 57.625 8.109375 53.90625 
L 8.109375 69.921875 
Q 14.453125 72.015625 20.65625 73.109375 
Q 26.859375 74.21875 32.8125 74.21875 
Q 45.90625 74.21875 53.15625 68.453125 
Q 60.40625 62.703125 60.40625 52.390625 
Q 60.40625 46.4375 57.328125 41.28125 
Q 54.25 36.140625 44.390625 27.484375 
z
" id="DejaVuSans-Bold-50"/>
       <path d="M 10.59375 72.90625 
L 57.328125 72.90625 
L 57.328125 59.078125 
L 25.59375 59.078125 
L 25.59375 47.796875 
Q 27.734375 48.390625 29.90625 48.703125 
Q 32.078125 49.03125 34.421875 49.03125 
Q 47.75 49.03125 55.171875 42.359375 
Q 62.59375 35.6875 62.59375 23.78125 
Q 62.59375 11.96875 54.515625 5.265625 
Q 46.4375 -1.421875 32.078125 -1.421875 
Q 25.875 -1.421875 19.796875 -0.21875 
Q 13.71875 0.984375 7.71875 3.421875 
L 7.71875 18.21875 
Q 13.671875 14.796875 19.015625 13.078125 
Q 24.359375 11.375 29.109375 11.375 
Q 35.9375 11.375 39.859375 14.71875 
Q 43.796875 18.0625 43.796875 23.78125 
Q 43.796875 29.546875 39.859375 32.859375 
Q 35.9375 36.1875 29.109375 36.1875 
Q 25.046875 36.1875 20.453125 35.125 
Q 15.875 34.078125 10.59375 31.890625 
z
" id="DejaVuSans-Bold-53"/>
      </defs>
      <g transform="translate(107.678693 268.118125)scale(0.12 -0.12)">
       <use xlink:href="#DejaVuSans-Bold-49"/>
       <use x="69.580078" xlink:href="#DejaVuSans-Bold-46"/>
       <use x="107.568359" xlink:href="#DejaVuSans-Bold-50"/>
       <use x="177.148438" xlink:href="#DejaVuSans-Bold-53"/>
      </g>
     </g>
    </g>
    <g id="xtick_3">
     <g id="line2d_3">
      <g>
       <use style="stroke:#000000;stroke-width:2.8;" x="160.527273" xlink:href="#m537e641b5d" y="252"/>
      </g>
     </g>
     <g id="text_3">
      <!-- 1.50 -->
      <g transform="translate(145.724148 268.118125)scale(0.12 -0.12)">
       <use xlink:href="#DejaVuSans-Bold-49"/>
       <use x="69.580078" xlink:href="#DejaVuSans-Bold-46"/>
       <use x="107.568359" xlink:href="#DejaVuSans-Bold-53"/>
       <use x="177.148438" xlink:href="#DejaVuSans-Bold-48"/>
      </g>
     </g>
    </g>
    <g id="xtick_4">
     <g id="line2d_4">
      <g>
       <use style="stroke:#000000;stroke-width:2.8;" x="198.572727" xlink:href="#m537e641b5d" y="252"/>
      </g>
     </g>
     <g id="text_4">
      <!-- 1.75 -->
      <defs>
       <path d="M 6.6875 72.90625 
L 61.625 72.90625 
L 61.625 62.3125 
L 33.203125 0 
L 14.890625 0 
L 41.796875 59.078125 
L 6.6875 59.078125 
z
" id="DejaVuSans-Bold-55"/>
      </defs>
      <g transform="translate(183.769602 268.118125)scale(0.12 -0.12)">
       <use xlink:href="#DejaVuSans-Bold-49"/>
       <use x="69.580078" xlink:href="#DejaVuSans-Bold-46"/>
       <use x="107.568359" xlink:href="#DejaVuSans-Bold-55"/>
       <use x="177.148438" xlink:href="#DejaVuSans-Bold-53"/>
      </g>
     </g>
    </g>
    <g id="xtick_5">
     <g id="line2d_5">
      <g>
       <use style="stroke:#000000;stroke-width:2.8;" x="236.618182" xlink:href="#m537e641b5d" y="252"/>
      </g>
     </g>
     <g id="text_5">
      <!-- 2.00 -->
      <g transform="translate(221.815057 268.118125)scale(0.12 -0.12)">
       <use xlink:href="#DejaVuSans-Bold-50"/>
       <use x="69.580078" xlink:href="#DejaVuSans-Bold-46"/>
       <use x="107.568359" xlink:href="#DejaVuSans-Bold-48"/>
       <use x="177.148438" xlink:href="#DejaVuSans-Bold-48"/>
      </g>
     </g>
    </g>
    <g id="xtick_6">
     <g id="line2d_6">
      <g>
       <use style="stroke:#000000;stroke-width:2.8;" x="274.663636" xlink:href="#m537e641b5d" y="252"/>
      </g>
     </g>
     <g id="text_6">
      <!-- 2.25 -->
      <g transform="translate(259.860511 268.118125)scale(0.12 -0.12)">
       <use xlink:href="#DejaVuSans-Bold-50"/>
       <use x="69.580078" xlink:href="#DejaVuSans-Bold-46"/>
       <use x="107.568359" xlink:href="#DejaVuSans-Bold-50"/>
       <use x="177.148438" xlink:href="#DejaVuSans-Bold-53"/>
      </g>
     </g>
    </g>
    <g id="xtick_7">
     <g id="line2d_7">
      <g>
       <use style="stroke:#000000;stroke-width:2.8;" x="312.709091" xlink:href="#m537e641b5d" y="252"/>
      </g>
     </g>
     <g id="text_7">
      <!-- 2.50 -->
      <g transform="translate(297.905966 268.118125)scale(0.12 -0.12)">
       <use xlink:href="#DejaVuSans-Bold-50"/>
       <use x="69.580078" xlink:href="#DejaVuSans-Bold-46"/>
       <use x="107.568359" xlink:href="#DejaVuSans-Bold-53"/>
       <use x="177.148438" xlink:href="#DejaVuSans-Bold-48"/>
      </g>
     </g>
    </g>
    <g id="xtick_8">
     <g id="line2d_8">
      <g>
       <use style="stroke:#000000;stroke-width:2.8;" x="350.754545" xlink:href="#m537e641b5d" y="252"/>
      </g>
     </g>
     <g id="text_8">
      <!-- 2.75 -->
      <g transform="translate(335.95142 268.118125)scale(0.12 -0.12)">
       <use xlink:href="#DejaVuSans-Bold-50"/>
       <use x="69.580078" xlink:href="#DejaVuSans-Bold-46"/>
       <use x="107.568359" xlink:href="#DejaVuSans-Bold-55"/>
       <use x="177.148438" xlink:href="#DejaVuSans-Bold-53"/>
      </g>
     </g>
    </g>
    <g id="xtick_9">
     <g id="line2d_9">
      <g>
       <use style="stroke:#000000;stroke-width:2.8;" x="388.8" xlink:href="#m537e641b5d" y="252"/>
      </g>
     </g>
     <g id="text_9">
      <!-- 3.00 -->
      <defs>
       <path d="M 46.578125 39.3125 
Q 53.953125 37.40625 57.78125 32.6875 
Q 61.625 27.984375 61.625 20.703125 
Q 61.625 9.859375 53.3125 4.21875 
Q 45.015625 -1.421875 29.109375 -1.421875 
Q 23.484375 -1.421875 17.84375 -0.515625 
Q 12.203125 0.390625 6.6875 2.203125 
L 6.6875 16.703125 
Q 11.96875 14.0625 17.15625 12.71875 
Q 22.359375 11.375 27.390625 11.375 
Q 34.859375 11.375 38.84375 13.953125 
Q 42.828125 16.546875 42.828125 21.390625 
Q 42.828125 26.375 38.75 28.9375 
Q 34.671875 31.5 26.703125 31.5 
L 19.1875 31.5 
L 19.1875 43.609375 
L 27.09375 43.609375 
Q 34.1875 43.609375 37.640625 45.828125 
Q 41.109375 48.046875 41.109375 52.59375 
Q 41.109375 56.78125 37.734375 59.078125 
Q 34.375 61.375 28.21875 61.375 
Q 23.6875 61.375 19.046875 60.34375 
Q 14.40625 59.328125 9.8125 57.328125 
L 9.8125 71.09375 
Q 15.375 72.65625 20.84375 73.4375 
Q 26.3125 74.21875 31.59375 74.21875 
Q 45.796875 74.21875 52.84375 69.546875 
Q 59.90625 64.890625 59.90625 55.515625 
Q 59.90625 49.125 56.53125 45.046875 
Q 53.171875 40.96875 46.578125 39.3125 
z
" id="DejaVuSans-Bold-51"/>
      </defs>
      <g transform="translate(373.996875 268.118125)scale(0.12 -0.12)">
       <use xlink:href="#DejaVuSans-Bold-51"/>
       <use x="69.580078" xlink:href="#DejaVuSans-Bold-46"/>
       <use x="107.568359" xlink:href="#DejaVuSans-Bold-48"/>
       <use x="177.148438" xlink:href="#DejaVuSans-Bold-48"/>
      </g>
     </g>
    </g>
    <g id="text_10">
     <!-- Length Fold Difference $(L_{mRNA,2} / L_{mRNA,1})$ -->
     <defs>
      <path d="M 9.1875 72.90625 
L 27.984375 72.90625 
L 27.984375 14.203125 
L 60.984375 14.203125 
L 60.984375 0 
L 9.1875 0 
z
" id="DejaVuSans-Bold-76"/>
      <path d="M 62.984375 27.484375 
L 62.984375 22.515625 
L 22.125 22.515625 
Q 22.75 16.359375 26.5625 13.28125 
Q 30.375 10.203125 37.203125 10.203125 
Q 42.71875 10.203125 48.5 11.84375 
Q 54.296875 13.484375 60.40625 16.796875 
L 60.40625 3.328125 
Q 54.203125 0.984375 48 -0.21875 
Q 41.796875 -1.421875 35.59375 -1.421875 
Q 20.75 -1.421875 12.515625 6.125 
Q 4.296875 13.671875 4.296875 27.296875 
Q 4.296875 40.671875 12.375 48.328125 
Q 20.453125 56 34.625 56 
Q 47.515625 56 55.25 48.234375 
Q 62.984375 40.484375 62.984375 27.484375 
z
M 45.015625 33.296875 
Q 45.015625 38.28125 42.109375 41.328125 
Q 39.203125 44.390625 34.515625 44.390625 
Q 29.4375 44.390625 26.265625 41.53125 
Q 23.09375 38.671875 22.3125 33.296875 
z
" id="DejaVuSans-Bold-101"/>
      <path d="M 63.375 33.296875 
L 63.375 0 
L 45.796875 0 
L 45.796875 5.421875 
L 45.796875 25.484375 
Q 45.796875 32.5625 45.484375 35.25 
Q 45.171875 37.9375 44.390625 39.203125 
Q 43.359375 40.921875 41.59375 41.875 
Q 39.84375 42.828125 37.59375 42.828125 
Q 32.125 42.828125 29 38.59375 
Q 25.875 34.375 25.875 26.90625 
L 25.875 0 
L 8.40625 0 
L 8.40625 54.6875 
L 25.875 54.6875 
L 25.875 46.6875 
Q 29.828125 51.46875 34.265625 53.734375 
Q 38.71875 56 44.09375 56 
Q 53.5625 56 58.46875 50.1875 
Q 63.375 44.390625 63.375 33.296875 
z
" id="DejaVuSans-Bold-110"/>
      <path d="M 45.609375 9.28125 
Q 42 4.5 37.640625 2.25 
Q 33.296875 0 27.59375 0 
Q 17.578125 0 11.03125 7.875 
Q 4.5 15.765625 4.5 27.984375 
Q 4.5 40.234375 11.03125 48.0625 
Q 17.578125 55.90625 27.59375 55.90625 
Q 33.296875 55.90625 37.640625 53.65625 
Q 42 51.421875 45.609375 46.578125 
L 45.609375 54.6875 
L 63.1875 54.6875 
L 63.1875 5.515625 
Q 63.1875 -7.671875 54.859375 -14.625 
Q 46.53125 -21.578125 30.71875 -21.578125 
Q 25.59375 -21.578125 20.796875 -20.796875 
Q 16.015625 -20.015625 11.1875 -18.40625 
L 11.1875 -4.78125 
Q 15.765625 -7.421875 20.15625 -8.71875 
Q 24.5625 -10.015625 29 -10.015625 
Q 37.59375 -10.015625 41.59375 -6.25 
Q 45.609375 -2.484375 45.609375 5.515625 
z
M 34.078125 43.3125 
Q 28.65625 43.3125 25.625 39.296875 
Q 22.609375 35.296875 22.609375 27.984375 
Q 22.609375 20.453125 25.53125 16.578125 
Q 28.46875 12.703125 34.078125 12.703125 
Q 39.546875 12.703125 42.578125 16.703125 
Q 45.609375 20.703125 45.609375 27.984375 
Q 45.609375 35.296875 42.578125 39.296875 
Q 39.546875 43.3125 34.078125 43.3125 
z
" id="DejaVuSans-Bold-103"/>
      <path d="M 27.484375 70.21875 
L 27.484375 54.6875 
L 45.515625 54.6875 
L 45.515625 42.1875 
L 27.484375 42.1875 
L 27.484375 19 
Q 27.484375 15.1875 29 13.84375 
Q 30.515625 12.5 35.015625 12.5 
L 44 12.5 
L 44 0 
L 29 0 
Q 18.65625 0 14.328125 4.3125 
Q 10.015625 8.640625 10.015625 19 
L 10.015625 42.1875 
L 1.3125 42.1875 
L 1.3125 54.6875 
L 10.015625 54.6875 
L 10.015625 70.21875 
z
" id="DejaVuSans-Bold-116"/>
      <path d="M 63.375 33.296875 
L 63.375 0 
L 45.796875 0 
L 45.796875 5.421875 
L 45.796875 25.390625 
Q 45.796875 32.5625 45.484375 35.25 
Q 45.171875 37.9375 44.390625 39.203125 
Q 43.359375 40.921875 41.59375 41.875 
Q 39.84375 42.828125 37.59375 42.828125 
Q 32.125 42.828125 29 38.59375 
Q 25.875 34.375 25.875 26.90625 
L 25.875 0 
L 8.40625 0 
L 8.40625 75.984375 
L 25.875 75.984375 
L 25.875 46.6875 
Q 29.828125 51.46875 34.265625 53.734375 
Q 38.71875 56 44.09375 56 
Q 53.5625 56 58.46875 50.1875 
Q 63.375 44.390625 63.375 33.296875 
z
" id="DejaVuSans-Bold-104"/>
      <path id="DejaVuSans-Bold-32"/>
      <path d="M 9.1875 72.90625 
L 59.90625 72.90625 
L 59.90625 58.6875 
L 27.984375 58.6875 
L 27.984375 45.125 
L 58.015625 45.125 
L 58.015625 30.90625 
L 27.984375 30.90625 
L 27.984375 0 
L 9.1875 0 
z
" id="DejaVuSans-Bold-70"/>
      <path d="M 34.421875 43.5 
Q 28.609375 43.5 25.5625 39.328125 
Q 22.515625 35.15625 22.515625 27.296875 
Q 22.515625 19.4375 25.5625 15.25 
Q 28.609375 11.078125 34.421875 11.078125 
Q 40.140625 11.078125 43.15625 15.25 
Q 46.1875 19.4375 46.1875 27.296875 
Q 46.1875 35.15625 43.15625 39.328125 
Q 40.140625 43.5 34.421875 43.5 
z
M 34.421875 56 
Q 48.53125 56 56.46875 48.375 
Q 64.40625 40.765625 64.40625 27.296875 
Q 64.40625 13.8125 56.46875 6.1875 
Q 48.53125 -1.421875 34.421875 -1.421875 
Q 20.265625 -1.421875 12.28125 6.1875 
Q 4.296875 13.8125 4.296875 27.296875 
Q 4.296875 40.765625 12.28125 48.375 
Q 20.265625 56 34.421875 56 
z
" id="DejaVuSans-Bold-111"/>
      <path d="M 8.40625 75.984375 
L 25.875 75.984375 
L 25.875 0 
L 8.40625 0 
z
" id="DejaVuSans-Bold-108"/>
      <path d="M 45.609375 46.6875 
L 45.609375 75.984375 
L 63.1875 75.984375 
L 63.1875 0 
L 45.609375 0 
L 45.609375 7.90625 
Q 42 3.078125 37.640625 0.828125 
Q 33.296875 -1.421875 27.59375 -1.421875 
Q 17.484375 -1.421875 10.984375 6.609375 
Q 4.5 14.65625 4.5 27.296875 
Q 4.5 39.9375 10.984375 47.96875 
Q 17.484375 56 27.59375 56 
Q 33.25 56 37.625 53.734375 
Q 42 51.46875 45.609375 46.6875 
z
M 34.078125 11.28125 
Q 39.703125 11.28125 42.65625 15.375 
Q 45.609375 19.484375 45.609375 27.296875 
Q 45.609375 35.109375 42.65625 39.203125 
Q 39.703125 43.3125 34.078125 43.3125 
Q 28.515625 43.3125 25.5625 39.203125 
Q 22.609375 35.109375 22.609375 27.296875 
Q 22.609375 19.484375 25.5625 15.375 
Q 28.515625 11.28125 34.078125 11.28125 
z
" id="DejaVuSans-Bold-100"/>
      <path d="M 27.984375 58.6875 
L 27.984375 14.203125 
L 34.71875 14.203125 
Q 46.234375 14.203125 52.3125 19.921875 
Q 58.40625 25.640625 58.40625 36.53125 
Q 58.40625 47.359375 52.34375 53.015625 
Q 46.296875 58.6875 34.71875 58.6875 
z
M 9.1875 72.90625 
L 29 72.90625 
Q 45.609375 72.90625 53.734375 70.53125 
Q 61.859375 68.171875 67.671875 62.5 
Q 72.796875 57.5625 75.28125 51.109375 
Q 77.78125 44.671875 77.78125 36.53125 
Q 77.78125 28.265625 75.28125 21.796875 
Q 72.796875 15.328125 67.671875 10.40625 
Q 61.8125 4.734375 53.609375 2.359375 
Q 45.40625 0 29 0 
L 9.1875 0 
z
" id="DejaVuSans-Bold-68"/>
      <path d="M 8.40625 54.6875 
L 25.875 54.6875 
L 25.875 0 
L 8.40625 0 
z
M 8.40625 75.984375 
L 25.875 75.984375 
L 25.875 61.71875 
L 8.40625 61.71875 
z
" id="DejaVuSans-Bold-105"/>
      <path d="M 44.390625 75.984375 
L 44.390625 64.5 
L 34.71875 64.5 
Q 31 64.5 29.53125 63.15625 
Q 28.078125 61.8125 28.078125 58.5 
L 28.078125 54.6875 
L 43.015625 54.6875 
L 43.015625 42.1875 
L 28.078125 42.1875 
L 28.078125 0 
L 10.59375 0 
L 10.59375 42.1875 
L 1.90625 42.1875 
L 1.90625 54.6875 
L 10.59375 54.6875 
L 10.59375 58.5 
Q 10.59375 67.4375 15.578125 71.703125 
Q 20.5625 75.984375 31 75.984375 
z
" id="DejaVuSans-Bold-102"/>
      <path d="M 49.03125 39.796875 
Q 46.734375 40.875 44.453125 41.375 
Q 42.1875 41.890625 39.890625 41.890625 
Q 33.15625 41.890625 29.515625 37.5625 
Q 25.875 33.25 25.875 25.203125 
L 25.875 0 
L 8.40625 0 
L 8.40625 54.6875 
L 25.875 54.6875 
L 25.875 45.703125 
Q 29.25 51.078125 33.609375 53.53125 
Q 37.984375 56 44.09375 56 
Q 44.96875 56 45.984375 55.921875 
Q 47.015625 55.859375 48.96875 55.609375 
z
" id="DejaVuSans-Bold-114"/>
      <path d="M 52.59375 52.984375 
L 52.59375 38.71875 
Q 49.03125 41.15625 45.4375 42.328125 
Q 41.84375 43.5 37.984375 43.5 
Q 30.671875 43.5 26.59375 39.234375 
Q 22.515625 34.96875 22.515625 27.296875 
Q 22.515625 19.625 26.59375 15.34375 
Q 30.671875 11.078125 37.984375 11.078125 
Q 42.09375 11.078125 45.78125 12.296875 
Q 49.46875 13.53125 52.59375 15.921875 
L 52.59375 1.609375 
Q 48.484375 0.09375 44.265625 -0.65625 
Q 40.046875 -1.421875 35.796875 -1.421875 
Q 21 -1.421875 12.640625 6.171875 
Q 4.296875 13.765625 4.296875 27.296875 
Q 4.296875 40.828125 12.640625 48.40625 
Q 21 56 35.796875 56 
Q 40.09375 56 44.265625 55.25 
Q 48.4375 54.5 52.59375 52.984375 
z
" id="DejaVuSans-Bold-99"/>
      <path d="M 37.703125 -13.1875 
L 23.1875 -13.1875 
Q 15.71875 -1.125 12.15625 9.734375 
Q 8.59375 20.609375 8.59375 31.296875 
Q 8.59375 42 12.171875 52.953125 
Q 15.765625 63.921875 23.1875 75.875 
L 37.703125 75.875 
Q 31.453125 64.3125 28.328125 53.25 
Q 25.203125 42.1875 25.203125 31.390625 
Q 25.203125 20.609375 28.296875 9.515625 
Q 31.390625 -1.5625 37.703125 -13.1875 
z
" id="DejaVuSans-Bold-40"/>
      <path d="M 16.3125 72.90625 
L 35.109375 72.90625 
L 23.6875 14.203125 
L 56.59375 14.203125 
L 53.90625 0 
L 2.09375 0 
z
" id="DejaVuSans-BoldOblique-76"/>
      <path d="M 62.703125 45.609375 
Q 66.75 50.640625 71.890625 53.3125 
Q 77.046875 56 82.625 56 
Q 89.9375 56 94.15625 51.96875 
Q 98.390625 47.953125 98.390625 40.921875 
Q 98.390625 39.453125 98.171875 37.5625 
Q 97.953125 35.6875 97.515625 33.296875 
L 91.015625 0 
L 73.390625 0 
L 78.90625 28.515625 
L 79.046875 29.25 
Q 80.328125 35.296875 80.328125 37.015625 
Q 80.328125 39.703125 78.78125 41.265625 
Q 77.25 42.828125 74.609375 42.828125 
Q 69.578125 42.828125 66.078125 38.703125 
Q 62.59375 34.578125 61.078125 26.90625 
L 55.8125 0 
L 38.1875 0 
L 43.796875 28.515625 
Q 44.53125 32.171875 44.828125 34.046875 
Q 45.125 35.9375 45.125 37.015625 
Q 45.125 39.75 43.609375 41.28125 
Q 42.09375 42.828125 39.40625 42.828125 
Q 34.578125 42.828125 30.9375 38.546875 
Q 27.296875 34.28125 25.875 26.90625 
L 20.609375 0 
L 3.078125 0 
L 13.71875 54.6875 
L 31.296875 54.6875 
L 29.6875 46.6875 
Q 33.796875 51.3125 38.421875 53.65625 
Q 43.0625 56 48.09375 56 
Q 53.765625 56 57.8125 53.09375 
Q 61.859375 50.203125 62.703125 45.609375 
z
" id="DejaVuSans-BoldOblique-109"/>
      <path d="M 36.71875 40.578125 
Q 43.109375 40.578125 46.40625 43.546875 
Q 49.703125 46.53125 49.703125 52.296875 
Q 49.703125 55.90625 47.4375 57.59375 
Q 45.171875 59.28125 40.28125 59.28125 
L 32.515625 59.28125 
L 28.8125 40.578125 
z
M 26.3125 27.59375 
L 20.90625 0 
L 2.09375 0 
L 16.3125 72.90625 
L 44.09375 72.90625 
Q 56.109375 72.90625 62.296875 68.40625 
Q 68.5 63.921875 68.5 55.171875 
Q 68.5 46.34375 63.609375 40.625 
Q 58.734375 34.90625 50.390625 34.078125 
Q 54.203125 33.296875 56.734375 30.1875 
Q 59.28125 27.09375 61.1875 20.703125 
L 67.390625 0 
L 48.6875 0 
L 43.21875 18.109375 
Q 41.546875 23.53125 39.171875 25.5625 
Q 36.8125 27.59375 32.328125 27.59375 
z
" id="DejaVuSans-BoldOblique-82"/>
      <path d="M 16.3125 72.90625 
L 37.3125 72.90625 
L 54 22.40625 
L 63.8125 72.90625 
L 81.59375 72.90625 
L 67.390625 0 
L 46.390625 0 
L 29.6875 50.484375 
L 19.921875 0 
L 2.09375 0 
z
" id="DejaVuSans-BoldOblique-78"/>
      <path d="M 49.125 13.28125 
L 20.015625 13.28125 
L 12.796875 0 
L -6.5 0 
L 34.71875 72.90625 
L 56.203125 72.90625 
L 69.09375 0 
L 51.21875 0 
z
M 27.09375 26.515625 
L 46.6875 26.515625 
L 42.28125 54.59375 
z
" id="DejaVuSans-BoldOblique-65"/>
      <path d="M 10.203125 18.890625 
L 27.78125 18.890625 
L 27.78125 4 
L 15.71875 -14.203125 
L 5.328125 -14.203125 
L 10.203125 4 
z
" id="DejaVuSans-Bold-44"/>
      <path d="M 25.6875 72.90625 
L 36.53125 72.90625 
L 10.796875 -9.28125 
L 0 -9.28125 
z
" id="DejaVuSans-Bold-47"/>
      <path d="M 8.015625 -13.1875 
Q 14.265625 -1.5625 17.390625 9.515625 
Q 20.515625 20.609375 20.515625 31.390625 
Q 20.515625 42.1875 17.390625 53.25 
Q 14.265625 64.3125 8.015625 75.875 
L 22.515625 75.875 
Q 29.9375 63.921875 33.515625 52.953125 
Q 37.109375 42 37.109375 31.296875 
Q 37.109375 20.609375 33.546875 9.734375 
Q 29.984375 -1.125 22.515625 -13.1875 
z
" id="DejaVuSans-Bold-41"/>
     </defs>
     <g transform="translate(86.52 287.73375)scale(0.12 -0.12)">
      <use transform="translate(0 0.015625)" xlink:href="#DejaVuSans-Bold-76"/>
      <use transform="translate(63.720703 0.015625)" xlink:href="#DejaVuSans-Bold-101"/>
      <use transform="translate(131.542969 0.015625)" xlink:href="#DejaVuSans-Bold-110"/>
      <use transform="translate(202.734375 0.015625)" xlink:href="#DejaVuSans-Bold-103"/>
      <use transform="translate(274.316406 0.015625)" xlink:href="#DejaVuSans-Bold-116"/>
      <use transform="translate(322.119141 0.015625)" xlink:href="#DejaVuSans-Bold-104"/>
      <use transform="translate(393.310547 0.015625)" xlink:href="#DejaVuSans-Bold-32"/>
      <use transform="translate(428.125 0.015625)" xlink:href="#DejaVuSans-Bold-70"/>
      <use transform="translate(496.435547 0.015625)" xlink:href="#DejaVuSans-Bold-111"/>
      <use transform="translate(565.136719 0.015625)" xlink:href="#DejaVuSans-Bold-108"/>
      <use transform="translate(599.414062 0.015625)" xlink:href="#DejaVuSans-Bold-100"/>
      <use transform="translate(670.996094 0.015625)" xlink:href="#DejaVuSans-Bold-32"/>
      <use transform="translate(705.810547 0.015625)" xlink:href="#DejaVuSans-Bold-68"/>
      <use transform="translate(788.818359 0.015625)" xlink:href="#DejaVuSans-Bold-105"/>
      <use transform="translate(823.095703 0.015625)" xlink:href="#DejaVuSans-Bold-102"/>
      <use transform="translate(866.601562 0.015625)" xlink:href="#DejaVuSans-Bold-102"/>
      <use transform="translate(910.107422 0.015625)" xlink:href="#DejaVuSans-Bold-101"/>
      <use transform="translate(977.929688 0.015625)" xlink:href="#DejaVuSans-Bold-114"/>
      <use transform="translate(1027.246094 0.015625)" xlink:href="#DejaVuSans-Bold-101"/>
      <use transform="translate(1095.068359 0.015625)" xlink:href="#DejaVuSans-Bold-110"/>
      <use transform="translate(1166.259766 0.015625)" xlink:href="#DejaVuSans-Bold-99"/>
      <use transform="translate(1225.537109 0.015625)" xlink:href="#DejaVuSans-Bold-101"/>
      <use transform="translate(1293.359375 0.015625)" xlink:href="#DejaVuSans-Bold-32"/>
      <use transform="translate(1328.173828 0.015625)" xlink:href="#DejaVuSans-Bold-40"/>
      <use transform="translate(1373.876953 0.015625)" xlink:href="#DejaVuSans-BoldOblique-76"/>
      <use transform="translate(1437.597656 -16.390625)scale(0.7)" xlink:href="#DejaVuSans-BoldOblique-109"/>
      <use transform="translate(1510.537109 -16.390625)scale(0.7)" xlink:href="#DejaVuSans-BoldOblique-82"/>
      <use transform="translate(1564.438477 -16.390625)scale(0.7)" xlink:href="#DejaVuSans-BoldOblique-78"/>
      <use transform="translate(1623.022461 -16.390625)scale(0.7)" xlink:href="#DejaVuSans-BoldOblique-65"/>
      <use transform="translate(1677.197266 -16.390625)scale(0.7)" xlink:href="#DejaVuSans-Bold-44"/>
      <use transform="translate(1718.376953 -16.390625)scale(0.7)" xlink:href="#DejaVuSans-Bold-50"/>
      <use transform="translate(1769.817383 0.015625)" xlink:href="#DejaVuSans-Bold-47"/>
      <use transform="translate(1806.34082 0.015625)" xlink:href="#DejaVuSans-BoldOblique-76"/>
      <use transform="translate(1870.061523 -16.390625)scale(0.7)" xlink:href="#DejaVuSans-BoldOblique-109"/>
      <use transform="translate(1943.000977 -16.390625)scale(0.7)" xlink:href="#DejaVuSans-BoldOblique-82"/>
      <use transform="translate(1996.902344 -16.390625)scale(0.7)" xlink:href="#DejaVuSans-BoldOblique-78"/>
      <use transform="translate(2055.486328 -16.390625)scale(0.7)" xlink:href="#DejaVuSans-BoldOblique-65"/>
      <use transform="translate(2109.661133 -16.390625)scale(0.7)" xlink:href="#DejaVuSans-Bold-44"/>
      <use transform="translate(2150.84082 -16.390625)scale(0.7)" xlink:href="#DejaVuSans-Bold-49"/>
      <use transform="translate(2202.28125 0.015625)" xlink:href="#DejaVuSans-Bold-41"/>
     </g>
    </g>
   </g>
   <g id="matplotlib.axis_2">
    <g id="ytick_1">
     <g id="line2d_10">
      <defs>
       <path d="M 0 0 
L -3.5 0 
" id="md588b13083" style="stroke:#000000;stroke-width:2.8;"/>
      </defs>
      <g>
       <use style="stroke:#000000;stroke-width:2.8;" x="54" xlink:href="#md588b13083" y="233.88"/>
      </g>
     </g>
     <g id="text_11">
      <!-- 0.5 -->
      <g transform="translate(25.743125 238.439062)scale(0.12 -0.12)">
       <use xlink:href="#DejaVuSans-Bold-48"/>
       <use x="69.580078" xlink:href="#DejaVuSans-Bold-46"/>
       <use x="107.568359" xlink:href="#DejaVuSans-Bold-53"/>
      </g>
     </g>
    </g>
    <g id="ytick_2">
     <g id="line2d_11">
      <g>
       <use style="stroke:#000000;stroke-width:2.8;" x="54" xlink:href="#md588b13083" y="197.64"/>
      </g>
     </g>
     <g id="text_12">
      <!-- 0.6 -->
      <defs>
       <path d="M 36.1875 35.984375 
Q 31.25 35.984375 28.78125 32.78125 
Q 26.3125 29.59375 26.3125 23.1875 
Q 26.3125 16.796875 28.78125 13.59375 
Q 31.25 10.40625 36.1875 10.40625 
Q 41.15625 10.40625 43.625 13.59375 
Q 46.09375 16.796875 46.09375 23.1875 
Q 46.09375 29.59375 43.625 32.78125 
Q 41.15625 35.984375 36.1875 35.984375 
z
M 59.421875 71 
L 59.421875 57.515625 
Q 54.78125 59.71875 50.671875 60.765625 
Q 46.578125 61.8125 42.671875 61.8125 
Q 34.28125 61.8125 29.59375 57.140625 
Q 24.90625 52.484375 24.125 43.3125 
Q 27.34375 45.703125 31.09375 46.890625 
Q 34.859375 48.09375 39.3125 48.09375 
Q 50.484375 48.09375 57.34375 41.546875 
Q 64.203125 35.015625 64.203125 24.421875 
Q 64.203125 12.703125 56.53125 5.640625 
Q 48.875 -1.421875 35.984375 -1.421875 
Q 21.78125 -1.421875 13.984375 8.171875 
Q 6.203125 17.78125 6.203125 35.40625 
Q 6.203125 53.46875 15.3125 63.796875 
Q 24.421875 74.125 40.28125 74.125 
Q 45.3125 74.125 50.046875 73.34375 
Q 54.78125 72.5625 59.421875 71 
z
" id="DejaVuSans-Bold-54"/>
      </defs>
      <g transform="translate(25.743125 202.199062)scale(0.12 -0.12)">
       <use xlink:href="#DejaVuSans-Bold-48"/>
       <use x="69.580078" xlink:href="#DejaVuSans-Bold-46"/>
       <use x="107.568359" xlink:href="#DejaVuSans-Bold-54"/>
      </g>
     </g>
    </g>
    <g id="ytick_3">
     <g id="line2d_12">
      <g>
       <use style="stroke:#000000;stroke-width:2.8;" x="54" xlink:href="#md588b13083" y="161.4"/>
      </g>
     </g>
     <g id="text_13">
      <!-- 0.7 -->
      <g transform="translate(25.743125 165.959062)scale(0.12 -0.12)">
       <use xlink:href="#DejaVuSans-Bold-48"/>
       <use x="69.580078" xlink:href="#DejaVuSans-Bold-46"/>
       <use x="107.568359" xlink:href="#DejaVuSans-Bold-55"/>
      </g>
     </g>
    </g>
    <g id="ytick_4">
     <g id="line2d_13">
      <g>
       <use style="stroke:#000000;stroke-width:2.8;" x="54" xlink:href="#md588b13083" y="125.16"/>
      </g>
     </g>
     <g id="text_14">
      <!-- 0.8 -->
      <defs>
       <path d="M 34.8125 32.625 
Q 29.546875 32.625 26.703125 29.734375 
Q 23.875 26.859375 23.875 21.484375 
Q 23.875 16.109375 26.703125 13.25 
Q 29.546875 10.40625 34.8125 10.40625 
Q 40.046875 10.40625 42.828125 13.25 
Q 45.609375 16.109375 45.609375 21.484375 
Q 45.609375 26.90625 42.828125 29.765625 
Q 40.046875 32.625 34.8125 32.625 
z
M 21.09375 38.8125 
Q 14.453125 40.828125 11.078125 44.96875 
Q 7.71875 49.125 7.71875 55.328125 
Q 7.71875 64.546875 14.59375 69.375 
Q 21.484375 74.21875 34.8125 74.21875 
Q 48.046875 74.21875 54.921875 69.40625 
Q 61.8125 64.59375 61.8125 55.328125 
Q 61.8125 49.125 58.421875 44.96875 
Q 55.03125 40.828125 48.390625 38.8125 
Q 55.8125 36.765625 59.59375 32.15625 
Q 63.375 27.546875 63.375 20.515625 
Q 63.375 9.671875 56.171875 4.125 
Q 48.96875 -1.421875 34.8125 -1.421875 
Q 20.609375 -1.421875 13.359375 4.125 
Q 6.109375 9.671875 6.109375 20.515625 
Q 6.109375 27.546875 9.890625 32.15625 
Q 13.671875 36.765625 21.09375 38.8125 
z
M 25.484375 53.421875 
Q 25.484375 49.078125 27.90625 46.734375 
Q 30.328125 44.390625 34.8125 44.390625 
Q 39.203125 44.390625 41.59375 46.734375 
Q 44 49.078125 44 53.421875 
Q 44 57.765625 41.59375 60.078125 
Q 39.203125 62.40625 34.8125 62.40625 
Q 30.328125 62.40625 27.90625 60.0625 
Q 25.484375 57.71875 25.484375 53.421875 
z
" id="DejaVuSans-Bold-56"/>
      </defs>
      <g transform="translate(25.743125 129.719062)scale(0.12 -0.12)">
       <use xlink:href="#DejaVuSans-Bold-48"/>
       <use x="69.580078" xlink:href="#DejaVuSans-Bold-46"/>
       <use x="107.568359" xlink:href="#DejaVuSans-Bold-56"/>
      </g>
     </g>
    </g>
    <g id="ytick_5">
     <g id="line2d_14">
      <g>
       <use style="stroke:#000000;stroke-width:2.8;" x="54" xlink:href="#md588b13083" y="88.92"/>
      </g>
     </g>
     <g id="text_15">
      <!-- 0.9 -->
      <defs>
       <path d="M 10.015625 1.609375 
L 10.015625 15.09375 
Q 14.5 12.984375 18.59375 11.9375 
Q 22.703125 10.890625 26.703125 10.890625 
Q 35.109375 10.890625 39.796875 15.546875 
Q 44.484375 20.21875 45.3125 29.390625 
Q 42 26.953125 38.234375 25.734375 
Q 34.46875 24.515625 30.078125 24.515625 
Q 18.890625 24.515625 12.03125 31.03125 
Q 5.171875 37.546875 5.171875 48.1875 
Q 5.171875 59.96875 12.8125 67.046875 
Q 20.453125 74.125 33.296875 74.125 
Q 47.5625 74.125 55.375 64.5 
Q 63.1875 54.890625 63.1875 37.3125 
Q 63.1875 19.234375 54.046875 8.90625 
Q 44.921875 -1.421875 29 -1.421875 
Q 23.875 -1.421875 19.1875 -0.65625 
Q 14.5 0.09375 10.015625 1.609375 
z
M 33.203125 36.71875 
Q 38.140625 36.71875 40.625 39.90625 
Q 43.109375 43.109375 43.109375 49.515625 
Q 43.109375 55.859375 40.625 59.078125 
Q 38.140625 62.3125 33.203125 62.3125 
Q 28.265625 62.3125 25.78125 59.078125 
Q 23.296875 55.859375 23.296875 49.515625 
Q 23.296875 43.109375 25.78125 39.90625 
Q 28.265625 36.71875 33.203125 36.71875 
z
" id="DejaVuSans-Bold-57"/>
      </defs>
      <g transform="translate(25.743125 93.479063)scale(0.12 -0.12)">
       <use xlink:href="#DejaVuSans-Bold-48"/>
       <use x="69.580078" xlink:href="#DejaVuSans-Bold-46"/>
       <use x="107.568359" xlink:href="#DejaVuSans-Bold-57"/>
      </g>
     </g>
    </g>
    <g id="ytick_6">
     <g id="line2d_15">
      <g>
       <use style="stroke:#000000;stroke-width:2.8;" x="54" xlink:href="#md588b13083" y="52.68"/>
      </g>
     </g>
     <g id="text_16">
      <!-- 1.0 -->
      <g transform="translate(25.743125 57.239063)scale(0.12 -0.12)">
       <use xlink:href="#DejaVuSans-Bold-49"/>
       <use x="69.580078" xlink:href="#DejaVuSans-Bold-46"/>
       <use x="107.568359" xlink:href="#DejaVuSans-Bold-48"/>
      </g>
     </g>
    </g>
    <g id="text_17">
     <!-- Test Accuracy -->
     <defs>
      <path d="M 0.484375 72.90625 
L 67.671875 72.90625 
L 67.671875 58.6875 
L 43.5 58.6875 
L 43.5 0 
L 24.703125 0 
L 24.703125 58.6875 
L 0.484375 58.6875 
z
" id="DejaVuSans-Bold-84"/>
      <path d="M 51.125 52.984375 
L 51.125 39.703125 
Q 45.515625 42.046875 40.28125 43.21875 
Q 35.0625 44.390625 30.421875 44.390625 
Q 25.4375 44.390625 23.015625 43.140625 
Q 20.609375 41.890625 20.609375 39.3125 
Q 20.609375 37.203125 22.4375 36.078125 
Q 24.265625 34.96875 29 34.421875 
L 32.078125 33.984375 
Q 45.515625 32.28125 50.140625 28.375 
Q 54.78125 24.46875 54.78125 16.109375 
Q 54.78125 7.375 48.328125 2.96875 
Q 41.890625 -1.421875 29.109375 -1.421875 
Q 23.6875 -1.421875 17.890625 -0.5625 
Q 12.109375 0.296875 6 2 
L 6 15.28125 
Q 11.234375 12.75 16.71875 11.46875 
Q 22.21875 10.203125 27.875 10.203125 
Q 33.015625 10.203125 35.59375 11.609375 
Q 38.1875 13.03125 38.1875 15.828125 
Q 38.1875 18.171875 36.40625 19.3125 
Q 34.625 20.453125 29.296875 21.09375 
L 26.21875 21.484375 
Q 14.546875 22.953125 9.859375 26.90625 
Q 5.171875 30.859375 5.171875 38.921875 
Q 5.171875 47.609375 11.125 51.796875 
Q 17.09375 56 29.390625 56 
Q 34.234375 56 39.546875 55.265625 
Q 44.875 54.546875 51.125 52.984375 
z
" id="DejaVuSans-Bold-115"/>
      <path d="M 53.421875 13.28125 
L 24.03125 13.28125 
L 19.390625 0 
L 0.484375 0 
L 27.484375 72.90625 
L 49.90625 72.90625 
L 76.90625 0 
L 58.015625 0 
z
M 28.71875 26.8125 
L 48.6875 26.8125 
L 38.71875 55.8125 
z
" id="DejaVuSans-Bold-65"/>
      <path d="M 7.8125 21.296875 
L 7.8125 54.6875 
L 25.390625 54.6875 
L 25.390625 49.21875 
Q 25.390625 44.78125 25.34375 38.0625 
Q 25.296875 31.34375 25.296875 29.109375 
Q 25.296875 22.515625 25.640625 19.609375 
Q 25.984375 16.703125 26.8125 15.375 
Q 27.875 13.671875 29.609375 12.734375 
Q 31.34375 11.8125 33.59375 11.8125 
Q 39.0625 11.8125 42.1875 16.015625 
Q 45.3125 20.21875 45.3125 27.6875 
L 45.3125 54.6875 
L 62.796875 54.6875 
L 62.796875 0 
L 45.3125 0 
L 45.3125 7.90625 
Q 41.359375 3.125 36.9375 0.84375 
Q 32.515625 -1.421875 27.203125 -1.421875 
Q 17.71875 -1.421875 12.765625 4.390625 
Q 7.8125 10.203125 7.8125 21.296875 
z
" id="DejaVuSans-Bold-117"/>
      <path d="M 32.90625 24.609375 
Q 27.4375 24.609375 24.671875 22.75 
Q 21.921875 20.90625 21.921875 17.28125 
Q 21.921875 13.96875 24.140625 12.078125 
Q 26.375 10.203125 30.328125 10.203125 
Q 35.25 10.203125 38.625 13.734375 
Q 42 17.28125 42 22.609375 
L 42 24.609375 
z
M 59.625 31.203125 
L 59.625 0 
L 42 0 
L 42 8.109375 
Q 38.484375 3.125 34.078125 0.84375 
Q 29.6875 -1.421875 23.390625 -1.421875 
Q 14.890625 -1.421875 9.59375 3.53125 
Q 4.296875 8.5 4.296875 16.40625 
Q 4.296875 26.03125 10.90625 30.515625 
Q 17.53125 35.015625 31.6875 35.015625 
L 42 35.015625 
L 42 36.375 
Q 42 40.53125 38.71875 42.453125 
Q 35.453125 44.390625 28.515625 44.390625 
Q 22.90625 44.390625 18.0625 43.265625 
Q 13.234375 42.140625 9.078125 39.890625 
L 9.078125 53.21875 
Q 14.703125 54.59375 20.359375 55.296875 
Q 26.03125 56 31.6875 56 
Q 46.484375 56 53.046875 50.171875 
Q 59.625 44.34375 59.625 31.203125 
z
" id="DejaVuSans-Bold-97"/>
      <path d="M 1.21875 54.6875 
L 18.703125 54.6875 
L 33.40625 17.578125 
L 45.90625 54.6875 
L 63.375 54.6875 
L 40.375 -5.171875 
Q 36.921875 -14.3125 32.296875 -17.9375 
Q 27.6875 -21.578125 20.125 -21.578125 
L 10.015625 -21.578125 
L 10.015625 -10.109375 
L 15.484375 -10.109375 
Q 19.921875 -10.109375 21.9375 -8.6875 
Q 23.96875 -7.28125 25.09375 -3.609375 
L 25.59375 -2.09375 
z
" id="DejaVuSans-Bold-121"/>
     </defs>
     <g transform="translate(15.15375 189.679688)rotate(-90)scale(0.12 -0.12)">
      <use xlink:href="#DejaVuSans-Bold-84"/>
      <use x="54.962891" xlink:href="#DejaVuSans-Bold-101"/>
      <use x="122.785156" xlink:href="#DejaVuSans-Bold-115"/>
      <use x="182.306641" xlink:href="#DejaVuSans-Bold-116"/>
      <use x="230.109375" xlink:href="#DejaVuSans-Bold-32"/>
      <use x="264.923828" xlink:href="#DejaVuSans-Bold-65"/>
      <use x="342.316406" xlink:href="#DejaVuSans-Bold-99"/>
      <use x="401.59375" xlink:href="#DejaVuSans-Bold-99"/>
      <use x="460.871094" xlink:href="#DejaVuSans-Bold-117"/>
      <use x="532.0625" xlink:href="#DejaVuSans-Bold-114"/>
      <use x="581.378906" xlink:href="#DejaVuSans-Bold-97"/>
      <use x="648.859375" xlink:href="#DejaVuSans-Bold-99"/>
      <use x="708.136719" xlink:href="#DejaVuSans-Bold-121"/>
     </g>
    </g>
   </g>
   <g id="line2d_16">
    <defs>
     <path d="M 0 3 
C 0.795609 3 1.55874 2.683901 2.12132 2.12132 
C 2.683901 1.55874 3 0.795609 3 0 
C 3 -0.795609 2.683901 -1.55874 2.12132 -2.12132 
C 1.55874 -2.683901 0.795609 -3 0 -3 
C -0.795609 -3 -1.55874 -2.683901 -2.12132 -2.12132 
C -2.683901 -1.55874 -3 -0.795609 -3 0 
C -3 0.795609 -2.683901 1.55874 -2.12132 2.12132 
C -1.55874 2.683901 -0.795609 3 0 3 
z
" id="mbb222809a2" style="stroke:#073b4c;stroke-opacity:0.3;"/>
    </defs>
    <g clip-path="url(#pa63c404c3a)">
     <use style="fill:#073b4c;fill-opacity:0.3;stroke:#073b4c;stroke-opacity:0.3;" x="84.436364" xlink:href="#mbb222809a2" y="233.88"/>
     <use style="fill:#073b4c;fill-opacity:0.3;stroke:#073b4c;stroke-opacity:0.3;" x="152.157273" xlink:href="#mbb222809a2" y="149.440807"/>
     <use style="fill:#073b4c;fill-opacity:0.3;stroke:#073b4c;stroke-opacity:0.3;" x="219.497727" xlink:href="#mbb222809a2" y="102.691204"/>
     <use style="fill:#073b4c;fill-opacity:0.3;stroke:#073b4c;stroke-opacity:0.3;" x="287.218636" xlink:href="#mbb222809a2" y="76.598394"/>
     <use style="fill:#073b4c;fill-opacity:0.3;stroke:#073b4c;stroke-opacity:0.3;" x="354.939545" xlink:href="#mbb222809a2" y="58.47839"/>
     <use style="fill:#073b4c;fill-opacity:0.3;stroke:#073b4c;stroke-opacity:0.3;" x="422.660455" xlink:href="#mbb222809a2" y="58.115995"/>
     <use style="fill:#073b4c;fill-opacity:0.3;stroke:#073b4c;stroke-opacity:0.3;" x="490.381364" xlink:href="#mbb222809a2" y="54.854394"/>
     <use style="fill:#073b4c;fill-opacity:0.3;stroke:#073b4c;stroke-opacity:0.3;" x="521.578636" xlink:href="#mbb222809a2" y="54.854394"/>
     <use style="fill:#073b4c;fill-opacity:0.3;stroke:#073b4c;stroke-opacity:0.3;" x="557.721818" xlink:href="#mbb222809a2" y="55.579206"/>
     <use style="fill:#073b4c;fill-opacity:0.3;stroke:#073b4c;stroke-opacity:0.3;" x="625.442727" xlink:href="#mbb222809a2" y="52.68"/>
     <use style="fill:#073b4c;fill-opacity:0.3;stroke:#073b4c;stroke-opacity:0.3;" x="693.163636" xlink:href="#mbb222809a2" y="53.767208"/>
     <use style="fill:#073b4c;fill-opacity:0.3;stroke:#073b4c;stroke-opacity:0.3;" x="852.574091" xlink:href="#mbb222809a2" y="52.68"/>
     <use style="fill:#073b4c;fill-opacity:0.3;stroke:#073b4c;stroke-opacity:0.3;" x="84.436364" xlink:href="#mbb222809a2" y="233.88"/>
     <use style="fill:#073b4c;fill-opacity:0.3;stroke:#073b4c;stroke-opacity:0.3;" x="131.038754" xlink:href="#mbb222809a2" y="166.111208"/>
     <use style="fill:#073b4c;fill-opacity:0.3;stroke:#073b4c;stroke-opacity:0.3;" x="177.904435" xlink:href="#mbb222809a2" y="110.66401"/>
     <use style="fill:#073b4c;fill-opacity:0.3;stroke:#073b4c;stroke-opacity:0.3;" x="224.770116" xlink:href="#mbb222809a2" y="79.859996"/>
     <use style="fill:#073b4c;fill-opacity:0.3;stroke:#073b4c;stroke-opacity:0.3;" x="271.635797" xlink:href="#mbb222809a2" y="78.77281"/>
     <use style="fill:#073b4c;fill-opacity:0.3;stroke:#073b4c;stroke-opacity:0.3;" x="318.501478" xlink:href="#mbb222809a2" y="60.29041"/>
     <use style="fill:#073b4c;fill-opacity:0.3;stroke:#073b4c;stroke-opacity:0.3;" x="340.091287" xlink:href="#mbb222809a2" y="58.115995"/>
     <use style="fill:#073b4c;fill-opacity:0.3;stroke:#073b4c;stroke-opacity:0.3;" x="365.103869" xlink:href="#mbb222809a2" y="61.377596"/>
     <use style="fill:#073b4c;fill-opacity:0.3;stroke:#073b4c;stroke-opacity:0.3;" x="411.96955" xlink:href="#mbb222809a2" y="54.129603"/>
     <use style="fill:#073b4c;fill-opacity:0.3;stroke:#073b4c;stroke-opacity:0.3;" x="458.835231" xlink:href="#mbb222809a2" y="55.216811"/>
     <use style="fill:#073b4c;fill-opacity:0.3;stroke:#073b4c;stroke-opacity:0.3;" x="569.153885" xlink:href="#mbb222809a2" y="53.404791"/>
     <use style="fill:#073b4c;fill-opacity:0.3;stroke:#073b4c;stroke-opacity:0.3;" x="84.436364" xlink:href="#mbb222809a2" y="233.88"/>
     <use style="fill:#073b4c;fill-opacity:0.3;stroke:#073b4c;stroke-opacity:0.3;" x="120.314991" xlink:href="#mbb222809a2" y="188.58"/>
     <use style="fill:#073b4c;fill-opacity:0.3;stroke:#073b4c;stroke-opacity:0.3;" x="156.193618" xlink:href="#mbb222809a2" y="117.549607"/>
     <use style="fill:#073b4c;fill-opacity:0.3;stroke:#073b4c;stroke-opacity:0.3;" x="192.072246" xlink:href="#mbb222809a2" y="109.939197"/>
     <use style="fill:#073b4c;fill-opacity:0.3;stroke:#073b4c;stroke-opacity:0.3;" x="227.950873" xlink:href="#mbb222809a2" y="78.047997"/>
     <use style="fill:#073b4c;fill-opacity:0.3;stroke:#073b4c;stroke-opacity:0.3;" x="244.479229" xlink:href="#mbb222809a2" y="70.800004"/>
     <use style="fill:#073b4c;fill-opacity:0.3;stroke:#073b4c;stroke-opacity:0.3;" x="263.627935" xlink:href="#mbb222809a2" y="74.061606"/>
     <use style="fill:#073b4c;fill-opacity:0.3;stroke:#073b4c;stroke-opacity:0.3;" x="299.506562" xlink:href="#mbb222809a2" y="55.941601"/>
     <use style="fill:#073b4c;fill-opacity:0.3;stroke:#073b4c;stroke-opacity:0.3;" x="335.38519" xlink:href="#mbb222809a2" y="58.47839"/>
     <use style="fill:#073b4c;fill-opacity:0.3;stroke:#073b4c;stroke-opacity:0.3;" x="419.84106" xlink:href="#mbb222809a2" y="54.129603"/>
     <use style="fill:#073b4c;fill-opacity:0.3;stroke:#073b4c;stroke-opacity:0.3;" x="84.436364" xlink:href="#mbb222809a2" y="233.88"/>
     <use style="fill:#073b4c;fill-opacity:0.3;stroke:#073b4c;stroke-opacity:0.3;" x="113.46998" xlink:href="#mbb222809a2" y="169.735205"/>
     <use style="fill:#073b4c;fill-opacity:0.3;stroke:#073b4c;stroke-opacity:0.3;" x="142.503595" xlink:href="#mbb222809a2" y="146.903997"/>
     <use style="fill:#073b4c;fill-opacity:0.3;stroke:#073b4c;stroke-opacity:0.3;" x="171.537211" xlink:href="#mbb222809a2" y="103.053599"/>
     <use style="fill:#073b4c;fill-opacity:0.3;stroke:#073b4c;stroke-opacity:0.3;" x="184.912248" xlink:href="#mbb222809a2" y="88.920009"/>
     <use style="fill:#073b4c;fill-opacity:0.3;stroke:#073b4c;stroke-opacity:0.3;" x="200.407717" xlink:href="#mbb222809a2" y="89.644799"/>
     <use style="fill:#073b4c;fill-opacity:0.3;stroke:#073b4c;stroke-opacity:0.3;" x="229.441333" xlink:href="#mbb222809a2" y="67.900798"/>
     <use style="fill:#073b4c;fill-opacity:0.3;stroke:#073b4c;stroke-opacity:0.3;" x="258.474949" xlink:href="#mbb222809a2" y="70.075192"/>
     <use style="fill:#073b4c;fill-opacity:0.3;stroke:#073b4c;stroke-opacity:0.3;" x="326.818123" xlink:href="#mbb222809a2" y="55.941601"/>
     <use style="fill:#073b4c;fill-opacity:0.3;stroke:#073b4c;stroke-opacity:0.3;" x="84.436364" xlink:href="#mbb222809a2" y="233.88"/>
     <use style="fill:#073b4c;fill-opacity:0.3;stroke:#073b4c;stroke-opacity:0.3;" x="108.818329" xlink:href="#mbb222809a2" y="233.88"/>
     <use style="fill:#073b4c;fill-opacity:0.3;stroke:#073b4c;stroke-opacity:0.3;" x="133.200295" xlink:href="#mbb222809a2" y="151.615201"/>
     <use style="fill:#073b4c;fill-opacity:0.3;stroke:#073b4c;stroke-opacity:0.3;" x="144.432436" xlink:href="#mbb222809a2" y="132.40801"/>
     <use style="fill:#073b4c;fill-opacity:0.3;stroke:#073b4c;stroke-opacity:0.3;" x="157.445283" xlink:href="#mbb222809a2" y="141.468002"/>
     <use style="fill:#073b4c;fill-opacity:0.3;stroke:#073b4c;stroke-opacity:0.3;" x="181.827248" xlink:href="#mbb222809a2" y="87.470406"/>
     <use style="fill:#073b4c;fill-opacity:0.3;stroke:#073b4c;stroke-opacity:0.3;" x="206.209214" xlink:href="#mbb222809a2" y="98.704791"/>
     <use style="fill:#073b4c;fill-opacity:0.3;stroke:#073b4c;stroke-opacity:0.3;" x="263.602717" xlink:href="#mbb222809a2" y="71.1624"/>
     <use style="fill:#073b4c;fill-opacity:0.3;stroke:#073b4c;stroke-opacity:0.3;" x="84.436364" xlink:href="#mbb222809a2" y="233.88"/>
     <use style="fill:#073b4c;fill-opacity:0.3;stroke:#073b4c;stroke-opacity:0.3;" x="105.451386" xlink:href="#mbb222809a2" y="158.138403"/>
     <use style="fill:#073b4c;fill-opacity:0.3;stroke:#073b4c;stroke-opacity:0.3;" x="115.132464" xlink:href="#mbb222809a2" y="147.266392"/>
     <use style="fill:#073b4c;fill-opacity:0.3;stroke:#073b4c;stroke-opacity:0.3;" x="126.348346" xlink:href="#mbb222809a2" y="150.89041"/>
     <use style="fill:#073b4c;fill-opacity:0.3;stroke:#073b4c;stroke-opacity:0.3;" x="147.363368" xlink:href="#mbb222809a2" y="93.631191"/>
     <use style="fill:#073b4c;fill-opacity:0.3;stroke:#073b4c;stroke-opacity:0.3;" x="168.378391" xlink:href="#mbb222809a2" y="98.342395"/>
     <use style="fill:#073b4c;fill-opacity:0.3;stroke:#073b4c;stroke-opacity:0.3;" x="217.846336" xlink:href="#mbb222809a2" y="67.900798"/>
     <use style="fill:#073b4c;fill-opacity:0.3;stroke:#073b4c;stroke-opacity:0.3;" x="84.436364" xlink:href="#mbb222809a2" y="233.88"/>
     <use style="fill:#073b4c;fill-opacity:0.3;stroke:#073b4c;stroke-opacity:0.3;" x="92.942777" xlink:href="#mbb222809a2" y="218.659202"/>
     <use style="fill:#073b4c;fill-opacity:0.3;stroke:#073b4c;stroke-opacity:0.3;" x="102.797769" xlink:href="#mbb222809a2" y="233.88"/>
     <use style="fill:#073b4c;fill-opacity:0.3;stroke:#073b4c;stroke-opacity:0.3;" x="121.262911" xlink:href="#mbb222809a2" y="147.266392"/>
     <use style="fill:#073b4c;fill-opacity:0.3;stroke:#073b4c;stroke-opacity:0.3;" x="139.728054" xlink:href="#mbb222809a2" y="156.6888"/>
     <use style="fill:#073b4c;fill-opacity:0.3;stroke:#073b4c;stroke-opacity:0.3;" x="183.193753" xlink:href="#mbb222809a2" y="94.356003"/>
     <use style="fill:#073b4c;fill-opacity:0.3;stroke:#073b4c;stroke-opacity:0.3;" x="84.436364" xlink:href="#mbb222809a2" y="233.88"/>
     <use style="fill:#073b4c;fill-opacity:0.3;stroke:#073b4c;stroke-opacity:0.3;" x="93.769658" xlink:href="#mbb222809a2" y="233.88"/>
     <use style="fill:#073b4c;fill-opacity:0.3;stroke:#073b4c;stroke-opacity:0.3;" x="111.257304" xlink:href="#mbb222809a2" y="147.266392"/>
     <use style="fill:#073b4c;fill-opacity:0.3;stroke:#073b4c;stroke-opacity:0.3;" x="128.74495" xlink:href="#mbb222809a2" y="170.0976"/>
     <use style="fill:#073b4c;fill-opacity:0.3;stroke:#073b4c;stroke-opacity:0.3;" x="169.90969" xlink:href="#mbb222809a2" y="95.805606"/>
     <use style="fill:#073b4c;fill-opacity:0.3;stroke:#073b4c;stroke-opacity:0.3;" x="84.436364" xlink:href="#mbb222809a2" y="233.88"/>
     <use style="fill:#073b4c;fill-opacity:0.3;stroke:#073b4c;stroke-opacity:0.3;" x="100.91347" xlink:href="#mbb222809a2" y="149.803202"/>
     <use style="fill:#073b4c;fill-opacity:0.3;stroke:#073b4c;stroke-opacity:0.3;" x="117.390577" xlink:href="#mbb222809a2" y="160.675192"/>
     <use style="fill:#073b4c;fill-opacity:0.3;stroke:#073b4c;stroke-opacity:0.3;" x="156.176576" xlink:href="#mbb222809a2" y="99.429603"/>
     <use style="fill:#073b4c;fill-opacity:0.3;stroke:#073b4c;stroke-opacity:0.3;" x="84.436364" xlink:href="#mbb222809a2" y="233.88"/>
     <use style="fill:#073b4c;fill-opacity:0.3;stroke:#073b4c;stroke-opacity:0.3;" x="99.303742" xlink:href="#mbb222809a2" y="220.108804"/>
     <use style="fill:#073b4c;fill-opacity:0.3;stroke:#073b4c;stroke-opacity:0.3;" x="134.300549" xlink:href="#mbb222809a2" y="158.138403"/>
     <use style="fill:#073b4c;fill-opacity:0.3;stroke:#073b4c;stroke-opacity:0.3;" x="84.436364" xlink:href="#mbb222809a2" y="233.88"/>
     <use style="fill:#073b4c;fill-opacity:0.3;stroke:#073b4c;stroke-opacity:0.3;" x="116.318455" xlink:href="#mbb222809a2" y="150.89041"/>
     <use style="fill:#073b4c;fill-opacity:0.3;stroke:#073b4c;stroke-opacity:0.3;" x="84.436364" xlink:href="#mbb222809a2" y="233.88"/>
    </g>
   </g>
   <g id="line2d_17">
    <path clip-path="url(#pa63c404c3a)" d="M 84.436364 233.88 
L 84.436364 233.88 
L 84.436364 233.88 
L 85.287005 232.35792 
L 86.220334 232.35792 
L 87.707072 230.980801 
L 89.354783 222.573121 
L 91.190924 222.573121 
L 93.292426 214.998961 
L 95.730622 214.998961 
L 98.412716 206.3376 
L 101.316078 199.923121 
L 104.385688 191.26176 
L 106.723256 184.484881 
L 109.085348 177.1644 
L 111.186472 174.01152 
L 113.221417 173.757839 
L 115.576474 165.45888 
L 117.905831 166.654799 
L 120.127873 159.87792 
L 122.322172 160.312801 
L 124.405229 159.153121 
L 126.864788 160.095362 
L 129.483302 159.69672 
L 132.187488 156.870002 
L 134.892326 147.375121 
L 137.981762 147.592563 
L 140.964585 142.446482 
L 143.709452 137.191683 
L 146.350105 134.727362 
L 149.867914 129.400082 
L 153.428828 123.166802 
L 156.609744 117.803282 
L 160.149828 114.179283 
L 163.889309 109.685523 
L 167.472348 109.758004 
L 170.747845 103.705924 
L 174.337412 104.756883 
L 178.758822 101.966403 
L 183.635215 97.690082 
L 188.58201 94.645922 
L 193.540814 95.334482 
L 198.864104 93.015121 
L 203.868748 89.75352 
L 208.630156 87.796559 
L 214.758704 85.440959 
L 222.114974 83.556478 
L 229.268021 79.678798 
L 235.590043 78.120479 
L 242.132701 76.127281 
L 249.069931 76.99704 
L 257.070815 72.32208 
L 266.443951 70.365121 
L 276.330676 68.154482 
L 286.925062 67.212241 
L 296.486267 65.94384 
L 306.132727 64.78416 
L 316.282842 63.805679 
L 331.117004 61.812479 
L 345.93753 59.348158 
L 359.481712 57.499918 
L 375.414579 57.427439 
L 392.602567 56.883838 
L 412.078619 56.775117 
L 433 56.50231 
" style="fill:none;stroke:#073b4c;stroke-linecap:square;stroke-width:1.5;"/>
   </g>
   <g id="line2d_18">
    <path clip-path="url(#pa63c404c3a)" d="M 54 125.16 
L 433 125.16 
" style="fill:none;stroke:#000000;stroke-linecap:square;stroke-width:1.5;"/>
   </g>
   <g id="line2d_19">
    <path clip-path="url(#pa63c404c3a)" d="M 145.309091 270.12 
L 145.309091 16.44 
" style="fill:none;stroke:#0000ff;stroke-dasharray:5.55,2.4;stroke-dashoffset:0;stroke-width:1.5;"/>
   </g>
   <g id="line2d_20">
    <defs>
     <path d="M 0 3 
C 0.795609 3 1.55874 2.683901 2.12132 2.12132 
C 2.683901 1.55874 3 0.795609 3 0 
C 3 -0.795609 2.683901 -1.55874 2.12132 -2.12132 
C 1.55874 -2.683901 0.795609 -3 0 -3 
C -0.795609 -3 -1.55874 -2.683901 -2.12132 -2.12132 
C -2.683901 -1.55874 -3 -0.795609 -3 0 
C -3 0.795609 -2.683901 1.55874 -2.12132 2.12132 
C -1.55874 2.683901 -0.795609 3 0 3 
z
" id="m7ba0312a60" style="stroke:#8a3619;stroke-opacity:0.3;"/>
    </defs>
    <g clip-path="url(#pa63c404c3a)">
     <use style="fill:#8a3619;fill-opacity:0.3;stroke:#8a3619;stroke-opacity:0.3;" x="84.436364" xlink:href="#m7ba0312a60" y="233.88"/>
     <use style="fill:#8a3619;fill-opacity:0.3;stroke:#8a3619;stroke-opacity:0.3;" x="152.157273" xlink:href="#m7ba0312a60" y="88.920009"/>
     <use style="fill:#8a3619;fill-opacity:0.3;stroke:#8a3619;stroke-opacity:0.3;" x="219.497727" xlink:href="#m7ba0312a60" y="60.29041"/>
     <use style="fill:#8a3619;fill-opacity:0.3;stroke:#8a3619;stroke-opacity:0.3;" x="287.218636" xlink:href="#m7ba0312a60" y="54.129603"/>
     <use style="fill:#8a3619;fill-opacity:0.3;stroke:#8a3619;stroke-opacity:0.3;" x="354.939545" xlink:href="#m7ba0312a60" y="54.491998"/>
     <use style="fill:#8a3619;fill-opacity:0.3;stroke:#8a3619;stroke-opacity:0.3;" x="422.660455" xlink:href="#m7ba0312a60" y="52.68"/>
     <use style="fill:#8a3619;fill-opacity:0.3;stroke:#8a3619;stroke-opacity:0.3;" x="490.381364" xlink:href="#m7ba0312a60" y="52.68"/>
     <use style="fill:#8a3619;fill-opacity:0.3;stroke:#8a3619;stroke-opacity:0.3;" x="521.578636" xlink:href="#m7ba0312a60" y="52.68"/>
     <use style="fill:#8a3619;fill-opacity:0.3;stroke:#8a3619;stroke-opacity:0.3;" x="557.721818" xlink:href="#m7ba0312a60" y="52.68"/>
     <use style="fill:#8a3619;fill-opacity:0.3;stroke:#8a3619;stroke-opacity:0.3;" x="625.442727" xlink:href="#m7ba0312a60" y="52.68"/>
     <use style="fill:#8a3619;fill-opacity:0.3;stroke:#8a3619;stroke-opacity:0.3;" x="693.163636" xlink:href="#m7ba0312a60" y="52.68"/>
     <use style="fill:#8a3619;fill-opacity:0.3;stroke:#8a3619;stroke-opacity:0.3;" x="852.574091" xlink:href="#m7ba0312a60" y="52.68"/>
     <use style="fill:#8a3619;fill-opacity:0.3;stroke:#8a3619;stroke-opacity:0.3;" x="84.436364" xlink:href="#m7ba0312a60" y="233.88"/>
     <use style="fill:#8a3619;fill-opacity:0.3;stroke:#8a3619;stroke-opacity:0.3;" x="131.038754" xlink:href="#m7ba0312a60" y="114.650401"/>
     <use style="fill:#8a3619;fill-opacity:0.3;stroke:#8a3619;stroke-opacity:0.3;" x="177.904435" xlink:href="#m7ba0312a60" y="69.712797"/>
     <use style="fill:#8a3619;fill-opacity:0.3;stroke:#8a3619;stroke-opacity:0.3;" x="224.770116" xlink:href="#m7ba0312a60" y="55.941601"/>
     <use style="fill:#8a3619;fill-opacity:0.3;stroke:#8a3619;stroke-opacity:0.3;" x="271.635797" xlink:href="#m7ba0312a60" y="54.129603"/>
     <use style="fill:#8a3619;fill-opacity:0.3;stroke:#8a3619;stroke-opacity:0.3;" x="318.501478" xlink:href="#m7ba0312a60" y="52.68"/>
     <use style="fill:#8a3619;fill-opacity:0.3;stroke:#8a3619;stroke-opacity:0.3;" x="340.091287" xlink:href="#m7ba0312a60" y="53.042395"/>
     <use style="fill:#8a3619;fill-opacity:0.3;stroke:#8a3619;stroke-opacity:0.3;" x="365.103869" xlink:href="#m7ba0312a60" y="53.042395"/>
     <use style="fill:#8a3619;fill-opacity:0.3;stroke:#8a3619;stroke-opacity:0.3;" x="411.96955" xlink:href="#m7ba0312a60" y="52.68"/>
     <use style="fill:#8a3619;fill-opacity:0.3;stroke:#8a3619;stroke-opacity:0.3;" x="458.835231" xlink:href="#m7ba0312a60" y="52.68"/>
     <use style="fill:#8a3619;fill-opacity:0.3;stroke:#8a3619;stroke-opacity:0.3;" x="569.153885" xlink:href="#m7ba0312a60" y="52.68"/>
     <use style="fill:#8a3619;fill-opacity:0.3;stroke:#8a3619;stroke-opacity:0.3;" x="84.436364" xlink:href="#m7ba0312a60" y="233.88"/>
     <use style="fill:#8a3619;fill-opacity:0.3;stroke:#8a3619;stroke-opacity:0.3;" x="120.314991" xlink:href="#m7ba0312a60" y="146.541601"/>
     <use style="fill:#8a3619;fill-opacity:0.3;stroke:#8a3619;stroke-opacity:0.3;" x="156.193618" xlink:href="#m7ba0312a60" y="72.974398"/>
     <use style="fill:#8a3619;fill-opacity:0.3;stroke:#8a3619;stroke-opacity:0.3;" x="192.072246" xlink:href="#m7ba0312a60" y="68.625611"/>
     <use style="fill:#8a3619;fill-opacity:0.3;stroke:#8a3619;stroke-opacity:0.3;" x="227.950873" xlink:href="#m7ba0312a60" y="53.404791"/>
     <use style="fill:#8a3619;fill-opacity:0.3;stroke:#8a3619;stroke-opacity:0.3;" x="244.479229" xlink:href="#m7ba0312a60" y="56.666392"/>
     <use style="fill:#8a3619;fill-opacity:0.3;stroke:#8a3619;stroke-opacity:0.3;" x="263.627935" xlink:href="#m7ba0312a60" y="54.491998"/>
     <use style="fill:#8a3619;fill-opacity:0.3;stroke:#8a3619;stroke-opacity:0.3;" x="299.506562" xlink:href="#m7ba0312a60" y="52.68"/>
     <use style="fill:#8a3619;fill-opacity:0.3;stroke:#8a3619;stroke-opacity:0.3;" x="335.38519" xlink:href="#m7ba0312a60" y="52.68"/>
     <use style="fill:#8a3619;fill-opacity:0.3;stroke:#8a3619;stroke-opacity:0.3;" x="419.84106" xlink:href="#m7ba0312a60" y="52.68"/>
     <use style="fill:#8a3619;fill-opacity:0.3;stroke:#8a3619;stroke-opacity:0.3;" x="84.436364" xlink:href="#m7ba0312a60" y="233.88"/>
     <use style="fill:#8a3619;fill-opacity:0.3;stroke:#8a3619;stroke-opacity:0.3;" x="113.46998" xlink:href="#m7ba0312a60" y="115.737609"/>
     <use style="fill:#8a3619;fill-opacity:0.3;stroke:#8a3619;stroke-opacity:0.3;" x="142.503595" xlink:href="#m7ba0312a60" y="99.067208"/>
     <use style="fill:#8a3619;fill-opacity:0.3;stroke:#8a3619;stroke-opacity:0.3;" x="171.537211" xlink:href="#m7ba0312a60" y="63.55199"/>
     <use style="fill:#8a3619;fill-opacity:0.3;stroke:#8a3619;stroke-opacity:0.3;" x="184.912248" xlink:href="#m7ba0312a60" y="60.652805"/>
     <use style="fill:#8a3619;fill-opacity:0.3;stroke:#8a3619;stroke-opacity:0.3;" x="200.407717" xlink:href="#m7ba0312a60" y="61.015201"/>
     <use style="fill:#8a3619;fill-opacity:0.3;stroke:#8a3619;stroke-opacity:0.3;" x="229.441333" xlink:href="#m7ba0312a60" y="53.767208"/>
     <use style="fill:#8a3619;fill-opacity:0.3;stroke:#8a3619;stroke-opacity:0.3;" x="258.474949" xlink:href="#m7ba0312a60" y="54.491998"/>
     <use style="fill:#8a3619;fill-opacity:0.3;stroke:#8a3619;stroke-opacity:0.3;" x="326.818123" xlink:href="#m7ba0312a60" y="52.68"/>
     <use style="fill:#8a3619;fill-opacity:0.3;stroke:#8a3619;stroke-opacity:0.3;" x="84.436364" xlink:href="#m7ba0312a60" y="233.88"/>
     <use style="fill:#8a3619;fill-opacity:0.3;stroke:#8a3619;stroke-opacity:0.3;" x="108.818329" xlink:href="#m7ba0312a60" y="208.512003"/>
     <use style="fill:#8a3619;fill-opacity:0.3;stroke:#8a3619;stroke-opacity:0.3;" x="133.200295" xlink:href="#m7ba0312a60" y="104.865598"/>
     <use style="fill:#8a3619;fill-opacity:0.3;stroke:#8a3619;stroke-opacity:0.3;" x="144.432436" xlink:href="#m7ba0312a60" y="91.094402"/>
     <use style="fill:#8a3619;fill-opacity:0.3;stroke:#8a3619;stroke-opacity:0.3;" x="157.445283" xlink:href="#m7ba0312a60" y="89.644799"/>
     <use style="fill:#8a3619;fill-opacity:0.3;stroke:#8a3619;stroke-opacity:0.3;" x="181.827248" xlink:href="#m7ba0312a60" y="62.827199"/>
     <use style="fill:#8a3619;fill-opacity:0.3;stroke:#8a3619;stroke-opacity:0.3;" x="206.209214" xlink:href="#m7ba0312a60" y="60.652805"/>
     <use style="fill:#8a3619;fill-opacity:0.3;stroke:#8a3619;stroke-opacity:0.3;" x="263.602717" xlink:href="#m7ba0312a60" y="52.68"/>
     <use style="fill:#8a3619;fill-opacity:0.3;stroke:#8a3619;stroke-opacity:0.3;" x="84.436364" xlink:href="#m7ba0312a60" y="233.88"/>
     <use style="fill:#8a3619;fill-opacity:0.3;stroke:#8a3619;stroke-opacity:0.3;" x="105.451386" xlink:href="#m7ba0312a60" y="118.636793"/>
     <use style="fill:#8a3619;fill-opacity:0.3;stroke:#8a3619;stroke-opacity:0.3;" x="115.132464" xlink:href="#m7ba0312a60" y="108.127199"/>
     <use style="fill:#8a3619;fill-opacity:0.3;stroke:#8a3619;stroke-opacity:0.3;" x="126.348346" xlink:href="#m7ba0312a60" y="129.8712"/>
     <use style="fill:#8a3619;fill-opacity:0.3;stroke:#8a3619;stroke-opacity:0.3;" x="147.363368" xlink:href="#m7ba0312a60" y="65.726405"/>
     <use style="fill:#8a3619;fill-opacity:0.3;stroke:#8a3619;stroke-opacity:0.3;" x="168.378391" xlink:href="#m7ba0312a60" y="66.451196"/>
     <use style="fill:#8a3619;fill-opacity:0.3;stroke:#8a3619;stroke-opacity:0.3;" x="217.846336" xlink:href="#m7ba0312a60" y="53.042395"/>
     <use style="fill:#8a3619;fill-opacity:0.3;stroke:#8a3619;stroke-opacity:0.3;" x="84.436364" xlink:href="#m7ba0312a60" y="233.88"/>
     <use style="fill:#8a3619;fill-opacity:0.3;stroke:#8a3619;stroke-opacity:0.3;" x="92.942777" xlink:href="#m7ba0312a60" y="233.88"/>
     <use style="fill:#8a3619;fill-opacity:0.3;stroke:#8a3619;stroke-opacity:0.3;" x="102.797769" xlink:href="#m7ba0312a60" y="233.88"/>
     <use style="fill:#8a3619;fill-opacity:0.3;stroke:#8a3619;stroke-opacity:0.3;" x="121.262911" xlink:href="#m7ba0312a60" y="91.819193"/>
     <use style="fill:#8a3619;fill-opacity:0.3;stroke:#8a3619;stroke-opacity:0.3;" x="139.728054" xlink:href="#m7ba0312a60" y="107.039991"/>
     <use style="fill:#8a3619;fill-opacity:0.3;stroke:#8a3619;stroke-opacity:0.3;" x="183.193753" xlink:href="#m7ba0312a60" y="62.464804"/>
     <use style="fill:#8a3619;fill-opacity:0.3;stroke:#8a3619;stroke-opacity:0.3;" x="84.436364" xlink:href="#m7ba0312a60" y="233.88"/>
     <use style="fill:#8a3619;fill-opacity:0.3;stroke:#8a3619;stroke-opacity:0.3;" x="93.769658" xlink:href="#m7ba0312a60" y="218.659202"/>
     <use style="fill:#8a3619;fill-opacity:0.3;stroke:#8a3619;stroke-opacity:0.3;" x="111.257304" xlink:href="#m7ba0312a60" y="108.85199"/>
     <use style="fill:#8a3619;fill-opacity:0.3;stroke:#8a3619;stroke-opacity:0.3;" x="128.74495" xlink:href="#m7ba0312a60" y="142.555209"/>
     <use style="fill:#8a3619;fill-opacity:0.3;stroke:#8a3619;stroke-opacity:0.3;" x="169.90969" xlink:href="#m7ba0312a60" y="65.726405"/>
     <use style="fill:#8a3619;fill-opacity:0.3;stroke:#8a3619;stroke-opacity:0.3;" x="84.436364" xlink:href="#m7ba0312a60" y="233.88"/>
     <use style="fill:#8a3619;fill-opacity:0.3;stroke:#8a3619;stroke-opacity:0.3;" x="100.91347" xlink:href="#m7ba0312a60" y="97.98"/>
     <use style="fill:#8a3619;fill-opacity:0.3;stroke:#8a3619;stroke-opacity:0.3;" x="117.390577" xlink:href="#m7ba0312a60" y="116.824795"/>
     <use style="fill:#8a3619;fill-opacity:0.3;stroke:#8a3619;stroke-opacity:0.3;" x="156.176576" xlink:href="#m7ba0312a60" y="65.001593"/>
     <use style="fill:#8a3619;fill-opacity:0.3;stroke:#8a3619;stroke-opacity:0.3;" x="84.436364" xlink:href="#m7ba0312a60" y="233.88"/>
     <use style="fill:#8a3619;fill-opacity:0.3;stroke:#8a3619;stroke-opacity:0.3;" x="99.303742" xlink:href="#m7ba0312a60" y="219.746409"/>
     <use style="fill:#8a3619;fill-opacity:0.3;stroke:#8a3619;stroke-opacity:0.3;" x="134.300549" xlink:href="#m7ba0312a60" y="114.650401"/>
     <use style="fill:#8a3619;fill-opacity:0.3;stroke:#8a3619;stroke-opacity:0.3;" x="84.436364" xlink:href="#m7ba0312a60" y="233.88"/>
     <use style="fill:#8a3619;fill-opacity:0.3;stroke:#8a3619;stroke-opacity:0.3;" x="116.318455" xlink:href="#m7ba0312a60" y="92.906401"/>
     <use style="fill:#8a3619;fill-opacity:0.3;stroke:#8a3619;stroke-opacity:0.3;" x="84.436364" xlink:href="#m7ba0312a60" y="233.88"/>
    </g>
   </g>
   <g id="line2d_21">
    <path clip-path="url(#pa63c404c3a)" d="M 84.436364 233.88 
L 84.436364 233.88 
L 84.436364 233.88 
L 85.287005 233.88 
L 86.220334 232.35792 
L 87.707072 230.944561 
L 89.354783 217.354561 
L 91.190924 217.354561 
L 93.292426 205.83024 
L 95.730622 203.293441 
L 98.412716 190.79064 
L 101.316078 178.976401 
L 104.385688 166.40112 
L 106.723256 152.30376 
L 109.085348 142.12032 
L 111.186472 134.799839 
L 113.221417 134.183758 
L 115.576474 123.782878 
L 117.905831 126.17472 
L 120.127873 116.78856 
L 122.322172 116.389921 
L 124.405229 116.2812 
L 126.864788 116.172479 
L 129.483302 116.78856 
L 132.187488 114.215521 
L 134.892326 106.134001 
L 137.981762 105.844082 
L 140.964585 99.357122 
L 143.709452 92.399041 
L 146.350105 89.89848 
L 149.867914 86.05704 
L 153.428828 81.16464 
L 156.609744 76.81584 
L 160.149828 73.880399 
L 163.889309 71.053679 
L 167.472348 70.727519 
L 170.747845 67.900798 
L 174.337412 68.2632 
L 178.758822 67.067281 
L 183.635215 64.168081 
L 188.58201 62.827201 
L 193.540814 62.283602 
L 198.864104 61.522563 
L 203.868748 59.891762 
L 208.630156 58.985763 
L 214.758704 58.405922 
L 222.114974 57.789841 
L 229.268021 56.19528 
L 235.590043 55.54296 
L 242.132701 54.89064 
L 249.069931 54.99936 
L 257.070815 54.238319 
L 266.443951 53.912159 
L 276.330676 53.83968 
L 286.925062 53.730959 
L 296.486267 53.36856 
L 306.132727 53.36856 
L 316.282842 53.404799 
L 331.117004 53.223599 
L 345.93753 53.078639 
L 359.481712 52.933679 
L 375.414579 52.933679 
L 392.602567 52.933679 
L 412.078619 52.933679 
L 433 52.933679 
" style="fill:none;stroke:#8a3619;stroke-linecap:square;stroke-width:1.5;"/>
   </g>
   <g id="line2d_22">
    <defs>
     <path d="M 0 3 
C 0.795609 3 1.55874 2.683901 2.12132 2.12132 
C 2.683901 1.55874 3 0.795609 3 0 
C 3 -0.795609 2.683901 -1.55874 2.12132 -2.12132 
C 1.55874 -2.683901 0.795609 -3 0 -3 
C -0.795609 -3 -1.55874 -2.683901 -2.12132 -2.12132 
C -2.683901 -1.55874 -3 -0.795609 -3 0 
C -3 0.795609 -2.683901 1.55874 -2.12132 2.12132 
C -1.55874 2.683901 -0.795609 3 0 3 
z
" id="mf5a8a4fce4" style="stroke:#06d6a0;stroke-opacity:0.3;"/>
    </defs>
    <g clip-path="url(#pa63c404c3a)">
     <use style="fill:#06d6a0;fill-opacity:0.3;stroke:#06d6a0;stroke-opacity:0.3;" x="84.436364" xlink:href="#mf5a8a4fce4" y="233.88"/>
     <use style="fill:#06d6a0;fill-opacity:0.3;stroke:#06d6a0;stroke-opacity:0.3;" x="152.157273" xlink:href="#mf5a8a4fce4" y="78.047997"/>
     <use style="fill:#06d6a0;fill-opacity:0.3;stroke:#06d6a0;stroke-opacity:0.3;" x="219.497727" xlink:href="#mf5a8a4fce4" y="53.767208"/>
     <use style="fill:#06d6a0;fill-opacity:0.3;stroke:#06d6a0;stroke-opacity:0.3;" x="287.218636" xlink:href="#mf5a8a4fce4" y="52.68"/>
     <use style="fill:#06d6a0;fill-opacity:0.3;stroke:#06d6a0;stroke-opacity:0.3;" x="354.939545" xlink:href="#mf5a8a4fce4" y="53.042395"/>
     <use style="fill:#06d6a0;fill-opacity:0.3;stroke:#06d6a0;stroke-opacity:0.3;" x="422.660455" xlink:href="#mf5a8a4fce4" y="52.68"/>
     <use style="fill:#06d6a0;fill-opacity:0.3;stroke:#06d6a0;stroke-opacity:0.3;" x="490.381364" xlink:href="#mf5a8a4fce4" y="52.68"/>
     <use style="fill:#06d6a0;fill-opacity:0.3;stroke:#06d6a0;stroke-opacity:0.3;" x="521.578636" xlink:href="#mf5a8a4fce4" y="52.68"/>
     <use style="fill:#06d6a0;fill-opacity:0.3;stroke:#06d6a0;stroke-opacity:0.3;" x="557.721818" xlink:href="#mf5a8a4fce4" y="52.68"/>
     <use style="fill:#06d6a0;fill-opacity:0.3;stroke:#06d6a0;stroke-opacity:0.3;" x="625.442727" xlink:href="#mf5a8a4fce4" y="52.68"/>
     <use style="fill:#06d6a0;fill-opacity:0.3;stroke:#06d6a0;stroke-opacity:0.3;" x="693.163636" xlink:href="#mf5a8a4fce4" y="52.68"/>
     <use style="fill:#06d6a0;fill-opacity:0.3;stroke:#06d6a0;stroke-opacity:0.3;" x="852.574091" xlink:href="#mf5a8a4fce4" y="52.68"/>
     <use style="fill:#06d6a0;fill-opacity:0.3;stroke:#06d6a0;stroke-opacity:0.3;" x="84.436364" xlink:href="#mf5a8a4fce4" y="233.88"/>
     <use style="fill:#06d6a0;fill-opacity:0.3;stroke:#06d6a0;stroke-opacity:0.3;" x="131.038754" xlink:href="#mf5a8a4fce4" y="82.034389"/>
     <use style="fill:#06d6a0;fill-opacity:0.3;stroke:#06d6a0;stroke-opacity:0.3;" x="177.904435" xlink:href="#mf5a8a4fce4" y="57.391204"/>
     <use style="fill:#06d6a0;fill-opacity:0.3;stroke:#06d6a0;stroke-opacity:0.3;" x="224.770116" xlink:href="#mf5a8a4fce4" y="52.68"/>
     <use style="fill:#06d6a0;fill-opacity:0.3;stroke:#06d6a0;stroke-opacity:0.3;" x="271.635797" xlink:href="#mf5a8a4fce4" y="52.68"/>
     <use style="fill:#06d6a0;fill-opacity:0.3;stroke:#06d6a0;stroke-opacity:0.3;" x="318.501478" xlink:href="#mf5a8a4fce4" y="52.68"/>
     <use style="fill:#06d6a0;fill-opacity:0.3;stroke:#06d6a0;stroke-opacity:0.3;" x="340.091287" xlink:href="#mf5a8a4fce4" y="52.68"/>
     <use style="fill:#06d6a0;fill-opacity:0.3;stroke:#06d6a0;stroke-opacity:0.3;" x="365.103869" xlink:href="#mf5a8a4fce4" y="52.68"/>
     <use style="fill:#06d6a0;fill-opacity:0.3;stroke:#06d6a0;stroke-opacity:0.3;" x="411.96955" xlink:href="#mf5a8a4fce4" y="52.68"/>
     <use style="fill:#06d6a0;fill-opacity:0.3;stroke:#06d6a0;stroke-opacity:0.3;" x="458.835231" xlink:href="#mf5a8a4fce4" y="52.68"/>
     <use style="fill:#06d6a0;fill-opacity:0.3;stroke:#06d6a0;stroke-opacity:0.3;" x="569.153885" xlink:href="#mf5a8a4fce4" y="52.68"/>
     <use style="fill:#06d6a0;fill-opacity:0.3;stroke:#06d6a0;stroke-opacity:0.3;" x="84.436364" xlink:href="#mf5a8a4fce4" y="233.88"/>
     <use style="fill:#06d6a0;fill-opacity:0.3;stroke:#06d6a0;stroke-opacity:0.3;" x="120.314991" xlink:href="#mf5a8a4fce4" y="100.879206"/>
     <use style="fill:#06d6a0;fill-opacity:0.3;stroke:#06d6a0;stroke-opacity:0.3;" x="156.193618" xlink:href="#mf5a8a4fce4" y="55.579206"/>
     <use style="fill:#06d6a0;fill-opacity:0.3;stroke:#06d6a0;stroke-opacity:0.3;" x="192.072246" xlink:href="#mf5a8a4fce4" y="56.303997"/>
     <use style="fill:#06d6a0;fill-opacity:0.3;stroke:#06d6a0;stroke-opacity:0.3;" x="227.950873" xlink:href="#mf5a8a4fce4" y="53.042395"/>
     <use style="fill:#06d6a0;fill-opacity:0.3;stroke:#06d6a0;stroke-opacity:0.3;" x="244.479229" xlink:href="#mf5a8a4fce4" y="52.68"/>
     <use style="fill:#06d6a0;fill-opacity:0.3;stroke:#06d6a0;stroke-opacity:0.3;" x="263.627935" xlink:href="#mf5a8a4fce4" y="52.68"/>
     <use style="fill:#06d6a0;fill-opacity:0.3;stroke:#06d6a0;stroke-opacity:0.3;" x="299.506562" xlink:href="#mf5a8a4fce4" y="52.68"/>
     <use style="fill:#06d6a0;fill-opacity:0.3;stroke:#06d6a0;stroke-opacity:0.3;" x="335.38519" xlink:href="#mf5a8a4fce4" y="52.68"/>
     <use style="fill:#06d6a0;fill-opacity:0.3;stroke:#06d6a0;stroke-opacity:0.3;" x="419.84106" xlink:href="#mf5a8a4fce4" y="52.68"/>
     <use style="fill:#06d6a0;fill-opacity:0.3;stroke:#06d6a0;stroke-opacity:0.3;" x="84.436364" xlink:href="#mf5a8a4fce4" y="233.88"/>
     <use style="fill:#06d6a0;fill-opacity:0.3;stroke:#06d6a0;stroke-opacity:0.3;" x="113.46998" xlink:href="#mf5a8a4fce4" y="85.658407"/>
     <use style="fill:#06d6a0;fill-opacity:0.3;stroke:#06d6a0;stroke-opacity:0.3;" x="142.503595" xlink:href="#mf5a8a4fce4" y="71.524795"/>
     <use style="fill:#06d6a0;fill-opacity:0.3;stroke:#06d6a0;stroke-opacity:0.3;" x="171.537211" xlink:href="#mf5a8a4fce4" y="53.042395"/>
     <use style="fill:#06d6a0;fill-opacity:0.3;stroke:#06d6a0;stroke-opacity:0.3;" x="184.912248" xlink:href="#mf5a8a4fce4" y="53.767208"/>
     <use style="fill:#06d6a0;fill-opacity:0.3;stroke:#06d6a0;stroke-opacity:0.3;" x="200.407717" xlink:href="#mf5a8a4fce4" y="53.767208"/>
     <use style="fill:#06d6a0;fill-opacity:0.3;stroke:#06d6a0;stroke-opacity:0.3;" x="229.441333" xlink:href="#mf5a8a4fce4" y="52.68"/>
     <use style="fill:#06d6a0;fill-opacity:0.3;stroke:#06d6a0;stroke-opacity:0.3;" x="258.474949" xlink:href="#mf5a8a4fce4" y="52.68"/>
     <use style="fill:#06d6a0;fill-opacity:0.3;stroke:#06d6a0;stroke-opacity:0.3;" x="326.818123" xlink:href="#mf5a8a4fce4" y="52.68"/>
     <use style="fill:#06d6a0;fill-opacity:0.3;stroke:#06d6a0;stroke-opacity:0.3;" x="84.436364" xlink:href="#mf5a8a4fce4" y="233.88"/>
     <use style="fill:#06d6a0;fill-opacity:0.3;stroke:#06d6a0;stroke-opacity:0.3;" x="108.818329" xlink:href="#mf5a8a4fce4" y="207.0624"/>
     <use style="fill:#06d6a0;fill-opacity:0.3;stroke:#06d6a0;stroke-opacity:0.3;" x="133.200295" xlink:href="#mf5a8a4fce4" y="78.410393"/>
     <use style="fill:#06d6a0;fill-opacity:0.3;stroke:#06d6a0;stroke-opacity:0.3;" x="144.432436" xlink:href="#mf5a8a4fce4" y="67.176008"/>
     <use style="fill:#06d6a0;fill-opacity:0.3;stroke:#06d6a0;stroke-opacity:0.3;" x="157.445283" xlink:href="#mf5a8a4fce4" y="74.424001"/>
     <use style="fill:#06d6a0;fill-opacity:0.3;stroke:#06d6a0;stroke-opacity:0.3;" x="181.827248" xlink:href="#mf5a8a4fce4" y="53.042395"/>
     <use style="fill:#06d6a0;fill-opacity:0.3;stroke:#06d6a0;stroke-opacity:0.3;" x="206.209214" xlink:href="#mf5a8a4fce4" y="53.404791"/>
     <use style="fill:#06d6a0;fill-opacity:0.3;stroke:#06d6a0;stroke-opacity:0.3;" x="263.602717" xlink:href="#mf5a8a4fce4" y="52.68"/>
     <use style="fill:#06d6a0;fill-opacity:0.3;stroke:#06d6a0;stroke-opacity:0.3;" x="84.436364" xlink:href="#mf5a8a4fce4" y="233.88"/>
     <use style="fill:#06d6a0;fill-opacity:0.3;stroke:#06d6a0;stroke-opacity:0.3;" x="105.451386" xlink:href="#mf5a8a4fce4" y="92.18161"/>
     <use style="fill:#06d6a0;fill-opacity:0.3;stroke:#06d6a0;stroke-opacity:0.3;" x="115.132464" xlink:href="#mf5a8a4fce4" y="69.350401"/>
     <use style="fill:#06d6a0;fill-opacity:0.3;stroke:#06d6a0;stroke-opacity:0.3;" x="126.348346" xlink:href="#mf5a8a4fce4" y="83.121597"/>
     <use style="fill:#06d6a0;fill-opacity:0.3;stroke:#06d6a0;stroke-opacity:0.3;" x="147.363368" xlink:href="#mf5a8a4fce4" y="54.491998"/>
     <use style="fill:#06d6a0;fill-opacity:0.3;stroke:#06d6a0;stroke-opacity:0.3;" x="168.378391" xlink:href="#mf5a8a4fce4" y="55.941601"/>
     <use style="fill:#06d6a0;fill-opacity:0.3;stroke:#06d6a0;stroke-opacity:0.3;" x="217.846336" xlink:href="#mf5a8a4fce4" y="52.68"/>
     <use style="fill:#06d6a0;fill-opacity:0.3;stroke:#06d6a0;stroke-opacity:0.3;" x="84.436364" xlink:href="#mf5a8a4fce4" y="233.88"/>
     <use style="fill:#06d6a0;fill-opacity:0.3;stroke:#06d6a0;stroke-opacity:0.3;" x="92.942777" xlink:href="#mf5a8a4fce4" y="196.552805"/>
     <use style="fill:#06d6a0;fill-opacity:0.3;stroke:#06d6a0;stroke-opacity:0.3;" x="102.797769" xlink:href="#mf5a8a4fce4" y="224.457592"/>
     <use style="fill:#06d6a0;fill-opacity:0.3;stroke:#06d6a0;stroke-opacity:0.3;" x="121.262911" xlink:href="#mf5a8a4fce4" y="65.36401"/>
     <use style="fill:#06d6a0;fill-opacity:0.3;stroke:#06d6a0;stroke-opacity:0.3;" x="139.728054" xlink:href="#mf5a8a4fce4" y="86.383198"/>
     <use style="fill:#06d6a0;fill-opacity:0.3;stroke:#06d6a0;stroke-opacity:0.3;" x="183.193753" xlink:href="#mf5a8a4fce4" y="53.767208"/>
     <use style="fill:#06d6a0;fill-opacity:0.3;stroke:#06d6a0;stroke-opacity:0.3;" x="84.436364" xlink:href="#mf5a8a4fce4" y="233.88"/>
     <use style="fill:#06d6a0;fill-opacity:0.3;stroke:#06d6a0;stroke-opacity:0.3;" x="93.769658" xlink:href="#mf5a8a4fce4" y="207.424795"/>
     <use style="fill:#06d6a0;fill-opacity:0.3;stroke:#06d6a0;stroke-opacity:0.3;" x="111.257304" xlink:href="#mf5a8a4fce4" y="82.759202"/>
     <use style="fill:#06d6a0;fill-opacity:0.3;stroke:#06d6a0;stroke-opacity:0.3;" x="128.74495" xlink:href="#mf5a8a4fce4" y="97.98"/>
     <use style="fill:#06d6a0;fill-opacity:0.3;stroke:#06d6a0;stroke-opacity:0.3;" x="169.90969" xlink:href="#mf5a8a4fce4" y="55.941601"/>
     <use style="fill:#06d6a0;fill-opacity:0.3;stroke:#06d6a0;stroke-opacity:0.3;" x="84.436364" xlink:href="#mf5a8a4fce4" y="233.88"/>
     <use style="fill:#06d6a0;fill-opacity:0.3;stroke:#06d6a0;stroke-opacity:0.3;" x="100.91347" xlink:href="#mf5a8a4fce4" y="73.69921"/>
     <use style="fill:#06d6a0;fill-opacity:0.3;stroke:#06d6a0;stroke-opacity:0.3;" x="117.390577" xlink:href="#mf5a8a4fce4" y="87.470406"/>
     <use style="fill:#06d6a0;fill-opacity:0.3;stroke:#06d6a0;stroke-opacity:0.3;" x="156.176576" xlink:href="#mf5a8a4fce4" y="53.404791"/>
     <use style="fill:#06d6a0;fill-opacity:0.3;stroke:#06d6a0;stroke-opacity:0.3;" x="84.436364" xlink:href="#mf5a8a4fce4" y="233.88"/>
     <use style="fill:#06d6a0;fill-opacity:0.3;stroke:#06d6a0;stroke-opacity:0.3;" x="99.303742" xlink:href="#mf5a8a4fce4" y="202.713591"/>
     <use style="fill:#06d6a0;fill-opacity:0.3;stroke:#06d6a0;stroke-opacity:0.3;" x="134.300549" xlink:href="#mf5a8a4fce4" y="89.644799"/>
     <use style="fill:#06d6a0;fill-opacity:0.3;stroke:#06d6a0;stroke-opacity:0.3;" x="84.436364" xlink:href="#mf5a8a4fce4" y="233.88"/>
     <use style="fill:#06d6a0;fill-opacity:0.3;stroke:#06d6a0;stroke-opacity:0.3;" x="116.318455" xlink:href="#mf5a8a4fce4" y="80.947203"/>
     <use style="fill:#06d6a0;fill-opacity:0.3;stroke:#06d6a0;stroke-opacity:0.3;" x="84.436364" xlink:href="#mf5a8a4fce4" y="233.88"/>
    </g>
   </g>
   <g id="line2d_23">
    <path clip-path="url(#pa63c404c3a)" d="M 84.436364 233.88 
L 84.436364 233.88 
L 84.436364 233.88 
L 85.287005 230.147281 
L 86.220334 227.50176 
L 87.707072 224.385119 
L 89.354783 208.36704 
L 91.190924 207.424799 
L 93.292426 193.25496 
L 95.730622 190.5732 
L 98.412716 175.46112 
L 101.316078 160.638961 
L 104.385688 144.186001 
L 106.723256 132.625441 
L 109.085348 120.630002 
L 111.186472 110.446564 
L 113.221417 109.613044 
L 115.576474 95.479444 
L 117.905831 96.059283 
L 120.127873 83.556482 
L 122.322172 83.121601 
L 124.405229 83.52024 
L 126.864788 85.22352 
L 129.483302 84.281279 
L 132.187488 82.251839 
L 134.892326 77.613119 
L 137.981762 78.881517 
L 140.964585 75.909837 
L 143.709452 71.669757 
L 146.350105 70.908719 
L 149.867914 68.661839 
L 153.428828 65.29152 
L 156.609744 61.957439 
L 160.149828 60.54408 
L 163.889309 59.130719 
L 167.472348 59.05824 
L 170.747845 56.630161 
L 174.337412 56.920082 
L 178.758822 56.738882 
L 183.635215 54.636961 
L 188.58201 54.310801 
L 193.540814 54.093361 
L 198.864104 54.057122 
L 203.868748 53.622241 
L 208.630156 53.586001 
L 214.758704 53.477281 
L 222.114974 53.36856 
L 229.268021 53.00616 
L 235.590043 52.897439 
L 242.132701 52.82496 
L 249.069931 52.82496 
L 257.070815 52.71624 
L 266.443951 52.71624 
L 276.330676 52.68 
L 286.925062 52.68 
L 296.486267 52.68 
L 306.132727 52.71624 
L 316.282842 52.71624 
L 331.117004 52.71624 
L 345.93753 52.71624 
L 359.481712 52.71624 
L 375.414579 52.71624 
L 392.602567 52.71624 
L 412.078619 52.71624 
L 433 52.71624 
" style="fill:none;stroke:#06d6a0;stroke-linecap:square;stroke-width:1.5;"/>
   </g>
   <g id="patch_3">
    <path d="M 54 252 
L 54 34.56 
" style="fill:none;stroke:#000000;stroke-linecap:square;stroke-linejoin:miter;stroke-width:2.8;"/>
   </g>
   <g id="patch_4">
    <path d="M 388.8 252 
L 388.8 34.56 
" style="fill:none;stroke:#000000;stroke-linecap:square;stroke-linejoin:miter;stroke-width:2.8;"/>
   </g>
   <g id="patch_5">
    <path d="M 54 252 
L 388.8 252 
" style="fill:none;stroke:#000000;stroke-linecap:square;stroke-linejoin:miter;stroke-width:2.8;"/>
   </g>
   <g id="patch_6">
    <path d="M 54 34.56 
L 388.8 34.56 
" style="fill:none;stroke:#000000;stroke-linecap:square;stroke-linejoin:miter;stroke-width:2.8;"/>
   </g>
   <g id="patch_7">
    <path d="M 234.696306 165.674691 
Q 196.309849 196.110745 157.923393 226.546799 
L 161.526873 231.091568 
Q 154.962166 232.468051 148.397458 233.844534 
Q 151.234427 227.766566 154.071397 221.688597 
L 157.674877 226.233367 
Q 196.061333 195.797313 234.44779 165.361258 
L 234.696306 165.674691 
z
" style="fill:#0000ff;stroke:#0000ff;stroke-linecap:round;"/>
   </g>
   <g id="text_18">
    <!-- 1.40 -->
    <defs>
     <path d="M 36.8125 57.421875 
L 16.21875 26.90625 
L 36.8125 26.90625 
z
M 33.6875 72.90625 
L 54.59375 72.90625 
L 54.59375 26.90625 
L 64.984375 26.90625 
L 64.984375 13.28125 
L 54.59375 13.28125 
L 54.59375 0 
L 36.8125 0 
L 36.8125 13.28125 
L 4.5 13.28125 
L 4.5 29.390625 
z
" id="DejaVuSans-Bold-52"/>
    </defs>
    <g transform="translate(236.618182 161.4)scale(0.12 -0.12)">
     <use xlink:href="#DejaVuSans-Bold-49"/>
     <use x="69.580078" xlink:href="#DejaVuSans-Bold-46"/>
     <use x="107.568359" xlink:href="#DejaVuSans-Bold-52"/>
     <use x="177.148438" xlink:href="#DejaVuSans-Bold-48"/>
    </g>
   </g>
   <g id="text_19">
    <!-- mRNAs with differing $L_{mRNA}$ values dataset -->
    <defs>
     <path d="M 59.078125 45.609375 
Q 62.40625 50.6875 66.96875 53.34375 
Q 71.53125 56 77 56 
Q 86.421875 56 91.359375 50.1875 
Q 96.296875 44.390625 96.296875 33.296875 
L 96.296875 0 
L 78.71875 0 
L 78.71875 28.515625 
Q 78.765625 29.15625 78.78125 29.828125 
Q 78.8125 30.515625 78.8125 31.78125 
Q 78.8125 37.59375 77.09375 40.203125 
Q 75.390625 42.828125 71.578125 42.828125 
Q 66.609375 42.828125 63.890625 38.71875 
Q 61.1875 34.625 61.078125 26.859375 
L 61.078125 0 
L 43.5 0 
L 43.5 28.515625 
Q 43.5 37.59375 41.9375 40.203125 
Q 40.375 42.828125 36.375 42.828125 
Q 31.34375 42.828125 28.609375 38.703125 
Q 25.875 34.578125 25.875 26.90625 
L 25.875 0 
L 8.296875 0 
L 8.296875 54.6875 
L 25.875 54.6875 
L 25.875 46.6875 
Q 29.109375 51.3125 33.28125 53.65625 
Q 37.453125 56 42.484375 56 
Q 48.140625 56 52.484375 53.265625 
Q 56.84375 50.53125 59.078125 45.609375 
z
" id="DejaVuSans-Bold-109"/>
     <path d="M 35.890625 40.578125 
Q 41.796875 40.578125 44.359375 42.765625 
Q 46.921875 44.96875 46.921875 50 
Q 46.921875 54.984375 44.359375 57.125 
Q 41.796875 59.28125 35.890625 59.28125 
L 27.984375 59.28125 
L 27.984375 40.578125 
z
M 27.984375 27.59375 
L 27.984375 0 
L 9.1875 0 
L 9.1875 72.90625 
L 37.890625 72.90625 
Q 52.296875 72.90625 59 68.0625 
Q 65.71875 63.234375 65.71875 52.78125 
Q 65.71875 45.5625 62.21875 40.921875 
Q 58.734375 36.28125 51.703125 34.078125 
Q 55.5625 33.203125 58.609375 30.09375 
Q 61.671875 27 64.796875 20.703125 
L 75 0 
L 54.984375 0 
L 46.09375 18.109375 
Q 43.40625 23.578125 40.640625 25.578125 
Q 37.890625 27.59375 33.296875 27.59375 
z
" id="DejaVuSans-Bold-82"/>
     <path d="M 9.1875 72.90625 
L 30.171875 72.90625 
L 56.6875 22.90625 
L 56.6875 72.90625 
L 74.515625 72.90625 
L 74.515625 0 
L 53.515625 0 
L 27 50 
L 27 0 
L 9.1875 0 
z
" id="DejaVuSans-Bold-78"/>
     <path d="M 3.515625 54.6875 
L 20.515625 54.6875 
L 29.6875 17 
L 38.921875 54.6875 
L 53.515625 54.6875 
L 62.703125 17.390625 
L 71.921875 54.6875 
L 88.921875 54.6875 
L 74.515625 0 
L 55.421875 0 
L 46.1875 37.59375 
L 37.015625 0 
L 17.921875 0 
z
" id="DejaVuSans-Bold-119"/>
     <path d="M 1.515625 54.6875 
L 19 54.6875 
L 32.625 16.890625 
L 46.1875 54.6875 
L 63.71875 54.6875 
L 42.1875 0 
L 23 0 
z
" id="DejaVuSans-Bold-118"/>
    </defs>
    <g transform="translate(100.9 24.56)scale(0.1 -0.1)">
     <use transform="translate(0 0.015625)" xlink:href="#DejaVuSans-Bold-109"/>
     <use transform="translate(104.199219 0.015625)" xlink:href="#DejaVuSans-Bold-82"/>
     <use transform="translate(181.201172 0.015625)" xlink:href="#DejaVuSans-Bold-78"/>
     <use transform="translate(264.892578 0.015625)" xlink:href="#DejaVuSans-Bold-65"/>
     <use transform="translate(342.285156 0.015625)" xlink:href="#DejaVuSans-Bold-115"/>
     <use transform="translate(401.806641 0.015625)" xlink:href="#DejaVuSans-Bold-32"/>
     <use transform="translate(436.621094 0.015625)" xlink:href="#DejaVuSans-Bold-119"/>
     <use transform="translate(529.003906 0.015625)" xlink:href="#DejaVuSans-Bold-105"/>
     <use transform="translate(563.28125 0.015625)" xlink:href="#DejaVuSans-Bold-116"/>
     <use transform="translate(611.083984 0.015625)" xlink:href="#DejaVuSans-Bold-104"/>
     <use transform="translate(682.275391 0.015625)" xlink:href="#DejaVuSans-Bold-32"/>
     <use transform="translate(717.089844 0.015625)" xlink:href="#DejaVuSans-Bold-100"/>
     <use transform="translate(788.671875 0.015625)" xlink:href="#DejaVuSans-Bold-105"/>
     <use transform="translate(822.949219 0.015625)" xlink:href="#DejaVuSans-Bold-102"/>
     <use transform="translate(866.455078 0.015625)" xlink:href="#DejaVuSans-Bold-102"/>
     <use transform="translate(909.960938 0.015625)" xlink:href="#DejaVuSans-Bold-101"/>
     <use transform="translate(977.783203 0.015625)" xlink:href="#DejaVuSans-Bold-114"/>
     <use transform="translate(1027.099609 0.015625)" xlink:href="#DejaVuSans-Bold-105"/>
     <use transform="translate(1061.376953 0.015625)" xlink:href="#DejaVuSans-Bold-110"/>
     <use transform="translate(1132.568359 0.015625)" xlink:href="#DejaVuSans-Bold-103"/>
     <use transform="translate(1204.150391 0.015625)" xlink:href="#DejaVuSans-Bold-32"/>
     <use transform="translate(1238.964844 0.015625)" xlink:href="#DejaVuSans-BoldOblique-76"/>
     <use transform="translate(1302.685547 -16.390625)scale(0.7)" xlink:href="#DejaVuSans-BoldOblique-109"/>
     <use transform="translate(1375.625 -16.390625)scale(0.7)" xlink:href="#DejaVuSans-BoldOblique-82"/>
     <use transform="translate(1429.526367 -16.390625)scale(0.7)" xlink:href="#DejaVuSans-BoldOblique-78"/>
     <use transform="translate(1488.110352 -16.390625)scale(0.7)" xlink:href="#DejaVuSans-BoldOblique-65"/>
     <use transform="translate(1545.019531 0.015625)" xlink:href="#DejaVuSans-Bold-32"/>
     <use transform="translate(1579.833984 0.015625)" xlink:href="#DejaVuSans-Bold-118"/>
     <use transform="translate(1645.019531 0.015625)" xlink:href="#DejaVuSans-Bold-97"/>
     <use transform="translate(1712.5 0.015625)" xlink:href="#DejaVuSans-Bold-108"/>
     <use transform="translate(1746.777344 0.015625)" xlink:href="#DejaVuSans-Bold-117"/>
     <use transform="translate(1817.96875 0.015625)" xlink:href="#DejaVuSans-Bold-101"/>
     <use transform="translate(1885.791016 0.015625)" xlink:href="#DejaVuSans-Bold-115"/>
     <use transform="translate(1945.3125 0.015625)" xlink:href="#DejaVuSans-Bold-32"/>
     <use transform="translate(1980.126953 0.015625)" xlink:href="#DejaVuSans-Bold-100"/>
     <use transform="translate(2051.708984 0.015625)" xlink:href="#DejaVuSans-Bold-97"/>
     <use transform="translate(2119.189453 0.015625)" xlink:href="#DejaVuSans-Bold-116"/>
     <use transform="translate(2166.992188 0.015625)" xlink:href="#DejaVuSans-Bold-97"/>
     <use transform="translate(2234.472656 0.015625)" xlink:href="#DejaVuSans-Bold-115"/>
     <use transform="translate(2293.994141 0.015625)" xlink:href="#DejaVuSans-Bold-101"/>
     <use transform="translate(2361.816406 0.015625)" xlink:href="#DejaVuSans-Bold-116"/>
    </g>
   </g>
   <g id="legend_1">
    <g id="patch_8">
     <path d="M 211.561875 246 
L 380.4 246 
Q 382.8 246 382.8 243.6 
L 382.8 191.95875 
Q 382.8 189.55875 380.4 189.55875 
L 211.561875 189.55875 
Q 209.161875 189.55875 209.161875 191.95875 
L 209.161875 243.6 
Q 209.161875 246 211.561875 246 
z
" style="fill:#ffffff;opacity:0.8;stroke:#cccccc;stroke-linejoin:miter;"/>
    </g>
    <g id="line2d_24"/>
    <g id="line2d_25">
     <g>
      <use style="fill:#073b4c;fill-opacity:0.3;stroke:#073b4c;stroke-opacity:0.3;" x="225.961875" xlink:href="#mbb222809a2" y="199.276875"/>
     </g>
    </g>
    <g id="text_20">
     <!-- 64 frames, 5s FR -->
     <g transform="translate(247.561875 203.476875)scale(0.12 -0.12)">
      <use xlink:href="#DejaVuSans-Bold-54"/>
      <use x="69.580078" xlink:href="#DejaVuSans-Bold-52"/>
      <use x="139.160156" xlink:href="#DejaVuSans-Bold-32"/>
      <use x="173.974609" xlink:href="#DejaVuSans-Bold-102"/>
      <use x="217.480469" xlink:href="#DejaVuSans-Bold-114"/>
      <use x="266.796875" xlink:href="#DejaVuSans-Bold-97"/>
      <use x="334.277344" xlink:href="#DejaVuSans-Bold-109"/>
      <use x="438.476562" xlink:href="#DejaVuSans-Bold-101"/>
      <use x="506.298828" xlink:href="#DejaVuSans-Bold-115"/>
      <use x="565.820312" xlink:href="#DejaVuSans-Bold-44"/>
      <use x="603.808594" xlink:href="#DejaVuSans-Bold-32"/>
      <use x="638.623047" xlink:href="#DejaVuSans-Bold-53"/>
      <use x="708.203125" xlink:href="#DejaVuSans-Bold-115"/>
      <use x="767.724609" xlink:href="#DejaVuSans-Bold-32"/>
      <use x="802.539062" xlink:href="#DejaVuSans-Bold-70"/>
      <use x="870.849609" xlink:href="#DejaVuSans-Bold-82"/>
     </g>
    </g>
    <g id="line2d_26"/>
    <g id="line2d_27">
     <g>
      <use style="fill:#8a3619;fill-opacity:0.3;stroke:#8a3619;stroke-opacity:0.3;" x="225.961875" xlink:href="#m7ba0312a60" y="216.890625"/>
     </g>
    </g>
    <g id="text_21">
     <!-- 128 frames, 5s FR -->
     <g transform="translate(247.561875 221.090625)scale(0.12 -0.12)">
      <use xlink:href="#DejaVuSans-Bold-49"/>
      <use x="69.580078" xlink:href="#DejaVuSans-Bold-50"/>
      <use x="139.160156" xlink:href="#DejaVuSans-Bold-56"/>
      <use x="208.740234" xlink:href="#DejaVuSans-Bold-32"/>
      <use x="243.554688" xlink:href="#DejaVuSans-Bold-102"/>
      <use x="287.060547" xlink:href="#DejaVuSans-Bold-114"/>
      <use x="336.376953" xlink:href="#DejaVuSans-Bold-97"/>
      <use x="403.857422" xlink:href="#DejaVuSans-Bold-109"/>
      <use x="508.056641" xlink:href="#DejaVuSans-Bold-101"/>
      <use x="575.878906" xlink:href="#DejaVuSans-Bold-115"/>
      <use x="635.400391" xlink:href="#DejaVuSans-Bold-44"/>
      <use x="673.388672" xlink:href="#DejaVuSans-Bold-32"/>
      <use x="708.203125" xlink:href="#DejaVuSans-Bold-53"/>
      <use x="777.783203" xlink:href="#DejaVuSans-Bold-115"/>
      <use x="837.304688" xlink:href="#DejaVuSans-Bold-32"/>
      <use x="872.119141" xlink:href="#DejaVuSans-Bold-70"/>
      <use x="940.429688" xlink:href="#DejaVuSans-Bold-82"/>
     </g>
    </g>
    <g id="line2d_28"/>
    <g id="line2d_29">
     <g>
      <use style="fill:#06d6a0;fill-opacity:0.3;stroke:#06d6a0;stroke-opacity:0.3;" x="225.961875" xlink:href="#mf5a8a4fce4" y="234.504375"/>
     </g>
    </g>
    <g id="text_22">
     <!-- 1500 frames, 2s FR -->
     <g transform="translate(247.561875 238.704375)scale(0.12 -0.12)">
      <use xlink:href="#DejaVuSans-Bold-49"/>
      <use x="69.580078" xlink:href="#DejaVuSans-Bold-53"/>
      <use x="139.160156" xlink:href="#DejaVuSans-Bold-48"/>
      <use x="208.740234" xlink:href="#DejaVuSans-Bold-48"/>
      <use x="278.320312" xlink:href="#DejaVuSans-Bold-32"/>
      <use x="313.134766" xlink:href="#DejaVuSans-Bold-102"/>
      <use x="356.640625" xlink:href="#DejaVuSans-Bold-114"/>
      <use x="405.957031" xlink:href="#DejaVuSans-Bold-97"/>
      <use x="473.4375" xlink:href="#DejaVuSans-Bold-109"/>
      <use x="577.636719" xlink:href="#DejaVuSans-Bold-101"/>
      <use x="645.458984" xlink:href="#DejaVuSans-Bold-115"/>
      <use x="704.980469" xlink:href="#DejaVuSans-Bold-44"/>
      <use x="742.96875" xlink:href="#DejaVuSans-Bold-32"/>
      <use x="777.783203" xlink:href="#DejaVuSans-Bold-50"/>
      <use x="847.363281" xlink:href="#DejaVuSans-Bold-115"/>
      <use x="906.884766" xlink:href="#DejaVuSans-Bold-32"/>
      <use x="941.699219" xlink:href="#DejaVuSans-Bold-70"/>
      <use x="1010.009766" xlink:href="#DejaVuSans-Bold-82"/>
     </g>
    </g>
   </g>
  </g>
 </g>
 <defs>
  <clipPath id="pa63c404c3a">
   <rect height="217.44" width="334.8" x="54" y="34.56"/>
  </clipPath>
 </defs>
</svg>
