<?xml version="1.0" encoding="utf-8" standalone="no"?>
<!DOCTYPE svg PUBLIC "-//W3C//DTD SVG 1.1//EN"
  "http://www.w3.org/Graphics/SVG/1.1/DTD/svg11.dtd">
<!-- Created with matplotlib (https://matplotlib.org/) -->
<svg height="288pt" version="1.1" viewBox="0 0 432 288" width="432pt" xmlns="http://www.w3.org/2000/svg" xmlns:xlink="http://www.w3.org/1999/xlink">
 <defs>
  <style type="text/css">
*{stroke-linecap:butt;stroke-linejoin:round;}
  </style>
 </defs>
 <g id="figure_1">
  <g id="patch_1">
   <path d="M 0 288 
L 432 288 
L 432 0 
L 0 0 
z
" style="fill:#ffffff;"/>
  </g>
  <g id="axes_1">
   <g id="patch_2">
    <path d="M 54 252 
L 388.8 252 
L 388.8 34.56 
L 54 34.56 
z
" style="fill:#ffffff;"/>
   </g>
   <g id="matplotlib.axis_1">
    <g id="xtick_1">
     <g id="line2d_1">
      <defs>
       <path d="M 0 0 
L 0 3.5 
" id="m34f3106697" style="stroke:#000000;stroke-width:2.8;"/>
      </defs>
      <g>
       <use style="stroke:#000000;stroke-width:2.8;" x="69.218182" xlink:href="#m34f3106697" y="252"/>
      </g>
     </g>
     <g id="text_1">
      <!-- 0.00 -->
      <defs>
       <path d="M 46 36.53125 
Q 46 50.203125 43.4375 55.78125 
Q 40.875 61.375 34.8125 61.375 
Q 28.765625 61.375 26.171875 55.78125 
Q 23.578125 50.203125 23.578125 36.53125 
Q 23.578125 22.703125 26.171875 17.03125 
Q 28.765625 11.375 34.8125 11.375 
Q 40.828125 11.375 43.40625 17.03125 
Q 46 22.703125 46 36.53125 
z
M 64.796875 36.375 
Q 64.796875 18.265625 56.984375 8.421875 
Q 49.171875 -1.421875 34.8125 -1.421875 
Q 20.40625 -1.421875 12.59375 8.421875 
Q 4.78125 18.265625 4.78125 36.375 
Q 4.78125 54.546875 12.59375 64.375 
Q 20.40625 74.21875 34.8125 74.21875 
Q 49.171875 74.21875 56.984375 64.375 
Q 64.796875 54.546875 64.796875 36.375 
z
" id="DejaVuSans-Bold-48"/>
       <path d="M 10.203125 18.890625 
L 27.78125 18.890625 
L 27.78125 0 
L 10.203125 0 
z
" id="DejaVuSans-Bold-46"/>
      </defs>
      <g transform="translate(54.415057 268.118125)scale(0.12 -0.12)">
       <use xlink:href="#DejaVuSans-Bold-48"/>
       <use x="69.580078" xlink:href="#DejaVuSans-Bold-46"/>
       <use x="107.568359" xlink:href="#DejaVuSans-Bold-48"/>
       <use x="177.148438" xlink:href="#DejaVuSans-Bold-48"/>
      </g>
     </g>
    </g>
    <g id="xtick_2">
     <g id="line2d_2">
      <g>
       <use style="stroke:#000000;stroke-width:2.8;" x="130.090909" xlink:href="#m34f3106697" y="252"/>
      </g>
     </g>
     <g id="text_2">
      <!-- 0.01 -->
      <defs>
       <path d="M 11.71875 12.984375 
L 28.328125 12.984375 
L 28.328125 60.109375 
L 11.28125 56.59375 
L 11.28125 69.390625 
L 28.21875 72.90625 
L 46.09375 72.90625 
L 46.09375 12.984375 
L 62.703125 12.984375 
L 62.703125 0 
L 11.71875 0 
z
" id="DejaVuSans-Bold-49"/>
      </defs>
      <g transform="translate(115.287784 268.118125)scale(0.12 -0.12)">
       <use xlink:href="#DejaVuSans-Bold-48"/>
       <use x="69.580078" xlink:href="#DejaVuSans-Bold-46"/>
       <use x="107.568359" xlink:href="#DejaVuSans-Bold-48"/>
       <use x="177.148438" xlink:href="#DejaVuSans-Bold-49"/>
      </g>
     </g>
    </g>
    <g id="xtick_3">
     <g id="line2d_3">
      <g>
       <use style="stroke:#000000;stroke-width:2.8;" x="190.963636" xlink:href="#m34f3106697" y="252"/>
      </g>
     </g>
     <g id="text_3">
      <!-- 0.02 -->
      <defs>
       <path d="M 28.8125 13.8125 
L 60.890625 13.8125 
L 60.890625 0 
L 7.90625 0 
L 7.90625 13.8125 
L 34.515625 37.3125 
Q 38.09375 40.53125 39.796875 43.609375 
Q 41.5 46.6875 41.5 50 
Q 41.5 55.125 38.0625 58.25 
Q 34.625 61.375 28.90625 61.375 
Q 24.515625 61.375 19.28125 59.5 
Q 14.0625 57.625 8.109375 53.90625 
L 8.109375 69.921875 
Q 14.453125 72.015625 20.65625 73.109375 
Q 26.859375 74.21875 32.8125 74.21875 
Q 45.90625 74.21875 53.15625 68.453125 
Q 60.40625 62.703125 60.40625 52.390625 
Q 60.40625 46.4375 57.328125 41.28125 
Q 54.25 36.140625 44.390625 27.484375 
z
" id="DejaVuSans-Bold-50"/>
      </defs>
      <g transform="translate(176.160511 268.118125)scale(0.12 -0.12)">
       <use xlink:href="#DejaVuSans-Bold-48"/>
       <use x="69.580078" xlink:href="#DejaVuSans-Bold-46"/>
       <use x="107.568359" xlink:href="#DejaVuSans-Bold-48"/>
       <use x="177.148438" xlink:href="#DejaVuSans-Bold-50"/>
      </g>
     </g>
    </g>
    <g id="xtick_4">
     <g id="line2d_4">
      <g>
       <use style="stroke:#000000;stroke-width:2.8;" x="251.836364" xlink:href="#m34f3106697" y="252"/>
      </g>
     </g>
     <g id="text_4">
      <!-- 0.03 -->
      <defs>
       <path d="M 46.578125 39.3125 
Q 53.953125 37.40625 57.78125 32.6875 
Q 61.625 27.984375 61.625 20.703125 
Q 61.625 9.859375 53.3125 4.21875 
Q 45.015625 -1.421875 29.109375 -1.421875 
Q 23.484375 -1.421875 17.84375 -0.515625 
Q 12.203125 0.390625 6.6875 2.203125 
L 6.6875 16.703125 
Q 11.96875 14.0625 17.15625 12.71875 
Q 22.359375 11.375 27.390625 11.375 
Q 34.859375 11.375 38.84375 13.953125 
Q 42.828125 16.546875 42.828125 21.390625 
Q 42.828125 26.375 38.75 28.9375 
Q 34.671875 31.5 26.703125 31.5 
L 19.1875 31.5 
L 19.1875 43.609375 
L 27.09375 43.609375 
Q 34.1875 43.609375 37.640625 45.828125 
Q 41.109375 48.046875 41.109375 52.59375 
Q 41.109375 56.78125 37.734375 59.078125 
Q 34.375 61.375 28.21875 61.375 
Q 23.6875 61.375 19.046875 60.34375 
Q 14.40625 59.328125 9.8125 57.328125 
L 9.8125 71.09375 
Q 15.375 72.65625 20.84375 73.4375 
Q 26.3125 74.21875 31.59375 74.21875 
Q 45.796875 74.21875 52.84375 69.546875 
Q 59.90625 64.890625 59.90625 55.515625 
Q 59.90625 49.125 56.53125 45.046875 
Q 53.171875 40.96875 46.578125 39.3125 
z
" id="DejaVuSans-Bold-51"/>
      </defs>
      <g transform="translate(237.033239 268.118125)scale(0.12 -0.12)">
       <use xlink:href="#DejaVuSans-Bold-48"/>
       <use x="69.580078" xlink:href="#DejaVuSans-Bold-46"/>
       <use x="107.568359" xlink:href="#DejaVuSans-Bold-48"/>
       <use x="177.148438" xlink:href="#DejaVuSans-Bold-51"/>
      </g>
     </g>
    </g>
    <g id="xtick_5">
     <g id="line2d_5">
      <g>
       <use style="stroke:#000000;stroke-width:2.8;" x="312.709091" xlink:href="#m34f3106697" y="252"/>
      </g>
     </g>
     <g id="text_5">
      <!-- 0.04 -->
      <defs>
       <path d="M 36.8125 57.421875 
L 16.21875 26.90625 
L 36.8125 26.90625 
z
M 33.6875 72.90625 
L 54.59375 72.90625 
L 54.59375 26.90625 
L 64.984375 26.90625 
L 64.984375 13.28125 
L 54.59375 13.28125 
L 54.59375 0 
L 36.8125 0 
L 36.8125 13.28125 
L 4.5 13.28125 
L 4.5 29.390625 
z
" id="DejaVuSans-Bold-52"/>
      </defs>
      <g transform="translate(297.905966 268.118125)scale(0.12 -0.12)">
       <use xlink:href="#DejaVuSans-Bold-48"/>
       <use x="69.580078" xlink:href="#DejaVuSans-Bold-46"/>
       <use x="107.568359" xlink:href="#DejaVuSans-Bold-48"/>
       <use x="177.148438" xlink:href="#DejaVuSans-Bold-52"/>
      </g>
     </g>
    </g>
    <g id="xtick_6">
     <g id="line2d_6">
      <g>
       <use style="stroke:#000000;stroke-width:2.8;" x="373.581818" xlink:href="#m34f3106697" y="252"/>
      </g>
     </g>
     <g id="text_6">
      <!-- 0.05 -->
      <defs>
       <path d="M 10.59375 72.90625 
L 57.328125 72.90625 
L 57.328125 59.078125 
L 25.59375 59.078125 
L 25.59375 47.796875 
Q 27.734375 48.390625 29.90625 48.703125 
Q 32.078125 49.03125 34.421875 49.03125 
Q 47.75 49.03125 55.171875 42.359375 
Q 62.59375 35.6875 62.59375 23.78125 
Q 62.59375 11.96875 54.515625 5.265625 
Q 46.4375 -1.421875 32.078125 -1.421875 
Q 25.875 -1.421875 19.796875 -0.21875 
Q 13.71875 0.984375 7.71875 3.421875 
L 7.71875 18.21875 
Q 13.671875 14.796875 19.015625 13.078125 
Q 24.359375 11.375 29.109375 11.375 
Q 35.9375 11.375 39.859375 14.71875 
Q 43.796875 18.0625 43.796875 23.78125 
Q 43.796875 29.546875 39.859375 32.859375 
Q 35.9375 36.1875 29.109375 36.1875 
Q 25.046875 36.1875 20.453125 35.125 
Q 15.875 34.078125 10.59375 31.890625 
z
" id="DejaVuSans-Bold-53"/>
      </defs>
      <g transform="translate(358.778693 268.118125)scale(0.12 -0.12)">
       <use xlink:href="#DejaVuSans-Bold-48"/>
       <use x="69.580078" xlink:href="#DejaVuSans-Bold-46"/>
       <use x="107.568359" xlink:href="#DejaVuSans-Bold-48"/>
       <use x="177.148438" xlink:href="#DejaVuSans-Bold-53"/>
      </g>
     </g>
    </g>
    <g id="text_7">
     <!-- % loss per 5 seconds -->
     <defs>
      <path d="M 77.484375 30.078125 
Q 74.03125 30.078125 72.125 27.078125 
Q 70.21875 24.078125 70.21875 18.5 
Q 70.21875 12.890625 72.09375 9.890625 
Q 73.96875 6.890625 77.484375 6.890625 
Q 81 6.890625 82.859375 9.890625 
Q 84.71875 12.890625 84.71875 18.5 
Q 84.71875 24.078125 82.828125 27.078125 
Q 80.953125 30.078125 77.484375 30.078125 
z
M 77.484375 38.28125 
Q 86.578125 38.28125 91.796875 33 
Q 97.015625 27.734375 97.015625 18.5 
Q 97.015625 9.28125 91.796875 3.921875 
Q 86.578125 -1.421875 77.484375 -1.421875 
Q 68.40625 -1.421875 63.15625 3.921875 
Q 57.90625 9.28125 57.90625 18.5 
Q 57.90625 27.6875 63.15625 32.984375 
Q 68.40625 38.28125 77.484375 38.28125 
z
M 32.71875 -1.421875 
L 21.921875 -1.421875 
L 67.484375 74.21875 
L 78.328125 74.21875 
z
M 22.703125 74.21875 
Q 31.78125 74.21875 36.984375 68.921875 
Q 42.1875 63.625 42.1875 54.390625 
Q 42.1875 45.171875 36.984375 39.84375 
Q 31.78125 34.515625 22.703125 34.515625 
Q 13.625 34.515625 8.421875 39.84375 
Q 3.21875 45.171875 3.21875 54.390625 
Q 3.21875 63.625 8.421875 68.921875 
Q 13.625 74.21875 22.703125 74.21875 
z
M 22.703125 66.015625 
Q 19.1875 66.015625 17.28125 62.984375 
Q 15.375 59.96875 15.375 54.390625 
Q 15.375 48.78125 17.28125 45.71875 
Q 19.1875 42.671875 22.703125 42.671875 
Q 26.21875 42.671875 28.09375 45.71875 
Q 29.984375 48.78125 29.984375 54.390625 
Q 29.984375 59.96875 28.078125 62.984375 
Q 26.171875 66.015625 22.703125 66.015625 
z
" id="DejaVuSans-Bold-37"/>
      <path id="DejaVuSans-Bold-32"/>
      <path d="M 8.40625 75.984375 
L 25.875 75.984375 
L 25.875 0 
L 8.40625 0 
z
" id="DejaVuSans-Bold-108"/>
      <path d="M 34.421875 43.5 
Q 28.609375 43.5 25.5625 39.328125 
Q 22.515625 35.15625 22.515625 27.296875 
Q 22.515625 19.4375 25.5625 15.25 
Q 28.609375 11.078125 34.421875 11.078125 
Q 40.140625 11.078125 43.15625 15.25 
Q 46.1875 19.4375 46.1875 27.296875 
Q 46.1875 35.15625 43.15625 39.328125 
Q 40.140625 43.5 34.421875 43.5 
z
M 34.421875 56 
Q 48.53125 56 56.46875 48.375 
Q 64.40625 40.765625 64.40625 27.296875 
Q 64.40625 13.8125 56.46875 6.1875 
Q 48.53125 -1.421875 34.421875 -1.421875 
Q 20.265625 -1.421875 12.28125 6.1875 
Q 4.296875 13.8125 4.296875 27.296875 
Q 4.296875 40.765625 12.28125 48.375 
Q 20.265625 56 34.421875 56 
z
" id="DejaVuSans-Bold-111"/>
      <path d="M 51.125 52.984375 
L 51.125 39.703125 
Q 45.515625 42.046875 40.28125 43.21875 
Q 35.0625 44.390625 30.421875 44.390625 
Q 25.4375 44.390625 23.015625 43.140625 
Q 20.609375 41.890625 20.609375 39.3125 
Q 20.609375 37.203125 22.4375 36.078125 
Q 24.265625 34.96875 29 34.421875 
L 32.078125 33.984375 
Q 45.515625 32.28125 50.140625 28.375 
Q 54.78125 24.46875 54.78125 16.109375 
Q 54.78125 7.375 48.328125 2.96875 
Q 41.890625 -1.421875 29.109375 -1.421875 
Q 23.6875 -1.421875 17.890625 -0.5625 
Q 12.109375 0.296875 6 2 
L 6 15.28125 
Q 11.234375 12.75 16.71875 11.46875 
Q 22.21875 10.203125 27.875 10.203125 
Q 33.015625 10.203125 35.59375 11.609375 
Q 38.1875 13.03125 38.1875 15.828125 
Q 38.1875 18.171875 36.40625 19.3125 
Q 34.625 20.453125 29.296875 21.09375 
L 26.21875 21.484375 
Q 14.546875 22.953125 9.859375 26.90625 
Q 5.171875 30.859375 5.171875 38.921875 
Q 5.171875 47.609375 11.125 51.796875 
Q 17.09375 56 29.390625 56 
Q 34.234375 56 39.546875 55.265625 
Q 44.875 54.546875 51.125 52.984375 
z
" id="DejaVuSans-Bold-115"/>
      <path d="M 25.875 7.90625 
L 25.875 -20.796875 
L 8.40625 -20.796875 
L 8.40625 54.6875 
L 25.875 54.6875 
L 25.875 46.6875 
Q 29.5 51.46875 33.890625 53.734375 
Q 38.28125 56 44 56 
Q 54.109375 56 60.59375 47.96875 
Q 67.09375 39.9375 67.09375 27.296875 
Q 67.09375 14.65625 60.59375 6.609375 
Q 54.109375 -1.421875 44 -1.421875 
Q 38.28125 -1.421875 33.890625 0.84375 
Q 29.5 3.125 25.875 7.90625 
z
M 37.5 43.3125 
Q 31.890625 43.3125 28.875 39.1875 
Q 25.875 35.0625 25.875 27.296875 
Q 25.875 19.53125 28.875 15.40625 
Q 31.890625 11.28125 37.5 11.28125 
Q 43.109375 11.28125 46.0625 15.375 
Q 49.03125 19.484375 49.03125 27.296875 
Q 49.03125 35.109375 46.0625 39.203125 
Q 43.109375 43.3125 37.5 43.3125 
z
" id="DejaVuSans-Bold-112"/>
      <path d="M 62.984375 27.484375 
L 62.984375 22.515625 
L 22.125 22.515625 
Q 22.75 16.359375 26.5625 13.28125 
Q 30.375 10.203125 37.203125 10.203125 
Q 42.71875 10.203125 48.5 11.84375 
Q 54.296875 13.484375 60.40625 16.796875 
L 60.40625 3.328125 
Q 54.203125 0.984375 48 -0.21875 
Q 41.796875 -1.421875 35.59375 -1.421875 
Q 20.75 -1.421875 12.515625 6.125 
Q 4.296875 13.671875 4.296875 27.296875 
Q 4.296875 40.671875 12.375 48.328125 
Q 20.453125 56 34.625 56 
Q 47.515625 56 55.25 48.234375 
Q 62.984375 40.484375 62.984375 27.484375 
z
M 45.015625 33.296875 
Q 45.015625 38.28125 42.109375 41.328125 
Q 39.203125 44.390625 34.515625 44.390625 
Q 29.4375 44.390625 26.265625 41.53125 
Q 23.09375 38.671875 22.3125 33.296875 
z
" id="DejaVuSans-Bold-101"/>
      <path d="M 49.03125 39.796875 
Q 46.734375 40.875 44.453125 41.375 
Q 42.1875 41.890625 39.890625 41.890625 
Q 33.15625 41.890625 29.515625 37.5625 
Q 25.875 33.25 25.875 25.203125 
L 25.875 0 
L 8.40625 0 
L 8.40625 54.6875 
L 25.875 54.6875 
L 25.875 45.703125 
Q 29.25 51.078125 33.609375 53.53125 
Q 37.984375 56 44.09375 56 
Q 44.96875 56 45.984375 55.921875 
Q 47.015625 55.859375 48.96875 55.609375 
z
" id="DejaVuSans-Bold-114"/>
      <path d="M 52.59375 52.984375 
L 52.59375 38.71875 
Q 49.03125 41.15625 45.4375 42.328125 
Q 41.84375 43.5 37.984375 43.5 
Q 30.671875 43.5 26.59375 39.234375 
Q 22.515625 34.96875 22.515625 27.296875 
Q 22.515625 19.625 26.59375 15.34375 
Q 30.671875 11.078125 37.984375 11.078125 
Q 42.09375 11.078125 45.78125 12.296875 
Q 49.46875 13.53125 52.59375 15.921875 
L 52.59375 1.609375 
Q 48.484375 0.09375 44.265625 -0.65625 
Q 40.046875 -1.421875 35.796875 -1.421875 
Q 21 -1.421875 12.640625 6.171875 
Q 4.296875 13.765625 4.296875 27.296875 
Q 4.296875 40.828125 12.640625 48.40625 
Q 21 56 35.796875 56 
Q 40.09375 56 44.265625 55.25 
Q 48.4375 54.5 52.59375 52.984375 
z
" id="DejaVuSans-Bold-99"/>
      <path d="M 63.375 33.296875 
L 63.375 0 
L 45.796875 0 
L 45.796875 5.421875 
L 45.796875 25.484375 
Q 45.796875 32.5625 45.484375 35.25 
Q 45.171875 37.9375 44.390625 39.203125 
Q 43.359375 40.921875 41.59375 41.875 
Q 39.84375 42.828125 37.59375 42.828125 
Q 32.125 42.828125 29 38.59375 
Q 25.875 34.375 25.875 26.90625 
L 25.875 0 
L 8.40625 0 
L 8.40625 54.6875 
L 25.875 54.6875 
L 25.875 46.6875 
Q 29.828125 51.46875 34.265625 53.734375 
Q 38.71875 56 44.09375 56 
Q 53.5625 56 58.46875 50.1875 
Q 63.375 44.390625 63.375 33.296875 
z
" id="DejaVuSans-Bold-110"/>
      <path d="M 45.609375 46.6875 
L 45.609375 75.984375 
L 63.1875 75.984375 
L 63.1875 0 
L 45.609375 0 
L 45.609375 7.90625 
Q 42 3.078125 37.640625 0.828125 
Q 33.296875 -1.421875 27.59375 -1.421875 
Q 17.484375 -1.421875 10.984375 6.609375 
Q 4.5 14.65625 4.5 27.296875 
Q 4.5 39.9375 10.984375 47.96875 
Q 17.484375 56 27.59375 56 
Q 33.25 56 37.625 53.734375 
Q 42 51.46875 45.609375 46.6875 
z
M 34.078125 11.28125 
Q 39.703125 11.28125 42.65625 15.375 
Q 45.609375 19.484375 45.609375 27.296875 
Q 45.609375 35.109375 42.65625 39.203125 
Q 39.703125 43.3125 34.078125 43.3125 
Q 28.515625 43.3125 25.5625 39.203125 
Q 22.609375 35.109375 22.609375 27.296875 
Q 22.609375 19.484375 25.5625 15.375 
Q 28.515625 11.28125 34.078125 11.28125 
z
" id="DejaVuSans-Bold-100"/>
     </defs>
     <g transform="translate(150.7575 287.731875)scale(0.12 -0.12)">
      <use xlink:href="#DejaVuSans-Bold-37"/>
      <use x="100.195312" xlink:href="#DejaVuSans-Bold-32"/>
      <use x="135.009766" xlink:href="#DejaVuSans-Bold-108"/>
      <use x="169.287109" xlink:href="#DejaVuSans-Bold-111"/>
      <use x="237.988281" xlink:href="#DejaVuSans-Bold-115"/>
      <use x="297.509766" xlink:href="#DejaVuSans-Bold-115"/>
      <use x="357.03125" xlink:href="#DejaVuSans-Bold-32"/>
      <use x="391.845703" xlink:href="#DejaVuSans-Bold-112"/>
      <use x="463.427734" xlink:href="#DejaVuSans-Bold-101"/>
      <use x="531.25" xlink:href="#DejaVuSans-Bold-114"/>
      <use x="580.566406" xlink:href="#DejaVuSans-Bold-32"/>
      <use x="615.380859" xlink:href="#DejaVuSans-Bold-53"/>
      <use x="684.960938" xlink:href="#DejaVuSans-Bold-32"/>
      <use x="719.775391" xlink:href="#DejaVuSans-Bold-115"/>
      <use x="779.296875" xlink:href="#DejaVuSans-Bold-101"/>
      <use x="847.119141" xlink:href="#DejaVuSans-Bold-99"/>
      <use x="906.396484" xlink:href="#DejaVuSans-Bold-111"/>
      <use x="975.097656" xlink:href="#DejaVuSans-Bold-110"/>
      <use x="1046.289062" xlink:href="#DejaVuSans-Bold-100"/>
      <use x="1117.871094" xlink:href="#DejaVuSans-Bold-115"/>
     </g>
    </g>
   </g>
   <g id="matplotlib.axis_2">
    <g id="ytick_1">
     <g id="line2d_7">
      <defs>
       <path d="M 0 0 
L -3.5 0 
" id="m122b0f016f" style="stroke:#000000;stroke-width:2.8;"/>
      </defs>
      <g>
       <use style="stroke:#000000;stroke-width:2.8;" x="54" xlink:href="#m122b0f016f" y="226.009697"/>
      </g>
     </g>
     <g id="text_8">
      <!-- 0.2 -->
      <g transform="translate(25.743125 230.568759)scale(0.12 -0.12)">
       <use xlink:href="#DejaVuSans-Bold-48"/>
       <use x="69.580078" xlink:href="#DejaVuSans-Bold-46"/>
       <use x="107.568359" xlink:href="#DejaVuSans-Bold-50"/>
      </g>
     </g>
    </g>
    <g id="ytick_2">
     <g id="line2d_8">
      <g>
       <use style="stroke:#000000;stroke-width:2.8;" x="54" xlink:href="#m122b0f016f" y="188.783195"/>
      </g>
     </g>
     <g id="text_9">
      <!-- 0.4 -->
      <g transform="translate(25.743125 193.342257)scale(0.12 -0.12)">
       <use xlink:href="#DejaVuSans-Bold-48"/>
       <use x="69.580078" xlink:href="#DejaVuSans-Bold-46"/>
       <use x="107.568359" xlink:href="#DejaVuSans-Bold-52"/>
      </g>
     </g>
    </g>
    <g id="ytick_3">
     <g id="line2d_9">
      <g>
       <use style="stroke:#000000;stroke-width:2.8;" x="54" xlink:href="#m122b0f016f" y="151.556692"/>
      </g>
     </g>
     <g id="text_10">
      <!-- 0.6 -->
      <defs>
       <path d="M 36.1875 35.984375 
Q 31.25 35.984375 28.78125 32.78125 
Q 26.3125 29.59375 26.3125 23.1875 
Q 26.3125 16.796875 28.78125 13.59375 
Q 31.25 10.40625 36.1875 10.40625 
Q 41.15625 10.40625 43.625 13.59375 
Q 46.09375 16.796875 46.09375 23.1875 
Q 46.09375 29.59375 43.625 32.78125 
Q 41.15625 35.984375 36.1875 35.984375 
z
M 59.421875 71 
L 59.421875 57.515625 
Q 54.78125 59.71875 50.671875 60.765625 
Q 46.578125 61.8125 42.671875 61.8125 
Q 34.28125 61.8125 29.59375 57.140625 
Q 24.90625 52.484375 24.125 43.3125 
Q 27.34375 45.703125 31.09375 46.890625 
Q 34.859375 48.09375 39.3125 48.09375 
Q 50.484375 48.09375 57.34375 41.546875 
Q 64.203125 35.015625 64.203125 24.421875 
Q 64.203125 12.703125 56.53125 5.640625 
Q 48.875 -1.421875 35.984375 -1.421875 
Q 21.78125 -1.421875 13.984375 8.171875 
Q 6.203125 17.78125 6.203125 35.40625 
Q 6.203125 53.46875 15.3125 63.796875 
Q 24.421875 74.125 40.28125 74.125 
Q 45.3125 74.125 50.046875 73.34375 
Q 54.78125 72.5625 59.421875 71 
z
" id="DejaVuSans-Bold-54"/>
      </defs>
      <g transform="translate(25.743125 156.115755)scale(0.12 -0.12)">
       <use xlink:href="#DejaVuSans-Bold-48"/>
       <use x="69.580078" xlink:href="#DejaVuSans-Bold-46"/>
       <use x="107.568359" xlink:href="#DejaVuSans-Bold-54"/>
      </g>
     </g>
    </g>
    <g id="ytick_4">
     <g id="line2d_10">
      <g>
       <use style="stroke:#000000;stroke-width:2.8;" x="54" xlink:href="#m122b0f016f" y="114.33019"/>
      </g>
     </g>
     <g id="text_11">
      <!-- 0.8 -->
      <defs>
       <path d="M 34.8125 32.625 
Q 29.546875 32.625 26.703125 29.734375 
Q 23.875 26.859375 23.875 21.484375 
Q 23.875 16.109375 26.703125 13.25 
Q 29.546875 10.40625 34.8125 10.40625 
Q 40.046875 10.40625 42.828125 13.25 
Q 45.609375 16.109375 45.609375 21.484375 
Q 45.609375 26.90625 42.828125 29.765625 
Q 40.046875 32.625 34.8125 32.625 
z
M 21.09375 38.8125 
Q 14.453125 40.828125 11.078125 44.96875 
Q 7.71875 49.125 7.71875 55.328125 
Q 7.71875 64.546875 14.59375 69.375 
Q 21.484375 74.21875 34.8125 74.21875 
Q 48.046875 74.21875 54.921875 69.40625 
Q 61.8125 64.59375 61.8125 55.328125 
Q 61.8125 49.125 58.421875 44.96875 
Q 55.03125 40.828125 48.390625 38.8125 
Q 55.8125 36.765625 59.59375 32.15625 
Q 63.375 27.546875 63.375 20.515625 
Q 63.375 9.671875 56.171875 4.125 
Q 48.96875 -1.421875 34.8125 -1.421875 
Q 20.609375 -1.421875 13.359375 4.125 
Q 6.109375 9.671875 6.109375 20.515625 
Q 6.109375 27.546875 9.890625 32.15625 
Q 13.671875 36.765625 21.09375 38.8125 
z
M 25.484375 53.421875 
Q 25.484375 49.078125 27.90625 46.734375 
Q 30.328125 44.390625 34.8125 44.390625 
Q 39.203125 44.390625 41.59375 46.734375 
Q 44 49.078125 44 53.421875 
Q 44 57.765625 41.59375 60.078125 
Q 39.203125 62.40625 34.8125 62.40625 
Q 30.328125 62.40625 27.90625 60.0625 
Q 25.484375 57.71875 25.484375 53.421875 
z
" id="DejaVuSans-Bold-56"/>
      </defs>
      <g transform="translate(25.743125 118.889253)scale(0.12 -0.12)">
       <use xlink:href="#DejaVuSans-Bold-48"/>
       <use x="69.580078" xlink:href="#DejaVuSans-Bold-46"/>
       <use x="107.568359" xlink:href="#DejaVuSans-Bold-56"/>
      </g>
     </g>
    </g>
    <g id="ytick_5">
     <g id="line2d_11">
      <g>
       <use style="stroke:#000000;stroke-width:2.8;" x="54" xlink:href="#m122b0f016f" y="77.103688"/>
      </g>
     </g>
     <g id="text_12">
      <!-- 1.0 -->
      <g transform="translate(25.743125 81.66275)scale(0.12 -0.12)">
       <use xlink:href="#DejaVuSans-Bold-49"/>
       <use x="69.580078" xlink:href="#DejaVuSans-Bold-46"/>
       <use x="107.568359" xlink:href="#DejaVuSans-Bold-48"/>
      </g>
     </g>
    </g>
    <g id="ytick_6">
     <g id="line2d_12">
      <g>
       <use style="stroke:#000000;stroke-width:2.8;" x="54" xlink:href="#m122b0f016f" y="39.877185"/>
      </g>
     </g>
     <g id="text_13">
      <!-- 1.2 -->
      <g transform="translate(25.743125 44.436248)scale(0.12 -0.12)">
       <use xlink:href="#DejaVuSans-Bold-49"/>
       <use x="69.580078" xlink:href="#DejaVuSans-Bold-46"/>
       <use x="107.568359" xlink:href="#DejaVuSans-Bold-50"/>
      </g>
     </g>
    </g>
    <g id="text_14">
     <!-- N spots / total real spots -->
     <defs>
      <path d="M 9.1875 72.90625 
L 30.171875 72.90625 
L 56.6875 22.90625 
L 56.6875 72.90625 
L 74.515625 72.90625 
L 74.515625 0 
L 53.515625 0 
L 27 50 
L 27 0 
L 9.1875 0 
z
" id="DejaVuSans-Bold-78"/>
      <path d="M 27.484375 70.21875 
L 27.484375 54.6875 
L 45.515625 54.6875 
L 45.515625 42.1875 
L 27.484375 42.1875 
L 27.484375 19 
Q 27.484375 15.1875 29 13.84375 
Q 30.515625 12.5 35.015625 12.5 
L 44 12.5 
L 44 0 
L 29 0 
Q 18.65625 0 14.328125 4.3125 
Q 10.015625 8.640625 10.015625 19 
L 10.015625 42.1875 
L 1.3125 42.1875 
L 1.3125 54.6875 
L 10.015625 54.6875 
L 10.015625 70.21875 
z
" id="DejaVuSans-Bold-116"/>
      <path d="M 25.6875 72.90625 
L 36.53125 72.90625 
L 10.796875 -9.28125 
L 0 -9.28125 
z
" id="DejaVuSans-Bold-47"/>
      <path d="M 32.90625 24.609375 
Q 27.4375 24.609375 24.671875 22.75 
Q 21.921875 20.90625 21.921875 17.28125 
Q 21.921875 13.96875 24.140625 12.078125 
Q 26.375 10.203125 30.328125 10.203125 
Q 35.25 10.203125 38.625 13.734375 
Q 42 17.28125 42 22.609375 
L 42 24.609375 
z
M 59.625 31.203125 
L 59.625 0 
L 42 0 
L 42 8.109375 
Q 38.484375 3.125 34.078125 0.84375 
Q 29.6875 -1.421875 23.390625 -1.421875 
Q 14.890625 -1.421875 9.59375 3.53125 
Q 4.296875 8.5 4.296875 16.40625 
Q 4.296875 26.03125 10.90625 30.515625 
Q 17.53125 35.015625 31.6875 35.015625 
L 42 35.015625 
L 42 36.375 
Q 42 40.53125 38.71875 42.453125 
Q 35.453125 44.390625 28.515625 44.390625 
Q 22.90625 44.390625 18.0625 43.265625 
Q 13.234375 42.140625 9.078125 39.890625 
L 9.078125 53.21875 
Q 14.703125 54.59375 20.359375 55.296875 
Q 26.03125 56 31.6875 56 
Q 46.484375 56 53.046875 50.171875 
Q 59.625 44.34375 59.625 31.203125 
z
" id="DejaVuSans-Bold-97"/>
     </defs>
     <g transform="translate(15.2475 226.888125)rotate(-90)scale(0.12 -0.12)">
      <use xlink:href="#DejaVuSans-Bold-78"/>
      <use x="83.691406" xlink:href="#DejaVuSans-Bold-32"/>
      <use x="118.505859" xlink:href="#DejaVuSans-Bold-115"/>
      <use x="178.027344" xlink:href="#DejaVuSans-Bold-112"/>
      <use x="249.609375" xlink:href="#DejaVuSans-Bold-111"/>
      <use x="318.310547" xlink:href="#DejaVuSans-Bold-116"/>
      <use x="366.113281" xlink:href="#DejaVuSans-Bold-115"/>
      <use x="425.634766" xlink:href="#DejaVuSans-Bold-32"/>
      <use x="460.449219" xlink:href="#DejaVuSans-Bold-47"/>
      <use x="496.972656" xlink:href="#DejaVuSans-Bold-32"/>
      <use x="531.787109" xlink:href="#DejaVuSans-Bold-116"/>
      <use x="579.589844" xlink:href="#DejaVuSans-Bold-111"/>
      <use x="648.291016" xlink:href="#DejaVuSans-Bold-116"/>
      <use x="696.09375" xlink:href="#DejaVuSans-Bold-97"/>
      <use x="763.574219" xlink:href="#DejaVuSans-Bold-108"/>
      <use x="797.851562" xlink:href="#DejaVuSans-Bold-32"/>
      <use x="832.666016" xlink:href="#DejaVuSans-Bold-114"/>
      <use x="881.982422" xlink:href="#DejaVuSans-Bold-101"/>
      <use x="949.804688" xlink:href="#DejaVuSans-Bold-97"/>
      <use x="1017.285156" xlink:href="#DejaVuSans-Bold-108"/>
      <use x="1051.5625" xlink:href="#DejaVuSans-Bold-32"/>
      <use x="1086.376953" xlink:href="#DejaVuSans-Bold-115"/>
      <use x="1145.898438" xlink:href="#DejaVuSans-Bold-112"/>
      <use x="1217.480469" xlink:href="#DejaVuSans-Bold-111"/>
      <use x="1286.181641" xlink:href="#DejaVuSans-Bold-116"/>
      <use x="1333.984375" xlink:href="#DejaVuSans-Bold-115"/>
     </g>
    </g>
   </g>
   <g id="line2d_13">
    <path clip-path="url(#p393e393651)" d="M 69.218182 46.354597 
L 75.305455 47.198398 
L 81.392727 49.7298 
L 93.567273 45.138531 
L 105.741818 46.056785 
L 130.090909 44.443636 
L 190.963636 47.769204 
L 282.272727 49.382352 
L 312.709091 49.928341 
L 343.145455 60.252491 
L 373.581818 69.31094 
" style="fill:none;stroke:#073b4c;stroke-linecap:square;stroke-width:1.5;"/>
    <defs>
     <path d="M 0 3 
C 0.795609 3 1.55874 2.683901 2.12132 2.12132 
C 2.683901 1.55874 3 0.795609 3 0 
C 3 -0.795609 2.683901 -1.55874 2.12132 -2.12132 
C 1.55874 -2.683901 0.795609 -3 0 -3 
C -0.795609 -3 -1.55874 -2.683901 -2.12132 -2.12132 
C -2.683901 -1.55874 -3 -0.795609 -3 0 
C -3 0.795609 -2.683901 1.55874 -2.12132 2.12132 
C -1.55874 2.683901 -0.795609 3 0 3 
z
" id="mbdc9bdf4a7" style="stroke:#073b4c;"/>
    </defs>
    <g clip-path="url(#p393e393651)">
     <use style="fill:#073b4c;stroke:#073b4c;" x="69.218182" xlink:href="#mbdc9bdf4a7" y="46.354597"/>
     <use style="fill:#073b4c;stroke:#073b4c;" x="75.305455" xlink:href="#mbdc9bdf4a7" y="47.198398"/>
     <use style="fill:#073b4c;stroke:#073b4c;" x="81.392727" xlink:href="#mbdc9bdf4a7" y="49.7298"/>
     <use style="fill:#073b4c;stroke:#073b4c;" x="93.567273" xlink:href="#mbdc9bdf4a7" y="45.138531"/>
     <use style="fill:#073b4c;stroke:#073b4c;" x="105.741818" xlink:href="#mbdc9bdf4a7" y="46.056785"/>
     <use style="fill:#073b4c;stroke:#073b4c;" x="130.090909" xlink:href="#mbdc9bdf4a7" y="44.443636"/>
     <use style="fill:#073b4c;stroke:#073b4c;" x="190.963636" xlink:href="#mbdc9bdf4a7" y="47.769204"/>
     <use style="fill:#073b4c;stroke:#073b4c;" x="282.272727" xlink:href="#mbdc9bdf4a7" y="49.382352"/>
     <use style="fill:#073b4c;stroke:#073b4c;" x="312.709091" xlink:href="#mbdc9bdf4a7" y="49.928341"/>
     <use style="fill:#073b4c;stroke:#073b4c;" x="343.145455" xlink:href="#mbdc9bdf4a7" y="60.252491"/>
     <use style="fill:#073b4c;stroke:#073b4c;" x="373.581818" xlink:href="#mbdc9bdf4a7" y="69.31094"/>
    </g>
   </g>
   <g id="line2d_14">
    <path clip-path="url(#p393e393651)" d="M 69.218182 106.810437 
L 75.305455 105.718459 
L 81.392727 109.689286 
L 93.567273 107.008978 
L 105.741818 108.423585 
L 130.090909 105.271741 
L 190.963636 109.317021 
L 282.272727 107.207519 
L 312.709091 107.133066 
L 343.145455 112.071782 
L 373.581818 116.117062 
" style="fill:none;stroke:#8a3619;stroke-linecap:square;stroke-width:1.5;"/>
    <defs>
     <path d="M 0 3 
C 0.795609 3 1.55874 2.683901 2.12132 2.12132 
C 2.683901 1.55874 3 0.795609 3 0 
C 3 -0.795609 2.683901 -1.55874 2.12132 -2.12132 
C 1.55874 -2.683901 0.795609 -3 0 -3 
C -0.795609 -3 -1.55874 -2.683901 -2.12132 -2.12132 
C -2.683901 -1.55874 -3 -0.795609 -3 0 
C -3 0.795609 -2.683901 1.55874 -2.12132 2.12132 
C -1.55874 2.683901 -0.795609 3 0 3 
z
" id="m024be85131" style="stroke:#8a3619;"/>
    </defs>
    <g clip-path="url(#p393e393651)">
     <use style="fill:#8a3619;stroke:#8a3619;" x="69.218182" xlink:href="#m024be85131" y="106.810437"/>
     <use style="fill:#8a3619;stroke:#8a3619;" x="75.305455" xlink:href="#m024be85131" y="105.718459"/>
     <use style="fill:#8a3619;stroke:#8a3619;" x="81.392727" xlink:href="#m024be85131" y="109.689286"/>
     <use style="fill:#8a3619;stroke:#8a3619;" x="93.567273" xlink:href="#m024be85131" y="107.008978"/>
     <use style="fill:#8a3619;stroke:#8a3619;" x="105.741818" xlink:href="#m024be85131" y="108.423585"/>
     <use style="fill:#8a3619;stroke:#8a3619;" x="130.090909" xlink:href="#m024be85131" y="105.271741"/>
     <use style="fill:#8a3619;stroke:#8a3619;" x="190.963636" xlink:href="#m024be85131" y="109.317021"/>
     <use style="fill:#8a3619;stroke:#8a3619;" x="282.272727" xlink:href="#m024be85131" y="107.207519"/>
     <use style="fill:#8a3619;stroke:#8a3619;" x="312.709091" xlink:href="#m024be85131" y="107.133066"/>
     <use style="fill:#8a3619;stroke:#8a3619;" x="343.145455" xlink:href="#m024be85131" y="112.071782"/>
     <use style="fill:#8a3619;stroke:#8a3619;" x="373.581818" xlink:href="#m024be85131" y="116.117062"/>
    </g>
   </g>
   <g id="line2d_15">
    <path clip-path="url(#p393e393651)" d="M 69.218182 173.967047 
L 75.305455 175.034206 
L 81.392727 176.175819 
L 93.567273 177.267797 
L 105.741818 175.679466 
L 130.090909 174.562671 
L 190.963636 176.920349 
L 282.272727 174.934936 
L 312.709091 178.409409 
L 343.145455 203.500072 
L 373.581818 239.932409 
" style="fill:none;stroke:#06d6a0;stroke-linecap:square;stroke-width:1.5;"/>
    <defs>
     <path d="M 0 3 
C 0.795609 3 1.55874 2.683901 2.12132 2.12132 
C 2.683901 1.55874 3 0.795609 3 0 
C 3 -0.795609 2.683901 -1.55874 2.12132 -2.12132 
C 1.55874 -2.683901 0.795609 -3 0 -3 
C -0.795609 -3 -1.55874 -2.683901 -2.12132 -2.12132 
C -2.683901 -1.55874 -3 -0.795609 -3 0 
C -3 0.795609 -2.683901 1.55874 -2.12132 2.12132 
C -1.55874 2.683901 -0.795609 3 0 3 
z
" id="m51a7bd1646" style="stroke:#06d6a0;"/>
    </defs>
    <g clip-path="url(#p393e393651)">
     <use style="fill:#06d6a0;stroke:#06d6a0;" x="69.218182" xlink:href="#m51a7bd1646" y="173.967047"/>
     <use style="fill:#06d6a0;stroke:#06d6a0;" x="75.305455" xlink:href="#m51a7bd1646" y="175.034206"/>
     <use style="fill:#06d6a0;stroke:#06d6a0;" x="81.392727" xlink:href="#m51a7bd1646" y="176.175819"/>
     <use style="fill:#06d6a0;stroke:#06d6a0;" x="93.567273" xlink:href="#m51a7bd1646" y="177.267797"/>
     <use style="fill:#06d6a0;stroke:#06d6a0;" x="105.741818" xlink:href="#m51a7bd1646" y="175.679466"/>
     <use style="fill:#06d6a0;stroke:#06d6a0;" x="130.090909" xlink:href="#m51a7bd1646" y="174.562671"/>
     <use style="fill:#06d6a0;stroke:#06d6a0;" x="190.963636" xlink:href="#m51a7bd1646" y="176.920349"/>
     <use style="fill:#06d6a0;stroke:#06d6a0;" x="282.272727" xlink:href="#m51a7bd1646" y="174.934936"/>
     <use style="fill:#06d6a0;stroke:#06d6a0;" x="312.709091" xlink:href="#m51a7bd1646" y="178.409409"/>
     <use style="fill:#06d6a0;stroke:#06d6a0;" x="343.145455" xlink:href="#m51a7bd1646" y="203.500072"/>
     <use style="fill:#06d6a0;stroke:#06d6a0;" x="373.581818" xlink:href="#m51a7bd1646" y="239.932409"/>
    </g>
   </g>
   <g id="line2d_16">
    <path clip-path="url(#p393e393651)" d="M 69.218182 188.609471 
L 75.305455 187.964212 
L 81.392727 189.354001 
L 93.567273 191.910221 
L 105.741818 189.031371 
L 130.090909 188.013847 
L 190.963636 190.396343 
L 282.272727 187.889759 
L 312.709091 188.758377 
L 343.145455 210.498654 
L 373.581818 242.116364 
" style="fill:none;stroke:#7400b8;stroke-linecap:square;stroke-width:1.5;"/>
    <defs>
     <path d="M 0 3 
C 0.795609 3 1.55874 2.683901 2.12132 2.12132 
C 2.683901 1.55874 3 0.795609 3 0 
C 3 -0.795609 2.683901 -1.55874 2.12132 -2.12132 
C 1.55874 -2.683901 0.795609 -3 0 -3 
C -0.795609 -3 -1.55874 -2.683901 -2.12132 -2.12132 
C -2.683901 -1.55874 -3 -0.795609 -3 0 
C -3 0.795609 -2.683901 1.55874 -2.12132 2.12132 
C -1.55874 2.683901 -0.795609 3 0 3 
z
" id="m68a3387f3f" style="stroke:#7400b8;"/>
    </defs>
    <g clip-path="url(#p393e393651)">
     <use style="fill:#7400b8;stroke:#7400b8;" x="69.218182" xlink:href="#m68a3387f3f" y="188.609471"/>
     <use style="fill:#7400b8;stroke:#7400b8;" x="75.305455" xlink:href="#m68a3387f3f" y="187.964212"/>
     <use style="fill:#7400b8;stroke:#7400b8;" x="81.392727" xlink:href="#m68a3387f3f" y="189.354001"/>
     <use style="fill:#7400b8;stroke:#7400b8;" x="93.567273" xlink:href="#m68a3387f3f" y="191.910221"/>
     <use style="fill:#7400b8;stroke:#7400b8;" x="105.741818" xlink:href="#m68a3387f3f" y="189.031371"/>
     <use style="fill:#7400b8;stroke:#7400b8;" x="130.090909" xlink:href="#m68a3387f3f" y="188.013847"/>
     <use style="fill:#7400b8;stroke:#7400b8;" x="190.963636" xlink:href="#m68a3387f3f" y="190.396343"/>
     <use style="fill:#7400b8;stroke:#7400b8;" x="282.272727" xlink:href="#m68a3387f3f" y="187.889759"/>
     <use style="fill:#7400b8;stroke:#7400b8;" x="312.709091" xlink:href="#m68a3387f3f" y="188.758377"/>
     <use style="fill:#7400b8;stroke:#7400b8;" x="343.145455" xlink:href="#m68a3387f3f" y="210.498654"/>
     <use style="fill:#7400b8;stroke:#7400b8;" x="373.581818" xlink:href="#m68a3387f3f" y="242.116364"/>
    </g>
   </g>
   <g id="line2d_17">
    <path clip-path="url(#p393e393651)" d="M 69.218182 77.103688 
L 75.305455 77.103688 
L 81.392727 77.103688 
L 93.567273 77.103688 
L 105.741818 77.103688 
L 130.090909 77.103688 
L 190.963636 77.103688 
L 282.272727 77.103688 
L 312.709091 77.103688 
L 343.145455 77.103688 
L 373.581818 77.103688 
" style="fill:none;stroke:#ff0000;stroke-dasharray:5.55,2.4;stroke-dashoffset:0;stroke-width:1.5;"/>
   </g>
   <g id="patch_3">
    <path d="M 54 252 
L 54 34.56 
" style="fill:none;stroke:#000000;stroke-linecap:square;stroke-linejoin:miter;stroke-width:2.8;"/>
   </g>
   <g id="patch_4">
    <path d="M 388.8 252 
L 388.8 34.56 
" style="fill:none;stroke:#000000;stroke-linecap:square;stroke-linejoin:miter;stroke-width:2.8;"/>
   </g>
   <g id="patch_5">
    <path d="M 54 252 
L 388.8 252 
" style="fill:none;stroke:#000000;stroke-linecap:square;stroke-linejoin:miter;stroke-width:2.8;"/>
   </g>
   <g id="patch_6">
    <path d="M 54 34.56 
L 388.8 34.56 
" style="fill:none;stroke:#000000;stroke-linecap:square;stroke-linejoin:miter;stroke-width:2.8;"/>
   </g>
   <g id="legend_1">
    <g id="patch_7">
     <path d="M 430.68 103.743 
L 713.48625 103.743 
Q 715.88625 103.743 715.88625 101.343 
L 715.88625 32.088 
Q 715.88625 29.688 713.48625 29.688 
L 430.68 29.688 
Q 428.28 29.688 428.28 32.088 
L 428.28 101.343 
Q 428.28 103.743 430.68 103.743 
z
" style="fill:#ffffff;opacity:0.8;stroke:#cccccc;stroke-linejoin:miter;"/>
    </g>
    <g id="line2d_18">
     <path style="fill:none;stroke:#073b4c;stroke-linecap:square;stroke-width:1.5;"/>
    </g>
    <g id="line2d_19">
     <g>
      <use style="fill:#073b4c;stroke:#073b4c;" x="445.08" xlink:href="#mbdc9bdf4a7" y="39.406125"/>
     </g>
    </g>
    <g id="text_15">
     <!-- total spots found -->
     <defs>
      <path d="M 44.390625 75.984375 
L 44.390625 64.5 
L 34.71875 64.5 
Q 31 64.5 29.53125 63.15625 
Q 28.078125 61.8125 28.078125 58.5 
L 28.078125 54.6875 
L 43.015625 54.6875 
L 43.015625 42.1875 
L 28.078125 42.1875 
L 28.078125 0 
L 10.59375 0 
L 10.59375 42.1875 
L 1.90625 42.1875 
L 1.90625 54.6875 
L 10.59375 54.6875 
L 10.59375 58.5 
Q 10.59375 67.4375 15.578125 71.703125 
Q 20.5625 75.984375 31 75.984375 
z
" id="DejaVuSans-Bold-102"/>
      <path d="M 7.8125 21.296875 
L 7.8125 54.6875 
L 25.390625 54.6875 
L 25.390625 49.21875 
Q 25.390625 44.78125 25.34375 38.0625 
Q 25.296875 31.34375 25.296875 29.109375 
Q 25.296875 22.515625 25.640625 19.609375 
Q 25.984375 16.703125 26.8125 15.375 
Q 27.875 13.671875 29.609375 12.734375 
Q 31.34375 11.8125 33.59375 11.8125 
Q 39.0625 11.8125 42.1875 16.015625 
Q 45.3125 20.21875 45.3125 27.6875 
L 45.3125 54.6875 
L 62.796875 54.6875 
L 62.796875 0 
L 45.3125 0 
L 45.3125 7.90625 
Q 41.359375 3.125 36.9375 0.84375 
Q 32.515625 -1.421875 27.203125 -1.421875 
Q 17.71875 -1.421875 12.765625 4.390625 
Q 7.8125 10.203125 7.8125 21.296875 
z
" id="DejaVuSans-Bold-117"/>
     </defs>
     <g transform="translate(466.68 43.606125)scale(0.12 -0.12)">
      <use xlink:href="#DejaVuSans-Bold-116"/>
      <use x="47.802734" xlink:href="#DejaVuSans-Bold-111"/>
      <use x="116.503906" xlink:href="#DejaVuSans-Bold-116"/>
      <use x="164.306641" xlink:href="#DejaVuSans-Bold-97"/>
      <use x="231.787109" xlink:href="#DejaVuSans-Bold-108"/>
      <use x="266.064453" xlink:href="#DejaVuSans-Bold-32"/>
      <use x="300.878906" xlink:href="#DejaVuSans-Bold-115"/>
      <use x="360.400391" xlink:href="#DejaVuSans-Bold-112"/>
      <use x="431.982422" xlink:href="#DejaVuSans-Bold-111"/>
      <use x="500.683594" xlink:href="#DejaVuSans-Bold-116"/>
      <use x="548.486328" xlink:href="#DejaVuSans-Bold-115"/>
      <use x="608.007812" xlink:href="#DejaVuSans-Bold-32"/>
      <use x="642.822266" xlink:href="#DejaVuSans-Bold-102"/>
      <use x="686.328125" xlink:href="#DejaVuSans-Bold-111"/>
      <use x="755.029297" xlink:href="#DejaVuSans-Bold-117"/>
      <use x="826.220703" xlink:href="#DejaVuSans-Bold-110"/>
      <use x="897.412109" xlink:href="#DejaVuSans-Bold-100"/>
     </g>
    </g>
    <g id="line2d_20">
     <path style="fill:none;stroke:#8a3619;stroke-linecap:square;stroke-width:1.5;"/>
    </g>
    <g id="line2d_21">
     <g>
      <use style="fill:#8a3619;stroke:#8a3619;" x="445.08" xlink:href="#m024be85131" y="57.019875"/>
     </g>
    </g>
    <g id="text_16">
     <!-- real spots found -->
     <g transform="translate(466.68 61.219875)scale(0.12 -0.12)">
      <use xlink:href="#DejaVuSans-Bold-114"/>
      <use x="49.316406" xlink:href="#DejaVuSans-Bold-101"/>
      <use x="117.138672" xlink:href="#DejaVuSans-Bold-97"/>
      <use x="184.619141" xlink:href="#DejaVuSans-Bold-108"/>
      <use x="218.896484" xlink:href="#DejaVuSans-Bold-32"/>
      <use x="253.710938" xlink:href="#DejaVuSans-Bold-115"/>
      <use x="313.232422" xlink:href="#DejaVuSans-Bold-112"/>
      <use x="384.814453" xlink:href="#DejaVuSans-Bold-111"/>
      <use x="453.515625" xlink:href="#DejaVuSans-Bold-116"/>
      <use x="501.318359" xlink:href="#DejaVuSans-Bold-115"/>
      <use x="560.839844" xlink:href="#DejaVuSans-Bold-32"/>
      <use x="595.654297" xlink:href="#DejaVuSans-Bold-102"/>
      <use x="639.160156" xlink:href="#DejaVuSans-Bold-111"/>
      <use x="707.861328" xlink:href="#DejaVuSans-Bold-117"/>
      <use x="779.052734" xlink:href="#DejaVuSans-Bold-110"/>
      <use x="850.244141" xlink:href="#DejaVuSans-Bold-100"/>
     </g>
    </g>
    <g id="line2d_22">
     <path style="fill:none;stroke:#06d6a0;stroke-linecap:square;stroke-width:1.5;"/>
    </g>
    <g id="line2d_23">
     <g>
      <use style="fill:#06d6a0;stroke:#06d6a0;" x="445.08" xlink:href="#m51a7bd1646" y="74.633625"/>
     </g>
    </g>
    <g id="text_17">
     <!-- spots kept after 300s threshold -->
     <defs>
      <path d="M 8.40625 75.984375 
L 25.875 75.984375 
L 25.875 34.625 
L 46 54.6875 
L 66.3125 54.6875 
L 39.59375 29.59375 
L 68.40625 0 
L 47.21875 0 
L 25.875 22.796875 
L 25.875 0 
L 8.40625 0 
z
" id="DejaVuSans-Bold-107"/>
      <path d="M 63.375 33.296875 
L 63.375 0 
L 45.796875 0 
L 45.796875 5.421875 
L 45.796875 25.390625 
Q 45.796875 32.5625 45.484375 35.25 
Q 45.171875 37.9375 44.390625 39.203125 
Q 43.359375 40.921875 41.59375 41.875 
Q 39.84375 42.828125 37.59375 42.828125 
Q 32.125 42.828125 29 38.59375 
Q 25.875 34.375 25.875 26.90625 
L 25.875 0 
L 8.40625 0 
L 8.40625 75.984375 
L 25.875 75.984375 
L 25.875 46.6875 
Q 29.828125 51.46875 34.265625 53.734375 
Q 38.71875 56 44.09375 56 
Q 53.5625 56 58.46875 50.1875 
Q 63.375 44.390625 63.375 33.296875 
z
" id="DejaVuSans-Bold-104"/>
     </defs>
     <g transform="translate(466.68 78.833625)scale(0.12 -0.12)">
      <use xlink:href="#DejaVuSans-Bold-115"/>
      <use x="59.521484" xlink:href="#DejaVuSans-Bold-112"/>
      <use x="131.103516" xlink:href="#DejaVuSans-Bold-111"/>
      <use x="199.804688" xlink:href="#DejaVuSans-Bold-116"/>
      <use x="247.607422" xlink:href="#DejaVuSans-Bold-115"/>
      <use x="307.128906" xlink:href="#DejaVuSans-Bold-32"/>
      <use x="341.943359" xlink:href="#DejaVuSans-Bold-107"/>
      <use x="405.822266" xlink:href="#DejaVuSans-Bold-101"/>
      <use x="473.644531" xlink:href="#DejaVuSans-Bold-112"/>
      <use x="545.226562" xlink:href="#DejaVuSans-Bold-116"/>
      <use x="593.029297" xlink:href="#DejaVuSans-Bold-32"/>
      <use x="627.84375" xlink:href="#DejaVuSans-Bold-97"/>
      <use x="695.324219" xlink:href="#DejaVuSans-Bold-102"/>
      <use x="738.830078" xlink:href="#DejaVuSans-Bold-116"/>
      <use x="786.632812" xlink:href="#DejaVuSans-Bold-101"/>
      <use x="854.455078" xlink:href="#DejaVuSans-Bold-114"/>
      <use x="903.771484" xlink:href="#DejaVuSans-Bold-32"/>
      <use x="938.585938" xlink:href="#DejaVuSans-Bold-51"/>
      <use x="1008.166016" xlink:href="#DejaVuSans-Bold-48"/>
      <use x="1077.746094" xlink:href="#DejaVuSans-Bold-48"/>
      <use x="1147.326172" xlink:href="#DejaVuSans-Bold-115"/>
      <use x="1206.847656" xlink:href="#DejaVuSans-Bold-32"/>
      <use x="1241.662109" xlink:href="#DejaVuSans-Bold-116"/>
      <use x="1289.464844" xlink:href="#DejaVuSans-Bold-104"/>
      <use x="1360.65625" xlink:href="#DejaVuSans-Bold-114"/>
      <use x="1409.972656" xlink:href="#DejaVuSans-Bold-101"/>
      <use x="1477.794922" xlink:href="#DejaVuSans-Bold-115"/>
      <use x="1537.316406" xlink:href="#DejaVuSans-Bold-104"/>
      <use x="1608.507812" xlink:href="#DejaVuSans-Bold-111"/>
      <use x="1677.208984" xlink:href="#DejaVuSans-Bold-108"/>
      <use x="1711.486328" xlink:href="#DejaVuSans-Bold-100"/>
     </g>
    </g>
    <g id="line2d_24">
     <path style="fill:none;stroke:#7400b8;stroke-linecap:square;stroke-width:1.5;"/>
    </g>
    <g id="line2d_25">
     <g>
      <use style="fill:#7400b8;stroke:#7400b8;" x="445.08" xlink:href="#m68a3387f3f" y="92.247375"/>
     </g>
    </g>
    <g id="text_18">
     <!-- real spots kept after 300s threshold -->
     <g transform="translate(466.68 96.447375)scale(0.12 -0.12)">
      <use xlink:href="#DejaVuSans-Bold-114"/>
      <use x="49.316406" xlink:href="#DejaVuSans-Bold-101"/>
      <use x="117.138672" xlink:href="#DejaVuSans-Bold-97"/>
      <use x="184.619141" xlink:href="#DejaVuSans-Bold-108"/>
      <use x="218.896484" xlink:href="#DejaVuSans-Bold-32"/>
      <use x="253.710938" xlink:href="#DejaVuSans-Bold-115"/>
      <use x="313.232422" xlink:href="#DejaVuSans-Bold-112"/>
      <use x="384.814453" xlink:href="#DejaVuSans-Bold-111"/>
      <use x="453.515625" xlink:href="#DejaVuSans-Bold-116"/>
      <use x="501.318359" xlink:href="#DejaVuSans-Bold-115"/>
      <use x="560.839844" xlink:href="#DejaVuSans-Bold-32"/>
      <use x="595.654297" xlink:href="#DejaVuSans-Bold-107"/>
      <use x="659.533203" xlink:href="#DejaVuSans-Bold-101"/>
      <use x="727.355469" xlink:href="#DejaVuSans-Bold-112"/>
      <use x="798.9375" xlink:href="#DejaVuSans-Bold-116"/>
      <use x="846.740234" xlink:href="#DejaVuSans-Bold-32"/>
      <use x="881.554688" xlink:href="#DejaVuSans-Bold-97"/>
      <use x="949.035156" xlink:href="#DejaVuSans-Bold-102"/>
      <use x="992.541016" xlink:href="#DejaVuSans-Bold-116"/>
      <use x="1040.34375" xlink:href="#DejaVuSans-Bold-101"/>
      <use x="1108.166016" xlink:href="#DejaVuSans-Bold-114"/>
      <use x="1157.482422" xlink:href="#DejaVuSans-Bold-32"/>
      <use x="1192.296875" xlink:href="#DejaVuSans-Bold-51"/>
      <use x="1261.876953" xlink:href="#DejaVuSans-Bold-48"/>
      <use x="1331.457031" xlink:href="#DejaVuSans-Bold-48"/>
      <use x="1401.037109" xlink:href="#DejaVuSans-Bold-115"/>
      <use x="1460.558594" xlink:href="#DejaVuSans-Bold-32"/>
      <use x="1495.373047" xlink:href="#DejaVuSans-Bold-116"/>
      <use x="1543.175781" xlink:href="#DejaVuSans-Bold-104"/>
      <use x="1614.367188" xlink:href="#DejaVuSans-Bold-114"/>
      <use x="1663.683594" xlink:href="#DejaVuSans-Bold-101"/>
      <use x="1731.505859" xlink:href="#DejaVuSans-Bold-115"/>
      <use x="1791.027344" xlink:href="#DejaVuSans-Bold-104"/>
      <use x="1862.21875" xlink:href="#DejaVuSans-Bold-111"/>
      <use x="1930.919922" xlink:href="#DejaVuSans-Bold-108"/>
      <use x="1965.197266" xlink:href="#DejaVuSans-Bold-100"/>
     </g>
    </g>
   </g>
  </g>
 </g>
 <defs>
  <clipPath id="p393e393651">
   <rect height="217.44" width="334.8" x="54" y="34.56"/>
  </clipPath>
 </defs>
</svg>
