<?xml version="1.0" encoding="utf-8" standalone="no"?>
<!DOCTYPE svg PUBLIC "-//W3C//DTD SVG 1.1//EN"
  "http://www.w3.org/Graphics/SVG/1.1/DTD/svg11.dtd">
<svg height="288pt" version="1.1" viewBox="0 0 360 288" width="360pt" xmlns="http://www.w3.org/2000/svg" xmlns:xlink="http://www.w3.org/1999/xlink">
 <metadata>
  <rdf:RDF xmlns:cc="http://creativecommons.org/ns#" xmlns:dc="http://purl.org/dc/elements/1.1/" xmlns:rdf="http://www.w3.org/1999/02/22-rdf-syntax-ns#">
   <cc:Work>
    <dc:type rdf:resource="http://purl.org/dc/dcmitype/StillImage"/>
    <dc:date>2022-11-03T14:57:15.210950</dc:date>
    <dc:format>image/svg+xml</dc:format>
    <dc:creator>
     <cc:Agent>
      <dc:title>Matplotlib v3.4.3, https://matplotlib.org/</dc:title>
     </cc:Agent>
    </dc:creator>
   </cc:Work>
  </rdf:RDF>
 </metadata>
 <defs>
  <style type="text/css">*{stroke-linecap:butt;stroke-linejoin:round;}</style>
 </defs>
 <g id="figure_1">
  <g id="patch_1">
   <path d="M 0 288 
L 360 288 
L 360 0 
L 0 0 
z
" style="fill:#ffffff;"/>
  </g>
  <g id="axes_1">
   <g id="patch_2">
    <path d="M 45 252 
L 324 252 
L 324 34.56 
L 45 34.56 
z
" style="fill:#ffffff;"/>
   </g>
   <g id="matplotlib.axis_1">
    <g id="xtick_1">
     <g id="line2d_1">
      <defs>
       <path d="M 0 0 
L 0 3.5 
" id="m2e66d8869f" style="stroke:#000000;stroke-width:2.8;"/>
      </defs>
      <g>
       <use style="stroke:#000000;stroke-width:2.8;" x="56.413636" xlink:href="#m2e66d8869f" y="252"/>
      </g>
     </g>
     <g id="text_1">
      <!-- 0.0 -->
      <g transform="translate(45.785199 268.118125)scale(0.12 -0.12)">
       <defs>
        <path d="M 2944 2338 
Q 2944 3213 2780 3570 
Q 2616 3928 2228 3928 
Q 1841 3928 1675 3570 
Q 1509 3213 1509 2338 
Q 1509 1453 1675 1090 
Q 1841 728 2228 728 
Q 2613 728 2778 1090 
Q 2944 1453 2944 2338 
z
M 4147 2328 
Q 4147 1169 3647 539 
Q 3147 -91 2228 -91 
Q 1306 -91 806 539 
Q 306 1169 306 2328 
Q 306 3491 806 4120 
Q 1306 4750 2228 4750 
Q 3147 4750 3647 4120 
Q 4147 3491 4147 2328 
z
" id="DejaVuSans-Bold-30" transform="scale(0.015625)"/>
        <path d="M 653 1209 
L 1778 1209 
L 1778 0 
L 653 0 
L 653 1209 
z
" id="DejaVuSans-Bold-2e" transform="scale(0.015625)"/>
       </defs>
       <use xlink:href="#DejaVuSans-Bold-30"/>
       <use x="69.580078" xlink:href="#DejaVuSans-Bold-2e"/>
       <use x="107.568359" xlink:href="#DejaVuSans-Bold-30"/>
      </g>
     </g>
    </g>
    <g id="xtick_2">
     <g id="line2d_2">
      <g>
       <use style="stroke:#000000;stroke-width:2.8;" x="107.140909" xlink:href="#m2e66d8869f" y="252"/>
      </g>
     </g>
     <g id="text_2">
      <!-- 0.2 -->
      <g transform="translate(96.512472 268.118125)scale(0.12 -0.12)">
       <defs>
        <path d="M 1844 884 
L 3897 884 
L 3897 0 
L 506 0 
L 506 884 
L 2209 2388 
Q 2438 2594 2547 2791 
Q 2656 2988 2656 3200 
Q 2656 3528 2436 3728 
Q 2216 3928 1850 3928 
Q 1569 3928 1234 3808 
Q 900 3688 519 3450 
L 519 4475 
Q 925 4609 1322 4679 
Q 1719 4750 2100 4750 
Q 2938 4750 3402 4381 
Q 3866 4013 3866 3353 
Q 3866 2972 3669 2642 
Q 3472 2313 2841 1759 
L 1844 884 
z
" id="DejaVuSans-Bold-32" transform="scale(0.015625)"/>
       </defs>
       <use xlink:href="#DejaVuSans-Bold-30"/>
       <use x="69.580078" xlink:href="#DejaVuSans-Bold-2e"/>
       <use x="107.568359" xlink:href="#DejaVuSans-Bold-32"/>
      </g>
     </g>
    </g>
    <g id="xtick_3">
     <g id="line2d_3">
      <g>
       <use style="stroke:#000000;stroke-width:2.8;" x="157.868182" xlink:href="#m2e66d8869f" y="252"/>
      </g>
     </g>
     <g id="text_3">
      <!-- 0.4 -->
      <g transform="translate(147.239744 268.118125)scale(0.12 -0.12)">
       <defs>
        <path d="M 2356 3675 
L 1038 1722 
L 2356 1722 
L 2356 3675 
z
M 2156 4666 
L 3494 4666 
L 3494 1722 
L 4159 1722 
L 4159 850 
L 3494 850 
L 3494 0 
L 2356 0 
L 2356 850 
L 288 850 
L 288 1881 
L 2156 4666 
z
" id="DejaVuSans-Bold-34" transform="scale(0.015625)"/>
       </defs>
       <use xlink:href="#DejaVuSans-Bold-30"/>
       <use x="69.580078" xlink:href="#DejaVuSans-Bold-2e"/>
       <use x="107.568359" xlink:href="#DejaVuSans-Bold-34"/>
      </g>
     </g>
    </g>
    <g id="xtick_4">
     <g id="line2d_4">
      <g>
       <use style="stroke:#000000;stroke-width:2.8;" x="208.595455" xlink:href="#m2e66d8869f" y="252"/>
      </g>
     </g>
     <g id="text_4">
      <!-- 0.6 -->
      <g transform="translate(197.967017 268.118125)scale(0.12 -0.12)">
       <defs>
        <path d="M 2316 2303 
Q 2000 2303 1842 2098 
Q 1684 1894 1684 1484 
Q 1684 1075 1842 870 
Q 2000 666 2316 666 
Q 2634 666 2792 870 
Q 2950 1075 2950 1484 
Q 2950 1894 2792 2098 
Q 2634 2303 2316 2303 
z
M 3803 4544 
L 3803 3681 
Q 3506 3822 3243 3889 
Q 2981 3956 2731 3956 
Q 2194 3956 1894 3657 
Q 1594 3359 1544 2772 
Q 1750 2925 1990 3001 
Q 2231 3078 2516 3078 
Q 3231 3078 3670 2659 
Q 4109 2241 4109 1563 
Q 4109 813 3618 361 
Q 3128 -91 2303 -91 
Q 1394 -91 895 523 
Q 397 1138 397 2266 
Q 397 3422 980 4083 
Q 1563 4744 2578 4744 
Q 2900 4744 3203 4694 
Q 3506 4644 3803 4544 
z
" id="DejaVuSans-Bold-36" transform="scale(0.015625)"/>
       </defs>
       <use xlink:href="#DejaVuSans-Bold-30"/>
       <use x="69.580078" xlink:href="#DejaVuSans-Bold-2e"/>
       <use x="107.568359" xlink:href="#DejaVuSans-Bold-36"/>
      </g>
     </g>
    </g>
    <g id="xtick_5">
     <g id="line2d_5">
      <g>
       <use style="stroke:#000000;stroke-width:2.8;" x="259.322727" xlink:href="#m2e66d8869f" y="252"/>
      </g>
     </g>
     <g id="text_5">
      <!-- 0.8 -->
      <g transform="translate(248.69429 268.118125)scale(0.12 -0.12)">
       <defs>
        <path d="M 2228 2088 
Q 1891 2088 1709 1903 
Q 1528 1719 1528 1375 
Q 1528 1031 1709 848 
Q 1891 666 2228 666 
Q 2563 666 2741 848 
Q 2919 1031 2919 1375 
Q 2919 1722 2741 1905 
Q 2563 2088 2228 2088 
z
M 1350 2484 
Q 925 2613 709 2878 
Q 494 3144 494 3541 
Q 494 4131 934 4440 
Q 1375 4750 2228 4750 
Q 3075 4750 3515 4442 
Q 3956 4134 3956 3541 
Q 3956 3144 3739 2878 
Q 3522 2613 3097 2484 
Q 3572 2353 3814 2058 
Q 4056 1763 4056 1313 
Q 4056 619 3595 264 
Q 3134 -91 2228 -91 
Q 1319 -91 855 264 
Q 391 619 391 1313 
Q 391 1763 633 2058 
Q 875 2353 1350 2484 
z
M 1631 3419 
Q 1631 3141 1786 2991 
Q 1941 2841 2228 2841 
Q 2509 2841 2662 2991 
Q 2816 3141 2816 3419 
Q 2816 3697 2662 3845 
Q 2509 3994 2228 3994 
Q 1941 3994 1786 3844 
Q 1631 3694 1631 3419 
z
" id="DejaVuSans-Bold-38" transform="scale(0.015625)"/>
       </defs>
       <use xlink:href="#DejaVuSans-Bold-30"/>
       <use x="69.580078" xlink:href="#DejaVuSans-Bold-2e"/>
       <use x="107.568359" xlink:href="#DejaVuSans-Bold-38"/>
      </g>
     </g>
    </g>
    <g id="xtick_6">
     <g id="line2d_6">
      <g>
       <use style="stroke:#000000;stroke-width:2.8;" x="310.05" xlink:href="#m2e66d8869f" y="252"/>
      </g>
     </g>
     <g id="text_6">
      <!-- 1.0 -->
      <g transform="translate(299.421563 268.118125)scale(0.12 -0.12)">
       <defs>
        <path d="M 750 831 
L 1813 831 
L 1813 3847 
L 722 3622 
L 722 4441 
L 1806 4666 
L 2950 4666 
L 2950 831 
L 4013 831 
L 4013 0 
L 750 0 
L 750 831 
z
" id="DejaVuSans-Bold-31" transform="scale(0.015625)"/>
       </defs>
       <use xlink:href="#DejaVuSans-Bold-31"/>
       <use x="69.580078" xlink:href="#DejaVuSans-Bold-2e"/>
       <use x="107.568359" xlink:href="#DejaVuSans-Bold-30"/>
      </g>
     </g>
    </g>
    <g id="text_7">
     <!-- Normalized pixel value -->
     <g transform="translate(107.2425 287.731875)scale(0.12 -0.12)">
      <defs>
       <path d="M 588 4666 
L 1931 4666 
L 3628 1466 
L 3628 4666 
L 4769 4666 
L 4769 0 
L 3425 0 
L 1728 3200 
L 1728 0 
L 588 0 
L 588 4666 
z
" id="DejaVuSans-Bold-4e" transform="scale(0.015625)"/>
       <path d="M 2203 2784 
Q 1831 2784 1636 2517 
Q 1441 2250 1441 1747 
Q 1441 1244 1636 976 
Q 1831 709 2203 709 
Q 2569 709 2762 976 
Q 2956 1244 2956 1747 
Q 2956 2250 2762 2517 
Q 2569 2784 2203 2784 
z
M 2203 3584 
Q 3106 3584 3614 3096 
Q 4122 2609 4122 1747 
Q 4122 884 3614 396 
Q 3106 -91 2203 -91 
Q 1297 -91 786 396 
Q 275 884 275 1747 
Q 275 2609 786 3096 
Q 1297 3584 2203 3584 
z
" id="DejaVuSans-Bold-6f" transform="scale(0.015625)"/>
       <path d="M 3138 2547 
Q 2991 2616 2845 2648 
Q 2700 2681 2553 2681 
Q 2122 2681 1889 2404 
Q 1656 2128 1656 1613 
L 1656 0 
L 538 0 
L 538 3500 
L 1656 3500 
L 1656 2925 
Q 1872 3269 2151 3426 
Q 2431 3584 2822 3584 
Q 2878 3584 2943 3579 
Q 3009 3575 3134 3559 
L 3138 2547 
z
" id="DejaVuSans-Bold-72" transform="scale(0.015625)"/>
       <path d="M 3781 2919 
Q 3994 3244 4286 3414 
Q 4578 3584 4928 3584 
Q 5531 3584 5847 3212 
Q 6163 2841 6163 2131 
L 6163 0 
L 5038 0 
L 5038 1825 
Q 5041 1866 5042 1909 
Q 5044 1953 5044 2034 
Q 5044 2406 4934 2573 
Q 4825 2741 4581 2741 
Q 4263 2741 4089 2478 
Q 3916 2216 3909 1719 
L 3909 0 
L 2784 0 
L 2784 1825 
Q 2784 2406 2684 2573 
Q 2584 2741 2328 2741 
Q 2006 2741 1831 2477 
Q 1656 2213 1656 1722 
L 1656 0 
L 531 0 
L 531 3500 
L 1656 3500 
L 1656 2988 
Q 1863 3284 2130 3434 
Q 2397 3584 2719 3584 
Q 3081 3584 3359 3409 
Q 3638 3234 3781 2919 
z
" id="DejaVuSans-Bold-6d" transform="scale(0.015625)"/>
       <path d="M 2106 1575 
Q 1756 1575 1579 1456 
Q 1403 1338 1403 1106 
Q 1403 894 1545 773 
Q 1688 653 1941 653 
Q 2256 653 2472 879 
Q 2688 1106 2688 1447 
L 2688 1575 
L 2106 1575 
z
M 3816 1997 
L 3816 0 
L 2688 0 
L 2688 519 
Q 2463 200 2181 54 
Q 1900 -91 1497 -91 
Q 953 -91 614 226 
Q 275 544 275 1050 
Q 275 1666 698 1953 
Q 1122 2241 2028 2241 
L 2688 2241 
L 2688 2328 
Q 2688 2594 2478 2717 
Q 2269 2841 1825 2841 
Q 1466 2841 1156 2769 
Q 847 2697 581 2553 
L 581 3406 
Q 941 3494 1303 3539 
Q 1666 3584 2028 3584 
Q 2975 3584 3395 3211 
Q 3816 2838 3816 1997 
z
" id="DejaVuSans-Bold-61" transform="scale(0.015625)"/>
       <path d="M 538 4863 
L 1656 4863 
L 1656 0 
L 538 0 
L 538 4863 
z
" id="DejaVuSans-Bold-6c" transform="scale(0.015625)"/>
       <path d="M 538 3500 
L 1656 3500 
L 1656 0 
L 538 0 
L 538 3500 
z
M 538 4863 
L 1656 4863 
L 1656 3950 
L 538 3950 
L 538 4863 
z
" id="DejaVuSans-Bold-69" transform="scale(0.015625)"/>
       <path d="M 366 3500 
L 3419 3500 
L 3419 2719 
L 1575 800 
L 3419 800 
L 3419 0 
L 288 0 
L 288 781 
L 2131 2700 
L 366 2700 
L 366 3500 
z
" id="DejaVuSans-Bold-7a" transform="scale(0.015625)"/>
       <path d="M 4031 1759 
L 4031 1441 
L 1416 1441 
Q 1456 1047 1700 850 
Q 1944 653 2381 653 
Q 2734 653 3104 758 
Q 3475 863 3866 1075 
L 3866 213 
Q 3469 63 3072 -14 
Q 2675 -91 2278 -91 
Q 1328 -91 801 392 
Q 275 875 275 1747 
Q 275 2603 792 3093 
Q 1309 3584 2216 3584 
Q 3041 3584 3536 3087 
Q 4031 2591 4031 1759 
z
M 2881 2131 
Q 2881 2450 2695 2645 
Q 2509 2841 2209 2841 
Q 1884 2841 1681 2658 
Q 1478 2475 1428 2131 
L 2881 2131 
z
" id="DejaVuSans-Bold-65" transform="scale(0.015625)"/>
       <path d="M 2919 2988 
L 2919 4863 
L 4044 4863 
L 4044 0 
L 2919 0 
L 2919 506 
Q 2688 197 2409 53 
Q 2131 -91 1766 -91 
Q 1119 -91 703 423 
Q 288 938 288 1747 
Q 288 2556 703 3070 
Q 1119 3584 1766 3584 
Q 2128 3584 2408 3439 
Q 2688 3294 2919 2988 
z
M 2181 722 
Q 2541 722 2730 984 
Q 2919 1247 2919 1747 
Q 2919 2247 2730 2509 
Q 2541 2772 2181 2772 
Q 1825 2772 1636 2509 
Q 1447 2247 1447 1747 
Q 1447 1247 1636 984 
Q 1825 722 2181 722 
z
" id="DejaVuSans-Bold-64" transform="scale(0.015625)"/>
       <path id="DejaVuSans-Bold-20" transform="scale(0.015625)"/>
       <path d="M 1656 506 
L 1656 -1331 
L 538 -1331 
L 538 3500 
L 1656 3500 
L 1656 2988 
Q 1888 3294 2169 3439 
Q 2450 3584 2816 3584 
Q 3463 3584 3878 3070 
Q 4294 2556 4294 1747 
Q 4294 938 3878 423 
Q 3463 -91 2816 -91 
Q 2450 -91 2169 54 
Q 1888 200 1656 506 
z
M 2400 2772 
Q 2041 2772 1848 2508 
Q 1656 2244 1656 1747 
Q 1656 1250 1848 986 
Q 2041 722 2400 722 
Q 2759 722 2948 984 
Q 3138 1247 3138 1747 
Q 3138 2247 2948 2509 
Q 2759 2772 2400 2772 
z
" id="DejaVuSans-Bold-70" transform="scale(0.015625)"/>
       <path d="M 1422 1791 
L 159 3500 
L 1344 3500 
L 2059 2463 
L 2784 3500 
L 3969 3500 
L 2706 1797 
L 4031 0 
L 2847 0 
L 2059 1106 
L 1281 0 
L 97 0 
L 1422 1791 
z
" id="DejaVuSans-Bold-78" transform="scale(0.015625)"/>
       <path d="M 97 3500 
L 1216 3500 
L 2088 1081 
L 2956 3500 
L 4078 3500 
L 2700 0 
L 1472 0 
L 97 3500 
z
" id="DejaVuSans-Bold-76" transform="scale(0.015625)"/>
       <path d="M 500 1363 
L 500 3500 
L 1625 3500 
L 1625 3150 
Q 1625 2866 1622 2436 
Q 1619 2006 1619 1863 
Q 1619 1441 1641 1255 
Q 1663 1069 1716 984 
Q 1784 875 1895 815 
Q 2006 756 2150 756 
Q 2500 756 2700 1025 
Q 2900 1294 2900 1772 
L 2900 3500 
L 4019 3500 
L 4019 0 
L 2900 0 
L 2900 506 
Q 2647 200 2364 54 
Q 2081 -91 1741 -91 
Q 1134 -91 817 281 
Q 500 653 500 1363 
z
" id="DejaVuSans-Bold-75" transform="scale(0.015625)"/>
      </defs>
      <use xlink:href="#DejaVuSans-Bold-4e"/>
      <use x="83.691406" xlink:href="#DejaVuSans-Bold-6f"/>
      <use x="152.392578" xlink:href="#DejaVuSans-Bold-72"/>
      <use x="201.708984" xlink:href="#DejaVuSans-Bold-6d"/>
      <use x="305.908203" xlink:href="#DejaVuSans-Bold-61"/>
      <use x="373.388672" xlink:href="#DejaVuSans-Bold-6c"/>
      <use x="407.666016" xlink:href="#DejaVuSans-Bold-69"/>
      <use x="441.943359" xlink:href="#DejaVuSans-Bold-7a"/>
      <use x="500.146484" xlink:href="#DejaVuSans-Bold-65"/>
      <use x="567.96875" xlink:href="#DejaVuSans-Bold-64"/>
      <use x="639.550781" xlink:href="#DejaVuSans-Bold-20"/>
      <use x="674.365234" xlink:href="#DejaVuSans-Bold-70"/>
      <use x="745.947266" xlink:href="#DejaVuSans-Bold-69"/>
      <use x="780.224609" xlink:href="#DejaVuSans-Bold-78"/>
      <use x="844.726562" xlink:href="#DejaVuSans-Bold-65"/>
      <use x="912.548828" xlink:href="#DejaVuSans-Bold-6c"/>
      <use x="946.826172" xlink:href="#DejaVuSans-Bold-20"/>
      <use x="981.640625" xlink:href="#DejaVuSans-Bold-76"/>
      <use x="1046.826172" xlink:href="#DejaVuSans-Bold-61"/>
      <use x="1114.306641" xlink:href="#DejaVuSans-Bold-6c"/>
      <use x="1148.583984" xlink:href="#DejaVuSans-Bold-75"/>
      <use x="1219.775391" xlink:href="#DejaVuSans-Bold-65"/>
     </g>
    </g>
   </g>
   <g id="matplotlib.axis_2">
    <g id="ytick_1">
     <g id="line2d_7">
      <defs>
       <path d="M 0 0 
L -3.5 0 
" id="m5d53ce5485" style="stroke:#000000;stroke-width:2.8;"/>
      </defs>
      <g>
       <use style="stroke:#000000;stroke-width:2.8;" x="45" xlink:href="#m5d53ce5485" y="232.232727"/>
      </g>
     </g>
     <g id="text_8">
      <!-- 0.0 -->
      <g transform="translate(16.743125 236.79179)scale(0.12 -0.12)">
       <use xlink:href="#DejaVuSans-Bold-30"/>
       <use x="69.580078" xlink:href="#DejaVuSans-Bold-2e"/>
       <use x="107.568359" xlink:href="#DejaVuSans-Bold-30"/>
      </g>
     </g>
    </g>
    <g id="ytick_2">
     <g id="line2d_8">
      <g>
       <use style="stroke:#000000;stroke-width:2.8;" x="45" xlink:href="#m5d53ce5485" y="192.698182"/>
      </g>
     </g>
     <g id="text_9">
      <!-- 0.2 -->
      <g transform="translate(16.743125 197.257244)scale(0.12 -0.12)">
       <use xlink:href="#DejaVuSans-Bold-30"/>
       <use x="69.580078" xlink:href="#DejaVuSans-Bold-2e"/>
       <use x="107.568359" xlink:href="#DejaVuSans-Bold-32"/>
      </g>
     </g>
    </g>
    <g id="ytick_3">
     <g id="line2d_9">
      <g>
       <use style="stroke:#000000;stroke-width:2.8;" x="45" xlink:href="#m5d53ce5485" y="153.163636"/>
      </g>
     </g>
     <g id="text_10">
      <!-- 0.4 -->
      <g transform="translate(16.743125 157.722699)scale(0.12 -0.12)">
       <use xlink:href="#DejaVuSans-Bold-30"/>
       <use x="69.580078" xlink:href="#DejaVuSans-Bold-2e"/>
       <use x="107.568359" xlink:href="#DejaVuSans-Bold-34"/>
      </g>
     </g>
    </g>
    <g id="ytick_4">
     <g id="line2d_10">
      <g>
       <use style="stroke:#000000;stroke-width:2.8;" x="45" xlink:href="#m5d53ce5485" y="113.629091"/>
      </g>
     </g>
     <g id="text_11">
      <!-- 0.6 -->
      <g transform="translate(16.743125 118.188153)scale(0.12 -0.12)">
       <use xlink:href="#DejaVuSans-Bold-30"/>
       <use x="69.580078" xlink:href="#DejaVuSans-Bold-2e"/>
       <use x="107.568359" xlink:href="#DejaVuSans-Bold-36"/>
      </g>
     </g>
    </g>
    <g id="ytick_5">
     <g id="line2d_11">
      <g>
       <use style="stroke:#000000;stroke-width:2.8;" x="45" xlink:href="#m5d53ce5485" y="74.094545"/>
      </g>
     </g>
     <g id="text_12">
      <!-- 0.8 -->
      <g transform="translate(16.743125 78.653608)scale(0.12 -0.12)">
       <use xlink:href="#DejaVuSans-Bold-30"/>
       <use x="69.580078" xlink:href="#DejaVuSans-Bold-2e"/>
       <use x="107.568359" xlink:href="#DejaVuSans-Bold-38"/>
      </g>
     </g>
    </g>
    <g id="ytick_6">
     <g id="line2d_12">
      <g>
       <use style="stroke:#000000;stroke-width:2.8;" x="45" xlink:href="#m5d53ce5485" y="34.56"/>
      </g>
     </g>
     <g id="text_13">
      <!-- 1.0 -->
      <g transform="translate(16.743125 39.119062)scale(0.12 -0.12)">
       <use xlink:href="#DejaVuSans-Bold-31"/>
       <use x="69.580078" xlink:href="#DejaVuSans-Bold-2e"/>
       <use x="107.568359" xlink:href="#DejaVuSans-Bold-30"/>
      </g>
     </g>
    </g>
    <g id="text_14">
     <!-- CDF -->
     <g transform="translate(6.2475 156.763125)rotate(-90)scale(0.12 -0.12)">
      <defs>
       <path d="M 4288 256 
Q 3956 84 3597 -3 
Q 3238 -91 2847 -91 
Q 1681 -91 1000 561 
Q 319 1213 319 2328 
Q 319 3447 1000 4098 
Q 1681 4750 2847 4750 
Q 3238 4750 3597 4662 
Q 3956 4575 4288 4403 
L 4288 3438 
Q 3953 3666 3628 3772 
Q 3303 3878 2944 3878 
Q 2300 3878 1931 3465 
Q 1563 3053 1563 2328 
Q 1563 1606 1931 1193 
Q 2300 781 2944 781 
Q 3303 781 3628 887 
Q 3953 994 4288 1222 
L 4288 256 
z
" id="DejaVuSans-Bold-43" transform="scale(0.015625)"/>
       <path d="M 1791 3756 
L 1791 909 
L 2222 909 
Q 2959 909 3348 1275 
Q 3738 1641 3738 2338 
Q 3738 3031 3350 3393 
Q 2963 3756 2222 3756 
L 1791 3756 
z
M 588 4666 
L 1856 4666 
Q 2919 4666 3439 4514 
Q 3959 4363 4331 4000 
Q 4659 3684 4818 3271 
Q 4978 2859 4978 2338 
Q 4978 1809 4818 1395 
Q 4659 981 4331 666 
Q 3956 303 3431 151 
Q 2906 0 1856 0 
L 588 0 
L 588 4666 
z
" id="DejaVuSans-Bold-44" transform="scale(0.015625)"/>
       <path d="M 588 4666 
L 3834 4666 
L 3834 3756 
L 1791 3756 
L 1791 2888 
L 3713 2888 
L 3713 1978 
L 1791 1978 
L 1791 0 
L 588 0 
L 588 4666 
z
" id="DejaVuSans-Bold-46" transform="scale(0.015625)"/>
      </defs>
      <use xlink:href="#DejaVuSans-Bold-43"/>
      <use x="73.388672" xlink:href="#DejaVuSans-Bold-44"/>
      <use x="156.396484" xlink:href="#DejaVuSans-Bold-46"/>
     </g>
    </g>
   </g>
   <g id="line2d_13">
    <path clip-path="url(#p7f058dfcca)" d="M 57.681818 220.821852 
L 60.218182 203.786846 
L 62.754545 188.907891 
L 65.290909 177.642475 
L 67.827273 168.429538 
L 70.363636 159.979411 
L 72.9 151.565629 
L 75.436364 142.813047 
L 77.972727 134.183302 
L 80.509091 126.319043 
L 83.045455 119.659887 
L 85.581818 114.151429 
L 88.118182 109.74032 
L 90.654545 106.151929 
L 93.190909 103.203133 
L 95.727273 100.745534 
L 98.263636 98.619985 
L 100.8 96.725329 
L 103.336364 95.028955 
L 105.872727 93.475475 
L 108.409091 92.038045 
L 110.945455 90.702225 
L 113.481818 89.43525 
L 116.018182 88.253673 
L 118.554545 87.115417 
L 121.090909 86.033829 
L 123.627273 85.02316 
L 126.163636 84.062486 
L 128.7 83.136046 
L 131.236364 82.260806 
L 133.772727 81.421385 
L 136.309091 80.61601 
L 138.845455 79.833256 
L 141.381818 79.05695 
L 143.918182 78.320344 
L 146.454545 77.596672 
L 148.990909 76.892755 
L 151.527273 76.195889 
L 154.063636 75.502642 
L 156.6 74.817577 
L 159.136364 74.13583 
L 161.672727 73.444205 
L 164.209091 72.765474 
L 166.745455 72.103069 
L 169.281818 71.425017 
L 171.818182 70.768116 
L 174.354545 70.114307 
L 176.890909 69.471017 
L 179.427273 68.839 
L 181.963636 68.212073 
L 184.5 67.590312 
L 187.036364 66.975525 
L 189.572727 66.370655 
L 192.109091 65.757791 
L 194.645455 65.154806 
L 197.181818 64.539944 
L 199.718182 63.938203 
L 202.254545 63.331485 
L 204.790909 62.727368 
L 207.327273 62.121027 
L 209.863636 61.528486 
L 212.4 60.933003 
L 214.936364 60.348379 
L 217.472727 59.776084 
L 220.009091 59.214949 
L 222.545455 58.660035 
L 225.081818 58.106818 
L 227.618182 57.572905 
L 230.154545 57.050491 
L 232.690909 56.543988 
L 235.227273 56.032093 
L 237.763636 55.523931 
L 240.3 55.027268 
L 242.836364 54.528984 
L 245.372727 54.042388 
L 247.909091 53.557979 
L 250.445455 53.082355 
L 252.981818 52.608389 
L 255.518182 52.13974 
L 258.054545 51.678895 
L 260.590909 51.228871 
L 263.127273 50.780355 
L 265.663636 50.340813 
L 268.2 49.91179 
L 270.736364 49.50026 
L 273.272727 49.090164 
L 275.809091 48.698618 
L 278.345455 48.318231 
L 280.881818 47.944518 
L 283.418182 47.590788 
L 285.954545 47.242261 
L 288.490909 46.907947 
L 291.027273 46.580383 
L 293.563636 46.260849 
L 296.1 45.949384 
L 298.636364 45.644216 
L 301.172727 45.344099 
L 303.709091 45.044284 
L 306.245455 44.747108 
L 308.781818 34.56 
L 311.318182 34.56 
" style="fill:none;stroke:#073b4c;stroke-linecap:square;stroke-width:1.5;"/>
   </g>
   <g id="line2d_14">
    <path clip-path="url(#p7f058dfcca)" d="M 57.681818 220.88772 
L 60.218182 204.161879 
L 62.754545 188.908268 
L 65.290909 177.468475 
L 67.827273 168.101371 
L 70.363636 159.671678 
L 72.9 151.365501 
L 75.436364 142.804489 
L 77.972727 134.160303 
L 80.509091 126.253326 
L 83.045455 119.5369 
L 85.581818 114.074854 
L 88.118182 109.664914 
L 90.654545 106.032561 
L 93.190909 103.090401 
L 95.727273 100.623715 
L 98.263636 98.51042 
L 100.8 96.608035 
L 103.336364 94.942162 
L 105.872727 93.403424 
L 108.409091 91.975043 
L 110.945455 90.631305 
L 113.481818 89.368931 
L 116.018182 88.184526 
L 118.554545 87.06105 
L 121.090909 85.996239 
L 123.627273 84.973882 
L 126.163636 84.015018 
L 128.7 83.094195 
L 131.236364 82.222613 
L 133.772727 81.37222 
L 136.309091 80.566505 
L 138.845455 79.787371 
L 141.381818 79.027617 
L 143.918182 78.282943 
L 146.454545 77.562965 
L 148.990909 76.858407 
L 151.527273 76.160297 
L 154.063636 75.466447 
L 156.6 74.773163 
L 159.136364 74.08987 
L 161.672727 73.412421 
L 164.209091 72.747452 
L 166.745455 72.070003 
L 169.281818 71.398775 
L 171.818182 70.739461 
L 174.354545 70.085992 
L 176.890909 69.427884 
L 179.427273 68.791984 
L 181.963636 68.163926 
L 184.5 67.533229 
L 187.036364 66.922816 
L 189.572727 66.304071 
L 192.109091 65.691924 
L 194.645455 65.08547 
L 197.181818 64.478375 
L 199.718182 63.859969 
L 202.254545 63.255852 
L 204.790909 62.660483 
L 207.327273 62.057837 
L 209.863636 61.457604 
L 212.4 60.872791 
L 214.936364 60.292767 
L 217.472727 59.718926 
L 220.009091 59.15666 
L 222.545455 58.582669 
L 225.081818 58.031864 
L 227.618182 57.486075 
L 230.154545 56.963774 
L 232.690909 56.439965 
L 235.227273 55.932255 
L 237.763636 55.428127 
L 240.3 54.927204 
L 242.836364 54.433558 
L 245.372727 53.95307 
L 247.909091 53.474881 
L 250.445455 53.003329 
L 252.981818 52.541768 
L 255.518182 52.082695 
L 258.054545 51.639759 
L 260.590909 51.204477 
L 263.127273 50.777 
L 265.663636 50.35416 
L 268.2 49.940255 
L 270.736364 49.540791 
L 273.272727 49.157539 
L 275.809091 48.773534 
L 278.345455 48.397144 
L 280.881818 48.036288 
L 283.418182 47.685385 
L 285.954545 47.343795 
L 288.490909 47.009142 
L 291.027273 46.677431 
L 293.563636 46.353033 
L 296.1 46.034141 
L 298.636364 45.716002 
L 301.172727 45.394093 
L 303.709091 45.079574 
L 306.245455 44.76547 
L 308.781818 34.56 
L 311.318182 34.56 
" style="fill:none;stroke:#ef476f;stroke-dasharray:5.55,2.4;stroke-dashoffset:0;stroke-width:1.5;"/>
   </g>
   <g id="patch_3">
    <path d="M 45 252 
L 45 34.56 
" style="fill:none;stroke:#000000;stroke-linecap:square;stroke-linejoin:miter;stroke-width:2.8;"/>
   </g>
   <g id="patch_4">
    <path d="M 324 252 
L 324 34.56 
" style="fill:none;stroke:#000000;stroke-linecap:square;stroke-linejoin:miter;stroke-width:2.8;"/>
   </g>
   <g id="patch_5">
    <path d="M 45 252 
L 324 252 
" style="fill:none;stroke:#000000;stroke-linecap:square;stroke-linejoin:miter;stroke-width:2.8;"/>
   </g>
   <g id="patch_6">
    <path d="M 45 34.56 
L 324 34.56 
" style="fill:none;stroke:#000000;stroke-linecap:square;stroke-linejoin:miter;stroke-width:2.8;"/>
   </g>
   <g id="legend_1">
    <g id="patch_7">
     <path d="M 78.451875 246 
L 315.6 246 
Q 318 246 318 243.6 
L 318 209.47875 
Q 318 207.07875 315.6 207.07875 
L 78.451875 207.07875 
Q 76.051875 207.07875 76.051875 209.47875 
L 76.051875 243.6 
Q 76.051875 246 78.451875 246 
z
" style="fill:#ffffff;opacity:0.8;stroke:#cccccc;stroke-linejoin:miter;"/>
    </g>
    <g id="line2d_15">
     <path d="M 80.851875 216.796875 
L 104.851875 216.796875 
" style="fill:none;stroke:#073b4c;stroke-linecap:square;stroke-width:1.5;"/>
    </g>
    <g id="line2d_16"/>
    <g id="text_15">
     <!-- Original Video (20 Frames) -->
     <g transform="translate(114.451875 220.996875)scale(0.12 -0.12)">
      <defs>
       <path d="M 2719 3878 
Q 2169 3878 1866 3472 
Q 1563 3066 1563 2328 
Q 1563 1594 1866 1187 
Q 2169 781 2719 781 
Q 3272 781 3575 1187 
Q 3878 1594 3878 2328 
Q 3878 3066 3575 3472 
Q 3272 3878 2719 3878 
z
M 2719 4750 
Q 3844 4750 4481 4106 
Q 5119 3463 5119 2328 
Q 5119 1197 4481 553 
Q 3844 -91 2719 -91 
Q 1597 -91 958 553 
Q 319 1197 319 2328 
Q 319 3463 958 4106 
Q 1597 4750 2719 4750 
z
" id="DejaVuSans-Bold-4f" transform="scale(0.015625)"/>
       <path d="M 2919 594 
Q 2688 288 2409 144 
Q 2131 0 1766 0 
Q 1125 0 706 504 
Q 288 1009 288 1791 
Q 288 2575 706 3076 
Q 1125 3578 1766 3578 
Q 2131 3578 2409 3434 
Q 2688 3291 2919 2981 
L 2919 3500 
L 4044 3500 
L 4044 353 
Q 4044 -491 3511 -936 
Q 2978 -1381 1966 -1381 
Q 1638 -1381 1331 -1331 
Q 1025 -1281 716 -1178 
L 716 -306 
Q 1009 -475 1290 -558 
Q 1572 -641 1856 -641 
Q 2406 -641 2662 -400 
Q 2919 -159 2919 353 
L 2919 594 
z
M 2181 2772 
Q 1834 2772 1640 2515 
Q 1447 2259 1447 1791 
Q 1447 1309 1634 1061 
Q 1822 813 2181 813 
Q 2531 813 2725 1069 
Q 2919 1325 2919 1791 
Q 2919 2259 2725 2515 
Q 2531 2772 2181 2772 
z
" id="DejaVuSans-Bold-67" transform="scale(0.015625)"/>
       <path d="M 4056 2131 
L 4056 0 
L 2931 0 
L 2931 347 
L 2931 1631 
Q 2931 2084 2911 2256 
Q 2891 2428 2841 2509 
Q 2775 2619 2662 2680 
Q 2550 2741 2406 2741 
Q 2056 2741 1856 2470 
Q 1656 2200 1656 1722 
L 1656 0 
L 538 0 
L 538 3500 
L 1656 3500 
L 1656 2988 
Q 1909 3294 2193 3439 
Q 2478 3584 2822 3584 
Q 3428 3584 3742 3212 
Q 4056 2841 4056 2131 
z
" id="DejaVuSans-Bold-6e" transform="scale(0.015625)"/>
       <path d="M 31 4666 
L 1241 4666 
L 2478 1222 
L 3713 4666 
L 4922 4666 
L 3194 0 
L 1759 0 
L 31 4666 
z
" id="DejaVuSans-Bold-56" transform="scale(0.015625)"/>
       <path d="M 2413 -844 
L 1484 -844 
Q 1006 -72 778 623 
Q 550 1319 550 2003 
Q 550 2688 779 3389 
Q 1009 4091 1484 4856 
L 2413 4856 
Q 2013 4116 1813 3408 
Q 1613 2700 1613 2009 
Q 1613 1319 1811 609 
Q 2009 -100 2413 -844 
z
" id="DejaVuSans-Bold-28" transform="scale(0.015625)"/>
       <path d="M 3272 3391 
L 3272 2541 
Q 2913 2691 2578 2766 
Q 2244 2841 1947 2841 
Q 1628 2841 1473 2761 
Q 1319 2681 1319 2516 
Q 1319 2381 1436 2309 
Q 1553 2238 1856 2203 
L 2053 2175 
Q 2913 2066 3209 1816 
Q 3506 1566 3506 1031 
Q 3506 472 3093 190 
Q 2681 -91 1863 -91 
Q 1516 -91 1145 -36 
Q 775 19 384 128 
L 384 978 
Q 719 816 1070 734 
Q 1422 653 1784 653 
Q 2113 653 2278 743 
Q 2444 834 2444 1013 
Q 2444 1163 2330 1236 
Q 2216 1309 1875 1350 
L 1678 1375 
Q 931 1469 631 1722 
Q 331 1975 331 2491 
Q 331 3047 712 3315 
Q 1094 3584 1881 3584 
Q 2191 3584 2531 3537 
Q 2872 3491 3272 3391 
z
" id="DejaVuSans-Bold-73" transform="scale(0.015625)"/>
       <path d="M 513 -844 
Q 913 -100 1113 609 
Q 1313 1319 1313 2009 
Q 1313 2700 1113 3408 
Q 913 4116 513 4856 
L 1441 4856 
Q 1916 4091 2145 3389 
Q 2375 2688 2375 2003 
Q 2375 1319 2147 623 
Q 1919 -72 1441 -844 
L 513 -844 
z
" id="DejaVuSans-Bold-29" transform="scale(0.015625)"/>
      </defs>
      <use xlink:href="#DejaVuSans-Bold-4f"/>
      <use x="85.009766" xlink:href="#DejaVuSans-Bold-72"/>
      <use x="134.326172" xlink:href="#DejaVuSans-Bold-69"/>
      <use x="168.603516" xlink:href="#DejaVuSans-Bold-67"/>
      <use x="240.185547" xlink:href="#DejaVuSans-Bold-69"/>
      <use x="274.462891" xlink:href="#DejaVuSans-Bold-6e"/>
      <use x="345.654297" xlink:href="#DejaVuSans-Bold-61"/>
      <use x="413.134766" xlink:href="#DejaVuSans-Bold-6c"/>
      <use x="447.412109" xlink:href="#DejaVuSans-Bold-20"/>
      <use x="482.226562" xlink:href="#DejaVuSans-Bold-56"/>
      <use x="557.869141" xlink:href="#DejaVuSans-Bold-69"/>
      <use x="592.146484" xlink:href="#DejaVuSans-Bold-64"/>
      <use x="663.728516" xlink:href="#DejaVuSans-Bold-65"/>
      <use x="731.550781" xlink:href="#DejaVuSans-Bold-6f"/>
      <use x="800.251953" xlink:href="#DejaVuSans-Bold-20"/>
      <use x="835.066406" xlink:href="#DejaVuSans-Bold-28"/>
      <use x="880.769531" xlink:href="#DejaVuSans-Bold-32"/>
      <use x="950.349609" xlink:href="#DejaVuSans-Bold-30"/>
      <use x="1019.929688" xlink:href="#DejaVuSans-Bold-20"/>
      <use x="1054.744141" xlink:href="#DejaVuSans-Bold-46"/>
      <use x="1116.679688" xlink:href="#DejaVuSans-Bold-72"/>
      <use x="1165.996094" xlink:href="#DejaVuSans-Bold-61"/>
      <use x="1233.476562" xlink:href="#DejaVuSans-Bold-6d"/>
      <use x="1337.675781" xlink:href="#DejaVuSans-Bold-65"/>
      <use x="1405.498047" xlink:href="#DejaVuSans-Bold-73"/>
      <use x="1465.019531" xlink:href="#DejaVuSans-Bold-29"/>
     </g>
    </g>
    <g id="line2d_17">
     <path d="M 80.851875 234.504375 
L 104.851875 234.504375 
" style="fill:none;stroke:#ef476f;stroke-dasharray:5.55,2.4;stroke-dashoffset:0;stroke-width:1.5;"/>
    </g>
    <g id="line2d_18"/>
    <g id="text_16">
     <!-- Generated Video (20 Frames) -->
     <g transform="translate(114.451875 238.704375)scale(0.12 -0.12)">
      <defs>
       <path d="M 4781 347 
Q 4331 128 3847 18 
Q 3363 -91 2847 -91 
Q 1681 -91 1000 561 
Q 319 1213 319 2328 
Q 319 3456 1012 4103 
Q 1706 4750 2913 4750 
Q 3378 4750 3804 4662 
Q 4231 4575 4609 4403 
L 4609 3438 
Q 4219 3659 3833 3768 
Q 3447 3878 3059 3878 
Q 2341 3878 1952 3476 
Q 1563 3075 1563 2328 
Q 1563 1588 1938 1184 
Q 2313 781 3003 781 
Q 3191 781 3352 804 
Q 3513 828 3641 878 
L 3641 1784 
L 2906 1784 
L 2906 2591 
L 4781 2591 
L 4781 347 
z
" id="DejaVuSans-Bold-47" transform="scale(0.015625)"/>
       <path d="M 1759 4494 
L 1759 3500 
L 2913 3500 
L 2913 2700 
L 1759 2700 
L 1759 1216 
Q 1759 972 1856 886 
Q 1953 800 2241 800 
L 2816 800 
L 2816 0 
L 1856 0 
Q 1194 0 917 276 
Q 641 553 641 1216 
L 641 2700 
L 84 2700 
L 84 3500 
L 641 3500 
L 641 4494 
L 1759 4494 
z
" id="DejaVuSans-Bold-74" transform="scale(0.015625)"/>
      </defs>
      <use xlink:href="#DejaVuSans-Bold-47"/>
      <use x="82.080078" xlink:href="#DejaVuSans-Bold-65"/>
      <use x="149.902344" xlink:href="#DejaVuSans-Bold-6e"/>
      <use x="221.09375" xlink:href="#DejaVuSans-Bold-65"/>
      <use x="288.916016" xlink:href="#DejaVuSans-Bold-72"/>
      <use x="338.232422" xlink:href="#DejaVuSans-Bold-61"/>
      <use x="405.712891" xlink:href="#DejaVuSans-Bold-74"/>
      <use x="453.515625" xlink:href="#DejaVuSans-Bold-65"/>
      <use x="521.337891" xlink:href="#DejaVuSans-Bold-64"/>
      <use x="592.919922" xlink:href="#DejaVuSans-Bold-20"/>
      <use x="627.734375" xlink:href="#DejaVuSans-Bold-56"/>
      <use x="703.376953" xlink:href="#DejaVuSans-Bold-69"/>
      <use x="737.654297" xlink:href="#DejaVuSans-Bold-64"/>
      <use x="809.236328" xlink:href="#DejaVuSans-Bold-65"/>
      <use x="877.058594" xlink:href="#DejaVuSans-Bold-6f"/>
      <use x="945.759766" xlink:href="#DejaVuSans-Bold-20"/>
      <use x="980.574219" xlink:href="#DejaVuSans-Bold-28"/>
      <use x="1026.277344" xlink:href="#DejaVuSans-Bold-32"/>
      <use x="1095.857422" xlink:href="#DejaVuSans-Bold-30"/>
      <use x="1165.4375" xlink:href="#DejaVuSans-Bold-20"/>
      <use x="1200.251953" xlink:href="#DejaVuSans-Bold-46"/>
      <use x="1262.1875" xlink:href="#DejaVuSans-Bold-72"/>
      <use x="1311.503906" xlink:href="#DejaVuSans-Bold-61"/>
      <use x="1378.984375" xlink:href="#DejaVuSans-Bold-6d"/>
      <use x="1483.183594" xlink:href="#DejaVuSans-Bold-65"/>
      <use x="1551.005859" xlink:href="#DejaVuSans-Bold-73"/>
      <use x="1610.527344" xlink:href="#DejaVuSans-Bold-29"/>
     </g>
    </g>
   </g>
  </g>
 </g>
 <defs>
  <clipPath id="p7f058dfcca">
   <rect height="217.44" width="279" x="45" y="34.56"/>
  </clipPath>
 </defs>
</svg>
