<?xml version="1.0" encoding="utf-8" standalone="no"?>
<!DOCTYPE svg PUBLIC "-//W3C//DTD SVG 1.1//EN"
  "http://www.w3.org/Graphics/SVG/1.1/DTD/svg11.dtd">
<!-- Created with matplotlib (https://matplotlib.org/) -->
<svg height="216pt" version="1.1" viewBox="0 0 720 216" width="720pt" xmlns="http://www.w3.org/2000/svg" xmlns:xlink="http://www.w3.org/1999/xlink">
 <defs>
  <style type="text/css">
*{stroke-linecap:butt;stroke-linejoin:round;}
  </style>
 </defs>
 <g id="figure_1">
  <g id="patch_1">
   <path d="M 0 216 
L 720 216 
L 720 0 
L 0 0 
z
" style="fill:#ffffff;"/>
  </g>
  <g id="axes_1">
   <g id="patch_2">
    <path d="M 90 189 
L 648 189 
L 648 25.92 
L 90 25.92 
z
" style="fill:#ffffff;"/>
   </g>
   <g id="matplotlib.axis_1">
    <g id="xtick_1">
     <g id="line2d_1">
      <defs>
       <path d="M 0 0 
L 0 3.5 
" id="m0a592c9831" style="stroke:#000000;stroke-width:2.8;"/>
      </defs>
      <g>
       <use style="stroke:#000000;stroke-width:2.8;" x="115.363636" xlink:href="#m0a592c9831" y="189"/>
      </g>
     </g>
     <g id="text_1">
      <!-- 0 -->
      <defs>
       <path d="M 46 36.53125 
Q 46 50.203125 43.4375 55.78125 
Q 40.875 61.375 34.8125 61.375 
Q 28.765625 61.375 26.171875 55.78125 
Q 23.578125 50.203125 23.578125 36.53125 
Q 23.578125 22.703125 26.171875 17.03125 
Q 28.765625 11.375 34.8125 11.375 
Q 40.828125 11.375 43.40625 17.03125 
Q 46 22.703125 46 36.53125 
z
M 64.796875 36.375 
Q 64.796875 18.265625 56.984375 8.421875 
Q 49.171875 -1.421875 34.8125 -1.421875 
Q 20.40625 -1.421875 12.59375 8.421875 
Q 4.78125 18.265625 4.78125 36.375 
Q 4.78125 54.546875 12.59375 64.375 
Q 20.40625 74.21875 34.8125 74.21875 
Q 49.171875 74.21875 56.984375 64.375 
Q 64.796875 54.546875 64.796875 36.375 
z
" id="DejaVuSans-Bold-48"/>
      </defs>
      <g transform="translate(111.188949 205.118125)scale(0.12 -0.12)">
       <use xlink:href="#DejaVuSans-Bold-48"/>
      </g>
     </g>
    </g>
    <g id="xtick_2">
     <g id="line2d_2">
      <g>
       <use style="stroke:#000000;stroke-width:2.8;" x="195.249105" xlink:href="#m0a592c9831" y="189"/>
      </g>
     </g>
     <g id="text_2">
      <!-- 20 -->
      <defs>
       <path d="M 28.8125 13.8125 
L 60.890625 13.8125 
L 60.890625 0 
L 7.90625 0 
L 7.90625 13.8125 
L 34.515625 37.3125 
Q 38.09375 40.53125 39.796875 43.609375 
Q 41.5 46.6875 41.5 50 
Q 41.5 55.125 38.0625 58.25 
Q 34.625 61.375 28.90625 61.375 
Q 24.515625 61.375 19.28125 59.5 
Q 14.0625 57.625 8.109375 53.90625 
L 8.109375 69.921875 
Q 14.453125 72.015625 20.65625 73.109375 
Q 26.859375 74.21875 32.8125 74.21875 
Q 45.90625 74.21875 53.15625 68.453125 
Q 60.40625 62.703125 60.40625 52.390625 
Q 60.40625 46.4375 57.328125 41.28125 
Q 54.25 36.140625 44.390625 27.484375 
z
" id="DejaVuSans-Bold-50"/>
      </defs>
      <g transform="translate(186.89973 205.118125)scale(0.12 -0.12)">
       <use xlink:href="#DejaVuSans-Bold-50"/>
       <use x="69.580078" xlink:href="#DejaVuSans-Bold-48"/>
      </g>
     </g>
    </g>
    <g id="xtick_3">
     <g id="line2d_3">
      <g>
       <use style="stroke:#000000;stroke-width:2.8;" x="275.134574" xlink:href="#m0a592c9831" y="189"/>
      </g>
     </g>
     <g id="text_3">
      <!-- 40 -->
      <defs>
       <path d="M 36.8125 57.421875 
L 16.21875 26.90625 
L 36.8125 26.90625 
z
M 33.6875 72.90625 
L 54.59375 72.90625 
L 54.59375 26.90625 
L 64.984375 26.90625 
L 64.984375 13.28125 
L 54.59375 13.28125 
L 54.59375 0 
L 36.8125 0 
L 36.8125 13.28125 
L 4.5 13.28125 
L 4.5 29.390625 
z
" id="DejaVuSans-Bold-52"/>
      </defs>
      <g transform="translate(266.785199 205.118125)scale(0.12 -0.12)">
       <use xlink:href="#DejaVuSans-Bold-52"/>
       <use x="69.580078" xlink:href="#DejaVuSans-Bold-48"/>
      </g>
     </g>
    </g>
    <g id="xtick_4">
     <g id="line2d_4">
      <g>
       <use style="stroke:#000000;stroke-width:2.8;" x="355.020043" xlink:href="#m0a592c9831" y="189"/>
      </g>
     </g>
     <g id="text_4">
      <!-- 60 -->
      <defs>
       <path d="M 36.1875 35.984375 
Q 31.25 35.984375 28.78125 32.78125 
Q 26.3125 29.59375 26.3125 23.1875 
Q 26.3125 16.796875 28.78125 13.59375 
Q 31.25 10.40625 36.1875 10.40625 
Q 41.15625 10.40625 43.625 13.59375 
Q 46.09375 16.796875 46.09375 23.1875 
Q 46.09375 29.59375 43.625 32.78125 
Q 41.15625 35.984375 36.1875 35.984375 
z
M 59.421875 71 
L 59.421875 57.515625 
Q 54.78125 59.71875 50.671875 60.765625 
Q 46.578125 61.8125 42.671875 61.8125 
Q 34.28125 61.8125 29.59375 57.140625 
Q 24.90625 52.484375 24.125 43.3125 
Q 27.34375 45.703125 31.09375 46.890625 
Q 34.859375 48.09375 39.3125 48.09375 
Q 50.484375 48.09375 57.34375 41.546875 
Q 64.203125 35.015625 64.203125 24.421875 
Q 64.203125 12.703125 56.53125 5.640625 
Q 48.875 -1.421875 35.984375 -1.421875 
Q 21.78125 -1.421875 13.984375 8.171875 
Q 6.203125 17.78125 6.203125 35.40625 
Q 6.203125 53.46875 15.3125 63.796875 
Q 24.421875 74.125 40.28125 74.125 
Q 45.3125 74.125 50.046875 73.34375 
Q 54.78125 72.5625 59.421875 71 
z
" id="DejaVuSans-Bold-54"/>
      </defs>
      <g transform="translate(346.670668 205.118125)scale(0.12 -0.12)">
       <use xlink:href="#DejaVuSans-Bold-54"/>
       <use x="69.580078" xlink:href="#DejaVuSans-Bold-48"/>
      </g>
     </g>
    </g>
    <g id="xtick_5">
     <g id="line2d_5">
      <g>
       <use style="stroke:#000000;stroke-width:2.8;" x="434.905512" xlink:href="#m0a592c9831" y="189"/>
      </g>
     </g>
     <g id="text_5">
      <!-- 80 -->
      <defs>
       <path d="M 34.8125 32.625 
Q 29.546875 32.625 26.703125 29.734375 
Q 23.875 26.859375 23.875 21.484375 
Q 23.875 16.109375 26.703125 13.25 
Q 29.546875 10.40625 34.8125 10.40625 
Q 40.046875 10.40625 42.828125 13.25 
Q 45.609375 16.109375 45.609375 21.484375 
Q 45.609375 26.90625 42.828125 29.765625 
Q 40.046875 32.625 34.8125 32.625 
z
M 21.09375 38.8125 
Q 14.453125 40.828125 11.078125 44.96875 
Q 7.71875 49.125 7.71875 55.328125 
Q 7.71875 64.546875 14.59375 69.375 
Q 21.484375 74.21875 34.8125 74.21875 
Q 48.046875 74.21875 54.921875 69.40625 
Q 61.8125 64.59375 61.8125 55.328125 
Q 61.8125 49.125 58.421875 44.96875 
Q 55.03125 40.828125 48.390625 38.8125 
Q 55.8125 36.765625 59.59375 32.15625 
Q 63.375 27.546875 63.375 20.515625 
Q 63.375 9.671875 56.171875 4.125 
Q 48.96875 -1.421875 34.8125 -1.421875 
Q 20.609375 -1.421875 13.359375 4.125 
Q 6.109375 9.671875 6.109375 20.515625 
Q 6.109375 27.546875 9.890625 32.15625 
Q 13.671875 36.765625 21.09375 38.8125 
z
M 25.484375 53.421875 
Q 25.484375 49.078125 27.90625 46.734375 
Q 30.328125 44.390625 34.8125 44.390625 
Q 39.203125 44.390625 41.59375 46.734375 
Q 44 49.078125 44 53.421875 
Q 44 57.765625 41.59375 60.078125 
Q 39.203125 62.40625 34.8125 62.40625 
Q 30.328125 62.40625 27.90625 60.0625 
Q 25.484375 57.71875 25.484375 53.421875 
z
" id="DejaVuSans-Bold-56"/>
      </defs>
      <g transform="translate(426.556137 205.118125)scale(0.12 -0.12)">
       <use xlink:href="#DejaVuSans-Bold-56"/>
       <use x="69.580078" xlink:href="#DejaVuSans-Bold-48"/>
      </g>
     </g>
    </g>
    <g id="xtick_6">
     <g id="line2d_6">
      <g>
       <use style="stroke:#000000;stroke-width:2.8;" x="514.790981" xlink:href="#m0a592c9831" y="189"/>
      </g>
     </g>
     <g id="text_6">
      <!-- 100 -->
      <defs>
       <path d="M 11.71875 12.984375 
L 28.328125 12.984375 
L 28.328125 60.109375 
L 11.28125 56.59375 
L 11.28125 69.390625 
L 28.21875 72.90625 
L 46.09375 72.90625 
L 46.09375 12.984375 
L 62.703125 12.984375 
L 62.703125 0 
L 11.71875 0 
z
" id="DejaVuSans-Bold-49"/>
      </defs>
      <g transform="translate(502.266918 205.118125)scale(0.12 -0.12)">
       <use xlink:href="#DejaVuSans-Bold-49"/>
       <use x="69.580078" xlink:href="#DejaVuSans-Bold-48"/>
       <use x="139.160156" xlink:href="#DejaVuSans-Bold-48"/>
      </g>
     </g>
    </g>
    <g id="xtick_7">
     <g id="line2d_7">
      <g>
       <use style="stroke:#000000;stroke-width:2.8;" x="594.67645" xlink:href="#m0a592c9831" y="189"/>
      </g>
     </g>
     <g id="text_7">
      <!-- 120 -->
      <g transform="translate(582.152387 205.118125)scale(0.12 -0.12)">
       <use xlink:href="#DejaVuSans-Bold-49"/>
       <use x="69.580078" xlink:href="#DejaVuSans-Bold-50"/>
       <use x="139.160156" xlink:href="#DejaVuSans-Bold-48"/>
      </g>
     </g>
    </g>
    <g id="text_8">
     <!-- Time (10s frame rate) -->
     <defs>
      <path d="M 0.484375 72.90625 
L 67.671875 72.90625 
L 67.671875 58.6875 
L 43.5 58.6875 
L 43.5 0 
L 24.703125 0 
L 24.703125 58.6875 
L 0.484375 58.6875 
z
" id="DejaVuSans-Bold-84"/>
      <path d="M 8.40625 54.6875 
L 25.875 54.6875 
L 25.875 0 
L 8.40625 0 
z
M 8.40625 75.984375 
L 25.875 75.984375 
L 25.875 61.71875 
L 8.40625 61.71875 
z
" id="DejaVuSans-Bold-105"/>
      <path d="M 59.078125 45.609375 
Q 62.40625 50.6875 66.96875 53.34375 
Q 71.53125 56 77 56 
Q 86.421875 56 91.359375 50.1875 
Q 96.296875 44.390625 96.296875 33.296875 
L 96.296875 0 
L 78.71875 0 
L 78.71875 28.515625 
Q 78.765625 29.15625 78.78125 29.828125 
Q 78.8125 30.515625 78.8125 31.78125 
Q 78.8125 37.59375 77.09375 40.203125 
Q 75.390625 42.828125 71.578125 42.828125 
Q 66.609375 42.828125 63.890625 38.71875 
Q 61.1875 34.625 61.078125 26.859375 
L 61.078125 0 
L 43.5 0 
L 43.5 28.515625 
Q 43.5 37.59375 41.9375 40.203125 
Q 40.375 42.828125 36.375 42.828125 
Q 31.34375 42.828125 28.609375 38.703125 
Q 25.875 34.578125 25.875 26.90625 
L 25.875 0 
L 8.296875 0 
L 8.296875 54.6875 
L 25.875 54.6875 
L 25.875 46.6875 
Q 29.109375 51.3125 33.28125 53.65625 
Q 37.453125 56 42.484375 56 
Q 48.140625 56 52.484375 53.265625 
Q 56.84375 50.53125 59.078125 45.609375 
z
" id="DejaVuSans-Bold-109"/>
      <path d="M 62.984375 27.484375 
L 62.984375 22.515625 
L 22.125 22.515625 
Q 22.75 16.359375 26.5625 13.28125 
Q 30.375 10.203125 37.203125 10.203125 
Q 42.71875 10.203125 48.5 11.84375 
Q 54.296875 13.484375 60.40625 16.796875 
L 60.40625 3.328125 
Q 54.203125 0.984375 48 -0.21875 
Q 41.796875 -1.421875 35.59375 -1.421875 
Q 20.75 -1.421875 12.515625 6.125 
Q 4.296875 13.671875 4.296875 27.296875 
Q 4.296875 40.671875 12.375 48.328125 
Q 20.453125 56 34.625 56 
Q 47.515625 56 55.25 48.234375 
Q 62.984375 40.484375 62.984375 27.484375 
z
M 45.015625 33.296875 
Q 45.015625 38.28125 42.109375 41.328125 
Q 39.203125 44.390625 34.515625 44.390625 
Q 29.4375 44.390625 26.265625 41.53125 
Q 23.09375 38.671875 22.3125 33.296875 
z
" id="DejaVuSans-Bold-101"/>
      <path id="DejaVuSans-Bold-32"/>
      <path d="M 37.703125 -13.1875 
L 23.1875 -13.1875 
Q 15.71875 -1.125 12.15625 9.734375 
Q 8.59375 20.609375 8.59375 31.296875 
Q 8.59375 42 12.171875 52.953125 
Q 15.765625 63.921875 23.1875 75.875 
L 37.703125 75.875 
Q 31.453125 64.3125 28.328125 53.25 
Q 25.203125 42.1875 25.203125 31.390625 
Q 25.203125 20.609375 28.296875 9.515625 
Q 31.390625 -1.5625 37.703125 -13.1875 
z
" id="DejaVuSans-Bold-40"/>
      <path d="M 51.125 52.984375 
L 51.125 39.703125 
Q 45.515625 42.046875 40.28125 43.21875 
Q 35.0625 44.390625 30.421875 44.390625 
Q 25.4375 44.390625 23.015625 43.140625 
Q 20.609375 41.890625 20.609375 39.3125 
Q 20.609375 37.203125 22.4375 36.078125 
Q 24.265625 34.96875 29 34.421875 
L 32.078125 33.984375 
Q 45.515625 32.28125 50.140625 28.375 
Q 54.78125 24.46875 54.78125 16.109375 
Q 54.78125 7.375 48.328125 2.96875 
Q 41.890625 -1.421875 29.109375 -1.421875 
Q 23.6875 -1.421875 17.890625 -0.5625 
Q 12.109375 0.296875 6 2 
L 6 15.28125 
Q 11.234375 12.75 16.71875 11.46875 
Q 22.21875 10.203125 27.875 10.203125 
Q 33.015625 10.203125 35.59375 11.609375 
Q 38.1875 13.03125 38.1875 15.828125 
Q 38.1875 18.171875 36.40625 19.3125 
Q 34.625 20.453125 29.296875 21.09375 
L 26.21875 21.484375 
Q 14.546875 22.953125 9.859375 26.90625 
Q 5.171875 30.859375 5.171875 38.921875 
Q 5.171875 47.609375 11.125 51.796875 
Q 17.09375 56 29.390625 56 
Q 34.234375 56 39.546875 55.265625 
Q 44.875 54.546875 51.125 52.984375 
z
" id="DejaVuSans-Bold-115"/>
      <path d="M 44.390625 75.984375 
L 44.390625 64.5 
L 34.71875 64.5 
Q 31 64.5 29.53125 63.15625 
Q 28.078125 61.8125 28.078125 58.5 
L 28.078125 54.6875 
L 43.015625 54.6875 
L 43.015625 42.1875 
L 28.078125 42.1875 
L 28.078125 0 
L 10.59375 0 
L 10.59375 42.1875 
L 1.90625 42.1875 
L 1.90625 54.6875 
L 10.59375 54.6875 
L 10.59375 58.5 
Q 10.59375 67.4375 15.578125 71.703125 
Q 20.5625 75.984375 31 75.984375 
z
" id="DejaVuSans-Bold-102"/>
      <path d="M 49.03125 39.796875 
Q 46.734375 40.875 44.453125 41.375 
Q 42.1875 41.890625 39.890625 41.890625 
Q 33.15625 41.890625 29.515625 37.5625 
Q 25.875 33.25 25.875 25.203125 
L 25.875 0 
L 8.40625 0 
L 8.40625 54.6875 
L 25.875 54.6875 
L 25.875 45.703125 
Q 29.25 51.078125 33.609375 53.53125 
Q 37.984375 56 44.09375 56 
Q 44.96875 56 45.984375 55.921875 
Q 47.015625 55.859375 48.96875 55.609375 
z
" id="DejaVuSans-Bold-114"/>
      <path d="M 32.90625 24.609375 
Q 27.4375 24.609375 24.671875 22.75 
Q 21.921875 20.90625 21.921875 17.28125 
Q 21.921875 13.96875 24.140625 12.078125 
Q 26.375 10.203125 30.328125 10.203125 
Q 35.25 10.203125 38.625 13.734375 
Q 42 17.28125 42 22.609375 
L 42 24.609375 
z
M 59.625 31.203125 
L 59.625 0 
L 42 0 
L 42 8.109375 
Q 38.484375 3.125 34.078125 0.84375 
Q 29.6875 -1.421875 23.390625 -1.421875 
Q 14.890625 -1.421875 9.59375 3.53125 
Q 4.296875 8.5 4.296875 16.40625 
Q 4.296875 26.03125 10.90625 30.515625 
Q 17.53125 35.015625 31.6875 35.015625 
L 42 35.015625 
L 42 36.375 
Q 42 40.53125 38.71875 42.453125 
Q 35.453125 44.390625 28.515625 44.390625 
Q 22.90625 44.390625 18.0625 43.265625 
Q 13.234375 42.140625 9.078125 39.890625 
L 9.078125 53.21875 
Q 14.703125 54.59375 20.359375 55.296875 
Q 26.03125 56 31.6875 56 
Q 46.484375 56 53.046875 50.171875 
Q 59.625 44.34375 59.625 31.203125 
z
" id="DejaVuSans-Bold-97"/>
      <path d="M 27.484375 70.21875 
L 27.484375 54.6875 
L 45.515625 54.6875 
L 45.515625 42.1875 
L 27.484375 42.1875 
L 27.484375 19 
Q 27.484375 15.1875 29 13.84375 
Q 30.515625 12.5 35.015625 12.5 
L 44 12.5 
L 44 0 
L 29 0 
Q 18.65625 0 14.328125 4.3125 
Q 10.015625 8.640625 10.015625 19 
L 10.015625 42.1875 
L 1.3125 42.1875 
L 1.3125 54.6875 
L 10.015625 54.6875 
L 10.015625 70.21875 
z
" id="DejaVuSans-Bold-116"/>
      <path d="M 8.015625 -13.1875 
Q 14.265625 -1.5625 17.390625 9.515625 
Q 20.515625 20.609375 20.515625 31.390625 
Q 20.515625 42.1875 17.390625 53.25 
Q 14.265625 64.3125 8.015625 75.875 
L 22.515625 75.875 
Q 29.9375 63.921875 33.515625 52.953125 
Q 37.109375 42 37.109375 31.296875 
Q 37.109375 20.609375 33.546875 9.734375 
Q 29.984375 -1.125 22.515625 -13.1875 
z
" id="DejaVuSans-Bold-41"/>
     </defs>
     <g transform="translate(294.972188 224.731875)scale(0.12 -0.12)">
      <use xlink:href="#DejaVuSans-Bold-84"/>
      <use x="68.212891" xlink:href="#DejaVuSans-Bold-105"/>
      <use x="102.490234" xlink:href="#DejaVuSans-Bold-109"/>
      <use x="206.689453" xlink:href="#DejaVuSans-Bold-101"/>
      <use x="274.511719" xlink:href="#DejaVuSans-Bold-32"/>
      <use x="309.326172" xlink:href="#DejaVuSans-Bold-40"/>
      <use x="355.029297" xlink:href="#DejaVuSans-Bold-49"/>
      <use x="424.609375" xlink:href="#DejaVuSans-Bold-48"/>
      <use x="494.189453" xlink:href="#DejaVuSans-Bold-115"/>
      <use x="553.710938" xlink:href="#DejaVuSans-Bold-32"/>
      <use x="588.525391" xlink:href="#DejaVuSans-Bold-102"/>
      <use x="632.03125" xlink:href="#DejaVuSans-Bold-114"/>
      <use x="681.347656" xlink:href="#DejaVuSans-Bold-97"/>
      <use x="748.828125" xlink:href="#DejaVuSans-Bold-109"/>
      <use x="853.027344" xlink:href="#DejaVuSans-Bold-101"/>
      <use x="920.849609" xlink:href="#DejaVuSans-Bold-32"/>
      <use x="955.664062" xlink:href="#DejaVuSans-Bold-114"/>
      <use x="1004.980469" xlink:href="#DejaVuSans-Bold-97"/>
      <use x="1072.460938" xlink:href="#DejaVuSans-Bold-116"/>
      <use x="1120.263672" xlink:href="#DejaVuSans-Bold-101"/>
      <use x="1188.085938" xlink:href="#DejaVuSans-Bold-41"/>
     </g>
    </g>
   </g>
   <g id="matplotlib.axis_2">
    <g id="ytick_1">
     <g id="line2d_8">
      <defs>
       <path d="M 0 0 
L -3.5 0 
" id="m5b336386f4" style="stroke:#000000;stroke-width:2.8;"/>
      </defs>
      <g>
       <use style="stroke:#000000;stroke-width:2.8;" x="90" xlink:href="#m5b336386f4" y="189"/>
      </g>
     </g>
     <g id="text_9">
      <!-- 0 -->
      <g transform="translate(74.650625 193.559063)scale(0.12 -0.12)">
       <use xlink:href="#DejaVuSans-Bold-48"/>
      </g>
     </g>
    </g>
    <g id="ytick_2">
     <g id="line2d_9">
      <g>
       <use style="stroke:#000000;stroke-width:2.8;" x="90" xlink:href="#m5b336386f4" y="157.638462"/>
      </g>
     </g>
     <g id="text_10">
      <!-- 2500 -->
      <defs>
       <path d="M 10.59375 72.90625 
L 57.328125 72.90625 
L 57.328125 59.078125 
L 25.59375 59.078125 
L 25.59375 47.796875 
Q 27.734375 48.390625 29.90625 48.703125 
Q 32.078125 49.03125 34.421875 49.03125 
Q 47.75 49.03125 55.171875 42.359375 
Q 62.59375 35.6875 62.59375 23.78125 
Q 62.59375 11.96875 54.515625 5.265625 
Q 46.4375 -1.421875 32.078125 -1.421875 
Q 25.875 -1.421875 19.796875 -0.21875 
Q 13.71875 0.984375 7.71875 3.421875 
L 7.71875 18.21875 
Q 13.671875 14.796875 19.015625 13.078125 
Q 24.359375 11.375 29.109375 11.375 
Q 35.9375 11.375 39.859375 14.71875 
Q 43.796875 18.0625 43.796875 23.78125 
Q 43.796875 29.546875 39.859375 32.859375 
Q 35.9375 36.1875 29.109375 36.1875 
Q 25.046875 36.1875 20.453125 35.125 
Q 15.875 34.078125 10.59375 31.890625 
z
" id="DejaVuSans-Bold-53"/>
      </defs>
      <g transform="translate(49.6025 162.197524)scale(0.12 -0.12)">
       <use xlink:href="#DejaVuSans-Bold-50"/>
       <use x="69.580078" xlink:href="#DejaVuSans-Bold-53"/>
       <use x="139.160156" xlink:href="#DejaVuSans-Bold-48"/>
       <use x="208.740234" xlink:href="#DejaVuSans-Bold-48"/>
      </g>
     </g>
    </g>
    <g id="ytick_3">
     <g id="line2d_10">
      <g>
       <use style="stroke:#000000;stroke-width:2.8;" x="90" xlink:href="#m5b336386f4" y="126.276923"/>
      </g>
     </g>
     <g id="text_11">
      <!-- 5000 -->
      <g transform="translate(49.6025 130.835986)scale(0.12 -0.12)">
       <use xlink:href="#DejaVuSans-Bold-53"/>
       <use x="69.580078" xlink:href="#DejaVuSans-Bold-48"/>
       <use x="139.160156" xlink:href="#DejaVuSans-Bold-48"/>
       <use x="208.740234" xlink:href="#DejaVuSans-Bold-48"/>
      </g>
     </g>
    </g>
    <g id="ytick_4">
     <g id="line2d_11">
      <g>
       <use style="stroke:#000000;stroke-width:2.8;" x="90" xlink:href="#m5b336386f4" y="94.915385"/>
      </g>
     </g>
     <g id="text_12">
      <!-- 7500 -->
      <defs>
       <path d="M 6.6875 72.90625 
L 61.625 72.90625 
L 61.625 62.3125 
L 33.203125 0 
L 14.890625 0 
L 41.796875 59.078125 
L 6.6875 59.078125 
z
" id="DejaVuSans-Bold-55"/>
      </defs>
      <g transform="translate(49.6025 99.474447)scale(0.12 -0.12)">
       <use xlink:href="#DejaVuSans-Bold-55"/>
       <use x="69.580078" xlink:href="#DejaVuSans-Bold-53"/>
       <use x="139.160156" xlink:href="#DejaVuSans-Bold-48"/>
       <use x="208.740234" xlink:href="#DejaVuSans-Bold-48"/>
      </g>
     </g>
    </g>
    <g id="ytick_5">
     <g id="line2d_12">
      <g>
       <use style="stroke:#000000;stroke-width:2.8;" x="90" xlink:href="#m5b336386f4" y="63.553846"/>
      </g>
     </g>
     <g id="text_13">
      <!-- 10000 -->
      <g transform="translate(41.253125 68.112909)scale(0.12 -0.12)">
       <use xlink:href="#DejaVuSans-Bold-49"/>
       <use x="69.580078" xlink:href="#DejaVuSans-Bold-48"/>
       <use x="139.160156" xlink:href="#DejaVuSans-Bold-48"/>
       <use x="208.740234" xlink:href="#DejaVuSans-Bold-48"/>
       <use x="278.320312" xlink:href="#DejaVuSans-Bold-48"/>
      </g>
     </g>
    </g>
    <g id="ytick_6">
     <g id="line2d_13">
      <g>
       <use style="stroke:#000000;stroke-width:2.8;" x="90" xlink:href="#m5b336386f4" y="32.192308"/>
      </g>
     </g>
     <g id="text_14">
      <!-- 12500 -->
      <g transform="translate(41.253125 36.75137)scale(0.12 -0.12)">
       <use xlink:href="#DejaVuSans-Bold-49"/>
       <use x="69.580078" xlink:href="#DejaVuSans-Bold-50"/>
       <use x="139.160156" xlink:href="#DejaVuSans-Bold-53"/>
       <use x="208.740234" xlink:href="#DejaVuSans-Bold-48"/>
       <use x="278.320312" xlink:href="#DejaVuSans-Bold-48"/>
      </g>
     </g>
    </g>
    <g id="text_15">
     <!-- Intensity (simulated AU) -->
     <defs>
      <path d="M 9.1875 72.90625 
L 27.984375 72.90625 
L 27.984375 0 
L 9.1875 0 
z
" id="DejaVuSans-Bold-73"/>
      <path d="M 63.375 33.296875 
L 63.375 0 
L 45.796875 0 
L 45.796875 5.421875 
L 45.796875 25.484375 
Q 45.796875 32.5625 45.484375 35.25 
Q 45.171875 37.9375 44.390625 39.203125 
Q 43.359375 40.921875 41.59375 41.875 
Q 39.84375 42.828125 37.59375 42.828125 
Q 32.125 42.828125 29 38.59375 
Q 25.875 34.375 25.875 26.90625 
L 25.875 0 
L 8.40625 0 
L 8.40625 54.6875 
L 25.875 54.6875 
L 25.875 46.6875 
Q 29.828125 51.46875 34.265625 53.734375 
Q 38.71875 56 44.09375 56 
Q 53.5625 56 58.46875 50.1875 
Q 63.375 44.390625 63.375 33.296875 
z
" id="DejaVuSans-Bold-110"/>
      <path d="M 1.21875 54.6875 
L 18.703125 54.6875 
L 33.40625 17.578125 
L 45.90625 54.6875 
L 63.375 54.6875 
L 40.375 -5.171875 
Q 36.921875 -14.3125 32.296875 -17.9375 
Q 27.6875 -21.578125 20.125 -21.578125 
L 10.015625 -21.578125 
L 10.015625 -10.109375 
L 15.484375 -10.109375 
Q 19.921875 -10.109375 21.9375 -8.6875 
Q 23.96875 -7.28125 25.09375 -3.609375 
L 25.59375 -2.09375 
z
" id="DejaVuSans-Bold-121"/>
      <path d="M 7.8125 21.296875 
L 7.8125 54.6875 
L 25.390625 54.6875 
L 25.390625 49.21875 
Q 25.390625 44.78125 25.34375 38.0625 
Q 25.296875 31.34375 25.296875 29.109375 
Q 25.296875 22.515625 25.640625 19.609375 
Q 25.984375 16.703125 26.8125 15.375 
Q 27.875 13.671875 29.609375 12.734375 
Q 31.34375 11.8125 33.59375 11.8125 
Q 39.0625 11.8125 42.1875 16.015625 
Q 45.3125 20.21875 45.3125 27.6875 
L 45.3125 54.6875 
L 62.796875 54.6875 
L 62.796875 0 
L 45.3125 0 
L 45.3125 7.90625 
Q 41.359375 3.125 36.9375 0.84375 
Q 32.515625 -1.421875 27.203125 -1.421875 
Q 17.71875 -1.421875 12.765625 4.390625 
Q 7.8125 10.203125 7.8125 21.296875 
z
" id="DejaVuSans-Bold-117"/>
      <path d="M 8.40625 75.984375 
L 25.875 75.984375 
L 25.875 0 
L 8.40625 0 
z
" id="DejaVuSans-Bold-108"/>
      <path d="M 45.609375 46.6875 
L 45.609375 75.984375 
L 63.1875 75.984375 
L 63.1875 0 
L 45.609375 0 
L 45.609375 7.90625 
Q 42 3.078125 37.640625 0.828125 
Q 33.296875 -1.421875 27.59375 -1.421875 
Q 17.484375 -1.421875 10.984375 6.609375 
Q 4.5 14.65625 4.5 27.296875 
Q 4.5 39.9375 10.984375 47.96875 
Q 17.484375 56 27.59375 56 
Q 33.25 56 37.625 53.734375 
Q 42 51.46875 45.609375 46.6875 
z
M 34.078125 11.28125 
Q 39.703125 11.28125 42.65625 15.375 
Q 45.609375 19.484375 45.609375 27.296875 
Q 45.609375 35.109375 42.65625 39.203125 
Q 39.703125 43.3125 34.078125 43.3125 
Q 28.515625 43.3125 25.5625 39.203125 
Q 22.609375 35.109375 22.609375 27.296875 
Q 22.609375 19.484375 25.5625 15.375 
Q 28.515625 11.28125 34.078125 11.28125 
z
" id="DejaVuSans-Bold-100"/>
      <path d="M 53.421875 13.28125 
L 24.03125 13.28125 
L 19.390625 0 
L 0.484375 0 
L 27.484375 72.90625 
L 49.90625 72.90625 
L 76.90625 0 
L 58.015625 0 
z
M 28.71875 26.8125 
L 48.6875 26.8125 
L 38.71875 55.8125 
z
" id="DejaVuSans-Bold-65"/>
      <path d="M 9.1875 72.90625 
L 27.984375 72.90625 
L 27.984375 29.203125 
Q 27.984375 20.171875 30.9375 16.28125 
Q 33.890625 12.40625 40.578125 12.40625 
Q 47.3125 12.40625 50.265625 16.28125 
Q 53.21875 20.171875 53.21875 29.203125 
L 53.21875 72.90625 
L 72.015625 72.90625 
L 72.015625 29.203125 
Q 72.015625 13.71875 64.25 6.140625 
Q 56.5 -1.421875 40.578125 -1.421875 
Q 24.703125 -1.421875 16.9375 6.140625 
Q 9.1875 13.71875 9.1875 29.203125 
z
" id="DejaVuSans-Bold-85"/>
     </defs>
     <g transform="translate(30.66375 190.058437)rotate(-90)scale(0.12 -0.12)">
      <use xlink:href="#DejaVuSans-Bold-73"/>
      <use x="37.207031" xlink:href="#DejaVuSans-Bold-110"/>
      <use x="108.398438" xlink:href="#DejaVuSans-Bold-116"/>
      <use x="156.201172" xlink:href="#DejaVuSans-Bold-101"/>
      <use x="224.023438" xlink:href="#DejaVuSans-Bold-110"/>
      <use x="295.214844" xlink:href="#DejaVuSans-Bold-115"/>
      <use x="354.736328" xlink:href="#DejaVuSans-Bold-105"/>
      <use x="389.013672" xlink:href="#DejaVuSans-Bold-116"/>
      <use x="436.816406" xlink:href="#DejaVuSans-Bold-121"/>
      <use x="502.001953" xlink:href="#DejaVuSans-Bold-32"/>
      <use x="536.816406" xlink:href="#DejaVuSans-Bold-40"/>
      <use x="582.519531" xlink:href="#DejaVuSans-Bold-115"/>
      <use x="642.041016" xlink:href="#DejaVuSans-Bold-105"/>
      <use x="676.318359" xlink:href="#DejaVuSans-Bold-109"/>
      <use x="780.517578" xlink:href="#DejaVuSans-Bold-117"/>
      <use x="851.708984" xlink:href="#DejaVuSans-Bold-108"/>
      <use x="885.986328" xlink:href="#DejaVuSans-Bold-97"/>
      <use x="953.466797" xlink:href="#DejaVuSans-Bold-116"/>
      <use x="1001.269531" xlink:href="#DejaVuSans-Bold-101"/>
      <use x="1069.091797" xlink:href="#DejaVuSans-Bold-100"/>
      <use x="1140.673828" xlink:href="#DejaVuSans-Bold-32"/>
      <use x="1175.488281" xlink:href="#DejaVuSans-Bold-65"/>
      <use x="1249.755859" xlink:href="#DejaVuSans-Bold-85"/>
      <use x="1330.957031" xlink:href="#DejaVuSans-Bold-41"/>
     </g>
    </g>
   </g>
   <g id="line2d_14">
    <path clip-path="url(#pa48722fb37)" d="M 115.363636 165.817551 
L 119.35791 166.307575 
L 123.352183 167.616919 
L 127.346457 166.182129 
L 131.34073 166.342857 
L 139.329277 165.714058 
L 143.32355 166.180561 
L 147.317824 165.574499 
L 151.312097 166.095884 
L 163.294918 166.20957 
L 167.289191 166.422044 
L 171.283465 166.229955 
L 175.277738 166.85797 
L 179.272011 166.95127 
L 183.266285 167.650633 
L 191.254832 167.283703 
L 195.249105 167.498529 
L 207.231926 167.077501 
L 215.220472 166.714491 
L 219.214746 166.734876 
L 223.209019 166.610998 
L 227.203293 166.323256 
L 231.197566 165.43886 
L 235.19184 166.424397 
L 239.186113 166.637655 
L 243.180387 165.921828 
L 247.17466 166.150767 
L 251.168933 166.20173 
L 255.163207 165.572931 
L 259.15748 165.930452 
L 263.151754 165.921828 
L 267.146027 166.968519 
L 271.140301 166.347561 
L 275.134574 166.818768 
L 283.123121 166.314631 
L 287.117394 166.823472 
L 291.111668 166.626678 
L 299.100215 167.097886 
L 307.088762 166.695674 
L 311.083035 167.296247 
L 315.077309 166.767805 
L 319.071582 167.497745 
L 323.065855 167.311144 
L 327.060129 167.235876 
L 331.054402 166.791327 
L 335.048676 166.819552 
L 339.042949 166.418908 
L 343.037223 166.85405 
L 347.031496 166.626678 
L 351.02577 166.222899 
L 355.020043 165.955542 
L 363.00859 166.466735 
L 367.002863 165.67172 
L 374.99141 165.827743 
L 378.985684 165.585475 
L 382.979957 165.647414 
L 386.97423 165.017047 
L 390.968504 165.227954 
L 394.962777 165.080555 
L 398.957051 165.910851 
L 402.951324 165.998664 
L 406.945598 165.931236 
L 410.939871 166.272293 
L 414.934145 166.052762 
L 430.911238 165.991607 
L 434.905512 166.115485 
L 438.899785 166.051194 
L 442.894059 166.482415 
L 446.888332 166.721547 
L 450.882606 167.086125 
L 454.876879 166.320119 
L 458.871152 166.778782 
L 462.865426 166.288758 
L 466.859699 166.189969 
L 470.853973 165.979847 
L 474.848246 166.222899 
L 478.84252 166.00964 
L 482.836793 166.226819 
L 486.831067 165.877922 
L 490.82534 166.661176 
L 502.80816 166.857186 
L 506.802434 166.952054 
L 510.796707 167.456191 
L 518.785254 166.964599 
L 522.779528 166.89482 
L 526.773801 167.229604 
L 530.768074 167.282135 
L 534.762348 167.538515 
L 538.756621 167.173153 
L 542.750895 167.744717 
L 546.745168 168.103807 
L 550.739442 167.772159 
L 554.733715 168.295112 
L 558.727989 167.634168 
L 566.716535 168.139089 
L 570.710809 167.172369 
L 574.705082 168.092046 
L 578.699356 167.438942 
L 582.693629 167.438942 
L 586.687903 167.3182 
L 590.682176 166.97636 
L 594.67645 167.052411 
L 598.670723 167.664745 
L 606.65927 166.907364 
L 610.653543 166.178992 
L 614.647817 166.689402 
L 618.64209 166.730956 
L 622.636364 167.024186 
L 622.636364 167.024186 
" style="fill:none;stroke:#ff0000;stroke-linecap:square;stroke-width:1.5;"/>
   </g>
   <g id="line2d_15">
    <path clip-path="url(#pa48722fb37)" d="M 115.363636 104.038456 
L 119.35791 109.035917 
L 123.352183 102.522126 
L 127.346457 102.548783 
L 131.34073 100.612208 
L 135.335004 103.618996 
L 139.329277 100.895246 
L 143.32355 103.415146 
L 147.317824 103.980437 
L 151.312097 105.987576 
L 155.306371 104.168607 
L 159.300644 105.346232 
L 163.294918 105.344664 
L 167.289191 104.421067 
L 171.283465 107.25615 
L 175.277738 106.337257 
L 179.272011 106.748093 
L 183.266285 110.339773 
L 187.260558 112.690321 
L 191.254832 111.90393 
L 195.249105 109.647467 
L 199.243379 108.274616 
L 203.237652 110.056735 
L 211.226199 105.21373 
L 215.220472 105.474815 
L 219.214746 103.923987 
L 223.209019 101.716918 
L 227.203293 99.956752 
L 231.197566 100.398166 
L 235.19184 97.362369 
L 239.186113 98.243628 
L 243.180387 100.813706 
L 247.17466 93.791857 
L 251.168933 105.75158 
L 255.163207 99.236221 
L 259.15748 97.456453 
L 263.151754 102.094825 
L 267.146027 108.382029 
L 271.140301 110.740417 
L 275.134574 109.081392 
L 279.128848 107.163633 
L 283.123121 108.948105 
L 287.117394 109.421664 
L 291.111668 104.485358 
L 295.105941 101.817275 
L 299.100215 105.42934 
L 303.094488 107.354939 
L 307.088762 108.098207 
L 311.083035 106.857074 
L 315.077309 111.657742 
L 319.071582 111.580122 
L 323.065855 113.570012 
L 327.060129 113.704082 
L 331.054402 109.801923 
L 335.048676 113.207002 
L 343.037223 105.760989 
L 347.031496 108.454161 
L 351.02577 104.762908 
L 355.020043 106.973112 
L 359.014316 106.378811 
L 363.00859 106.015801 
L 367.002863 101.542862 
L 370.997137 98.64976 
L 374.99141 83.313183 
L 378.985684 89.08057 
L 382.979957 86.026741 
L 386.97423 82.079107 
L 390.968504 84.524523 
L 394.962777 80.542392 
L 398.957051 88.527039 
L 402.951324 89.881074 
L 406.945598 97.0268 
L 410.939871 102.426473 
L 414.934145 96.722593 
L 418.928418 91.214723 
L 422.922691 89.14643 
L 426.916965 88.413354 
L 430.911238 91.717292 
L 434.905512 100.435799 
L 438.899785 101.575791 
L 442.894059 106.428989 
L 446.888332 110.198646 
L 450.882606 108.966138 
L 454.876879 107.580742 
L 458.871152 104.078442 
L 462.865426 106.519154 
L 466.859699 103.996902 
L 470.853973 97.792022 
L 474.848246 103.155629 
L 478.84252 103.873024 
L 482.836793 106.660281 
L 486.831067 104.930692 
L 490.82534 105.944454 
L 494.819613 107.910822 
L 498.813887 112.737363 
L 502.80816 110.716896 
L 506.802434 116.14401 
L 510.796707 114.168233 
L 514.790981 113.574716 
L 518.785254 110.509126 
L 522.779528 111.579338 
L 526.773801 113.789542 
L 530.768074 109.775266 
L 534.762348 113.455542 
L 538.756621 114.999314 
L 542.750895 114.886412 
L 546.745168 115.664178 
L 550.739442 117.696406 
L 554.733715 120.980743 
L 558.727989 118.010806 
L 562.722262 116.70695 
L 566.716535 117.267537 
L 570.710809 117.244016 
L 574.705082 120.311174 
L 578.699356 115.839019 
L 582.693629 115.926047 
L 586.687903 112.970222 
L 590.682176 112.853401 
L 594.67645 113.381058 
L 598.670723 111.828662 
L 602.664996 114.837802 
L 606.65927 111.631869 
L 610.653543 113.544138 
L 614.647817 111.885113 
L 618.64209 111.024239 
L 622.636364 111.112051 
L 622.636364 111.112051 
" style="fill:none;stroke:#000000;stroke-linecap:square;stroke-width:1.5;"/>
   </g>
   <g id="line2d_16">
    <path clip-path="url(#pa48722fb37)" d="M 115.363636 92.051379 
L 119.35791 97.317156 
L 123.352183 88.541849 
L 127.346457 90.64255 
L 131.34073 95.250779 
L 135.335004 91.858419 
L 139.329277 90.560574 
L 143.32355 91.771651 
L 147.317824 88.098954 
L 151.312097 91.584267 
L 155.306371 93.025504 
L 159.300644 95.338417 
L 163.294918 80.829699 
L 167.289191 86.358214 
L 171.283465 82.44778 
L 175.277738 89.452205 
L 179.272011 94.081516 
L 183.266285 97.3554 
L 187.260558 97.537819 
L 191.254832 99.010852 
L 195.249105 91.702395 
L 199.243379 89.296006 
L 203.237652 90.932469 
L 207.231926 89.435653 
L 211.226199 88.12866 
L 215.220472 88.595338 
L 219.214746 81.535333 
L 223.209019 79.682301 
L 227.203293 75.068235 
L 231.197566 77.083301 
L 235.19184 81.29411 
L 239.186113 82.925956 
L 243.180387 83.50353 
L 247.17466 79.458938 
L 251.168933 85.36449 
L 255.163207 79.911241 
L 259.15748 81.557547 
L 263.151754 85.332432 
L 267.146027 89.874539 
L 271.140301 89.503777 
L 275.134574 87.285122 
L 279.128848 89.058966 
L 283.123121 92.624773 
L 287.117394 89.251316 
L 291.111668 79.437246 
L 295.105941 85.912793 
L 299.100215 85.00392 
L 303.094488 85.970552 
L 307.088762 87.324324 
L 311.083035 84.01333 
L 315.077309 89.861473 
L 319.071582 92.833588 
L 323.065855 92.032301 
L 327.060129 92.852841 
L 331.054402 89.14791 
L 335.048676 88.549167 
L 339.042949 84.045998 
L 343.037223 86.686901 
L 347.031496 82.811573 
L 351.02577 90.259939 
L 355.020043 84.212301 
L 359.014316 88.873497 
L 363.00859 85.219616 
L 367.002863 85.233468 
L 370.997137 88.793873 
L 374.99141 65.222455 
L 378.985684 69.378555 
L 382.979957 71.39066 
L 386.97423 62.818244 
L 390.968504 64.813447 
L 394.962777 58.284062 
L 398.957051 67.712037 
L 402.951324 82.465812 
L 406.945598 81.010113 
L 410.939871 83.410926 
L 414.934145 88.34279 
L 418.928418 79.963597 
L 422.922691 74.807237 
L 426.916965 77.390121 
L 430.911238 73.535962 
L 434.905512 93.24425 
L 438.899785 92.876797 
L 442.894059 92.941438 
L 446.888332 94.439822 
L 450.882606 96.65987 
L 454.876879 97.924873 
L 458.871152 95.486077 
L 462.865426 99.082985 
L 466.859699 96.900134 
L 470.853973 97.792022 
L 474.848246 93.45655 
L 478.84252 86.209509 
L 482.836793 91.311247 
L 486.831067 96.13622 
L 490.82534 93.537829 
L 494.819613 91.938041 
L 498.813887 98.947345 
L 502.80816 98.077499 
L 506.802434 98.479798 
L 510.796707 105.613502 
L 514.790981 105.07992 
L 518.785254 99.377173 
L 522.779528 104.520204 
L 526.773801 103.006052 
L 530.768074 105.981216 
L 534.762348 102.917368 
L 538.756621 103.422027 
L 542.750895 106.927551 
L 546.745168 107.053694 
L 550.739442 110.493009 
L 554.733715 107.83329 
L 558.727989 108.605132 
L 562.722262 108.205882 
L 566.716535 102.700452 
L 570.710809 106.560882 
L 574.705082 107.436217 
L 578.699356 103.988539 
L 582.693629 107.55391 
L 586.687903 104.836433 
L 590.682176 102.745228 
L 594.67645 101.549395 
L 598.670723 102.860656 
L 602.664996 102.592166 
L 606.65927 99.485893 
L 610.653543 100.667091 
L 614.647817 96.467781 
L 618.64209 99.690179 
L 622.636364 94.853533 
L 622.636364 94.853533 
" style="fill:none;stroke:#096e03;stroke-linecap:square;stroke-width:1.5;"/>
   </g>
   <g id="line2d_17">
    <path clip-path="url(#pa48722fb37)" d="M 115.363636 177.012923 
L 119.35791 177.281238 
L 123.352183 175.019723 
L 127.346457 177.093766 
L 131.34073 183.638571 
L 135.335004 177.239423 
L 139.329277 178.665328 
L 143.32355 177.356506 
L 147.317824 173.118517 
L 151.312097 174.596691 
L 155.306371 177.856897 
L 159.300644 178.992185 
L 163.294918 164.485035 
L 167.289191 170.937147 
L 171.283465 164.19163 
L 175.277738 172.114948 
L 179.272011 176.333423 
L 183.266285 176.015626 
L 187.260558 173.847498 
L 191.254832 176.106922 
L 195.249105 171.054928 
L 199.243379 170.02139 
L 203.237652 169.875734 
L 211.226199 171.914931 
L 215.220472 172.120523 
L 219.214746 166.611347 
L 223.209019 166.965383 
L 227.203293 164.111483 
L 231.197566 165.685136 
L 235.19184 172.931741 
L 239.186113 173.682328 
L 243.180387 171.689824 
L 247.17466 174.66708 
L 251.168933 168.61291 
L 255.163207 169.67502 
L 259.15748 173.101094 
L 263.151754 172.237607 
L 267.146027 170.49251 
L 271.140301 167.76336 
L 275.134574 167.203731 
L 279.128848 170.895333 
L 283.123121 172.676668 
L 287.117394 168.829652 
L 291.111668 163.951888 
L 295.105941 173.095518 
L 299.100215 168.574579 
L 303.094488 167.615613 
L 307.088762 168.226117 
L 311.083035 166.156255 
L 315.077309 167.203731 
L 319.071582 170.253466 
L 323.065855 167.462289 
L 327.060129 168.148759 
L 331.054402 168.345988 
L 335.048676 164.342165 
L 339.042949 163.517704 
L 343.037223 169.925912 
L 347.031496 163.357413 
L 351.02577 174.497031 
L 355.020043 166.239189 
L 359.014316 171.494686 
L 363.00859 168.203815 
L 367.002863 172.690606 
L 370.997137 179.144114 
L 374.99141 170.909271 
L 378.985684 169.297985 
L 382.979957 174.363919 
L 386.97423 169.739137 
L 390.968504 169.288924 
L 394.962777 166.74167 
L 398.957051 168.184998 
L 402.951324 181.584739 
L 406.945598 172.983313 
L 410.939871 169.984453 
L 414.934145 180.620197 
L 418.928418 177.748874 
L 422.922691 174.660808 
L 426.916965 177.976768 
L 430.911238 170.81867 
L 434.905512 181.808451 
L 438.899785 180.301006 
L 442.894059 175.512448 
L 446.888332 173.241176 
L 450.882606 176.693732 
L 454.876879 179.344131 
L 462.865426 181.563831 
L 466.859699 181.903232 
L 470.853973 189 
L 474.848246 179.300921 
L 478.84252 171.336485 
L 482.836793 173.650966 
L 486.831067 180.205528 
L 494.819613 173.027219 
L 498.813887 175.209982 
L 502.80816 176.360603 
L 506.802434 171.335788 
L 510.796707 180.445269 
L 514.790981 180.505204 
L 518.785254 177.868047 
L 522.779528 181.940866 
L 526.773801 178.21651 
L 530.768074 185.205951 
L 534.762348 178.461826 
L 538.756621 177.422714 
L 542.750895 181.041138 
L 546.745168 180.389515 
L 550.739442 181.796603 
L 554.733715 175.852546 
L 558.727989 179.594326 
L 562.722262 180.498932 
L 566.716535 174.432915 
L 570.710809 178.316866 
L 574.705082 176.125043 
L 578.699356 177.14952 
L 582.693629 180.627863 
L 586.687903 180.86621 
L 590.682176 178.891828 
L 594.67645 177.168337 
L 598.670723 180.031994 
L 602.664996 176.754364 
L 606.65927 176.854025 
L 610.653543 176.122952 
L 614.647817 173.582668 
L 618.64209 177.66594 
L 622.636364 172.741482 
L 622.636364 172.741482 
" style="fill:none;stroke:#47ff0f;stroke-linecap:square;stroke-width:1.5;"/>
   </g>
   <g id="line2d_18">
    <defs>
     <path d="M 0 3 
C 0.795609 3 1.55874 2.683901 2.12132 2.12132 
C 2.683901 1.55874 3 0.795609 3 0 
C 3 -0.795609 2.683901 -1.55874 2.12132 -2.12132 
C 1.55874 -2.683901 0.795609 -3 0 -3 
C -0.795609 -3 -1.55874 -2.683901 -2.12132 -2.12132 
C -2.683901 -1.55874 -3 -0.795609 -3 0 
C -3 0.795609 -2.683901 1.55874 -2.12132 2.12132 
C -1.55874 2.683901 -0.795609 3 0 3 
z
" id="m94b753f8f9" style="stroke:#bf00bf;"/>
    </defs>
    <g clip-path="url(#pa48722fb37)">
     <use style="fill:#bf00bf;stroke:#bf00bf;" x="115.363636" xlink:href="#m94b753f8f9" y="92.051379"/>
     <use style="fill:#bf00bf;stroke:#bf00bf;" x="171.283465" xlink:href="#m94b753f8f9" y="82.44778"/>
     <use style="fill:#bf00bf;stroke:#bf00bf;" x="227.203293" xlink:href="#m94b753f8f9" y="75.068235"/>
     <use style="fill:#bf00bf;stroke:#bf00bf;" x="283.123121" xlink:href="#m94b753f8f9" y="92.624773"/>
     <use style="fill:#bf00bf;stroke:#bf00bf;" x="339.042949" xlink:href="#m94b753f8f9" y="84.045998"/>
     <use style="fill:#bf00bf;stroke:#bf00bf;" x="394.962777" xlink:href="#m94b753f8f9" y="58.284062"/>
     <use style="fill:#bf00bf;stroke:#bf00bf;" x="450.882606" xlink:href="#m94b753f8f9" y="96.65987"/>
     <use style="fill:#bf00bf;stroke:#bf00bf;" x="506.802434" xlink:href="#m94b753f8f9" y="98.479798"/>
     <use style="fill:#bf00bf;stroke:#bf00bf;" x="562.722262" xlink:href="#m94b753f8f9" y="108.205882"/>
     <use style="fill:#bf00bf;stroke:#bf00bf;" x="622.636364" xlink:href="#m94b753f8f9" y="94.853533"/>
    </g>
   </g>
   <g id="patch_3">
    <path d="M 90 189 
L 90 25.92 
" style="fill:none;stroke:#000000;stroke-linecap:square;stroke-linejoin:miter;stroke-width:2.8;"/>
   </g>
   <g id="patch_4">
    <path d="M 648 189 
L 648 25.92 
" style="fill:none;stroke:#000000;stroke-linecap:square;stroke-linejoin:miter;stroke-width:2.8;"/>
   </g>
   <g id="patch_5">
    <path d="M 90 189 
L 648 189 
" style="fill:none;stroke:#000000;stroke-linecap:square;stroke-linejoin:miter;stroke-width:2.8;"/>
   </g>
   <g id="patch_6">
    <path d="M 90 25.92 
L 648 25.92 
" style="fill:none;stroke:#000000;stroke-linecap:square;stroke-linejoin:miter;stroke-width:2.8;"/>
   </g>
   <g id="legend_1">
    <g id="patch_7">
     <path d="M 507.845625 106.35 
L 639.6 106.35 
Q 642 106.35 642 103.95 
L 642 34.32 
Q 642 31.92 639.6 31.92 
L 507.845625 31.92 
Q 505.445625 31.92 505.445625 34.32 
L 505.445625 103.95 
Q 505.445625 106.35 507.845625 106.35 
z
" style="fill:#ffffff;opacity:0.8;stroke:#cccccc;stroke-linejoin:miter;"/>
    </g>
    <g id="line2d_19">
     <path d="M 510.245625 41.638125 
L 534.245625 41.638125 
" style="fill:none;stroke:#ff0000;stroke-linecap:square;stroke-width:1.5;"/>
    </g>
    <g id="line2d_20"/>
    <g id="text_16">
     <!-- R bg -->
     <defs>
      <path d="M 35.890625 40.578125 
Q 41.796875 40.578125 44.359375 42.765625 
Q 46.921875 44.96875 46.921875 50 
Q 46.921875 54.984375 44.359375 57.125 
Q 41.796875 59.28125 35.890625 59.28125 
L 27.984375 59.28125 
L 27.984375 40.578125 
z
M 27.984375 27.59375 
L 27.984375 0 
L 9.1875 0 
L 9.1875 72.90625 
L 37.890625 72.90625 
Q 52.296875 72.90625 59 68.0625 
Q 65.71875 63.234375 65.71875 52.78125 
Q 65.71875 45.5625 62.21875 40.921875 
Q 58.734375 36.28125 51.703125 34.078125 
Q 55.5625 33.203125 58.609375 30.09375 
Q 61.671875 27 64.796875 20.703125 
L 75 0 
L 54.984375 0 
L 46.09375 18.109375 
Q 43.40625 23.578125 40.640625 25.578125 
Q 37.890625 27.59375 33.296875 27.59375 
z
" id="DejaVuSans-Bold-82"/>
      <path d="M 37.5 11.28125 
Q 43.109375 11.28125 46.0625 15.375 
Q 49.03125 19.484375 49.03125 27.296875 
Q 49.03125 35.109375 46.0625 39.203125 
Q 43.109375 43.3125 37.5 43.3125 
Q 31.890625 43.3125 28.875 39.1875 
Q 25.875 35.0625 25.875 27.296875 
Q 25.875 19.53125 28.875 15.40625 
Q 31.890625 11.28125 37.5 11.28125 
z
M 25.875 46.6875 
Q 29.5 51.46875 33.890625 53.734375 
Q 38.28125 56 44 56 
Q 54.109375 56 60.59375 47.96875 
Q 67.09375 39.9375 67.09375 27.296875 
Q 67.09375 14.65625 60.59375 6.609375 
Q 54.109375 -1.421875 44 -1.421875 
Q 38.28125 -1.421875 33.890625 0.84375 
Q 29.5 3.125 25.875 7.90625 
L 25.875 0 
L 8.40625 0 
L 8.40625 75.984375 
L 25.875 75.984375 
z
" id="DejaVuSans-Bold-98"/>
      <path d="M 45.609375 9.28125 
Q 42 4.5 37.640625 2.25 
Q 33.296875 0 27.59375 0 
Q 17.578125 0 11.03125 7.875 
Q 4.5 15.765625 4.5 27.984375 
Q 4.5 40.234375 11.03125 48.0625 
Q 17.578125 55.90625 27.59375 55.90625 
Q 33.296875 55.90625 37.640625 53.65625 
Q 42 51.421875 45.609375 46.578125 
L 45.609375 54.6875 
L 63.1875 54.6875 
L 63.1875 5.515625 
Q 63.1875 -7.671875 54.859375 -14.625 
Q 46.53125 -21.578125 30.71875 -21.578125 
Q 25.59375 -21.578125 20.796875 -20.796875 
Q 16.015625 -20.015625 11.1875 -18.40625 
L 11.1875 -4.78125 
Q 15.765625 -7.421875 20.15625 -8.71875 
Q 24.5625 -10.015625 29 -10.015625 
Q 37.59375 -10.015625 41.59375 -6.25 
Q 45.609375 -2.484375 45.609375 5.515625 
z
M 34.078125 43.3125 
Q 28.65625 43.3125 25.625 39.296875 
Q 22.609375 35.296875 22.609375 27.984375 
Q 22.609375 20.453125 25.53125 16.578125 
Q 28.46875 12.703125 34.078125 12.703125 
Q 39.546875 12.703125 42.578125 16.703125 
Q 45.609375 20.703125 45.609375 27.984375 
Q 45.609375 35.296875 42.578125 39.296875 
Q 39.546875 43.3125 34.078125 43.3125 
z
" id="DejaVuSans-Bold-103"/>
     </defs>
     <g transform="translate(543.845625 45.838125)scale(0.12 -0.12)">
      <use xlink:href="#DejaVuSans-Bold-82"/>
      <use x="77.001953" xlink:href="#DejaVuSans-Bold-32"/>
      <use x="111.816406" xlink:href="#DejaVuSans-Bold-98"/>
      <use x="183.398438" xlink:href="#DejaVuSans-Bold-103"/>
     </g>
    </g>
    <g id="line2d_21">
     <path d="M 510.245625 59.345625 
L 534.245625 59.345625 
" style="fill:none;stroke:#000000;stroke-linecap:square;stroke-width:1.5;"/>
    </g>
    <g id="line2d_22"/>
    <g id="text_17">
     <!-- G bg -->
     <defs>
      <path d="M 74.703125 5.421875 
Q 67.671875 2 60.109375 0.28125 
Q 52.546875 -1.421875 44.484375 -1.421875 
Q 26.265625 -1.421875 15.625 8.765625 
Q 4.984375 18.953125 4.984375 36.375 
Q 4.984375 54 15.8125 64.109375 
Q 26.65625 74.21875 45.515625 74.21875 
Q 52.78125 74.21875 59.4375 72.84375 
Q 66.109375 71.484375 72.015625 68.796875 
L 72.015625 53.71875 
Q 65.921875 57.171875 59.890625 58.875 
Q 53.859375 60.59375 47.796875 60.59375 
Q 36.578125 60.59375 30.5 54.3125 
Q 24.421875 48.046875 24.421875 36.375 
Q 24.421875 24.8125 30.28125 18.5 
Q 36.140625 12.203125 46.921875 12.203125 
Q 49.859375 12.203125 52.375 12.5625 
Q 54.890625 12.9375 56.890625 13.71875 
L 56.890625 27.875 
L 45.40625 27.875 
L 45.40625 40.484375 
L 74.703125 40.484375 
z
" id="DejaVuSans-Bold-71"/>
     </defs>
     <g transform="translate(543.845625 63.545625)scale(0.12 -0.12)">
      <use xlink:href="#DejaVuSans-Bold-71"/>
      <use x="82.080078" xlink:href="#DejaVuSans-Bold-32"/>
      <use x="116.894531" xlink:href="#DejaVuSans-Bold-98"/>
      <use x="188.476562" xlink:href="#DejaVuSans-Bold-103"/>
     </g>
    </g>
    <g id="line2d_23">
     <path d="M 510.245625 77.053125 
L 534.245625 77.053125 
" style="fill:none;stroke:#096e03;stroke-linecap:square;stroke-width:1.5;"/>
    </g>
    <g id="line2d_24"/>
    <g id="text_18">
     <!-- G bg + G spot -->
     <defs>
      <path d="M 47.703125 62.703125 
L 47.703125 37.109375 
L 73.1875 37.109375 
L 73.1875 25.59375 
L 47.703125 25.59375 
L 47.703125 0 
L 36.078125 0 
L 36.078125 25.59375 
L 10.59375 25.59375 
L 10.59375 37.109375 
L 36.078125 37.109375 
L 36.078125 62.703125 
z
" id="DejaVuSans-Bold-43"/>
      <path d="M 25.875 7.90625 
L 25.875 -20.796875 
L 8.40625 -20.796875 
L 8.40625 54.6875 
L 25.875 54.6875 
L 25.875 46.6875 
Q 29.5 51.46875 33.890625 53.734375 
Q 38.28125 56 44 56 
Q 54.109375 56 60.59375 47.96875 
Q 67.09375 39.9375 67.09375 27.296875 
Q 67.09375 14.65625 60.59375 6.609375 
Q 54.109375 -1.421875 44 -1.421875 
Q 38.28125 -1.421875 33.890625 0.84375 
Q 29.5 3.125 25.875 7.90625 
z
M 37.5 43.3125 
Q 31.890625 43.3125 28.875 39.1875 
Q 25.875 35.0625 25.875 27.296875 
Q 25.875 19.53125 28.875 15.40625 
Q 31.890625 11.28125 37.5 11.28125 
Q 43.109375 11.28125 46.0625 15.375 
Q 49.03125 19.484375 49.03125 27.296875 
Q 49.03125 35.109375 46.0625 39.203125 
Q 43.109375 43.3125 37.5 43.3125 
z
" id="DejaVuSans-Bold-112"/>
      <path d="M 34.421875 43.5 
Q 28.609375 43.5 25.5625 39.328125 
Q 22.515625 35.15625 22.515625 27.296875 
Q 22.515625 19.4375 25.5625 15.25 
Q 28.609375 11.078125 34.421875 11.078125 
Q 40.140625 11.078125 43.15625 15.25 
Q 46.1875 19.4375 46.1875 27.296875 
Q 46.1875 35.15625 43.15625 39.328125 
Q 40.140625 43.5 34.421875 43.5 
z
M 34.421875 56 
Q 48.53125 56 56.46875 48.375 
Q 64.40625 40.765625 64.40625 27.296875 
Q 64.40625 13.8125 56.46875 6.1875 
Q 48.53125 -1.421875 34.421875 -1.421875 
Q 20.265625 -1.421875 12.28125 6.1875 
Q 4.296875 13.8125 4.296875 27.296875 
Q 4.296875 40.765625 12.28125 48.375 
Q 20.265625 56 34.421875 56 
z
" id="DejaVuSans-Bold-111"/>
     </defs>
     <g transform="translate(543.845625 81.253125)scale(0.12 -0.12)">
      <use xlink:href="#DejaVuSans-Bold-71"/>
      <use x="82.080078" xlink:href="#DejaVuSans-Bold-32"/>
      <use x="116.894531" xlink:href="#DejaVuSans-Bold-98"/>
      <use x="188.476562" xlink:href="#DejaVuSans-Bold-103"/>
      <use x="260.058594" xlink:href="#DejaVuSans-Bold-32"/>
      <use x="294.873047" xlink:href="#DejaVuSans-Bold-43"/>
      <use x="378.662109" xlink:href="#DejaVuSans-Bold-32"/>
      <use x="413.476562" xlink:href="#DejaVuSans-Bold-71"/>
      <use x="495.556641" xlink:href="#DejaVuSans-Bold-32"/>
      <use x="530.371094" xlink:href="#DejaVuSans-Bold-115"/>
      <use x="589.892578" xlink:href="#DejaVuSans-Bold-112"/>
      <use x="661.474609" xlink:href="#DejaVuSans-Bold-111"/>
      <use x="730.175781" xlink:href="#DejaVuSans-Bold-116"/>
     </g>
    </g>
    <g id="line2d_25">
     <path d="M 510.245625 94.760625 
L 534.245625 94.760625 
" style="fill:none;stroke:#47ff0f;stroke-linecap:square;stroke-width:1.5;"/>
    </g>
    <g id="line2d_26"/>
    <g id="text_19">
     <!-- G spot only -->
     <g transform="translate(543.845625 98.960625)scale(0.12 -0.12)">
      <use xlink:href="#DejaVuSans-Bold-71"/>
      <use x="82.080078" xlink:href="#DejaVuSans-Bold-32"/>
      <use x="116.894531" xlink:href="#DejaVuSans-Bold-115"/>
      <use x="176.416016" xlink:href="#DejaVuSans-Bold-112"/>
      <use x="247.998047" xlink:href="#DejaVuSans-Bold-111"/>
      <use x="316.699219" xlink:href="#DejaVuSans-Bold-116"/>
      <use x="364.501953" xlink:href="#DejaVuSans-Bold-32"/>
      <use x="399.316406" xlink:href="#DejaVuSans-Bold-111"/>
      <use x="468.017578" xlink:href="#DejaVuSans-Bold-110"/>
      <use x="539.208984" xlink:href="#DejaVuSans-Bold-108"/>
      <use x="573.486328" xlink:href="#DejaVuSans-Bold-121"/>
     </g>
    </g>
   </g>
  </g>
 </g>
 <defs>
  <clipPath id="pa48722fb37">
   <rect height="163.08" width="558" x="90" y="25.92"/>
  </clipPath>
 </defs>
</svg>
