<?xml version="1.0" encoding="utf-8" standalone="no"?>
<!DOCTYPE svg PUBLIC "-//W3C//DTD SVG 1.1//EN"
  "http://www.w3.org/Graphics/SVG/1.1/DTD/svg11.dtd">
<!-- Created with matplotlib (https://matplotlib.org/) -->
<svg height="288pt" version="1.1" viewBox="0 0 432 288" width="432pt" xmlns="http://www.w3.org/2000/svg" xmlns:xlink="http://www.w3.org/1999/xlink">
 <defs>
  <style type="text/css">
*{stroke-linecap:butt;stroke-linejoin:round;}
  </style>
 </defs>
 <g id="figure_1">
  <g id="patch_1">
   <path d="M 0 288 
L 432 288 
L 432 0 
L 0 0 
z
" style="fill:#ffffff;"/>
  </g>
  <g id="axes_1">
   <g id="patch_2">
    <path d="M 54 252 
L 388.8 252 
L 388.8 34.56 
L 54 34.56 
z
" style="fill:#ffffff;"/>
   </g>
   <g id="patch_3">
    <path clip-path="url(#p67ffa4267e)" d="M 69.218182 252 
L 79.363636 252 
L 79.363636 252 
L 69.218182 252 
z
" style="fill:#073b4c;fill-opacity:0.5;"/>
   </g>
   <g id="patch_4">
    <path clip-path="url(#p67ffa4267e)" d="M 79.363636 252 
L 89.509091 252 
L 89.509091 243.371429 
L 79.363636 243.371429 
z
" style="fill:#073b4c;fill-opacity:0.5;"/>
   </g>
   <g id="patch_5">
    <path clip-path="url(#p67ffa4267e)" d="M 89.509091 252 
L 99.654545 252 
L 99.654545 234.742857 
L 89.509091 234.742857 
z
" style="fill:#073b4c;fill-opacity:0.5;"/>
   </g>
   <g id="patch_6">
    <path clip-path="url(#p67ffa4267e)" d="M 99.654545 252 
L 109.8 252 
L 109.8 234.742857 
L 99.654545 234.742857 
z
" style="fill:#073b4c;fill-opacity:0.5;"/>
   </g>
   <g id="patch_7">
    <path clip-path="url(#p67ffa4267e)" d="M 109.8 252 
L 119.945455 252 
L 119.945455 217.485714 
L 109.8 217.485714 
z
" style="fill:#073b4c;fill-opacity:0.5;"/>
   </g>
   <g id="patch_8">
    <path clip-path="url(#p67ffa4267e)" d="M 119.945455 252 
L 130.090909 252 
L 130.090909 139.828571 
L 119.945455 139.828571 
z
" style="fill:#073b4c;fill-opacity:0.5;"/>
   </g>
   <g id="patch_9">
    <path clip-path="url(#p67ffa4267e)" d="M 130.090909 252 
L 140.236364 252 
L 140.236364 96.685714 
L 130.090909 96.685714 
z
" style="fill:#073b4c;fill-opacity:0.5;"/>
   </g>
   <g id="patch_10">
    <path clip-path="url(#p67ffa4267e)" d="M 140.236364 252 
L 150.381818 252 
L 150.381818 105.314286 
L 140.236364 105.314286 
z
" style="fill:#073b4c;fill-opacity:0.5;"/>
   </g>
   <g id="patch_11">
    <path clip-path="url(#p67ffa4267e)" d="M 150.381818 252 
L 160.527273 252 
L 160.527273 44.914286 
L 150.381818 44.914286 
z
" style="fill:#073b4c;fill-opacity:0.5;"/>
   </g>
   <g id="patch_12">
    <path clip-path="url(#p67ffa4267e)" d="M 160.527273 252 
L 170.672727 252 
L 170.672727 44.914286 
L 160.527273 44.914286 
z
" style="fill:#073b4c;fill-opacity:0.5;"/>
   </g>
   <g id="patch_13">
    <path clip-path="url(#p67ffa4267e)" d="M 170.672727 252 
L 180.818182 252 
L 180.818182 148.457143 
L 170.672727 148.457143 
z
" style="fill:#073b4c;fill-opacity:0.5;"/>
   </g>
   <g id="patch_14">
    <path clip-path="url(#p67ffa4267e)" d="M 180.818182 252 
L 190.963636 252 
L 190.963636 157.085714 
L 180.818182 157.085714 
z
" style="fill:#073b4c;fill-opacity:0.5;"/>
   </g>
   <g id="patch_15">
    <path clip-path="url(#p67ffa4267e)" d="M 190.963636 252 
L 201.109091 252 
L 201.109091 165.714286 
L 190.963636 165.714286 
z
" style="fill:#073b4c;fill-opacity:0.5;"/>
   </g>
   <g id="patch_16">
    <path clip-path="url(#p67ffa4267e)" d="M 201.109091 252 
L 211.254545 252 
L 211.254545 226.114286 
L 201.109091 226.114286 
z
" style="fill:#073b4c;fill-opacity:0.5;"/>
   </g>
   <g id="patch_17">
    <path clip-path="url(#p67ffa4267e)" d="M 211.254545 252 
L 221.4 252 
L 221.4 208.857143 
L 211.254545 208.857143 
z
" style="fill:#073b4c;fill-opacity:0.5;"/>
   </g>
   <g id="patch_18">
    <path clip-path="url(#p67ffa4267e)" d="M 221.4 252 
L 231.545455 252 
L 231.545455 234.742857 
L 221.4 234.742857 
z
" style="fill:#073b4c;fill-opacity:0.5;"/>
   </g>
   <g id="patch_19">
    <path clip-path="url(#p67ffa4267e)" d="M 231.545455 252 
L 241.690909 252 
L 241.690909 243.371429 
L 231.545455 243.371429 
z
" style="fill:#073b4c;fill-opacity:0.5;"/>
   </g>
   <g id="patch_20">
    <path clip-path="url(#p67ffa4267e)" d="M 241.690909 252 
L 251.836364 252 
L 251.836364 243.371429 
L 241.690909 243.371429 
z
" style="fill:#073b4c;fill-opacity:0.5;"/>
   </g>
   <g id="patch_21">
    <path clip-path="url(#p67ffa4267e)" d="M 251.836364 252 
L 261.981818 252 
L 261.981818 252 
L 251.836364 252 
z
" style="fill:#073b4c;fill-opacity:0.5;"/>
   </g>
   <g id="patch_22">
    <path clip-path="url(#p67ffa4267e)" d="M 261.981818 252 
L 272.127273 252 
L 272.127273 252 
L 261.981818 252 
z
" style="fill:#073b4c;fill-opacity:0.5;"/>
   </g>
   <g id="patch_23">
    <path clip-path="url(#p67ffa4267e)" d="M 272.127273 252 
L 282.272727 252 
L 282.272727 252 
L 272.127273 252 
z
" style="fill:#073b4c;fill-opacity:0.5;"/>
   </g>
   <g id="patch_24">
    <path clip-path="url(#p67ffa4267e)" d="M 282.272727 252 
L 292.418182 252 
L 292.418182 252 
L 282.272727 252 
z
" style="fill:#073b4c;fill-opacity:0.5;"/>
   </g>
   <g id="patch_25">
    <path clip-path="url(#p67ffa4267e)" d="M 292.418182 252 
L 302.563636 252 
L 302.563636 252 
L 292.418182 252 
z
" style="fill:#073b4c;fill-opacity:0.5;"/>
   </g>
   <g id="patch_26">
    <path clip-path="url(#p67ffa4267e)" d="M 302.563636 252 
L 312.709091 252 
L 312.709091 252 
L 302.563636 252 
z
" style="fill:#073b4c;fill-opacity:0.5;"/>
   </g>
   <g id="patch_27">
    <path clip-path="url(#p67ffa4267e)" d="M 312.709091 252 
L 322.854545 252 
L 322.854545 252 
L 312.709091 252 
z
" style="fill:#073b4c;fill-opacity:0.5;"/>
   </g>
   <g id="patch_28">
    <path clip-path="url(#p67ffa4267e)" d="M 322.854545 252 
L 333 252 
L 333 252 
L 322.854545 252 
z
" style="fill:#073b4c;fill-opacity:0.5;"/>
   </g>
   <g id="patch_29">
    <path clip-path="url(#p67ffa4267e)" d="M 333 252 
L 343.145455 252 
L 343.145455 252 
L 333 252 
z
" style="fill:#073b4c;fill-opacity:0.5;"/>
   </g>
   <g id="patch_30">
    <path clip-path="url(#p67ffa4267e)" d="M 343.145455 252 
L 353.290909 252 
L 353.290909 252 
L 343.145455 252 
z
" style="fill:#073b4c;fill-opacity:0.5;"/>
   </g>
   <g id="patch_31">
    <path clip-path="url(#p67ffa4267e)" d="M 353.290909 252 
L 363.436364 252 
L 363.436364 252 
L 353.290909 252 
z
" style="fill:#073b4c;fill-opacity:0.5;"/>
   </g>
   <g id="patch_32">
    <path clip-path="url(#p67ffa4267e)" d="M 363.436364 252 
L 373.581818 252 
L 373.581818 252 
L 363.436364 252 
z
" style="fill:#073b4c;fill-opacity:0.5;"/>
   </g>
   <g id="patch_33">
    <path clip-path="url(#p67ffa4267e)" d="M 69.218182 252 
L 79.363636 252 
L 79.363636 252 
L 69.218182 252 
z
" style="fill:#ef476f;fill-opacity:0.5;"/>
   </g>
   <g id="patch_34">
    <path clip-path="url(#p67ffa4267e)" d="M 79.363636 252 
L 89.509091 252 
L 89.509091 252 
L 79.363636 252 
z
" style="fill:#ef476f;fill-opacity:0.5;"/>
   </g>
   <g id="patch_35">
    <path clip-path="url(#p67ffa4267e)" d="M 89.509091 252 
L 99.654545 252 
L 99.654545 252 
L 89.509091 252 
z
" style="fill:#ef476f;fill-opacity:0.5;"/>
   </g>
   <g id="patch_36">
    <path clip-path="url(#p67ffa4267e)" d="M 99.654545 252 
L 109.8 252 
L 109.8 252 
L 99.654545 252 
z
" style="fill:#ef476f;fill-opacity:0.5;"/>
   </g>
   <g id="patch_37">
    <path clip-path="url(#p67ffa4267e)" d="M 109.8 252 
L 119.945455 252 
L 119.945455 252 
L 109.8 252 
z
" style="fill:#ef476f;fill-opacity:0.5;"/>
   </g>
   <g id="patch_38">
    <path clip-path="url(#p67ffa4267e)" d="M 119.945455 252 
L 130.090909 252 
L 130.090909 252 
L 119.945455 252 
z
" style="fill:#ef476f;fill-opacity:0.5;"/>
   </g>
   <g id="patch_39">
    <path clip-path="url(#p67ffa4267e)" d="M 130.090909 252 
L 140.236364 252 
L 140.236364 226.114286 
L 130.090909 226.114286 
z
" style="fill:#ef476f;fill-opacity:0.5;"/>
   </g>
   <g id="patch_40">
    <path clip-path="url(#p67ffa4267e)" d="M 140.236364 252 
L 150.381818 252 
L 150.381818 208.857143 
L 140.236364 208.857143 
z
" style="fill:#ef476f;fill-opacity:0.5;"/>
   </g>
   <g id="patch_41">
    <path clip-path="url(#p67ffa4267e)" d="M 150.381818 252 
L 160.527273 252 
L 160.527273 217.485714 
L 150.381818 217.485714 
z
" style="fill:#ef476f;fill-opacity:0.5;"/>
   </g>
   <g id="patch_42">
    <path clip-path="url(#p67ffa4267e)" d="M 160.527273 252 
L 170.672727 252 
L 170.672727 182.971429 
L 160.527273 182.971429 
z
" style="fill:#ef476f;fill-opacity:0.5;"/>
   </g>
   <g id="patch_43">
    <path clip-path="url(#p67ffa4267e)" d="M 170.672727 252 
L 180.818182 252 
L 180.818182 131.2 
L 170.672727 131.2 
z
" style="fill:#ef476f;fill-opacity:0.5;"/>
   </g>
   <g id="patch_44">
    <path clip-path="url(#p67ffa4267e)" d="M 180.818182 252 
L 190.963636 252 
L 190.963636 88.057143 
L 180.818182 88.057143 
z
" style="fill:#ef476f;fill-opacity:0.5;"/>
   </g>
   <g id="patch_45">
    <path clip-path="url(#p67ffa4267e)" d="M 190.963636 252 
L 201.109091 252 
L 201.109091 113.942857 
L 190.963636 113.942857 
z
" style="fill:#ef476f;fill-opacity:0.5;"/>
   </g>
   <g id="patch_46">
    <path clip-path="url(#p67ffa4267e)" d="M 201.109091 252 
L 211.254545 252 
L 211.254545 113.942857 
L 201.109091 113.942857 
z
" style="fill:#ef476f;fill-opacity:0.5;"/>
   </g>
   <g id="patch_47">
    <path clip-path="url(#p67ffa4267e)" d="M 211.254545 252 
L 221.4 252 
L 221.4 113.942857 
L 211.254545 113.942857 
z
" style="fill:#ef476f;fill-opacity:0.5;"/>
   </g>
   <g id="patch_48">
    <path clip-path="url(#p67ffa4267e)" d="M 221.4 252 
L 231.545455 252 
L 231.545455 105.314286 
L 221.4 105.314286 
z
" style="fill:#ef476f;fill-opacity:0.5;"/>
   </g>
   <g id="patch_49">
    <path clip-path="url(#p67ffa4267e)" d="M 231.545455 252 
L 241.690909 252 
L 241.690909 113.942857 
L 231.545455 113.942857 
z
" style="fill:#ef476f;fill-opacity:0.5;"/>
   </g>
   <g id="patch_50">
    <path clip-path="url(#p67ffa4267e)" d="M 241.690909 252 
L 251.836364 252 
L 251.836364 157.085714 
L 241.690909 157.085714 
z
" style="fill:#ef476f;fill-opacity:0.5;"/>
   </g>
   <g id="patch_51">
    <path clip-path="url(#p67ffa4267e)" d="M 251.836364 252 
L 261.981818 252 
L 261.981818 226.114286 
L 251.836364 226.114286 
z
" style="fill:#ef476f;fill-opacity:0.5;"/>
   </g>
   <g id="patch_52">
    <path clip-path="url(#p67ffa4267e)" d="M 261.981818 252 
L 272.127273 252 
L 272.127273 234.742857 
L 261.981818 234.742857 
z
" style="fill:#ef476f;fill-opacity:0.5;"/>
   </g>
   <g id="patch_53">
    <path clip-path="url(#p67ffa4267e)" d="M 272.127273 252 
L 282.272727 252 
L 282.272727 252 
L 272.127273 252 
z
" style="fill:#ef476f;fill-opacity:0.5;"/>
   </g>
   <g id="patch_54">
    <path clip-path="url(#p67ffa4267e)" d="M 282.272727 252 
L 292.418182 252 
L 292.418182 252 
L 282.272727 252 
z
" style="fill:#ef476f;fill-opacity:0.5;"/>
   </g>
   <g id="patch_55">
    <path clip-path="url(#p67ffa4267e)" d="M 292.418182 252 
L 302.563636 252 
L 302.563636 252 
L 292.418182 252 
z
" style="fill:#ef476f;fill-opacity:0.5;"/>
   </g>
   <g id="patch_56">
    <path clip-path="url(#p67ffa4267e)" d="M 302.563636 252 
L 312.709091 252 
L 312.709091 252 
L 302.563636 252 
z
" style="fill:#ef476f;fill-opacity:0.5;"/>
   </g>
   <g id="patch_57">
    <path clip-path="url(#p67ffa4267e)" d="M 312.709091 252 
L 322.854545 252 
L 322.854545 252 
L 312.709091 252 
z
" style="fill:#ef476f;fill-opacity:0.5;"/>
   </g>
   <g id="patch_58">
    <path clip-path="url(#p67ffa4267e)" d="M 322.854545 252 
L 333 252 
L 333 252 
L 322.854545 252 
z
" style="fill:#ef476f;fill-opacity:0.5;"/>
   </g>
   <g id="patch_59">
    <path clip-path="url(#p67ffa4267e)" d="M 333 252 
L 343.145455 252 
L 343.145455 252 
L 333 252 
z
" style="fill:#ef476f;fill-opacity:0.5;"/>
   </g>
   <g id="patch_60">
    <path clip-path="url(#p67ffa4267e)" d="M 343.145455 252 
L 353.290909 252 
L 353.290909 252 
L 343.145455 252 
z
" style="fill:#ef476f;fill-opacity:0.5;"/>
   </g>
   <g id="patch_61">
    <path clip-path="url(#p67ffa4267e)" d="M 353.290909 252 
L 363.436364 252 
L 363.436364 252 
L 353.290909 252 
z
" style="fill:#ef476f;fill-opacity:0.5;"/>
   </g>
   <g id="patch_62">
    <path clip-path="url(#p67ffa4267e)" d="M 363.436364 252 
L 373.581818 252 
L 373.581818 252 
L 363.436364 252 
z
" style="fill:#ef476f;fill-opacity:0.5;"/>
   </g>
   <g id="patch_63">
    <path clip-path="url(#p67ffa4267e)" d="M 69.218182 252 
L 69.218182 241.048352 
L 79.363636 241.048352 
L 79.363636 242.880264 
L 89.509091 242.880264 
L 89.509091 234.158769 
L 99.654545 234.158769 
L 99.654545 217.791033 
L 109.8 217.791033 
L 109.8 187.922901 
L 119.945455 187.922901 
L 119.945455 157.098989 
L 130.090909 157.098989 
L 130.090909 113.770286 
L 140.236364 113.770286 
L 140.236364 83.304791 
L 150.381818 83.304791 
L 150.381818 76.255912 
L 160.527273 76.255912 
L 160.527273 84.937582 
L 170.672727 84.937582 
L 170.672727 115.522549 
L 180.818182 115.522549 
L 180.818182 149.173978 
L 190.963636 149.173978 
L 190.963636 183.422769 
L 201.109091 183.422769 
L 201.109091 208.551824 
L 211.254545 208.551824 
L 211.254545 224.72044 
L 221.4 224.72044 
L 221.4 237.902242 
L 231.545455 237.902242 
L 231.545455 243.437802 
L 241.690909 243.437802 
L 241.690909 247.380396 
L 251.836364 247.380396 
L 251.836364 249.092835 
L 261.981818 249.092835 
L 261.981818 250.247736 
L 272.127273 250.247736 
L 272.127273 250.805275 
L 282.272727 250.805275 
L 282.272727 251.641582 
L 292.418182 251.641582 
L 292.418182 251.681407 
L 302.563636 251.681407 
L 302.563636 251.601758 
L 312.709091 251.601758 
L 312.709091 251.800879 
L 322.854545 251.800879 
L 322.854545 251.800879 
L 333 251.800879 
L 333 251.920352 
L 343.145455 251.920352 
L 343.145455 252 
L 353.290909 252 
L 353.290909 251.960176 
L 363.436364 251.960176 
L 363.436364 251.880527 
L 373.581818 251.880527 
L 373.581818 252 
" style="fill:none;stroke:#073b4c;stroke-linejoin:miter;stroke-width:3;"/>
   </g>
   <g id="patch_64">
    <path clip-path="url(#p67ffa4267e)" d="M 69.218182 252 
L 69.218182 249.371604 
L 79.363636 249.371604 
L 79.363636 250.606154 
L 89.509091 250.606154 
L 89.509091 249.411429 
L 99.654545 249.411429 
L 99.654545 247.141451 
L 109.8 247.141451 
L 109.8 243.756396 
L 119.945455 243.756396 
L 119.945455 237.02611 
L 130.090909 237.02611 
L 130.090909 223.286769 
L 140.236364 223.286769 
L 140.236364 207.675692 
L 150.381818 207.675692 
L 150.381818 183.900659 
L 160.527273 183.900659 
L 160.527273 149.213802 
L 170.672727 149.213802 
L 170.672727 121.257231 
L 180.818182 121.257231 
L 180.818182 102.93811 
L 190.963636 102.93811 
L 190.963636 99.513231 
L 201.109091 99.513231 
L 201.109091 108.115253 
L 211.254545 108.115253 
L 211.254545 129.660132 
L 221.4 129.660132 
L 221.4 151.921846 
L 231.545455 151.921846 
L 231.545455 176.37389 
L 241.690909 176.37389 
L 241.690909 201.980835 
L 251.836364 201.980835 
L 251.836364 218.507868 
L 261.981818 218.507868 
L 261.981818 230.136527 
L 272.127273 230.136527 
L 272.127273 237.265055 
L 282.272727 237.265055 
L 282.272727 244.592703 
L 292.418182 244.592703 
L 292.418182 246.703385 
L 302.563636 246.703385 
L 302.563636 249.80967 
L 312.709091 249.80967 
L 312.709091 249.730022 
L 322.854545 249.730022 
L 322.854545 250.367209 
L 333 250.367209 
L 333 251.322989 
L 343.145455 251.322989 
L 343.145455 251.362813 
L 353.290909 251.362813 
L 353.290909 251.52211 
L 363.436364 251.52211 
L 363.436364 251.243341 
L 373.581818 251.243341 
L 373.581818 252 
" style="fill:none;stroke:#ff479d;stroke-linejoin:miter;stroke-width:3;"/>
   </g>
   <g id="matplotlib.axis_1">
    <g id="xtick_1">
     <g id="line2d_1">
      <defs>
       <path d="M 0 0 
L 0 3.5 
" id="me0f17f3a0d" style="stroke:#000000;stroke-width:2.8;"/>
      </defs>
      <g>
       <use style="stroke:#000000;stroke-width:2.8;" x="69.218182" xlink:href="#me0f17f3a0d" y="252"/>
      </g>
     </g>
     <g id="text_1">
      <!-- 0.0 -->
      <defs>
       <path d="M 46 36.53125 
Q 46 50.203125 43.4375 55.78125 
Q 40.875 61.375 34.8125 61.375 
Q 28.765625 61.375 26.171875 55.78125 
Q 23.578125 50.203125 23.578125 36.53125 
Q 23.578125 22.703125 26.171875 17.03125 
Q 28.765625 11.375 34.8125 11.375 
Q 40.828125 11.375 43.40625 17.03125 
Q 46 22.703125 46 36.53125 
z
M 64.796875 36.375 
Q 64.796875 18.265625 56.984375 8.421875 
Q 49.171875 -1.421875 34.8125 -1.421875 
Q 20.40625 -1.421875 12.59375 8.421875 
Q 4.78125 18.265625 4.78125 36.375 
Q 4.78125 54.546875 12.59375 64.375 
Q 20.40625 74.21875 34.8125 74.21875 
Q 49.171875 74.21875 56.984375 64.375 
Q 64.796875 54.546875 64.796875 36.375 
z
" id="DejaVuSans-Bold-48"/>
       <path d="M 10.203125 18.890625 
L 27.78125 18.890625 
L 27.78125 0 
L 10.203125 0 
z
" id="DejaVuSans-Bold-46"/>
      </defs>
      <g transform="translate(58.589744 268.118125)scale(0.12 -0.12)">
       <use xlink:href="#DejaVuSans-Bold-48"/>
       <use x="69.580078" xlink:href="#DejaVuSans-Bold-46"/>
       <use x="107.568359" xlink:href="#DejaVuSans-Bold-48"/>
      </g>
     </g>
    </g>
    <g id="xtick_2">
     <g id="line2d_2">
      <g>
       <use style="stroke:#000000;stroke-width:2.8;" x="130.090909" xlink:href="#me0f17f3a0d" y="252"/>
      </g>
     </g>
     <g id="text_2">
      <!-- 0.2 -->
      <defs>
       <path d="M 28.8125 13.8125 
L 60.890625 13.8125 
L 60.890625 0 
L 7.90625 0 
L 7.90625 13.8125 
L 34.515625 37.3125 
Q 38.09375 40.53125 39.796875 43.609375 
Q 41.5 46.6875 41.5 50 
Q 41.5 55.125 38.0625 58.25 
Q 34.625 61.375 28.90625 61.375 
Q 24.515625 61.375 19.28125 59.5 
Q 14.0625 57.625 8.109375 53.90625 
L 8.109375 69.921875 
Q 14.453125 72.015625 20.65625 73.109375 
Q 26.859375 74.21875 32.8125 74.21875 
Q 45.90625 74.21875 53.15625 68.453125 
Q 60.40625 62.703125 60.40625 52.390625 
Q 60.40625 46.4375 57.328125 41.28125 
Q 54.25 36.140625 44.390625 27.484375 
z
" id="DejaVuSans-Bold-50"/>
      </defs>
      <g transform="translate(119.462472 268.118125)scale(0.12 -0.12)">
       <use xlink:href="#DejaVuSans-Bold-48"/>
       <use x="69.580078" xlink:href="#DejaVuSans-Bold-46"/>
       <use x="107.568359" xlink:href="#DejaVuSans-Bold-50"/>
      </g>
     </g>
    </g>
    <g id="xtick_3">
     <g id="line2d_3">
      <g>
       <use style="stroke:#000000;stroke-width:2.8;" x="190.963636" xlink:href="#me0f17f3a0d" y="252"/>
      </g>
     </g>
     <g id="text_3">
      <!-- 0.4 -->
      <defs>
       <path d="M 36.8125 57.421875 
L 16.21875 26.90625 
L 36.8125 26.90625 
z
M 33.6875 72.90625 
L 54.59375 72.90625 
L 54.59375 26.90625 
L 64.984375 26.90625 
L 64.984375 13.28125 
L 54.59375 13.28125 
L 54.59375 0 
L 36.8125 0 
L 36.8125 13.28125 
L 4.5 13.28125 
L 4.5 29.390625 
z
" id="DejaVuSans-Bold-52"/>
      </defs>
      <g transform="translate(180.335199 268.118125)scale(0.12 -0.12)">
       <use xlink:href="#DejaVuSans-Bold-48"/>
       <use x="69.580078" xlink:href="#DejaVuSans-Bold-46"/>
       <use x="107.568359" xlink:href="#DejaVuSans-Bold-52"/>
      </g>
     </g>
    </g>
    <g id="xtick_4">
     <g id="line2d_4">
      <g>
       <use style="stroke:#000000;stroke-width:2.8;" x="251.836364" xlink:href="#me0f17f3a0d" y="252"/>
      </g>
     </g>
     <g id="text_4">
      <!-- 0.6 -->
      <defs>
       <path d="M 36.1875 35.984375 
Q 31.25 35.984375 28.78125 32.78125 
Q 26.3125 29.59375 26.3125 23.1875 
Q 26.3125 16.796875 28.78125 13.59375 
Q 31.25 10.40625 36.1875 10.40625 
Q 41.15625 10.40625 43.625 13.59375 
Q 46.09375 16.796875 46.09375 23.1875 
Q 46.09375 29.59375 43.625 32.78125 
Q 41.15625 35.984375 36.1875 35.984375 
z
M 59.421875 71 
L 59.421875 57.515625 
Q 54.78125 59.71875 50.671875 60.765625 
Q 46.578125 61.8125 42.671875 61.8125 
Q 34.28125 61.8125 29.59375 57.140625 
Q 24.90625 52.484375 24.125 43.3125 
Q 27.34375 45.703125 31.09375 46.890625 
Q 34.859375 48.09375 39.3125 48.09375 
Q 50.484375 48.09375 57.34375 41.546875 
Q 64.203125 35.015625 64.203125 24.421875 
Q 64.203125 12.703125 56.53125 5.640625 
Q 48.875 -1.421875 35.984375 -1.421875 
Q 21.78125 -1.421875 13.984375 8.171875 
Q 6.203125 17.78125 6.203125 35.40625 
Q 6.203125 53.46875 15.3125 63.796875 
Q 24.421875 74.125 40.28125 74.125 
Q 45.3125 74.125 50.046875 73.34375 
Q 54.78125 72.5625 59.421875 71 
z
" id="DejaVuSans-Bold-54"/>
      </defs>
      <g transform="translate(241.207926 268.118125)scale(0.12 -0.12)">
       <use xlink:href="#DejaVuSans-Bold-48"/>
       <use x="69.580078" xlink:href="#DejaVuSans-Bold-46"/>
       <use x="107.568359" xlink:href="#DejaVuSans-Bold-54"/>
      </g>
     </g>
    </g>
    <g id="xtick_5">
     <g id="line2d_5">
      <g>
       <use style="stroke:#000000;stroke-width:2.8;" x="312.709091" xlink:href="#me0f17f3a0d" y="252"/>
      </g>
     </g>
     <g id="text_5">
      <!-- 0.8 -->
      <defs>
       <path d="M 34.8125 32.625 
Q 29.546875 32.625 26.703125 29.734375 
Q 23.875 26.859375 23.875 21.484375 
Q 23.875 16.109375 26.703125 13.25 
Q 29.546875 10.40625 34.8125 10.40625 
Q 40.046875 10.40625 42.828125 13.25 
Q 45.609375 16.109375 45.609375 21.484375 
Q 45.609375 26.90625 42.828125 29.765625 
Q 40.046875 32.625 34.8125 32.625 
z
M 21.09375 38.8125 
Q 14.453125 40.828125 11.078125 44.96875 
Q 7.71875 49.125 7.71875 55.328125 
Q 7.71875 64.546875 14.59375 69.375 
Q 21.484375 74.21875 34.8125 74.21875 
Q 48.046875 74.21875 54.921875 69.40625 
Q 61.8125 64.59375 61.8125 55.328125 
Q 61.8125 49.125 58.421875 44.96875 
Q 55.03125 40.828125 48.390625 38.8125 
Q 55.8125 36.765625 59.59375 32.15625 
Q 63.375 27.546875 63.375 20.515625 
Q 63.375 9.671875 56.171875 4.125 
Q 48.96875 -1.421875 34.8125 -1.421875 
Q 20.609375 -1.421875 13.359375 4.125 
Q 6.109375 9.671875 6.109375 20.515625 
Q 6.109375 27.546875 9.890625 32.15625 
Q 13.671875 36.765625 21.09375 38.8125 
z
M 25.484375 53.421875 
Q 25.484375 49.078125 27.90625 46.734375 
Q 30.328125 44.390625 34.8125 44.390625 
Q 39.203125 44.390625 41.59375 46.734375 
Q 44 49.078125 44 53.421875 
Q 44 57.765625 41.59375 60.078125 
Q 39.203125 62.40625 34.8125 62.40625 
Q 30.328125 62.40625 27.90625 60.0625 
Q 25.484375 57.71875 25.484375 53.421875 
z
" id="DejaVuSans-Bold-56"/>
      </defs>
      <g transform="translate(302.080653 268.118125)scale(0.12 -0.12)">
       <use xlink:href="#DejaVuSans-Bold-48"/>
       <use x="69.580078" xlink:href="#DejaVuSans-Bold-46"/>
       <use x="107.568359" xlink:href="#DejaVuSans-Bold-56"/>
      </g>
     </g>
    </g>
    <g id="xtick_6">
     <g id="line2d_6">
      <g>
       <use style="stroke:#000000;stroke-width:2.8;" x="373.581818" xlink:href="#me0f17f3a0d" y="252"/>
      </g>
     </g>
     <g id="text_6">
      <!-- 1.0 -->
      <defs>
       <path d="M 11.71875 12.984375 
L 28.328125 12.984375 
L 28.328125 60.109375 
L 11.28125 56.59375 
L 11.28125 69.390625 
L 28.21875 72.90625 
L 46.09375 72.90625 
L 46.09375 12.984375 
L 62.703125 12.984375 
L 62.703125 0 
L 11.71875 0 
z
" id="DejaVuSans-Bold-49"/>
      </defs>
      <g transform="translate(362.953381 268.118125)scale(0.12 -0.12)">
       <use xlink:href="#DejaVuSans-Bold-49"/>
       <use x="69.580078" xlink:href="#DejaVuSans-Bold-46"/>
       <use x="107.568359" xlink:href="#DejaVuSans-Bold-48"/>
      </g>
     </g>
    </g>
    <g id="text_7">
     <!-- Normalized Intensity (normalized by model data) -->
     <defs>
      <path d="M 9.1875 72.90625 
L 30.171875 72.90625 
L 56.6875 22.90625 
L 56.6875 72.90625 
L 74.515625 72.90625 
L 74.515625 0 
L 53.515625 0 
L 27 50 
L 27 0 
L 9.1875 0 
z
" id="DejaVuSans-Bold-78"/>
      <path d="M 34.421875 43.5 
Q 28.609375 43.5 25.5625 39.328125 
Q 22.515625 35.15625 22.515625 27.296875 
Q 22.515625 19.4375 25.5625 15.25 
Q 28.609375 11.078125 34.421875 11.078125 
Q 40.140625 11.078125 43.15625 15.25 
Q 46.1875 19.4375 46.1875 27.296875 
Q 46.1875 35.15625 43.15625 39.328125 
Q 40.140625 43.5 34.421875 43.5 
z
M 34.421875 56 
Q 48.53125 56 56.46875 48.375 
Q 64.40625 40.765625 64.40625 27.296875 
Q 64.40625 13.8125 56.46875 6.1875 
Q 48.53125 -1.421875 34.421875 -1.421875 
Q 20.265625 -1.421875 12.28125 6.1875 
Q 4.296875 13.8125 4.296875 27.296875 
Q 4.296875 40.765625 12.28125 48.375 
Q 20.265625 56 34.421875 56 
z
" id="DejaVuSans-Bold-111"/>
      <path d="M 49.03125 39.796875 
Q 46.734375 40.875 44.453125 41.375 
Q 42.1875 41.890625 39.890625 41.890625 
Q 33.15625 41.890625 29.515625 37.5625 
Q 25.875 33.25 25.875 25.203125 
L 25.875 0 
L 8.40625 0 
L 8.40625 54.6875 
L 25.875 54.6875 
L 25.875 45.703125 
Q 29.25 51.078125 33.609375 53.53125 
Q 37.984375 56 44.09375 56 
Q 44.96875 56 45.984375 55.921875 
Q 47.015625 55.859375 48.96875 55.609375 
z
" id="DejaVuSans-Bold-114"/>
      <path d="M 59.078125 45.609375 
Q 62.40625 50.6875 66.96875 53.34375 
Q 71.53125 56 77 56 
Q 86.421875 56 91.359375 50.1875 
Q 96.296875 44.390625 96.296875 33.296875 
L 96.296875 0 
L 78.71875 0 
L 78.71875 28.515625 
Q 78.765625 29.15625 78.78125 29.828125 
Q 78.8125 30.515625 78.8125 31.78125 
Q 78.8125 37.59375 77.09375 40.203125 
Q 75.390625 42.828125 71.578125 42.828125 
Q 66.609375 42.828125 63.890625 38.71875 
Q 61.1875 34.625 61.078125 26.859375 
L 61.078125 0 
L 43.5 0 
L 43.5 28.515625 
Q 43.5 37.59375 41.9375 40.203125 
Q 40.375 42.828125 36.375 42.828125 
Q 31.34375 42.828125 28.609375 38.703125 
Q 25.875 34.578125 25.875 26.90625 
L 25.875 0 
L 8.296875 0 
L 8.296875 54.6875 
L 25.875 54.6875 
L 25.875 46.6875 
Q 29.109375 51.3125 33.28125 53.65625 
Q 37.453125 56 42.484375 56 
Q 48.140625 56 52.484375 53.265625 
Q 56.84375 50.53125 59.078125 45.609375 
z
" id="DejaVuSans-Bold-109"/>
      <path d="M 32.90625 24.609375 
Q 27.4375 24.609375 24.671875 22.75 
Q 21.921875 20.90625 21.921875 17.28125 
Q 21.921875 13.96875 24.140625 12.078125 
Q 26.375 10.203125 30.328125 10.203125 
Q 35.25 10.203125 38.625 13.734375 
Q 42 17.28125 42 22.609375 
L 42 24.609375 
z
M 59.625 31.203125 
L 59.625 0 
L 42 0 
L 42 8.109375 
Q 38.484375 3.125 34.078125 0.84375 
Q 29.6875 -1.421875 23.390625 -1.421875 
Q 14.890625 -1.421875 9.59375 3.53125 
Q 4.296875 8.5 4.296875 16.40625 
Q 4.296875 26.03125 10.90625 30.515625 
Q 17.53125 35.015625 31.6875 35.015625 
L 42 35.015625 
L 42 36.375 
Q 42 40.53125 38.71875 42.453125 
Q 35.453125 44.390625 28.515625 44.390625 
Q 22.90625 44.390625 18.0625 43.265625 
Q 13.234375 42.140625 9.078125 39.890625 
L 9.078125 53.21875 
Q 14.703125 54.59375 20.359375 55.296875 
Q 26.03125 56 31.6875 56 
Q 46.484375 56 53.046875 50.171875 
Q 59.625 44.34375 59.625 31.203125 
z
" id="DejaVuSans-Bold-97"/>
      <path d="M 8.40625 75.984375 
L 25.875 75.984375 
L 25.875 0 
L 8.40625 0 
z
" id="DejaVuSans-Bold-108"/>
      <path d="M 8.40625 54.6875 
L 25.875 54.6875 
L 25.875 0 
L 8.40625 0 
z
M 8.40625 75.984375 
L 25.875 75.984375 
L 25.875 61.71875 
L 8.40625 61.71875 
z
" id="DejaVuSans-Bold-105"/>
      <path d="M 5.71875 54.6875 
L 53.421875 54.6875 
L 53.421875 42.484375 
L 24.609375 12.5 
L 53.421875 12.5 
L 53.421875 0 
L 4.5 0 
L 4.5 12.203125 
L 33.296875 42.1875 
L 5.71875 42.1875 
z
" id="DejaVuSans-Bold-122"/>
      <path d="M 62.984375 27.484375 
L 62.984375 22.515625 
L 22.125 22.515625 
Q 22.75 16.359375 26.5625 13.28125 
Q 30.375 10.203125 37.203125 10.203125 
Q 42.71875 10.203125 48.5 11.84375 
Q 54.296875 13.484375 60.40625 16.796875 
L 60.40625 3.328125 
Q 54.203125 0.984375 48 -0.21875 
Q 41.796875 -1.421875 35.59375 -1.421875 
Q 20.75 -1.421875 12.515625 6.125 
Q 4.296875 13.671875 4.296875 27.296875 
Q 4.296875 40.671875 12.375 48.328125 
Q 20.453125 56 34.625 56 
Q 47.515625 56 55.25 48.234375 
Q 62.984375 40.484375 62.984375 27.484375 
z
M 45.015625 33.296875 
Q 45.015625 38.28125 42.109375 41.328125 
Q 39.203125 44.390625 34.515625 44.390625 
Q 29.4375 44.390625 26.265625 41.53125 
Q 23.09375 38.671875 22.3125 33.296875 
z
" id="DejaVuSans-Bold-101"/>
      <path d="M 45.609375 46.6875 
L 45.609375 75.984375 
L 63.1875 75.984375 
L 63.1875 0 
L 45.609375 0 
L 45.609375 7.90625 
Q 42 3.078125 37.640625 0.828125 
Q 33.296875 -1.421875 27.59375 -1.421875 
Q 17.484375 -1.421875 10.984375 6.609375 
Q 4.5 14.65625 4.5 27.296875 
Q 4.5 39.9375 10.984375 47.96875 
Q 17.484375 56 27.59375 56 
Q 33.25 56 37.625 53.734375 
Q 42 51.46875 45.609375 46.6875 
z
M 34.078125 11.28125 
Q 39.703125 11.28125 42.65625 15.375 
Q 45.609375 19.484375 45.609375 27.296875 
Q 45.609375 35.109375 42.65625 39.203125 
Q 39.703125 43.3125 34.078125 43.3125 
Q 28.515625 43.3125 25.5625 39.203125 
Q 22.609375 35.109375 22.609375 27.296875 
Q 22.609375 19.484375 25.5625 15.375 
Q 28.515625 11.28125 34.078125 11.28125 
z
" id="DejaVuSans-Bold-100"/>
      <path id="DejaVuSans-Bold-32"/>
      <path d="M 9.1875 72.90625 
L 27.984375 72.90625 
L 27.984375 0 
L 9.1875 0 
z
" id="DejaVuSans-Bold-73"/>
      <path d="M 63.375 33.296875 
L 63.375 0 
L 45.796875 0 
L 45.796875 5.421875 
L 45.796875 25.484375 
Q 45.796875 32.5625 45.484375 35.25 
Q 45.171875 37.9375 44.390625 39.203125 
Q 43.359375 40.921875 41.59375 41.875 
Q 39.84375 42.828125 37.59375 42.828125 
Q 32.125 42.828125 29 38.59375 
Q 25.875 34.375 25.875 26.90625 
L 25.875 0 
L 8.40625 0 
L 8.40625 54.6875 
L 25.875 54.6875 
L 25.875 46.6875 
Q 29.828125 51.46875 34.265625 53.734375 
Q 38.71875 56 44.09375 56 
Q 53.5625 56 58.46875 50.1875 
Q 63.375 44.390625 63.375 33.296875 
z
" id="DejaVuSans-Bold-110"/>
      <path d="M 27.484375 70.21875 
L 27.484375 54.6875 
L 45.515625 54.6875 
L 45.515625 42.1875 
L 27.484375 42.1875 
L 27.484375 19 
Q 27.484375 15.1875 29 13.84375 
Q 30.515625 12.5 35.015625 12.5 
L 44 12.5 
L 44 0 
L 29 0 
Q 18.65625 0 14.328125 4.3125 
Q 10.015625 8.640625 10.015625 19 
L 10.015625 42.1875 
L 1.3125 42.1875 
L 1.3125 54.6875 
L 10.015625 54.6875 
L 10.015625 70.21875 
z
" id="DejaVuSans-Bold-116"/>
      <path d="M 51.125 52.984375 
L 51.125 39.703125 
Q 45.515625 42.046875 40.28125 43.21875 
Q 35.0625 44.390625 30.421875 44.390625 
Q 25.4375 44.390625 23.015625 43.140625 
Q 20.609375 41.890625 20.609375 39.3125 
Q 20.609375 37.203125 22.4375 36.078125 
Q 24.265625 34.96875 29 34.421875 
L 32.078125 33.984375 
Q 45.515625 32.28125 50.140625 28.375 
Q 54.78125 24.46875 54.78125 16.109375 
Q 54.78125 7.375 48.328125 2.96875 
Q 41.890625 -1.421875 29.109375 -1.421875 
Q 23.6875 -1.421875 17.890625 -0.5625 
Q 12.109375 0.296875 6 2 
L 6 15.28125 
Q 11.234375 12.75 16.71875 11.46875 
Q 22.21875 10.203125 27.875 10.203125 
Q 33.015625 10.203125 35.59375 11.609375 
Q 38.1875 13.03125 38.1875 15.828125 
Q 38.1875 18.171875 36.40625 19.3125 
Q 34.625 20.453125 29.296875 21.09375 
L 26.21875 21.484375 
Q 14.546875 22.953125 9.859375 26.90625 
Q 5.171875 30.859375 5.171875 38.921875 
Q 5.171875 47.609375 11.125 51.796875 
Q 17.09375 56 29.390625 56 
Q 34.234375 56 39.546875 55.265625 
Q 44.875 54.546875 51.125 52.984375 
z
" id="DejaVuSans-Bold-115"/>
      <path d="M 1.21875 54.6875 
L 18.703125 54.6875 
L 33.40625 17.578125 
L 45.90625 54.6875 
L 63.375 54.6875 
L 40.375 -5.171875 
Q 36.921875 -14.3125 32.296875 -17.9375 
Q 27.6875 -21.578125 20.125 -21.578125 
L 10.015625 -21.578125 
L 10.015625 -10.109375 
L 15.484375 -10.109375 
Q 19.921875 -10.109375 21.9375 -8.6875 
Q 23.96875 -7.28125 25.09375 -3.609375 
L 25.59375 -2.09375 
z
" id="DejaVuSans-Bold-121"/>
      <path d="M 37.703125 -13.1875 
L 23.1875 -13.1875 
Q 15.71875 -1.125 12.15625 9.734375 
Q 8.59375 20.609375 8.59375 31.296875 
Q 8.59375 42 12.171875 52.953125 
Q 15.765625 63.921875 23.1875 75.875 
L 37.703125 75.875 
Q 31.453125 64.3125 28.328125 53.25 
Q 25.203125 42.1875 25.203125 31.390625 
Q 25.203125 20.609375 28.296875 9.515625 
Q 31.390625 -1.5625 37.703125 -13.1875 
z
" id="DejaVuSans-Bold-40"/>
      <path d="M 37.5 11.28125 
Q 43.109375 11.28125 46.0625 15.375 
Q 49.03125 19.484375 49.03125 27.296875 
Q 49.03125 35.109375 46.0625 39.203125 
Q 43.109375 43.3125 37.5 43.3125 
Q 31.890625 43.3125 28.875 39.1875 
Q 25.875 35.0625 25.875 27.296875 
Q 25.875 19.53125 28.875 15.40625 
Q 31.890625 11.28125 37.5 11.28125 
z
M 25.875 46.6875 
Q 29.5 51.46875 33.890625 53.734375 
Q 38.28125 56 44 56 
Q 54.109375 56 60.59375 47.96875 
Q 67.09375 39.9375 67.09375 27.296875 
Q 67.09375 14.65625 60.59375 6.609375 
Q 54.109375 -1.421875 44 -1.421875 
Q 38.28125 -1.421875 33.890625 0.84375 
Q 29.5 3.125 25.875 7.90625 
L 25.875 0 
L 8.40625 0 
L 8.40625 75.984375 
L 25.875 75.984375 
z
" id="DejaVuSans-Bold-98"/>
      <path d="M 8.015625 -13.1875 
Q 14.265625 -1.5625 17.390625 9.515625 
Q 20.515625 20.609375 20.515625 31.390625 
Q 20.515625 42.1875 17.390625 53.25 
Q 14.265625 64.3125 8.015625 75.875 
L 22.515625 75.875 
Q 29.9375 63.921875 33.515625 52.953125 
Q 37.109375 42 37.109375 31.296875 
Q 37.109375 20.609375 33.546875 9.734375 
Q 29.984375 -1.125 22.515625 -13.1875 
z
" id="DejaVuSans-Bold-41"/>
     </defs>
     <g transform="translate(55.093125 287.731875)scale(0.12 -0.12)">
      <use xlink:href="#DejaVuSans-Bold-78"/>
      <use x="83.691406" xlink:href="#DejaVuSans-Bold-111"/>
      <use x="152.392578" xlink:href="#DejaVuSans-Bold-114"/>
      <use x="201.708984" xlink:href="#DejaVuSans-Bold-109"/>
      <use x="305.908203" xlink:href="#DejaVuSans-Bold-97"/>
      <use x="373.388672" xlink:href="#DejaVuSans-Bold-108"/>
      <use x="407.666016" xlink:href="#DejaVuSans-Bold-105"/>
      <use x="441.943359" xlink:href="#DejaVuSans-Bold-122"/>
      <use x="500.146484" xlink:href="#DejaVuSans-Bold-101"/>
      <use x="567.96875" xlink:href="#DejaVuSans-Bold-100"/>
      <use x="639.550781" xlink:href="#DejaVuSans-Bold-32"/>
      <use x="674.365234" xlink:href="#DejaVuSans-Bold-73"/>
      <use x="711.572266" xlink:href="#DejaVuSans-Bold-110"/>
      <use x="782.763672" xlink:href="#DejaVuSans-Bold-116"/>
      <use x="830.566406" xlink:href="#DejaVuSans-Bold-101"/>
      <use x="898.388672" xlink:href="#DejaVuSans-Bold-110"/>
      <use x="969.580078" xlink:href="#DejaVuSans-Bold-115"/>
      <use x="1029.101562" xlink:href="#DejaVuSans-Bold-105"/>
      <use x="1063.378906" xlink:href="#DejaVuSans-Bold-116"/>
      <use x="1111.181641" xlink:href="#DejaVuSans-Bold-121"/>
      <use x="1176.367188" xlink:href="#DejaVuSans-Bold-32"/>
      <use x="1211.181641" xlink:href="#DejaVuSans-Bold-40"/>
      <use x="1256.884766" xlink:href="#DejaVuSans-Bold-110"/>
      <use x="1328.076172" xlink:href="#DejaVuSans-Bold-111"/>
      <use x="1396.777344" xlink:href="#DejaVuSans-Bold-114"/>
      <use x="1446.09375" xlink:href="#DejaVuSans-Bold-109"/>
      <use x="1550.292969" xlink:href="#DejaVuSans-Bold-97"/>
      <use x="1617.773438" xlink:href="#DejaVuSans-Bold-108"/>
      <use x="1652.050781" xlink:href="#DejaVuSans-Bold-105"/>
      <use x="1686.328125" xlink:href="#DejaVuSans-Bold-122"/>
      <use x="1744.53125" xlink:href="#DejaVuSans-Bold-101"/>
      <use x="1812.353516" xlink:href="#DejaVuSans-Bold-100"/>
      <use x="1883.935547" xlink:href="#DejaVuSans-Bold-32"/>
      <use x="1918.75" xlink:href="#DejaVuSans-Bold-98"/>
      <use x="1990.332031" xlink:href="#DejaVuSans-Bold-121"/>
      <use x="2055.517578" xlink:href="#DejaVuSans-Bold-32"/>
      <use x="2090.332031" xlink:href="#DejaVuSans-Bold-109"/>
      <use x="2194.53125" xlink:href="#DejaVuSans-Bold-111"/>
      <use x="2263.232422" xlink:href="#DejaVuSans-Bold-100"/>
      <use x="2334.814453" xlink:href="#DejaVuSans-Bold-101"/>
      <use x="2402.636719" xlink:href="#DejaVuSans-Bold-108"/>
      <use x="2436.914062" xlink:href="#DejaVuSans-Bold-32"/>
      <use x="2471.728516" xlink:href="#DejaVuSans-Bold-100"/>
      <use x="2543.310547" xlink:href="#DejaVuSans-Bold-97"/>
      <use x="2610.791016" xlink:href="#DejaVuSans-Bold-116"/>
      <use x="2658.59375" xlink:href="#DejaVuSans-Bold-97"/>
      <use x="2726.074219" xlink:href="#DejaVuSans-Bold-41"/>
     </g>
    </g>
   </g>
   <g id="matplotlib.axis_2">
    <g id="ytick_1">
     <g id="line2d_7">
      <defs>
       <path d="M 0 0 
L -3.5 0 
" id="m77bcee9bb1" style="stroke:#000000;stroke-width:2.8;"/>
      </defs>
      <g>
       <use style="stroke:#000000;stroke-width:2.8;" x="54" xlink:href="#m77bcee9bb1" y="252"/>
      </g>
     </g>
     <g id="text_8">
      <!-- 0 -->
      <g transform="translate(38.650625 256.559062)scale(0.12 -0.12)">
       <use xlink:href="#DejaVuSans-Bold-48"/>
      </g>
     </g>
    </g>
    <g id="ytick_2">
     <g id="line2d_8">
      <g>
       <use style="stroke:#000000;stroke-width:2.8;" x="54" xlink:href="#m77bcee9bb1" y="208.857143"/>
      </g>
     </g>
     <g id="text_9">
      <!-- 1 -->
      <g transform="translate(38.650625 213.416205)scale(0.12 -0.12)">
       <use xlink:href="#DejaVuSans-Bold-49"/>
      </g>
     </g>
    </g>
    <g id="ytick_3">
     <g id="line2d_9">
      <g>
       <use style="stroke:#000000;stroke-width:2.8;" x="54" xlink:href="#m77bcee9bb1" y="165.714286"/>
      </g>
     </g>
     <g id="text_10">
      <!-- 2 -->
      <g transform="translate(38.650625 170.273348)scale(0.12 -0.12)">
       <use xlink:href="#DejaVuSans-Bold-50"/>
      </g>
     </g>
    </g>
    <g id="ytick_4">
     <g id="line2d_10">
      <g>
       <use style="stroke:#000000;stroke-width:2.8;" x="54" xlink:href="#m77bcee9bb1" y="122.571429"/>
      </g>
     </g>
     <g id="text_11">
      <!-- 3 -->
      <defs>
       <path d="M 46.578125 39.3125 
Q 53.953125 37.40625 57.78125 32.6875 
Q 61.625 27.984375 61.625 20.703125 
Q 61.625 9.859375 53.3125 4.21875 
Q 45.015625 -1.421875 29.109375 -1.421875 
Q 23.484375 -1.421875 17.84375 -0.515625 
Q 12.203125 0.390625 6.6875 2.203125 
L 6.6875 16.703125 
Q 11.96875 14.0625 17.15625 12.71875 
Q 22.359375 11.375 27.390625 11.375 
Q 34.859375 11.375 38.84375 13.953125 
Q 42.828125 16.546875 42.828125 21.390625 
Q 42.828125 26.375 38.75 28.9375 
Q 34.671875 31.5 26.703125 31.5 
L 19.1875 31.5 
L 19.1875 43.609375 
L 27.09375 43.609375 
Q 34.1875 43.609375 37.640625 45.828125 
Q 41.109375 48.046875 41.109375 52.59375 
Q 41.109375 56.78125 37.734375 59.078125 
Q 34.375 61.375 28.21875 61.375 
Q 23.6875 61.375 19.046875 60.34375 
Q 14.40625 59.328125 9.8125 57.328125 
L 9.8125 71.09375 
Q 15.375 72.65625 20.84375 73.4375 
Q 26.3125 74.21875 31.59375 74.21875 
Q 45.796875 74.21875 52.84375 69.546875 
Q 59.90625 64.890625 59.90625 55.515625 
Q 59.90625 49.125 56.53125 45.046875 
Q 53.171875 40.96875 46.578125 39.3125 
z
" id="DejaVuSans-Bold-51"/>
      </defs>
      <g transform="translate(38.650625 127.130491)scale(0.12 -0.12)">
       <use xlink:href="#DejaVuSans-Bold-51"/>
      </g>
     </g>
    </g>
    <g id="ytick_5">
     <g id="line2d_11">
      <g>
       <use style="stroke:#000000;stroke-width:2.8;" x="54" xlink:href="#m77bcee9bb1" y="79.428571"/>
      </g>
     </g>
     <g id="text_12">
      <!-- 4 -->
      <g transform="translate(38.650625 83.987634)scale(0.12 -0.12)">
       <use xlink:href="#DejaVuSans-Bold-52"/>
      </g>
     </g>
    </g>
    <g id="ytick_6">
     <g id="line2d_12">
      <g>
       <use style="stroke:#000000;stroke-width:2.8;" x="54" xlink:href="#m77bcee9bb1" y="36.285714"/>
      </g>
     </g>
     <g id="text_13">
      <!-- 5 -->
      <defs>
       <path d="M 10.59375 72.90625 
L 57.328125 72.90625 
L 57.328125 59.078125 
L 25.59375 59.078125 
L 25.59375 47.796875 
Q 27.734375 48.390625 29.90625 48.703125 
Q 32.078125 49.03125 34.421875 49.03125 
Q 47.75 49.03125 55.171875 42.359375 
Q 62.59375 35.6875 62.59375 23.78125 
Q 62.59375 11.96875 54.515625 5.265625 
Q 46.4375 -1.421875 32.078125 -1.421875 
Q 25.875 -1.421875 19.796875 -0.21875 
Q 13.71875 0.984375 7.71875 3.421875 
L 7.71875 18.21875 
Q 13.671875 14.796875 19.015625 13.078125 
Q 24.359375 11.375 29.109375 11.375 
Q 35.9375 11.375 39.859375 14.71875 
Q 43.796875 18.0625 43.796875 23.78125 
Q 43.796875 29.546875 39.859375 32.859375 
Q 35.9375 36.1875 29.109375 36.1875 
Q 25.046875 36.1875 20.453125 35.125 
Q 15.875 34.078125 10.59375 31.890625 
z
" id="DejaVuSans-Bold-53"/>
      </defs>
      <g transform="translate(38.650625 40.844777)scale(0.12 -0.12)">
       <use xlink:href="#DejaVuSans-Bold-53"/>
      </g>
     </g>
    </g>
    <g id="text_14">
     <!-- Density -->
     <defs>
      <path d="M 27.984375 58.6875 
L 27.984375 14.203125 
L 34.71875 14.203125 
Q 46.234375 14.203125 52.3125 19.921875 
Q 58.40625 25.640625 58.40625 36.53125 
Q 58.40625 47.359375 52.34375 53.015625 
Q 46.296875 58.6875 34.71875 58.6875 
z
M 9.1875 72.90625 
L 29 72.90625 
Q 45.609375 72.90625 53.734375 70.53125 
Q 61.859375 68.171875 67.671875 62.5 
Q 72.796875 57.5625 75.28125 51.109375 
Q 77.78125 44.671875 77.78125 36.53125 
Q 77.78125 28.265625 75.28125 21.796875 
Q 72.796875 15.328125 67.671875 10.40625 
Q 61.8125 4.734375 53.609375 2.359375 
Q 45.40625 0 29 0 
L 9.1875 0 
z
" id="DejaVuSans-Bold-68"/>
     </defs>
     <g transform="translate(28.06125 169.00875)rotate(-90)scale(0.12 -0.12)">
      <use xlink:href="#DejaVuSans-Bold-68"/>
      <use x="83.007812" xlink:href="#DejaVuSans-Bold-101"/>
      <use x="150.830078" xlink:href="#DejaVuSans-Bold-110"/>
      <use x="222.021484" xlink:href="#DejaVuSans-Bold-115"/>
      <use x="281.542969" xlink:href="#DejaVuSans-Bold-105"/>
      <use x="315.820312" xlink:href="#DejaVuSans-Bold-116"/>
      <use x="363.623047" xlink:href="#DejaVuSans-Bold-121"/>
     </g>
    </g>
   </g>
   <g id="patch_65">
    <path d="M 54 252 
L 54 34.56 
" style="fill:none;stroke:#000000;stroke-linecap:square;stroke-linejoin:miter;stroke-width:2.8;"/>
   </g>
   <g id="patch_66">
    <path d="M 388.8 252 
L 388.8 34.56 
" style="fill:none;stroke:#000000;stroke-linecap:square;stroke-linejoin:miter;stroke-width:2.8;"/>
   </g>
   <g id="patch_67">
    <path d="M 54 252 
L 388.8 252 
" style="fill:none;stroke:#000000;stroke-linecap:square;stroke-linejoin:miter;stroke-width:2.8;"/>
   </g>
   <g id="patch_68">
    <path d="M 54 34.56 
L 388.8 34.56 
" style="fill:none;stroke:#000000;stroke-linecap:square;stroke-linejoin:miter;stroke-width:2.8;"/>
   </g>
   <g id="text_15">
    <!-- Intensity Distribution -->
    <defs>
     <path d="M 7.8125 21.296875 
L 7.8125 54.6875 
L 25.390625 54.6875 
L 25.390625 49.21875 
Q 25.390625 44.78125 25.34375 38.0625 
Q 25.296875 31.34375 25.296875 29.109375 
Q 25.296875 22.515625 25.640625 19.609375 
Q 25.984375 16.703125 26.8125 15.375 
Q 27.875 13.671875 29.609375 12.734375 
Q 31.34375 11.8125 33.59375 11.8125 
Q 39.0625 11.8125 42.1875 16.015625 
Q 45.3125 20.21875 45.3125 27.6875 
L 45.3125 54.6875 
L 62.796875 54.6875 
L 62.796875 0 
L 45.3125 0 
L 45.3125 7.90625 
Q 41.359375 3.125 36.9375 0.84375 
Q 32.515625 -1.421875 27.203125 -1.421875 
Q 17.71875 -1.421875 12.765625 4.390625 
Q 7.8125 10.203125 7.8125 21.296875 
z
" id="DejaVuSans-Bold-117"/>
    </defs>
    <g transform="translate(160.913281 24.56)scale(0.1 -0.1)">
     <use xlink:href="#DejaVuSans-Bold-73"/>
     <use x="37.207031" xlink:href="#DejaVuSans-Bold-110"/>
     <use x="108.398438" xlink:href="#DejaVuSans-Bold-116"/>
     <use x="156.201172" xlink:href="#DejaVuSans-Bold-101"/>
     <use x="224.023438" xlink:href="#DejaVuSans-Bold-110"/>
     <use x="295.214844" xlink:href="#DejaVuSans-Bold-115"/>
     <use x="354.736328" xlink:href="#DejaVuSans-Bold-105"/>
     <use x="389.013672" xlink:href="#DejaVuSans-Bold-116"/>
     <use x="436.816406" xlink:href="#DejaVuSans-Bold-121"/>
     <use x="502.001953" xlink:href="#DejaVuSans-Bold-32"/>
     <use x="536.816406" xlink:href="#DejaVuSans-Bold-68"/>
     <use x="619.824219" xlink:href="#DejaVuSans-Bold-105"/>
     <use x="654.101562" xlink:href="#DejaVuSans-Bold-115"/>
     <use x="713.623047" xlink:href="#DejaVuSans-Bold-116"/>
     <use x="761.425781" xlink:href="#DejaVuSans-Bold-114"/>
     <use x="810.742188" xlink:href="#DejaVuSans-Bold-105"/>
     <use x="845.019531" xlink:href="#DejaVuSans-Bold-98"/>
     <use x="916.601562" xlink:href="#DejaVuSans-Bold-117"/>
     <use x="987.792969" xlink:href="#DejaVuSans-Bold-116"/>
     <use x="1035.595703" xlink:href="#DejaVuSans-Bold-105"/>
     <use x="1069.873047" xlink:href="#DejaVuSans-Bold-111"/>
     <use x="1138.574219" xlink:href="#DejaVuSans-Bold-110"/>
    </g>
   </g>
   <g id="legend_1">
    <g id="patch_69">
     <path d="M 248.09625 114.615 
L 380.4 114.615 
Q 382.8 114.615 382.8 112.215 
L 382.8 42.96 
Q 382.8 40.56 380.4 40.56 
L 248.09625 40.56 
Q 245.69625 40.56 245.69625 42.96 
L 245.69625 112.215 
Q 245.69625 114.615 248.09625 114.615 
z
" style="fill:#ffffff;opacity:0.8;stroke:#cccccc;stroke-linejoin:miter;"/>
    </g>
    <g id="patch_70">
     <path d="M 250.49625 54.478125 
L 274.49625 54.478125 
L 274.49625 46.078125 
L 250.49625 46.078125 
z
" style="fill:none;stroke:#073b4c;stroke-linejoin:miter;stroke-width:3;"/>
    </g>
    <g id="text_16">
     <!-- KDM5B Model -->
     <defs>
      <path d="M 9.1875 72.90625 
L 27.984375 72.90625 
L 27.984375 46.296875 
L 55.078125 72.90625 
L 76.90625 72.90625 
L 41.796875 38.375 
L 80.515625 0 
L 56.984375 0 
L 27.984375 28.71875 
L 27.984375 0 
L 9.1875 0 
z
" id="DejaVuSans-Bold-75"/>
      <path d="M 9.1875 72.90625 
L 33.109375 72.90625 
L 49.703125 33.890625 
L 66.40625 72.90625 
L 90.28125 72.90625 
L 90.28125 0 
L 72.515625 0 
L 72.515625 53.328125 
L 55.71875 14.015625 
L 43.796875 14.015625 
L 27 53.328125 
L 27 0 
L 9.1875 0 
z
" id="DejaVuSans-Bold-77"/>
      <path d="M 38.375 44.671875 
Q 42.828125 44.671875 45.109375 46.625 
Q 47.40625 48.578125 47.40625 52.390625 
Q 47.40625 56.15625 45.109375 58.125 
Q 42.828125 60.109375 38.375 60.109375 
L 27.984375 60.109375 
L 27.984375 44.671875 
z
M 39.015625 12.796875 
Q 44.671875 12.796875 47.53125 15.1875 
Q 50.390625 17.578125 50.390625 22.40625 
Q 50.390625 27.15625 47.5625 29.515625 
Q 44.734375 31.890625 39.015625 31.890625 
L 27.984375 31.890625 
L 27.984375 12.796875 
z
M 56.5 39.015625 
Q 62.546875 37.25 65.859375 32.515625 
Q 69.1875 27.78125 69.1875 20.90625 
Q 69.1875 10.359375 62.0625 5.171875 
Q 54.9375 0 40.375 0 
L 9.1875 0 
L 9.1875 72.90625 
L 37.40625 72.90625 
Q 52.59375 72.90625 59.40625 68.3125 
Q 66.21875 63.71875 66.21875 53.609375 
Q 66.21875 48.296875 63.71875 44.5625 
Q 61.234375 40.828125 56.5 39.015625 
z
" id="DejaVuSans-Bold-66"/>
     </defs>
     <g transform="translate(284.09625 54.478125)scale(0.12 -0.12)">
      <use xlink:href="#DejaVuSans-Bold-75"/>
      <use x="77.490234" xlink:href="#DejaVuSans-Bold-68"/>
      <use x="160.498047" xlink:href="#DejaVuSans-Bold-77"/>
      <use x="260.009766" xlink:href="#DejaVuSans-Bold-53"/>
      <use x="329.589844" xlink:href="#DejaVuSans-Bold-66"/>
      <use x="405.810547" xlink:href="#DejaVuSans-Bold-32"/>
      <use x="440.625" xlink:href="#DejaVuSans-Bold-77"/>
      <use x="540.136719" xlink:href="#DejaVuSans-Bold-111"/>
      <use x="608.837891" xlink:href="#DejaVuSans-Bold-100"/>
      <use x="680.419922" xlink:href="#DejaVuSans-Bold-101"/>
      <use x="748.242188" xlink:href="#DejaVuSans-Bold-108"/>
     </g>
    </g>
    <g id="patch_71">
     <path d="M 250.49625 72.091875 
L 274.49625 72.091875 
L 274.49625 63.691875 
L 250.49625 63.691875 
z
" style="fill:none;stroke:#ff479d;stroke-linejoin:miter;stroke-width:3;"/>
    </g>
    <g id="text_17">
     <!-- P300 Model -->
     <defs>
      <path d="M 9.1875 72.90625 
L 40.375 72.90625 
Q 54.296875 72.90625 61.734375 66.71875 
Q 69.1875 60.546875 69.1875 49.125 
Q 69.1875 37.640625 61.734375 31.46875 
Q 54.296875 25.296875 40.375 25.296875 
L 27.984375 25.296875 
L 27.984375 0 
L 9.1875 0 
z
M 27.984375 59.28125 
L 27.984375 38.921875 
L 38.375 38.921875 
Q 43.84375 38.921875 46.828125 41.578125 
Q 49.8125 44.234375 49.8125 49.125 
Q 49.8125 54 46.828125 56.640625 
Q 43.84375 59.28125 38.375 59.28125 
z
" id="DejaVuSans-Bold-80"/>
     </defs>
     <g transform="translate(284.09625 72.091875)scale(0.12 -0.12)">
      <use xlink:href="#DejaVuSans-Bold-80"/>
      <use x="73.291016" xlink:href="#DejaVuSans-Bold-51"/>
      <use x="142.871094" xlink:href="#DejaVuSans-Bold-48"/>
      <use x="212.451172" xlink:href="#DejaVuSans-Bold-48"/>
      <use x="282.03125" xlink:href="#DejaVuSans-Bold-32"/>
      <use x="316.845703" xlink:href="#DejaVuSans-Bold-77"/>
      <use x="416.357422" xlink:href="#DejaVuSans-Bold-111"/>
      <use x="485.058594" xlink:href="#DejaVuSans-Bold-100"/>
      <use x="556.640625" xlink:href="#DejaVuSans-Bold-101"/>
      <use x="624.462891" xlink:href="#DejaVuSans-Bold-108"/>
     </g>
    </g>
    <g id="patch_72">
     <path d="M 250.49625 89.705625 
L 274.49625 89.705625 
L 274.49625 81.305625 
L 250.49625 81.305625 
z
" style="fill:#073b4c;fill-opacity:0.5;"/>
    </g>
    <g id="text_18">
     <!-- KDM5B Data -->
     <g transform="translate(284.09625 89.705625)scale(0.12 -0.12)">
      <use xlink:href="#DejaVuSans-Bold-75"/>
      <use x="77.490234" xlink:href="#DejaVuSans-Bold-68"/>
      <use x="160.498047" xlink:href="#DejaVuSans-Bold-77"/>
      <use x="260.009766" xlink:href="#DejaVuSans-Bold-53"/>
      <use x="329.589844" xlink:href="#DejaVuSans-Bold-66"/>
      <use x="405.810547" xlink:href="#DejaVuSans-Bold-32"/>
      <use x="440.625" xlink:href="#DejaVuSans-Bold-68"/>
      <use x="523.632812" xlink:href="#DejaVuSans-Bold-97"/>
      <use x="591.113281" xlink:href="#DejaVuSans-Bold-116"/>
      <use x="638.916016" xlink:href="#DejaVuSans-Bold-97"/>
     </g>
    </g>
    <g id="patch_73">
     <path d="M 250.49625 107.319375 
L 274.49625 107.319375 
L 274.49625 98.919375 
L 250.49625 98.919375 
z
" style="fill:#ef476f;fill-opacity:0.5;"/>
    </g>
    <g id="text_19">
     <!-- P300 Data -->
     <g transform="translate(284.09625 107.319375)scale(0.12 -0.12)">
      <use xlink:href="#DejaVuSans-Bold-80"/>
      <use x="73.291016" xlink:href="#DejaVuSans-Bold-51"/>
      <use x="142.871094" xlink:href="#DejaVuSans-Bold-48"/>
      <use x="212.451172" xlink:href="#DejaVuSans-Bold-48"/>
      <use x="282.03125" xlink:href="#DejaVuSans-Bold-32"/>
      <use x="316.845703" xlink:href="#DejaVuSans-Bold-68"/>
      <use x="399.853516" xlink:href="#DejaVuSans-Bold-97"/>
      <use x="467.333984" xlink:href="#DejaVuSans-Bold-116"/>
      <use x="515.136719" xlink:href="#DejaVuSans-Bold-97"/>
     </g>
    </g>
   </g>
  </g>
 </g>
 <defs>
  <clipPath id="p67ffa4267e">
   <rect height="217.44" width="334.8" x="54" y="34.56"/>
  </clipPath>
 </defs>
</svg>
