<?xml version="1.0" encoding="utf-8" standalone="no"?>
<!DOCTYPE svg PUBLIC "-//W3C//DTD SVG 1.1//EN"
  "http://www.w3.org/Graphics/SVG/1.1/DTD/svg11.dtd">
<!-- Created with matplotlib (https://matplotlib.org/) -->
<svg height="216pt" version="1.1" viewBox="0 0 576 216" width="576pt" xmlns="http://www.w3.org/2000/svg" xmlns:xlink="http://www.w3.org/1999/xlink">
 <defs>
  <style type="text/css">
*{stroke-linecap:butt;stroke-linejoin:round;}
  </style>
 </defs>
 <g id="figure_1">
  <g id="patch_1">
   <path d="M 0 216 
L 576 216 
L 576 0 
L 0 0 
z
" style="fill:#ffffff;"/>
  </g>
  <g id="axes_1">
   <g id="patch_2">
    <path d="M 72 189 
L 518.4 189 
L 518.4 25.92 
L 72 25.92 
z
" style="fill:#ffffff;"/>
   </g>
   <g id="LineCollection_1">
    <path clip-path="url(#p2f96851eb6)" d="M 93.257143 38.464615 
L 93.257143 38.464615 
" style="fill:none;stroke:#ff479d;"/>
    <path clip-path="url(#p2f96851eb6)" d="M 97.508571 123.891511 
L 97.508571 76.360611 
" style="fill:none;stroke:#ff479d;"/>
    <path clip-path="url(#p2f96851eb6)" d="M 101.76 125.445972 
L 101.76 79.087425 
" style="fill:none;stroke:#ff479d;"/>
    <path clip-path="url(#p2f96851eb6)" d="M 106.011429 128.107983 
L 106.011429 81.553771 
" style="fill:none;stroke:#ff479d;"/>
    <path clip-path="url(#p2f96851eb6)" d="M 110.262857 129.607536 
L 110.262857 82.827851 
" style="fill:none;stroke:#ff479d;"/>
    <path clip-path="url(#p2f96851eb6)" d="M 114.514286 131.936396 
L 114.514286 86.329583 
" style="fill:none;stroke:#ff479d;"/>
    <path clip-path="url(#p2f96851eb6)" d="M 118.765714 134.243699 
L 118.765714 88.586907 
" style="fill:none;stroke:#ff479d;"/>
    <path clip-path="url(#p2f96851eb6)" d="M 123.017143 136.202071 
L 123.017143 91.487679 
" style="fill:none;stroke:#ff479d;"/>
    <path clip-path="url(#p2f96851eb6)" d="M 127.268571 138.353268 
L 127.268571 93.912982 
" style="fill:none;stroke:#ff479d;"/>
    <path clip-path="url(#p2f96851eb6)" d="M 131.52 139.236711 
L 131.52 97.484726 
" style="fill:none;stroke:#ff479d;"/>
    <path clip-path="url(#p2f96851eb6)" d="M 135.771429 143.677171 
L 135.771429 99.818047 
" style="fill:none;stroke:#ff479d;"/>
    <path clip-path="url(#p2f96851eb6)" d="M 140.022857 141.823501 
L 140.022857 101.44086 
" style="fill:none;stroke:#ff479d;"/>
    <path clip-path="url(#p2f96851eb6)" d="M 144.274286 147.373494 
L 144.274286 105.003224 
" style="fill:none;stroke:#ff479d;"/>
    <path clip-path="url(#p2f96851eb6)" d="M 148.525714 147.520983 
L 148.525714 107.454062 
" style="fill:none;stroke:#ff479d;"/>
    <path clip-path="url(#p2f96851eb6)" d="M 152.777143 149.155296 
L 152.777143 111.165624 
" style="fill:none;stroke:#ff479d;"/>
    <path clip-path="url(#p2f96851eb6)" d="M 157.028571 153.817425 
L 157.028571 114.664446 
" style="fill:none;stroke:#ff479d;"/>
    <path clip-path="url(#p2f96851eb6)" d="M 161.28 154.83942 
L 161.28 117.804564 
" style="fill:none;stroke:#ff479d;"/>
    <path clip-path="url(#p2f96851eb6)" d="M 165.531429 156.937302 
L 165.531429 116.795762 
" style="fill:none;stroke:#ff479d;"/>
    <path clip-path="url(#p2f96851eb6)" d="M 169.782857 156.606584 
L 169.782857 120.792818 
" style="fill:none;stroke:#ff479d;"/>
    <path clip-path="url(#p2f96851eb6)" d="M 174.034286 159.16264 
L 174.034286 124.014143 
" style="fill:none;stroke:#ff479d;"/>
    <path clip-path="url(#p2f96851eb6)" d="M 178.285714 159.177492 
L 178.285714 125.550391 
" style="fill:none;stroke:#ff479d;"/>
    <path clip-path="url(#p2f96851eb6)" d="M 182.537143 161.146917 
L 182.537143 127.759529 
" style="fill:none;stroke:#ff479d;"/>
    <path clip-path="url(#p2f96851eb6)" d="M 186.788571 163.530993 
L 186.788571 131.344597 
" style="fill:none;stroke:#ff479d;"/>
    <path clip-path="url(#p2f96851eb6)" d="M 191.04 166.069584 
L 191.04 133.650506 
" style="fill:none;stroke:#ff479d;"/>
    <path clip-path="url(#p2f96851eb6)" d="M 195.291429 166.617344 
L 195.291429 134.941032 
" style="fill:none;stroke:#ff479d;"/>
    <path clip-path="url(#p2f96851eb6)" d="M 199.542857 166.6198 
L 199.542857 137.397444 
" style="fill:none;stroke:#ff479d;"/>
    <path clip-path="url(#p2f96851eb6)" d="M 203.794286 168.804619 
L 203.794286 138.041189 
" style="fill:none;stroke:#ff479d;"/>
    <path clip-path="url(#p2f96851eb6)" d="M 208.045714 171.090062 
L 208.045714 140.915937 
" style="fill:none;stroke:#ff479d;"/>
    <path clip-path="url(#p2f96851eb6)" d="M 212.297143 173.433974 
L 212.297143 144.001566 
" style="fill:none;stroke:#ff479d;"/>
    <path clip-path="url(#p2f96851eb6)" d="M 216.548571 174.259901 
L 216.548571 143.686534 
" style="fill:none;stroke:#ff479d;"/>
    <path clip-path="url(#p2f96851eb6)" d="M 220.8 175.493957 
L 220.8 144.717678 
" style="fill:none;stroke:#ff479d;"/>
    <path clip-path="url(#p2f96851eb6)" d="M 225.051429 177.331221 
L 225.051429 146.864208 
" style="fill:none;stroke:#ff479d;"/>
    <path clip-path="url(#p2f96851eb6)" d="M 229.302857 180.607433 
L 229.302857 149.161248 
" style="fill:none;stroke:#ff479d;"/>
    <path clip-path="url(#p2f96851eb6)" d="M 233.554286 181.344898 
L 233.554286 150.02325 
" style="fill:none;stroke:#ff479d;"/>
    <path clip-path="url(#p2f96851eb6)" d="M 237.805714 181.436273 
L 237.805714 148.44465 
" style="fill:none;stroke:#ff479d;"/>
    <path clip-path="url(#p2f96851eb6)" d="M 242.057143 183.788029 
L 242.057143 152.659403 
" style="fill:none;stroke:#ff479d;"/>
    <path clip-path="url(#p2f96851eb6)" d="M 246.308571 185.319698 
L 246.308571 154.512411 
" style="fill:none;stroke:#ff479d;"/>
    <path clip-path="url(#p2f96851eb6)" d="M 250.56 186.155868 
L 250.56 156.514718 
" style="fill:none;stroke:#ff479d;"/>
    <path clip-path="url(#p2f96851eb6)" d="M 254.811429 186.019524 
L 254.811429 156.839462 
" style="fill:none;stroke:#ff479d;"/>
    <path clip-path="url(#p2f96851eb6)" d="M 259.062857 187.131182 
L 259.062857 159.759305 
" style="fill:none;stroke:#ff479d;"/>
    <path clip-path="url(#p2f96851eb6)" d="M 263.314286 186.847249 
L 263.314286 160.015822 
" style="fill:none;stroke:#ff479d;"/>
    <path clip-path="url(#p2f96851eb6)" d="M 267.565714 189.178777 
L 267.565714 160.493797 
" style="fill:none;stroke:#ff479d;"/>
    <path clip-path="url(#p2f96851eb6)" d="M 271.817143 189.276665 
L 271.817143 161.222113 
" style="fill:none;stroke:#ff479d;"/>
    <path clip-path="url(#p2f96851eb6)" d="M 276.068571 190.939024 
L 276.068571 162.244693 
" style="fill:none;stroke:#ff479d;"/>
    <path clip-path="url(#p2f96851eb6)" d="M 280.32 191.616218 
L 280.32 163.999191 
" style="fill:none;stroke:#ff479d;"/>
    <path clip-path="url(#p2f96851eb6)" d="M 284.571429 192.762791 
L 284.571429 163.645029 
" style="fill:none;stroke:#ff479d;"/>
    <path clip-path="url(#p2f96851eb6)" d="M 288.822857 192.424851 
L 288.822857 164.234675 
" style="fill:none;stroke:#ff479d;"/>
    <path clip-path="url(#p2f96851eb6)" d="M 293.074286 192.748354 
L 293.074286 164.402069 
" style="fill:none;stroke:#ff479d;"/>
    <path clip-path="url(#p2f96851eb6)" d="M 297.325714 192.482744 
L 297.325714 164.532389 
" style="fill:none;stroke:#ff479d;"/>
    <path clip-path="url(#p2f96851eb6)" d="M 301.577143 192.7441 
L 301.577143 164.885948 
" style="fill:none;stroke:#ff479d;"/>
    <path clip-path="url(#p2f96851eb6)" d="M 305.828571 193.79636 
L 305.828571 165.990222 
" style="fill:none;stroke:#ff479d;"/>
    <path clip-path="url(#p2f96851eb6)" d="M 310.08 192.739142 
L 310.08 164.066307 
" style="fill:none;stroke:#ff479d;"/>
    <path clip-path="url(#p2f96851eb6)" d="M 314.331429 191.795168 
L 314.331429 163.086826 
" style="fill:none;stroke:#ff479d;"/>
    <path clip-path="url(#p2f96851eb6)" d="M 318.582857 192.644872 
L 318.582857 163.117157 
" style="fill:none;stroke:#ff479d;"/>
    <path clip-path="url(#p2f96851eb6)" d="M 322.834286 193.769387 
L 322.834286 161.728705 
" style="fill:none;stroke:#ff479d;"/>
    <path clip-path="url(#p2f96851eb6)" d="M 327.085714 191.734816 
L 327.085714 160.470682 
" style="fill:none;stroke:#ff479d;"/>
    <path clip-path="url(#p2f96851eb6)" d="M 331.337143 191.375453 
L 331.337143 159.810886 
" style="fill:none;stroke:#ff479d;"/>
    <path clip-path="url(#p2f96851eb6)" d="M 335.588571 192.37888 
L 335.588571 160.194863 
" style="fill:none;stroke:#ff479d;"/>
    <path clip-path="url(#p2f96851eb6)" d="M 339.84 190.780004 
L 339.84 160.486277 
" style="fill:none;stroke:#ff479d;"/>
    <path clip-path="url(#p2f96851eb6)" d="M 344.091429 190.430142 
L 344.091429 157.805977 
" style="fill:none;stroke:#ff479d;"/>
    <path clip-path="url(#p2f96851eb6)" d="M 348.342857 190.757174 
L 348.342857 158.455092 
" style="fill:none;stroke:#ff479d;"/>
    <path clip-path="url(#p2f96851eb6)" d="M 352.594286 190.073251 
L 352.594286 157.028935 
" style="fill:none;stroke:#ff479d;"/>
    <path clip-path="url(#p2f96851eb6)" d="M 356.845714 189.491791 
L 356.845714 158.692098 
" style="fill:none;stroke:#ff479d;"/>
    <path clip-path="url(#p2f96851eb6)" d="M 361.097143 189.058652 
L 361.097143 157.61921 
" style="fill:none;stroke:#ff479d;"/>
    <path clip-path="url(#p2f96851eb6)" d="M 365.348571 188.142065 
L 365.348571 156.798128 
" style="fill:none;stroke:#ff479d;"/>
    <path clip-path="url(#p2f96851eb6)" d="M 369.6 188.680088 
L 369.6 156.668024 
" style="fill:none;stroke:#ff479d;"/>
    <path clip-path="url(#p2f96851eb6)" d="M 373.851429 188.592707 
L 373.851429 157.945535 
" style="fill:none;stroke:#ff479d;"/>
    <path clip-path="url(#p2f96851eb6)" d="M 378.102857 187.000895 
L 378.102857 155.762129 
" style="fill:none;stroke:#ff479d;"/>
    <path clip-path="url(#p2f96851eb6)" d="M 382.354286 186.954317 
L 382.354286 155.347962 
" style="fill:none;stroke:#ff479d;"/>
    <path clip-path="url(#p2f96851eb6)" d="M 386.605714 186.039467 
L 386.605714 155.860853 
" style="fill:none;stroke:#ff479d;"/>
    <path clip-path="url(#p2f96851eb6)" d="M 390.857143 185.877676 
L 390.857143 157.215319 
" style="fill:none;stroke:#ff479d;"/>
    <path clip-path="url(#p2f96851eb6)" d="M 395.108571 185.914572 
L 395.108571 154.778711 
" style="fill:none;stroke:#ff479d;"/>
    <path clip-path="url(#p2f96851eb6)" d="M 399.36 184.925724 
L 399.36 155.796775 
" style="fill:none;stroke:#ff479d;"/>
    <path clip-path="url(#p2f96851eb6)" d="M 403.611429 184.356383 
L 403.611429 154.781814 
" style="fill:none;stroke:#ff479d;"/>
    <path clip-path="url(#p2f96851eb6)" d="M 407.862857 183.739245 
L 407.862857 155.582134 
" style="fill:none;stroke:#ff479d;"/>
    <path clip-path="url(#p2f96851eb6)" d="M 412.114286 183.754223 
L 412.114286 155.433185 
" style="fill:none;stroke:#ff479d;"/>
    <path clip-path="url(#p2f96851eb6)" d="M 416.365714 182.78746 
L 416.365714 155.28293 
" style="fill:none;stroke:#ff479d;"/>
    <path clip-path="url(#p2f96851eb6)" d="M 420.617143 183.05784 
L 420.617143 155.661888 
" style="fill:none;stroke:#ff479d;"/>
    <path clip-path="url(#p2f96851eb6)" d="M 424.868571 183.121515 
L 424.868571 155.320929 
" style="fill:none;stroke:#ff479d;"/>
    <path clip-path="url(#p2f96851eb6)" d="M 429.12 181.880838 
L 429.12 153.80072 
" style="fill:none;stroke:#ff479d;"/>
    <path clip-path="url(#p2f96851eb6)" d="M 433.371429 182.361989 
L 433.371429 155.097184 
" style="fill:none;stroke:#ff479d;"/>
    <path clip-path="url(#p2f96851eb6)" d="M 437.622857 180.664427 
L 437.622857 154.545398 
" style="fill:none;stroke:#ff479d;"/>
    <path clip-path="url(#p2f96851eb6)" d="M 441.874286 179.786777 
L 441.874286 153.501133 
" style="fill:none;stroke:#ff479d;"/>
    <path clip-path="url(#p2f96851eb6)" d="M 446.125714 178.815708 
L 446.125714 152.822028 
" style="fill:none;stroke:#ff479d;"/>
    <path clip-path="url(#p2f96851eb6)" d="M 450.377143 179.593502 
L 450.377143 154.094415 
" style="fill:none;stroke:#ff479d;"/>
    <path clip-path="url(#p2f96851eb6)" d="M 454.628571 178.363804 
L 454.628571 153.046314 
" style="fill:none;stroke:#ff479d;"/>
    <path clip-path="url(#p2f96851eb6)" d="M 458.88 177.573213 
L 458.88 152.54756 
" style="fill:none;stroke:#ff479d;"/>
    <path clip-path="url(#p2f96851eb6)" d="M 463.131429 177.918826 
L 463.131429 153.845001 
" style="fill:none;stroke:#ff479d;"/>
    <path clip-path="url(#p2f96851eb6)" d="M 467.382857 176.376803 
L 467.382857 152.944207 
" style="fill:none;stroke:#ff479d;"/>
    <path clip-path="url(#p2f96851eb6)" d="M 471.634286 177.220036 
L 471.634286 151.840325 
" style="fill:none;stroke:#ff479d;"/>
    <path clip-path="url(#p2f96851eb6)" d="M 475.885714 176.849747 
L 475.885714 151.413393 
" style="fill:none;stroke:#ff479d;"/>
    <path clip-path="url(#p2f96851eb6)" d="M 480.137143 176.662944 
L 480.137143 151.515714 
" style="fill:none;stroke:#ff479d;"/>
    <path clip-path="url(#p2f96851eb6)" d="M 484.388571 174.976547 
L 484.388571 151.038188 
" style="fill:none;stroke:#ff479d;"/>
    <path clip-path="url(#p2f96851eb6)" d="M 488.64 174.291976 
L 488.64 151.696262 
" style="fill:none;stroke:#ff479d;"/>
    <path clip-path="url(#p2f96851eb6)" d="M 492.891429 174.152429 
L 492.891429 153.269778 
" style="fill:none;stroke:#ff479d;"/>
    <path clip-path="url(#p2f96851eb6)" d="M 497.142857 172.828377 
L 497.142857 151.634363 
" style="fill:none;stroke:#ff479d;"/>
    <path clip-path="url(#p2f96851eb6)" d="M 501.394286 173.792345 
L 501.394286 152.110506 
" style="fill:none;stroke:#ff479d;"/>
    <path clip-path="url(#p2f96851eb6)" d="M 505.645714 171.723693 
L 505.645714 152.746775 
" style="fill:none;stroke:#ff479d;"/>
    <path clip-path="url(#p2f96851eb6)" d="M 509.897143 171.915222 
L 509.897143 152.159531 
" style="fill:none;stroke:#ff479d;"/>
    <path clip-path="url(#p2f96851eb6)" d="M 514.148571 171.394629 
L 514.148571 151.883545 
" style="fill:none;stroke:#ff479d;"/>
    <path clip-path="url(#p2f96851eb6)" d="M 518.4 170.122885 
L 518.4 151.682238 
" style="fill:none;stroke:#ff479d;"/>
    <path clip-path="url(#p2f96851eb6)" d="M 522.651429 170.023225 
L 522.651429 151.875178 
" style="fill:none;stroke:#ff479d;"/>
    <path clip-path="url(#p2f96851eb6)" d="M 526.902857 169.672923 
L 526.902857 152.293326 
" style="fill:none;stroke:#ff479d;"/>
    <path clip-path="url(#p2f96851eb6)" d="M 531.154286 169.504925 
L 531.154286 152.833846 
" style="fill:none;stroke:#ff479d;"/>
    <path clip-path="url(#p2f96851eb6)" d="M 535.405714 169.224244 
L 535.405714 152.773733 
" style="fill:none;stroke:#ff479d;"/>
    <path clip-path="url(#p2f96851eb6)" d="M 539.657143 168.429803 
L 539.657143 153.218458 
" style="fill:none;stroke:#ff479d;"/>
    <path clip-path="url(#p2f96851eb6)" d="M 543.908571 168.142152 
L 543.908571 153.449542 
" style="fill:none;stroke:#ff479d;"/>
    <path clip-path="url(#p2f96851eb6)" d="M 548.16 167.439756 
L 548.16 153.665629 
" style="fill:none;stroke:#ff479d;"/>
    <path clip-path="url(#p2f96851eb6)" d="M 552.411429 167.405113 
L 552.411429 153.596142 
" style="fill:none;stroke:#ff479d;"/>
    <path clip-path="url(#p2f96851eb6)" d="M 556.662857 167.026796 
L 556.662857 154.0832 
" style="fill:none;stroke:#ff479d;"/>
    <path clip-path="url(#p2f96851eb6)" d="M 560.914286 166.187932 
L 560.914286 152.633342 
" style="fill:none;stroke:#ff479d;"/>
    <path clip-path="url(#p2f96851eb6)" d="M 565.165714 167.161367 
L 565.165714 152.739136 
" style="fill:none;stroke:#ff479d;"/>
    <path clip-path="url(#p2f96851eb6)" d="M 569.417143 166.822399 
L 569.417143 152.877072 
" style="fill:none;stroke:#ff479d;"/>
    <path clip-path="url(#p2f96851eb6)" d="M 573.668571 166.218809 
L 573.668571 152.623581 
" style="fill:none;stroke:#ff479d;"/>
    <path clip-path="url(#p2f96851eb6)" style="fill:none;stroke:#ff479d;"/>
    <path clip-path="url(#p2f96851eb6)" style="fill:none;stroke:#ff479d;"/>
    <path clip-path="url(#p2f96851eb6)" style="fill:none;stroke:#ff479d;"/>
    <path clip-path="url(#p2f96851eb6)" style="fill:none;stroke:#ff479d;"/>
    <path clip-path="url(#p2f96851eb6)" style="fill:none;stroke:#ff479d;"/>
    <path clip-path="url(#p2f96851eb6)" style="fill:none;stroke:#ff479d;"/>
    <path clip-path="url(#p2f96851eb6)" style="fill:none;stroke:#ff479d;"/>
    <path clip-path="url(#p2f96851eb6)" style="fill:none;stroke:#ff479d;"/>
    <path clip-path="url(#p2f96851eb6)" style="fill:none;stroke:#ff479d;"/>
    <path clip-path="url(#p2f96851eb6)" style="fill:none;stroke:#ff479d;"/>
    <path clip-path="url(#p2f96851eb6)" style="fill:none;stroke:#ff479d;"/>
    <path clip-path="url(#p2f96851eb6)" style="fill:none;stroke:#ff479d;"/>
    <path clip-path="url(#p2f96851eb6)" style="fill:none;stroke:#ff479d;"/>
    <path clip-path="url(#p2f96851eb6)" style="fill:none;stroke:#ff479d;"/>
   </g>
   <g id="line2d_1">
    <defs>
     <path d="M 1 0 
L -1 -0 
" id="mb9a470a450" style="stroke:#ff479d;"/>
    </defs>
    <g clip-path="url(#p2f96851eb6)">
     <use style="fill:#ff479d;stroke:#ff479d;" x="93.257143" xlink:href="#mb9a470a450" y="38.464615"/>
     <use style="fill:#ff479d;stroke:#ff479d;" x="97.508571" xlink:href="#mb9a470a450" y="123.891511"/>
     <use style="fill:#ff479d;stroke:#ff479d;" x="101.76" xlink:href="#mb9a470a450" y="125.445972"/>
     <use style="fill:#ff479d;stroke:#ff479d;" x="106.011429" xlink:href="#mb9a470a450" y="128.107983"/>
     <use style="fill:#ff479d;stroke:#ff479d;" x="110.262857" xlink:href="#mb9a470a450" y="129.607536"/>
     <use style="fill:#ff479d;stroke:#ff479d;" x="114.514286" xlink:href="#mb9a470a450" y="131.936396"/>
     <use style="fill:#ff479d;stroke:#ff479d;" x="118.765714" xlink:href="#mb9a470a450" y="134.243699"/>
     <use style="fill:#ff479d;stroke:#ff479d;" x="123.017143" xlink:href="#mb9a470a450" y="136.202071"/>
     <use style="fill:#ff479d;stroke:#ff479d;" x="127.268571" xlink:href="#mb9a470a450" y="138.353268"/>
     <use style="fill:#ff479d;stroke:#ff479d;" x="131.52" xlink:href="#mb9a470a450" y="139.236711"/>
     <use style="fill:#ff479d;stroke:#ff479d;" x="135.771429" xlink:href="#mb9a470a450" y="143.677171"/>
     <use style="fill:#ff479d;stroke:#ff479d;" x="140.022857" xlink:href="#mb9a470a450" y="141.823501"/>
     <use style="fill:#ff479d;stroke:#ff479d;" x="144.274286" xlink:href="#mb9a470a450" y="147.373494"/>
     <use style="fill:#ff479d;stroke:#ff479d;" x="148.525714" xlink:href="#mb9a470a450" y="147.520983"/>
     <use style="fill:#ff479d;stroke:#ff479d;" x="152.777143" xlink:href="#mb9a470a450" y="149.155296"/>
     <use style="fill:#ff479d;stroke:#ff479d;" x="157.028571" xlink:href="#mb9a470a450" y="153.817425"/>
     <use style="fill:#ff479d;stroke:#ff479d;" x="161.28" xlink:href="#mb9a470a450" y="154.83942"/>
     <use style="fill:#ff479d;stroke:#ff479d;" x="165.531429" xlink:href="#mb9a470a450" y="156.937302"/>
     <use style="fill:#ff479d;stroke:#ff479d;" x="169.782857" xlink:href="#mb9a470a450" y="156.606584"/>
     <use style="fill:#ff479d;stroke:#ff479d;" x="174.034286" xlink:href="#mb9a470a450" y="159.16264"/>
     <use style="fill:#ff479d;stroke:#ff479d;" x="178.285714" xlink:href="#mb9a470a450" y="159.177492"/>
     <use style="fill:#ff479d;stroke:#ff479d;" x="182.537143" xlink:href="#mb9a470a450" y="161.146917"/>
     <use style="fill:#ff479d;stroke:#ff479d;" x="186.788571" xlink:href="#mb9a470a450" y="163.530993"/>
     <use style="fill:#ff479d;stroke:#ff479d;" x="191.04" xlink:href="#mb9a470a450" y="166.069584"/>
     <use style="fill:#ff479d;stroke:#ff479d;" x="195.291429" xlink:href="#mb9a470a450" y="166.617344"/>
     <use style="fill:#ff479d;stroke:#ff479d;" x="199.542857" xlink:href="#mb9a470a450" y="166.6198"/>
     <use style="fill:#ff479d;stroke:#ff479d;" x="203.794286" xlink:href="#mb9a470a450" y="168.804619"/>
     <use style="fill:#ff479d;stroke:#ff479d;" x="208.045714" xlink:href="#mb9a470a450" y="171.090062"/>
     <use style="fill:#ff479d;stroke:#ff479d;" x="212.297143" xlink:href="#mb9a470a450" y="173.433974"/>
     <use style="fill:#ff479d;stroke:#ff479d;" x="216.548571" xlink:href="#mb9a470a450" y="174.259901"/>
     <use style="fill:#ff479d;stroke:#ff479d;" x="220.8" xlink:href="#mb9a470a450" y="175.493957"/>
     <use style="fill:#ff479d;stroke:#ff479d;" x="225.051429" xlink:href="#mb9a470a450" y="177.331221"/>
     <use style="fill:#ff479d;stroke:#ff479d;" x="229.302857" xlink:href="#mb9a470a450" y="180.607433"/>
     <use style="fill:#ff479d;stroke:#ff479d;" x="233.554286" xlink:href="#mb9a470a450" y="181.344898"/>
     <use style="fill:#ff479d;stroke:#ff479d;" x="237.805714" xlink:href="#mb9a470a450" y="181.436273"/>
     <use style="fill:#ff479d;stroke:#ff479d;" x="242.057143" xlink:href="#mb9a470a450" y="183.788029"/>
     <use style="fill:#ff479d;stroke:#ff479d;" x="246.308571" xlink:href="#mb9a470a450" y="185.319698"/>
     <use style="fill:#ff479d;stroke:#ff479d;" x="250.56" xlink:href="#mb9a470a450" y="186.155868"/>
     <use style="fill:#ff479d;stroke:#ff479d;" x="254.811429" xlink:href="#mb9a470a450" y="186.019524"/>
     <use style="fill:#ff479d;stroke:#ff479d;" x="259.062857" xlink:href="#mb9a470a450" y="187.131182"/>
     <use style="fill:#ff479d;stroke:#ff479d;" x="263.314286" xlink:href="#mb9a470a450" y="186.847249"/>
     <use style="fill:#ff479d;stroke:#ff479d;" x="267.565714" xlink:href="#mb9a470a450" y="189.178777"/>
     <use style="fill:#ff479d;stroke:#ff479d;" x="271.817143" xlink:href="#mb9a470a450" y="189.276665"/>
     <use style="fill:#ff479d;stroke:#ff479d;" x="276.068571" xlink:href="#mb9a470a450" y="190.939024"/>
     <use style="fill:#ff479d;stroke:#ff479d;" x="280.32" xlink:href="#mb9a470a450" y="191.616218"/>
     <use style="fill:#ff479d;stroke:#ff479d;" x="284.571429" xlink:href="#mb9a470a450" y="192.762791"/>
     <use style="fill:#ff479d;stroke:#ff479d;" x="288.822857" xlink:href="#mb9a470a450" y="192.424851"/>
     <use style="fill:#ff479d;stroke:#ff479d;" x="293.074286" xlink:href="#mb9a470a450" y="192.748354"/>
     <use style="fill:#ff479d;stroke:#ff479d;" x="297.325714" xlink:href="#mb9a470a450" y="192.482744"/>
     <use style="fill:#ff479d;stroke:#ff479d;" x="301.577143" xlink:href="#mb9a470a450" y="192.7441"/>
     <use style="fill:#ff479d;stroke:#ff479d;" x="305.828571" xlink:href="#mb9a470a450" y="193.79636"/>
     <use style="fill:#ff479d;stroke:#ff479d;" x="310.08" xlink:href="#mb9a470a450" y="192.739142"/>
     <use style="fill:#ff479d;stroke:#ff479d;" x="314.331429" xlink:href="#mb9a470a450" y="191.795168"/>
     <use style="fill:#ff479d;stroke:#ff479d;" x="318.582857" xlink:href="#mb9a470a450" y="192.644872"/>
     <use style="fill:#ff479d;stroke:#ff479d;" x="322.834286" xlink:href="#mb9a470a450" y="193.769387"/>
     <use style="fill:#ff479d;stroke:#ff479d;" x="327.085714" xlink:href="#mb9a470a450" y="191.734816"/>
     <use style="fill:#ff479d;stroke:#ff479d;" x="331.337143" xlink:href="#mb9a470a450" y="191.375453"/>
     <use style="fill:#ff479d;stroke:#ff479d;" x="335.588571" xlink:href="#mb9a470a450" y="192.37888"/>
     <use style="fill:#ff479d;stroke:#ff479d;" x="339.84" xlink:href="#mb9a470a450" y="190.780004"/>
     <use style="fill:#ff479d;stroke:#ff479d;" x="344.091429" xlink:href="#mb9a470a450" y="190.430142"/>
     <use style="fill:#ff479d;stroke:#ff479d;" x="348.342857" xlink:href="#mb9a470a450" y="190.757174"/>
     <use style="fill:#ff479d;stroke:#ff479d;" x="352.594286" xlink:href="#mb9a470a450" y="190.073251"/>
     <use style="fill:#ff479d;stroke:#ff479d;" x="356.845714" xlink:href="#mb9a470a450" y="189.491791"/>
     <use style="fill:#ff479d;stroke:#ff479d;" x="361.097143" xlink:href="#mb9a470a450" y="189.058652"/>
     <use style="fill:#ff479d;stroke:#ff479d;" x="365.348571" xlink:href="#mb9a470a450" y="188.142065"/>
     <use style="fill:#ff479d;stroke:#ff479d;" x="369.6" xlink:href="#mb9a470a450" y="188.680088"/>
     <use style="fill:#ff479d;stroke:#ff479d;" x="373.851429" xlink:href="#mb9a470a450" y="188.592707"/>
     <use style="fill:#ff479d;stroke:#ff479d;" x="378.102857" xlink:href="#mb9a470a450" y="187.000895"/>
     <use style="fill:#ff479d;stroke:#ff479d;" x="382.354286" xlink:href="#mb9a470a450" y="186.954317"/>
     <use style="fill:#ff479d;stroke:#ff479d;" x="386.605714" xlink:href="#mb9a470a450" y="186.039467"/>
     <use style="fill:#ff479d;stroke:#ff479d;" x="390.857143" xlink:href="#mb9a470a450" y="185.877676"/>
     <use style="fill:#ff479d;stroke:#ff479d;" x="395.108571" xlink:href="#mb9a470a450" y="185.914572"/>
     <use style="fill:#ff479d;stroke:#ff479d;" x="399.36" xlink:href="#mb9a470a450" y="184.925724"/>
     <use style="fill:#ff479d;stroke:#ff479d;" x="403.611429" xlink:href="#mb9a470a450" y="184.356383"/>
     <use style="fill:#ff479d;stroke:#ff479d;" x="407.862857" xlink:href="#mb9a470a450" y="183.739245"/>
     <use style="fill:#ff479d;stroke:#ff479d;" x="412.114286" xlink:href="#mb9a470a450" y="183.754223"/>
     <use style="fill:#ff479d;stroke:#ff479d;" x="416.365714" xlink:href="#mb9a470a450" y="182.78746"/>
     <use style="fill:#ff479d;stroke:#ff479d;" x="420.617143" xlink:href="#mb9a470a450" y="183.05784"/>
     <use style="fill:#ff479d;stroke:#ff479d;" x="424.868571" xlink:href="#mb9a470a450" y="183.121515"/>
     <use style="fill:#ff479d;stroke:#ff479d;" x="429.12" xlink:href="#mb9a470a450" y="181.880838"/>
     <use style="fill:#ff479d;stroke:#ff479d;" x="433.371429" xlink:href="#mb9a470a450" y="182.361989"/>
     <use style="fill:#ff479d;stroke:#ff479d;" x="437.622857" xlink:href="#mb9a470a450" y="180.664427"/>
     <use style="fill:#ff479d;stroke:#ff479d;" x="441.874286" xlink:href="#mb9a470a450" y="179.786777"/>
     <use style="fill:#ff479d;stroke:#ff479d;" x="446.125714" xlink:href="#mb9a470a450" y="178.815708"/>
     <use style="fill:#ff479d;stroke:#ff479d;" x="450.377143" xlink:href="#mb9a470a450" y="179.593502"/>
     <use style="fill:#ff479d;stroke:#ff479d;" x="454.628571" xlink:href="#mb9a470a450" y="178.363804"/>
     <use style="fill:#ff479d;stroke:#ff479d;" x="458.88" xlink:href="#mb9a470a450" y="177.573213"/>
     <use style="fill:#ff479d;stroke:#ff479d;" x="463.131429" xlink:href="#mb9a470a450" y="177.918826"/>
     <use style="fill:#ff479d;stroke:#ff479d;" x="467.382857" xlink:href="#mb9a470a450" y="176.376803"/>
     <use style="fill:#ff479d;stroke:#ff479d;" x="471.634286" xlink:href="#mb9a470a450" y="177.220036"/>
     <use style="fill:#ff479d;stroke:#ff479d;" x="475.885714" xlink:href="#mb9a470a450" y="176.849747"/>
     <use style="fill:#ff479d;stroke:#ff479d;" x="480.137143" xlink:href="#mb9a470a450" y="176.662944"/>
     <use style="fill:#ff479d;stroke:#ff479d;" x="484.388571" xlink:href="#mb9a470a450" y="174.976547"/>
     <use style="fill:#ff479d;stroke:#ff479d;" x="488.64" xlink:href="#mb9a470a450" y="174.291976"/>
     <use style="fill:#ff479d;stroke:#ff479d;" x="492.891429" xlink:href="#mb9a470a450" y="174.152429"/>
     <use style="fill:#ff479d;stroke:#ff479d;" x="497.142857" xlink:href="#mb9a470a450" y="172.828377"/>
     <use style="fill:#ff479d;stroke:#ff479d;" x="501.394286" xlink:href="#mb9a470a450" y="173.792345"/>
     <use style="fill:#ff479d;stroke:#ff479d;" x="505.645714" xlink:href="#mb9a470a450" y="171.723693"/>
     <use style="fill:#ff479d;stroke:#ff479d;" x="509.897143" xlink:href="#mb9a470a450" y="171.915222"/>
     <use style="fill:#ff479d;stroke:#ff479d;" x="514.148571" xlink:href="#mb9a470a450" y="171.394629"/>
     <use style="fill:#ff479d;stroke:#ff479d;" x="518.4" xlink:href="#mb9a470a450" y="170.122885"/>
     <use style="fill:#ff479d;stroke:#ff479d;" x="522.651429" xlink:href="#mb9a470a450" y="170.023225"/>
     <use style="fill:#ff479d;stroke:#ff479d;" x="526.902857" xlink:href="#mb9a470a450" y="169.672923"/>
     <use style="fill:#ff479d;stroke:#ff479d;" x="531.154286" xlink:href="#mb9a470a450" y="169.504925"/>
     <use style="fill:#ff479d;stroke:#ff479d;" x="535.405714" xlink:href="#mb9a470a450" y="169.224244"/>
     <use style="fill:#ff479d;stroke:#ff479d;" x="539.657143" xlink:href="#mb9a470a450" y="168.429803"/>
     <use style="fill:#ff479d;stroke:#ff479d;" x="543.908571" xlink:href="#mb9a470a450" y="168.142152"/>
     <use style="fill:#ff479d;stroke:#ff479d;" x="548.16" xlink:href="#mb9a470a450" y="167.439756"/>
     <use style="fill:#ff479d;stroke:#ff479d;" x="552.411429" xlink:href="#mb9a470a450" y="167.405113"/>
     <use style="fill:#ff479d;stroke:#ff479d;" x="556.662857" xlink:href="#mb9a470a450" y="167.026796"/>
     <use style="fill:#ff479d;stroke:#ff479d;" x="560.914286" xlink:href="#mb9a470a450" y="166.187932"/>
     <use style="fill:#ff479d;stroke:#ff479d;" x="565.165714" xlink:href="#mb9a470a450" y="167.161367"/>
     <use style="fill:#ff479d;stroke:#ff479d;" x="569.417143" xlink:href="#mb9a470a450" y="166.822399"/>
     <use style="fill:#ff479d;stroke:#ff479d;" x="573.668571" xlink:href="#mb9a470a450" y="166.218809"/>
     <use style="fill:#ff479d;stroke:#ff479d;" x="577.92" xlink:href="#mb9a470a450" y="165.685653"/>
     <use style="fill:#ff479d;stroke:#ff479d;" x="582.171429" xlink:href="#mb9a470a450" y="165.94775"/>
     <use style="fill:#ff479d;stroke:#ff479d;" x="586.422857" xlink:href="#mb9a470a450" y="165.647552"/>
     <use style="fill:#ff479d;stroke:#ff479d;" x="590.674286" xlink:href="#mb9a470a450" y="164.268734"/>
     <use style="fill:#ff479d;stroke:#ff479d;" x="594.925714" xlink:href="#mb9a470a450" y="164.47301"/>
     <use style="fill:#ff479d;stroke:#ff479d;" x="599.177143" xlink:href="#mb9a470a450" y="163.968956"/>
     <use style="fill:#ff479d;stroke:#ff479d;" x="603.428571" xlink:href="#mb9a470a450" y="163.25116"/>
     <use style="fill:#ff479d;stroke:#ff479d;" x="607.68" xlink:href="#mb9a470a450" y="162.899553"/>
     <use style="fill:#ff479d;stroke:#ff479d;" x="611.931429" xlink:href="#mb9a470a450" y="161.803455"/>
     <use style="fill:#ff479d;stroke:#ff479d;" x="616.182857" xlink:href="#mb9a470a450" y="161.789025"/>
     <use style="fill:#ff479d;stroke:#ff479d;" x="620.434286" xlink:href="#mb9a470a450" y="161.347502"/>
     <use style="fill:#ff479d;stroke:#ff479d;" x="624.685714" xlink:href="#mb9a470a450" y="161.198393"/>
     <use style="fill:#ff479d;stroke:#ff479d;" x="628.937143" xlink:href="#mb9a470a450" y="160.572063"/>
     <use style="fill:#ff479d;stroke:#ff479d;" x="633.188571" xlink:href="#mb9a470a450" y="159.417709"/>
    </g>
   </g>
   <g id="line2d_2">
    <g clip-path="url(#p2f96851eb6)">
     <use style="fill:#ff479d;stroke:#ff479d;" x="93.257143" xlink:href="#mb9a470a450" y="38.464615"/>
     <use style="fill:#ff479d;stroke:#ff479d;" x="97.508571" xlink:href="#mb9a470a450" y="76.360611"/>
     <use style="fill:#ff479d;stroke:#ff479d;" x="101.76" xlink:href="#mb9a470a450" y="79.087425"/>
     <use style="fill:#ff479d;stroke:#ff479d;" x="106.011429" xlink:href="#mb9a470a450" y="81.553771"/>
     <use style="fill:#ff479d;stroke:#ff479d;" x="110.262857" xlink:href="#mb9a470a450" y="82.827851"/>
     <use style="fill:#ff479d;stroke:#ff479d;" x="114.514286" xlink:href="#mb9a470a450" y="86.329583"/>
     <use style="fill:#ff479d;stroke:#ff479d;" x="118.765714" xlink:href="#mb9a470a450" y="88.586907"/>
     <use style="fill:#ff479d;stroke:#ff479d;" x="123.017143" xlink:href="#mb9a470a450" y="91.487679"/>
     <use style="fill:#ff479d;stroke:#ff479d;" x="127.268571" xlink:href="#mb9a470a450" y="93.912982"/>
     <use style="fill:#ff479d;stroke:#ff479d;" x="131.52" xlink:href="#mb9a470a450" y="97.484726"/>
     <use style="fill:#ff479d;stroke:#ff479d;" x="135.771429" xlink:href="#mb9a470a450" y="99.818047"/>
     <use style="fill:#ff479d;stroke:#ff479d;" x="140.022857" xlink:href="#mb9a470a450" y="101.44086"/>
     <use style="fill:#ff479d;stroke:#ff479d;" x="144.274286" xlink:href="#mb9a470a450" y="105.003224"/>
     <use style="fill:#ff479d;stroke:#ff479d;" x="148.525714" xlink:href="#mb9a470a450" y="107.454062"/>
     <use style="fill:#ff479d;stroke:#ff479d;" x="152.777143" xlink:href="#mb9a470a450" y="111.165624"/>
     <use style="fill:#ff479d;stroke:#ff479d;" x="157.028571" xlink:href="#mb9a470a450" y="114.664446"/>
     <use style="fill:#ff479d;stroke:#ff479d;" x="161.28" xlink:href="#mb9a470a450" y="117.804564"/>
     <use style="fill:#ff479d;stroke:#ff479d;" x="165.531429" xlink:href="#mb9a470a450" y="116.795762"/>
     <use style="fill:#ff479d;stroke:#ff479d;" x="169.782857" xlink:href="#mb9a470a450" y="120.792818"/>
     <use style="fill:#ff479d;stroke:#ff479d;" x="174.034286" xlink:href="#mb9a470a450" y="124.014143"/>
     <use style="fill:#ff479d;stroke:#ff479d;" x="178.285714" xlink:href="#mb9a470a450" y="125.550391"/>
     <use style="fill:#ff479d;stroke:#ff479d;" x="182.537143" xlink:href="#mb9a470a450" y="127.759529"/>
     <use style="fill:#ff479d;stroke:#ff479d;" x="186.788571" xlink:href="#mb9a470a450" y="131.344597"/>
     <use style="fill:#ff479d;stroke:#ff479d;" x="191.04" xlink:href="#mb9a470a450" y="133.650506"/>
     <use style="fill:#ff479d;stroke:#ff479d;" x="195.291429" xlink:href="#mb9a470a450" y="134.941032"/>
     <use style="fill:#ff479d;stroke:#ff479d;" x="199.542857" xlink:href="#mb9a470a450" y="137.397444"/>
     <use style="fill:#ff479d;stroke:#ff479d;" x="203.794286" xlink:href="#mb9a470a450" y="138.041189"/>
     <use style="fill:#ff479d;stroke:#ff479d;" x="208.045714" xlink:href="#mb9a470a450" y="140.915937"/>
     <use style="fill:#ff479d;stroke:#ff479d;" x="212.297143" xlink:href="#mb9a470a450" y="144.001566"/>
     <use style="fill:#ff479d;stroke:#ff479d;" x="216.548571" xlink:href="#mb9a470a450" y="143.686534"/>
     <use style="fill:#ff479d;stroke:#ff479d;" x="220.8" xlink:href="#mb9a470a450" y="144.717678"/>
     <use style="fill:#ff479d;stroke:#ff479d;" x="225.051429" xlink:href="#mb9a470a450" y="146.864208"/>
     <use style="fill:#ff479d;stroke:#ff479d;" x="229.302857" xlink:href="#mb9a470a450" y="149.161248"/>
     <use style="fill:#ff479d;stroke:#ff479d;" x="233.554286" xlink:href="#mb9a470a450" y="150.02325"/>
     <use style="fill:#ff479d;stroke:#ff479d;" x="237.805714" xlink:href="#mb9a470a450" y="148.44465"/>
     <use style="fill:#ff479d;stroke:#ff479d;" x="242.057143" xlink:href="#mb9a470a450" y="152.659403"/>
     <use style="fill:#ff479d;stroke:#ff479d;" x="246.308571" xlink:href="#mb9a470a450" y="154.512411"/>
     <use style="fill:#ff479d;stroke:#ff479d;" x="250.56" xlink:href="#mb9a470a450" y="156.514718"/>
     <use style="fill:#ff479d;stroke:#ff479d;" x="254.811429" xlink:href="#mb9a470a450" y="156.839462"/>
     <use style="fill:#ff479d;stroke:#ff479d;" x="259.062857" xlink:href="#mb9a470a450" y="159.759305"/>
     <use style="fill:#ff479d;stroke:#ff479d;" x="263.314286" xlink:href="#mb9a470a450" y="160.015822"/>
     <use style="fill:#ff479d;stroke:#ff479d;" x="267.565714" xlink:href="#mb9a470a450" y="160.493797"/>
     <use style="fill:#ff479d;stroke:#ff479d;" x="271.817143" xlink:href="#mb9a470a450" y="161.222113"/>
     <use style="fill:#ff479d;stroke:#ff479d;" x="276.068571" xlink:href="#mb9a470a450" y="162.244693"/>
     <use style="fill:#ff479d;stroke:#ff479d;" x="280.32" xlink:href="#mb9a470a450" y="163.999191"/>
     <use style="fill:#ff479d;stroke:#ff479d;" x="284.571429" xlink:href="#mb9a470a450" y="163.645029"/>
     <use style="fill:#ff479d;stroke:#ff479d;" x="288.822857" xlink:href="#mb9a470a450" y="164.234675"/>
     <use style="fill:#ff479d;stroke:#ff479d;" x="293.074286" xlink:href="#mb9a470a450" y="164.402069"/>
     <use style="fill:#ff479d;stroke:#ff479d;" x="297.325714" xlink:href="#mb9a470a450" y="164.532389"/>
     <use style="fill:#ff479d;stroke:#ff479d;" x="301.577143" xlink:href="#mb9a470a450" y="164.885948"/>
     <use style="fill:#ff479d;stroke:#ff479d;" x="305.828571" xlink:href="#mb9a470a450" y="165.990222"/>
     <use style="fill:#ff479d;stroke:#ff479d;" x="310.08" xlink:href="#mb9a470a450" y="164.066307"/>
     <use style="fill:#ff479d;stroke:#ff479d;" x="314.331429" xlink:href="#mb9a470a450" y="163.086826"/>
     <use style="fill:#ff479d;stroke:#ff479d;" x="318.582857" xlink:href="#mb9a470a450" y="163.117157"/>
     <use style="fill:#ff479d;stroke:#ff479d;" x="322.834286" xlink:href="#mb9a470a450" y="161.728705"/>
     <use style="fill:#ff479d;stroke:#ff479d;" x="327.085714" xlink:href="#mb9a470a450" y="160.470682"/>
     <use style="fill:#ff479d;stroke:#ff479d;" x="331.337143" xlink:href="#mb9a470a450" y="159.810886"/>
     <use style="fill:#ff479d;stroke:#ff479d;" x="335.588571" xlink:href="#mb9a470a450" y="160.194863"/>
     <use style="fill:#ff479d;stroke:#ff479d;" x="339.84" xlink:href="#mb9a470a450" y="160.486277"/>
     <use style="fill:#ff479d;stroke:#ff479d;" x="344.091429" xlink:href="#mb9a470a450" y="157.805977"/>
     <use style="fill:#ff479d;stroke:#ff479d;" x="348.342857" xlink:href="#mb9a470a450" y="158.455092"/>
     <use style="fill:#ff479d;stroke:#ff479d;" x="352.594286" xlink:href="#mb9a470a450" y="157.028935"/>
     <use style="fill:#ff479d;stroke:#ff479d;" x="356.845714" xlink:href="#mb9a470a450" y="158.692098"/>
     <use style="fill:#ff479d;stroke:#ff479d;" x="361.097143" xlink:href="#mb9a470a450" y="157.61921"/>
     <use style="fill:#ff479d;stroke:#ff479d;" x="365.348571" xlink:href="#mb9a470a450" y="156.798128"/>
     <use style="fill:#ff479d;stroke:#ff479d;" x="369.6" xlink:href="#mb9a470a450" y="156.668024"/>
     <use style="fill:#ff479d;stroke:#ff479d;" x="373.851429" xlink:href="#mb9a470a450" y="157.945535"/>
     <use style="fill:#ff479d;stroke:#ff479d;" x="378.102857" xlink:href="#mb9a470a450" y="155.762129"/>
     <use style="fill:#ff479d;stroke:#ff479d;" x="382.354286" xlink:href="#mb9a470a450" y="155.347962"/>
     <use style="fill:#ff479d;stroke:#ff479d;" x="386.605714" xlink:href="#mb9a470a450" y="155.860853"/>
     <use style="fill:#ff479d;stroke:#ff479d;" x="390.857143" xlink:href="#mb9a470a450" y="157.215319"/>
     <use style="fill:#ff479d;stroke:#ff479d;" x="395.108571" xlink:href="#mb9a470a450" y="154.778711"/>
     <use style="fill:#ff479d;stroke:#ff479d;" x="399.36" xlink:href="#mb9a470a450" y="155.796775"/>
     <use style="fill:#ff479d;stroke:#ff479d;" x="403.611429" xlink:href="#mb9a470a450" y="154.781814"/>
     <use style="fill:#ff479d;stroke:#ff479d;" x="407.862857" xlink:href="#mb9a470a450" y="155.582134"/>
     <use style="fill:#ff479d;stroke:#ff479d;" x="412.114286" xlink:href="#mb9a470a450" y="155.433185"/>
     <use style="fill:#ff479d;stroke:#ff479d;" x="416.365714" xlink:href="#mb9a470a450" y="155.28293"/>
     <use style="fill:#ff479d;stroke:#ff479d;" x="420.617143" xlink:href="#mb9a470a450" y="155.661888"/>
     <use style="fill:#ff479d;stroke:#ff479d;" x="424.868571" xlink:href="#mb9a470a450" y="155.320929"/>
     <use style="fill:#ff479d;stroke:#ff479d;" x="429.12" xlink:href="#mb9a470a450" y="153.80072"/>
     <use style="fill:#ff479d;stroke:#ff479d;" x="433.371429" xlink:href="#mb9a470a450" y="155.097184"/>
     <use style="fill:#ff479d;stroke:#ff479d;" x="437.622857" xlink:href="#mb9a470a450" y="154.545398"/>
     <use style="fill:#ff479d;stroke:#ff479d;" x="441.874286" xlink:href="#mb9a470a450" y="153.501133"/>
     <use style="fill:#ff479d;stroke:#ff479d;" x="446.125714" xlink:href="#mb9a470a450" y="152.822028"/>
     <use style="fill:#ff479d;stroke:#ff479d;" x="450.377143" xlink:href="#mb9a470a450" y="154.094415"/>
     <use style="fill:#ff479d;stroke:#ff479d;" x="454.628571" xlink:href="#mb9a470a450" y="153.046314"/>
     <use style="fill:#ff479d;stroke:#ff479d;" x="458.88" xlink:href="#mb9a470a450" y="152.54756"/>
     <use style="fill:#ff479d;stroke:#ff479d;" x="463.131429" xlink:href="#mb9a470a450" y="153.845001"/>
     <use style="fill:#ff479d;stroke:#ff479d;" x="467.382857" xlink:href="#mb9a470a450" y="152.944207"/>
     <use style="fill:#ff479d;stroke:#ff479d;" x="471.634286" xlink:href="#mb9a470a450" y="151.840325"/>
     <use style="fill:#ff479d;stroke:#ff479d;" x="475.885714" xlink:href="#mb9a470a450" y="151.413393"/>
     <use style="fill:#ff479d;stroke:#ff479d;" x="480.137143" xlink:href="#mb9a470a450" y="151.515714"/>
     <use style="fill:#ff479d;stroke:#ff479d;" x="484.388571" xlink:href="#mb9a470a450" y="151.038188"/>
     <use style="fill:#ff479d;stroke:#ff479d;" x="488.64" xlink:href="#mb9a470a450" y="151.696262"/>
     <use style="fill:#ff479d;stroke:#ff479d;" x="492.891429" xlink:href="#mb9a470a450" y="153.269778"/>
     <use style="fill:#ff479d;stroke:#ff479d;" x="497.142857" xlink:href="#mb9a470a450" y="151.634363"/>
     <use style="fill:#ff479d;stroke:#ff479d;" x="501.394286" xlink:href="#mb9a470a450" y="152.110506"/>
     <use style="fill:#ff479d;stroke:#ff479d;" x="505.645714" xlink:href="#mb9a470a450" y="152.746775"/>
     <use style="fill:#ff479d;stroke:#ff479d;" x="509.897143" xlink:href="#mb9a470a450" y="152.159531"/>
     <use style="fill:#ff479d;stroke:#ff479d;" x="514.148571" xlink:href="#mb9a470a450" y="151.883545"/>
     <use style="fill:#ff479d;stroke:#ff479d;" x="518.4" xlink:href="#mb9a470a450" y="151.682238"/>
     <use style="fill:#ff479d;stroke:#ff479d;" x="522.651429" xlink:href="#mb9a470a450" y="151.875178"/>
     <use style="fill:#ff479d;stroke:#ff479d;" x="526.902857" xlink:href="#mb9a470a450" y="152.293326"/>
     <use style="fill:#ff479d;stroke:#ff479d;" x="531.154286" xlink:href="#mb9a470a450" y="152.833846"/>
     <use style="fill:#ff479d;stroke:#ff479d;" x="535.405714" xlink:href="#mb9a470a450" y="152.773733"/>
     <use style="fill:#ff479d;stroke:#ff479d;" x="539.657143" xlink:href="#mb9a470a450" y="153.218458"/>
     <use style="fill:#ff479d;stroke:#ff479d;" x="543.908571" xlink:href="#mb9a470a450" y="153.449542"/>
     <use style="fill:#ff479d;stroke:#ff479d;" x="548.16" xlink:href="#mb9a470a450" y="153.665629"/>
     <use style="fill:#ff479d;stroke:#ff479d;" x="552.411429" xlink:href="#mb9a470a450" y="153.596142"/>
     <use style="fill:#ff479d;stroke:#ff479d;" x="556.662857" xlink:href="#mb9a470a450" y="154.0832"/>
     <use style="fill:#ff479d;stroke:#ff479d;" x="560.914286" xlink:href="#mb9a470a450" y="152.633342"/>
     <use style="fill:#ff479d;stroke:#ff479d;" x="565.165714" xlink:href="#mb9a470a450" y="152.739136"/>
     <use style="fill:#ff479d;stroke:#ff479d;" x="569.417143" xlink:href="#mb9a470a450" y="152.877072"/>
     <use style="fill:#ff479d;stroke:#ff479d;" x="573.668571" xlink:href="#mb9a470a450" y="152.623581"/>
     <use style="fill:#ff479d;stroke:#ff479d;" x="577.92" xlink:href="#mb9a470a450" y="152.938299"/>
     <use style="fill:#ff479d;stroke:#ff479d;" x="582.171429" xlink:href="#mb9a470a450" y="153.142944"/>
     <use style="fill:#ff479d;stroke:#ff479d;" x="586.422857" xlink:href="#mb9a470a450" y="153.197778"/>
     <use style="fill:#ff479d;stroke:#ff479d;" x="590.674286" xlink:href="#mb9a470a450" y="153.319561"/>
     <use style="fill:#ff479d;stroke:#ff479d;" x="594.925714" xlink:href="#mb9a470a450" y="153.695949"/>
     <use style="fill:#ff479d;stroke:#ff479d;" x="599.177143" xlink:href="#mb9a470a450" y="153.718365"/>
     <use style="fill:#ff479d;stroke:#ff479d;" x="603.428571" xlink:href="#mb9a470a450" y="154.760098"/>
     <use style="fill:#ff479d;stroke:#ff479d;" x="607.68" xlink:href="#mb9a470a450" y="154.914853"/>
     <use style="fill:#ff479d;stroke:#ff479d;" x="611.931429" xlink:href="#mb9a470a450" y="155.083518"/>
     <use style="fill:#ff479d;stroke:#ff479d;" x="616.182857" xlink:href="#mb9a470a450" y="155.431255"/>
     <use style="fill:#ff479d;stroke:#ff479d;" x="620.434286" xlink:href="#mb9a470a450" y="155.580796"/>
     <use style="fill:#ff479d;stroke:#ff479d;" x="624.685714" xlink:href="#mb9a470a450" y="156.079286"/>
     <use style="fill:#ff479d;stroke:#ff479d;" x="628.937143" xlink:href="#mb9a470a450" y="157.028955"/>
     <use style="fill:#ff479d;stroke:#ff479d;" x="633.188571" xlink:href="#mb9a470a450" y="157.812878"/>
    </g>
   </g>
   <g id="line2d_3">
    <defs>
     <path d="M 0 0.75 
C 0.198902 0.75 0.389685 0.670975 0.53033 0.53033 
C 0.670975 0.389685 0.75 0.198902 0.75 0 
C 0.75 -0.198902 0.670975 -0.389685 0.53033 -0.53033 
C 0.389685 -0.670975 0.198902 -0.75 0 -0.75 
C -0.198902 -0.75 -0.389685 -0.670975 -0.53033 -0.53033 
C -0.670975 -0.389685 -0.75 -0.198902 -0.75 0 
C -0.75 0.198902 -0.670975 0.389685 -0.53033 0.53033 
C -0.389685 0.670975 -0.198902 0.75 0 0.75 
z
" id="mebc8fbd0fb" style="stroke:#ff479d;"/>
    </defs>
    <g clip-path="url(#p2f96851eb6)">
     <use style="fill:#ff479d;stroke:#ff479d;" x="93.257143" xlink:href="#mebc8fbd0fb" y="38.464615"/>
     <use style="fill:#ff479d;stroke:#ff479d;" x="97.508571" xlink:href="#mebc8fbd0fb" y="100.126061"/>
     <use style="fill:#ff479d;stroke:#ff479d;" x="101.76" xlink:href="#mebc8fbd0fb" y="102.266698"/>
     <use style="fill:#ff479d;stroke:#ff479d;" x="106.011429" xlink:href="#mebc8fbd0fb" y="104.830877"/>
     <use style="fill:#ff479d;stroke:#ff479d;" x="110.262857" xlink:href="#mebc8fbd0fb" y="106.217694"/>
     <use style="fill:#ff479d;stroke:#ff479d;" x="114.514286" xlink:href="#mebc8fbd0fb" y="109.13299"/>
     <use style="fill:#ff479d;stroke:#ff479d;" x="118.765714" xlink:href="#mebc8fbd0fb" y="111.415303"/>
     <use style="fill:#ff479d;stroke:#ff479d;" x="123.017143" xlink:href="#mebc8fbd0fb" y="113.844875"/>
     <use style="fill:#ff479d;stroke:#ff479d;" x="127.268571" xlink:href="#mebc8fbd0fb" y="116.133125"/>
     <use style="fill:#ff479d;stroke:#ff479d;" x="131.52" xlink:href="#mebc8fbd0fb" y="118.360718"/>
     <use style="fill:#ff479d;stroke:#ff479d;" x="135.771429" xlink:href="#mebc8fbd0fb" y="121.747609"/>
     <use style="fill:#ff479d;stroke:#ff479d;" x="140.022857" xlink:href="#mebc8fbd0fb" y="121.63218"/>
     <use style="fill:#ff479d;stroke:#ff479d;" x="144.274286" xlink:href="#mebc8fbd0fb" y="126.188359"/>
     <use style="fill:#ff479d;stroke:#ff479d;" x="148.525714" xlink:href="#mebc8fbd0fb" y="127.487522"/>
     <use style="fill:#ff479d;stroke:#ff479d;" x="152.777143" xlink:href="#mebc8fbd0fb" y="130.16046"/>
     <use style="fill:#ff479d;stroke:#ff479d;" x="157.028571" xlink:href="#mebc8fbd0fb" y="134.240935"/>
     <use style="fill:#ff479d;stroke:#ff479d;" x="161.28" xlink:href="#mebc8fbd0fb" y="136.321992"/>
     <use style="fill:#ff479d;stroke:#ff479d;" x="165.531429" xlink:href="#mebc8fbd0fb" y="136.866532"/>
     <use style="fill:#ff479d;stroke:#ff479d;" x="169.782857" xlink:href="#mebc8fbd0fb" y="138.699701"/>
     <use style="fill:#ff479d;stroke:#ff479d;" x="174.034286" xlink:href="#mebc8fbd0fb" y="141.588391"/>
     <use style="fill:#ff479d;stroke:#ff479d;" x="178.285714" xlink:href="#mebc8fbd0fb" y="142.363941"/>
     <use style="fill:#ff479d;stroke:#ff479d;" x="182.537143" xlink:href="#mebc8fbd0fb" y="144.453223"/>
     <use style="fill:#ff479d;stroke:#ff479d;" x="186.788571" xlink:href="#mebc8fbd0fb" y="147.437795"/>
     <use style="fill:#ff479d;stroke:#ff479d;" x="191.04" xlink:href="#mebc8fbd0fb" y="149.860045"/>
     <use style="fill:#ff479d;stroke:#ff479d;" x="195.291429" xlink:href="#mebc8fbd0fb" y="150.779188"/>
     <use style="fill:#ff479d;stroke:#ff479d;" x="199.542857" xlink:href="#mebc8fbd0fb" y="152.008622"/>
     <use style="fill:#ff479d;stroke:#ff479d;" x="203.794286" xlink:href="#mebc8fbd0fb" y="153.422904"/>
     <use style="fill:#ff479d;stroke:#ff479d;" x="208.045714" xlink:href="#mebc8fbd0fb" y="156.002999"/>
     <use style="fill:#ff479d;stroke:#ff479d;" x="212.297143" xlink:href="#mebc8fbd0fb" y="158.71777"/>
     <use style="fill:#ff479d;stroke:#ff479d;" x="216.548571" xlink:href="#mebc8fbd0fb" y="158.973217"/>
     <use style="fill:#ff479d;stroke:#ff479d;" x="220.8" xlink:href="#mebc8fbd0fb" y="160.105818"/>
     <use style="fill:#ff479d;stroke:#ff479d;" x="225.051429" xlink:href="#mebc8fbd0fb" y="162.097714"/>
     <use style="fill:#ff479d;stroke:#ff479d;" x="229.302857" xlink:href="#mebc8fbd0fb" y="164.88434"/>
     <use style="fill:#ff479d;stroke:#ff479d;" x="233.554286" xlink:href="#mebc8fbd0fb" y="165.684074"/>
     <use style="fill:#ff479d;stroke:#ff479d;" x="237.805714" xlink:href="#mebc8fbd0fb" y="164.940462"/>
     <use style="fill:#ff479d;stroke:#ff479d;" x="242.057143" xlink:href="#mebc8fbd0fb" y="168.223716"/>
     <use style="fill:#ff479d;stroke:#ff479d;" x="246.308571" xlink:href="#mebc8fbd0fb" y="169.916054"/>
     <use style="fill:#ff479d;stroke:#ff479d;" x="250.56" xlink:href="#mebc8fbd0fb" y="171.335293"/>
     <use style="fill:#ff479d;stroke:#ff479d;" x="254.811429" xlink:href="#mebc8fbd0fb" y="171.429493"/>
     <use style="fill:#ff479d;stroke:#ff479d;" x="259.062857" xlink:href="#mebc8fbd0fb" y="173.445243"/>
     <use style="fill:#ff479d;stroke:#ff479d;" x="263.314286" xlink:href="#mebc8fbd0fb" y="173.431535"/>
     <use style="fill:#ff479d;stroke:#ff479d;" x="267.565714" xlink:href="#mebc8fbd0fb" y="174.836287"/>
     <use style="fill:#ff479d;stroke:#ff479d;" x="271.817143" xlink:href="#mebc8fbd0fb" y="175.249389"/>
     <use style="fill:#ff479d;stroke:#ff479d;" x="276.068571" xlink:href="#mebc8fbd0fb" y="176.591858"/>
     <use style="fill:#ff479d;stroke:#ff479d;" x="280.32" xlink:href="#mebc8fbd0fb" y="177.807705"/>
     <use style="fill:#ff479d;stroke:#ff479d;" x="284.571429" xlink:href="#mebc8fbd0fb" y="178.20391"/>
     <use style="fill:#ff479d;stroke:#ff479d;" x="288.822857" xlink:href="#mebc8fbd0fb" y="178.329763"/>
     <use style="fill:#ff479d;stroke:#ff479d;" x="293.074286" xlink:href="#mebc8fbd0fb" y="178.575212"/>
     <use style="fill:#ff479d;stroke:#ff479d;" x="297.325714" xlink:href="#mebc8fbd0fb" y="178.507567"/>
     <use style="fill:#ff479d;stroke:#ff479d;" x="301.577143" xlink:href="#mebc8fbd0fb" y="178.815024"/>
     <use style="fill:#ff479d;stroke:#ff479d;" x="305.828571" xlink:href="#mebc8fbd0fb" y="179.893291"/>
     <use style="fill:#ff479d;stroke:#ff479d;" x="310.08" xlink:href="#mebc8fbd0fb" y="178.402725"/>
     <use style="fill:#ff479d;stroke:#ff479d;" x="314.331429" xlink:href="#mebc8fbd0fb" y="177.440997"/>
     <use style="fill:#ff479d;stroke:#ff479d;" x="318.582857" xlink:href="#mebc8fbd0fb" y="177.881014"/>
     <use style="fill:#ff479d;stroke:#ff479d;" x="322.834286" xlink:href="#mebc8fbd0fb" y="177.749046"/>
     <use style="fill:#ff479d;stroke:#ff479d;" x="327.085714" xlink:href="#mebc8fbd0fb" y="176.102749"/>
     <use style="fill:#ff479d;stroke:#ff479d;" x="331.337143" xlink:href="#mebc8fbd0fb" y="175.593169"/>
     <use style="fill:#ff479d;stroke:#ff479d;" x="335.588571" xlink:href="#mebc8fbd0fb" y="176.286872"/>
     <use style="fill:#ff479d;stroke:#ff479d;" x="339.84" xlink:href="#mebc8fbd0fb" y="175.633141"/>
     <use style="fill:#ff479d;stroke:#ff479d;" x="344.091429" xlink:href="#mebc8fbd0fb" y="174.118059"/>
     <use style="fill:#ff479d;stroke:#ff479d;" x="348.342857" xlink:href="#mebc8fbd0fb" y="174.606133"/>
     <use style="fill:#ff479d;stroke:#ff479d;" x="352.594286" xlink:href="#mebc8fbd0fb" y="173.551093"/>
     <use style="fill:#ff479d;stroke:#ff479d;" x="356.845714" xlink:href="#mebc8fbd0fb" y="174.091945"/>
     <use style="fill:#ff479d;stroke:#ff479d;" x="361.097143" xlink:href="#mebc8fbd0fb" y="173.338931"/>
     <use style="fill:#ff479d;stroke:#ff479d;" x="365.348571" xlink:href="#mebc8fbd0fb" y="172.470097"/>
     <use style="fill:#ff479d;stroke:#ff479d;" x="369.6" xlink:href="#mebc8fbd0fb" y="172.674056"/>
     <use style="fill:#ff479d;stroke:#ff479d;" x="373.851429" xlink:href="#mebc8fbd0fb" y="173.269121"/>
     <use style="fill:#ff479d;stroke:#ff479d;" x="378.102857" xlink:href="#mebc8fbd0fb" y="171.381512"/>
     <use style="fill:#ff479d;stroke:#ff479d;" x="382.354286" xlink:href="#mebc8fbd0fb" y="171.151139"/>
     <use style="fill:#ff479d;stroke:#ff479d;" x="386.605714" xlink:href="#mebc8fbd0fb" y="170.95016"/>
     <use style="fill:#ff479d;stroke:#ff479d;" x="390.857143" xlink:href="#mebc8fbd0fb" y="171.546498"/>
     <use style="fill:#ff479d;stroke:#ff479d;" x="395.108571" xlink:href="#mebc8fbd0fb" y="170.346641"/>
     <use style="fill:#ff479d;stroke:#ff479d;" x="399.36" xlink:href="#mebc8fbd0fb" y="170.361249"/>
     <use style="fill:#ff479d;stroke:#ff479d;" x="403.611429" xlink:href="#mebc8fbd0fb" y="169.569098"/>
     <use style="fill:#ff479d;stroke:#ff479d;" x="407.862857" xlink:href="#mebc8fbd0fb" y="169.66069"/>
     <use style="fill:#ff479d;stroke:#ff479d;" x="412.114286" xlink:href="#mebc8fbd0fb" y="169.593704"/>
     <use style="fill:#ff479d;stroke:#ff479d;" x="416.365714" xlink:href="#mebc8fbd0fb" y="169.035195"/>
     <use style="fill:#ff479d;stroke:#ff479d;" x="420.617143" xlink:href="#mebc8fbd0fb" y="169.359864"/>
     <use style="fill:#ff479d;stroke:#ff479d;" x="424.868571" xlink:href="#mebc8fbd0fb" y="169.221222"/>
     <use style="fill:#ff479d;stroke:#ff479d;" x="429.12" xlink:href="#mebc8fbd0fb" y="167.840779"/>
     <use style="fill:#ff479d;stroke:#ff479d;" x="433.371429" xlink:href="#mebc8fbd0fb" y="168.729587"/>
     <use style="fill:#ff479d;stroke:#ff479d;" x="437.622857" xlink:href="#mebc8fbd0fb" y="167.604912"/>
     <use style="fill:#ff479d;stroke:#ff479d;" x="441.874286" xlink:href="#mebc8fbd0fb" y="166.643955"/>
     <use style="fill:#ff479d;stroke:#ff479d;" x="446.125714" xlink:href="#mebc8fbd0fb" y="165.818868"/>
     <use style="fill:#ff479d;stroke:#ff479d;" x="450.377143" xlink:href="#mebc8fbd0fb" y="166.843959"/>
     <use style="fill:#ff479d;stroke:#ff479d;" x="454.628571" xlink:href="#mebc8fbd0fb" y="165.705059"/>
     <use style="fill:#ff479d;stroke:#ff479d;" x="458.88" xlink:href="#mebc8fbd0fb" y="165.060386"/>
     <use style="fill:#ff479d;stroke:#ff479d;" x="463.131429" xlink:href="#mebc8fbd0fb" y="165.881913"/>
     <use style="fill:#ff479d;stroke:#ff479d;" x="467.382857" xlink:href="#mebc8fbd0fb" y="164.660505"/>
     <use style="fill:#ff479d;stroke:#ff479d;" x="471.634286" xlink:href="#mebc8fbd0fb" y="164.53018"/>
     <use style="fill:#ff479d;stroke:#ff479d;" x="475.885714" xlink:href="#mebc8fbd0fb" y="164.13157"/>
     <use style="fill:#ff479d;stroke:#ff479d;" x="480.137143" xlink:href="#mebc8fbd0fb" y="164.089329"/>
     <use style="fill:#ff479d;stroke:#ff479d;" x="484.388571" xlink:href="#mebc8fbd0fb" y="163.007368"/>
     <use style="fill:#ff479d;stroke:#ff479d;" x="488.64" xlink:href="#mebc8fbd0fb" y="162.994119"/>
     <use style="fill:#ff479d;stroke:#ff479d;" x="492.891429" xlink:href="#mebc8fbd0fb" y="163.711104"/>
     <use style="fill:#ff479d;stroke:#ff479d;" x="497.142857" xlink:href="#mebc8fbd0fb" y="162.23137"/>
     <use style="fill:#ff479d;stroke:#ff479d;" x="501.394286" xlink:href="#mebc8fbd0fb" y="162.951425"/>
     <use style="fill:#ff479d;stroke:#ff479d;" x="505.645714" xlink:href="#mebc8fbd0fb" y="162.235234"/>
     <use style="fill:#ff479d;stroke:#ff479d;" x="509.897143" xlink:href="#mebc8fbd0fb" y="162.037377"/>
     <use style="fill:#ff479d;stroke:#ff479d;" x="514.148571" xlink:href="#mebc8fbd0fb" y="161.639087"/>
     <use style="fill:#ff479d;stroke:#ff479d;" x="518.4" xlink:href="#mebc8fbd0fb" y="160.902561"/>
     <use style="fill:#ff479d;stroke:#ff479d;" x="522.651429" xlink:href="#mebc8fbd0fb" y="160.949202"/>
     <use style="fill:#ff479d;stroke:#ff479d;" x="526.902857" xlink:href="#mebc8fbd0fb" y="160.983124"/>
     <use style="fill:#ff479d;stroke:#ff479d;" x="531.154286" xlink:href="#mebc8fbd0fb" y="161.169385"/>
     <use style="fill:#ff479d;stroke:#ff479d;" x="535.405714" xlink:href="#mebc8fbd0fb" y="160.998988"/>
     <use style="fill:#ff479d;stroke:#ff479d;" x="539.657143" xlink:href="#mebc8fbd0fb" y="160.82413"/>
     <use style="fill:#ff479d;stroke:#ff479d;" x="543.908571" xlink:href="#mebc8fbd0fb" y="160.795847"/>
     <use style="fill:#ff479d;stroke:#ff479d;" x="548.16" xlink:href="#mebc8fbd0fb" y="160.552692"/>
     <use style="fill:#ff479d;stroke:#ff479d;" x="552.411429" xlink:href="#mebc8fbd0fb" y="160.500628"/>
     <use style="fill:#ff479d;stroke:#ff479d;" x="556.662857" xlink:href="#mebc8fbd0fb" y="160.554998"/>
     <use style="fill:#ff479d;stroke:#ff479d;" x="560.914286" xlink:href="#mebc8fbd0fb" y="159.410637"/>
     <use style="fill:#ff479d;stroke:#ff479d;" x="565.165714" xlink:href="#mebc8fbd0fb" y="159.950251"/>
     <use style="fill:#ff479d;stroke:#ff479d;" x="569.417143" xlink:href="#mebc8fbd0fb" y="159.849736"/>
     <use style="fill:#ff479d;stroke:#ff479d;" x="573.668571" xlink:href="#mebc8fbd0fb" y="159.421195"/>
     <use style="fill:#ff479d;stroke:#ff479d;" x="577.92" xlink:href="#mebc8fbd0fb" y="159.311976"/>
     <use style="fill:#ff479d;stroke:#ff479d;" x="582.171429" xlink:href="#mebc8fbd0fb" y="159.545347"/>
     <use style="fill:#ff479d;stroke:#ff479d;" x="586.422857" xlink:href="#mebc8fbd0fb" y="159.422665"/>
     <use style="fill:#ff479d;stroke:#ff479d;" x="590.674286" xlink:href="#mebc8fbd0fb" y="158.794147"/>
     <use style="fill:#ff479d;stroke:#ff479d;" x="594.925714" xlink:href="#mebc8fbd0fb" y="159.08448"/>
     <use style="fill:#ff479d;stroke:#ff479d;" x="599.177143" xlink:href="#mebc8fbd0fb" y="158.84366"/>
     <use style="fill:#ff479d;stroke:#ff479d;" x="603.428571" xlink:href="#mebc8fbd0fb" y="159.005629"/>
     <use style="fill:#ff479d;stroke:#ff479d;" x="607.68" xlink:href="#mebc8fbd0fb" y="158.907203"/>
     <use style="fill:#ff479d;stroke:#ff479d;" x="611.931429" xlink:href="#mebc8fbd0fb" y="158.443486"/>
     <use style="fill:#ff479d;stroke:#ff479d;" x="616.182857" xlink:href="#mebc8fbd0fb" y="158.61014"/>
     <use style="fill:#ff479d;stroke:#ff479d;" x="620.434286" xlink:href="#mebc8fbd0fb" y="158.464149"/>
     <use style="fill:#ff479d;stroke:#ff479d;" x="624.685714" xlink:href="#mebc8fbd0fb" y="158.63884"/>
     <use style="fill:#ff479d;stroke:#ff479d;" x="628.937143" xlink:href="#mebc8fbd0fb" y="158.800509"/>
     <use style="fill:#ff479d;stroke:#ff479d;" x="633.188571" xlink:href="#mebc8fbd0fb" y="158.615293"/>
    </g>
   </g>
   <g id="PolyCollection_1">
    <defs>
     <path d="M 93.257143 -177.535385 
L 93.257143 -177.535385 
L 97.508571 -117.526808 
L 101.76 -115.25467 
L 106.011429 -112.489755 
L 110.262857 -111.118508 
L 114.514286 -107.451623 
L 118.765714 -105.74157 
L 123.017143 -103.225407 
L 127.268571 -101.272099 
L 131.52 -99.216324 
L 135.771429 -97.462479 
L 140.022857 -94.8238 
L 144.274286 -92.831645 
L 148.525714 -90.005613 
L 152.777143 -89.119172 
L 157.028571 -86.890832 
L 161.28 -84.617741 
L 165.531429 -82.207229 
L 169.782857 -81.15279 
L 174.034286 -78.612168 
L 178.285714 -77.273968 
L 182.537143 -75.273744 
L 186.788571 -74.273735 
L 191.04 -72.492361 
L 195.291429 -69.672584 
L 199.542857 -69.492428 
L 203.794286 -67.897247 
L 208.045714 -65.939144 
L 212.297143 -65.932985 
L 216.548571 -64.678969 
L 220.8 -63.123198 
L 225.051429 -61.359189 
L 229.302857 -62.013655 
L 233.554286 -60.353824 
L 237.805714 -58.644273 
L 242.057143 -57.485932 
L 246.308571 -58.009835 
L 250.56 -57.194093 
L 254.811429 -55.70668 
L 259.062857 -55.186927 
L 263.314286 -55.17077 
L 267.565714 -54.151932 
L 271.817143 -53.041006 
L 276.068571 -52.832271 
L 280.32 -52.56994 
L 284.571429 -52.860825 
L 288.822857 -51.937413 
L 293.074286 -52.004126 
L 297.325714 -52.418465 
L 301.577143 -52.11178 
L 305.828571 -52.567906 
L 310.08 -53.349559 
L 314.331429 -53.340432 
L 318.582857 -53.53536 
L 322.834286 -54.02961 
L 327.085714 -54.746097 
L 331.337143 -54.692238 
L 335.588571 -54.355911 
L 339.84 -55.223738 
L 344.091429 -55.219702 
L 348.342857 -56.025643 
L 352.594286 -56.18873 
L 356.845714 -55.787744 
L 361.097143 -56.499748 
L 365.348571 -57.506776 
L 369.6 -57.314483 
L 373.851429 -56.584448 
L 378.102857 -57.043621 
L 382.354286 -57.423515 
L 386.605714 -57.872517 
L 390.857143 -58.019019 
L 395.108571 -57.341974 
L 399.36 -57.76274 
L 403.611429 -57.384757 
L 407.862857 -57.274178 
L 412.114286 -57.023074 
L 416.365714 -57.197347 
L 420.617143 -58.033085 
L 424.868571 -57.869735 
L 429.12 -57.793841 
L 433.371429 -57.951982 
L 437.622857 -58.531763 
L 441.874286 -58.135997 
L 446.125714 -58.109501 
L 450.377143 -57.832928 
L 454.628571 -58.745039 
L 458.88 -58.442527 
L 463.131429 -58.602093 
L 467.382857 -58.395207 
L 471.634286 -58.381284 
L 475.885714 -58.246248 
L 480.137143 -58.736024 
L 484.388571 -58.349633 
L 488.64 -59.056292 
L 492.891429 -58.927846 
L 497.142857 -58.672151 
L 501.394286 -58.557989 
L 505.645714 -59.27158 
L 509.897143 -58.880963 
L 514.148571 -58.889427 
L 518.4 -59.393125 
L 522.651429 -59.153796 
L 526.902857 -58.949734 
L 531.154286 -59.256657 
L 535.405714 -59.168457 
L 539.657143 -59.406541 
L 543.908571 -59.308952 
L 548.16 -59.393664 
L 552.411429 -59.04665 
L 556.662857 -59.493002 
L 560.914286 -58.99932 
L 565.165714 -58.720252 
L 569.417143 -58.852712 
L 573.668571 -59.043018 
L 577.92 -59.022912 
L 582.171429 -58.935545 
L 586.422857 -58.761231 
L 590.674286 -58.609533 
L 594.925714 -57.86766 
L 599.177143 -57.959662 
L 603.428571 -57.61728 
L 607.68 -57.141042 
L 611.931429 -57.011519 
L 616.182857 -56.913402 
L 620.434286 -56.618044 
L 624.685714 -56.173418 
L 628.937143 -55.777952 
L 633.188571 -55.320861 
L 633.188571 -54.217204 
L 633.188571 -54.217204 
L 628.937143 -53.708348 
L 624.685714 -53.213381 
L 620.434286 -52.855622 
L 616.182857 -52.287784 
L 611.931429 -51.80177 
L 607.68 -51.263554 
L 603.428571 -51.047887 
L 599.177143 -50.787955 
L 594.925714 -50.03985 
L 590.674286 -50.353338 
L 586.422857 -49.889455 
L 582.171429 -49.611004 
L 577.92 -49.216337 
L 573.668571 -48.819783 
L 569.417143 -48.289858 
L 565.165714 -47.687329 
L 560.914286 -47.617552 
L 556.662857 -47.822061 
L 552.411429 -46.967108 
L 548.16 -47.109375 
L 543.908571 -46.65875 
L 539.657143 -46.420313 
L 535.405714 -45.960161 
L 531.154286 -45.726803 
L 526.902857 -45.203305 
L 522.651429 -44.986662 
L 518.4 -45.088715 
L 514.148571 -44.328786 
L 509.897143 -44.082304 
L 505.645714 -44.214595 
L 501.394286 -43.281349 
L 497.142857 -43.262485 
L 492.891429 -43.24058 
L 488.64 -43.324166 
L 484.388571 -42.340764 
L 480.137143 -42.416172 
L 475.885714 -41.890002 
L 471.634286 -41.76474 
L 467.382857 -41.583105 
L 463.131429 -41.558139 
L 458.88 -41.181655 
L 454.628571 -41.03699 
L 450.377143 -40.031674 
L 446.125714 -39.917996 
L 441.874286 -39.719929 
L 437.622857 -39.889779 
L 433.371429 -39.24107 
L 429.12 -38.889521 
L 424.868571 -38.780018 
L 420.617143 -38.774311 
L 416.365714 -37.686319 
L 412.114286 -37.300286 
L 407.862857 -37.290301 
L 403.611429 -37.135844 
L 399.36 -37.015484 
L 395.108571 -36.704786 
L 390.857143 -36.959107 
L 386.605714 -36.482125 
L 382.354286 -35.948219 
L 378.102857 -35.460358 
L 373.851429 -34.832034 
L 369.6 -35.28565 
L 365.348571 -35.299926 
L 361.097143 -34.413496 
L 356.845714 -33.881141 
L 352.594286 -34.003936 
L 348.342857 -33.804698 
L 344.091429 -33.050984 
L 339.84 -32.946022 
L 335.588571 -32.350815 
L 331.337143 -32.845445 
L 327.085714 -32.959758 
L 322.834286 -32.511118 
L 318.582857 -32.068757 
L 314.331429 -32.182596 
L 310.08 -32.200266 
L 305.828571 -31.557092 
L 301.577143 -31.364675 
L 297.325714 -31.813017 
L 293.074286 -31.547135 
L 288.822857 -31.600534 
L 284.571429 -32.653013 
L 280.32 -32.375785 
L 276.068571 -32.872096 
L 271.817143 -33.280751 
L 267.565714 -34.589458 
L 263.314286 -35.84325 
L 259.062857 -36.029955 
L 254.811429 -36.800604 
L 250.56 -38.477011 
L 246.308571 -39.153877 
L 242.057143 -38.735086 
L 237.805714 -40.054748 
L 233.554286 -41.862972 
L 229.302857 -43.66653 
L 225.051429 -42.717655 
L 220.8 -44.862138 
L 216.548571 -46.395054 
L 212.297143 -47.433851 
L 208.045714 -46.877948 
L 203.794286 -48.610601 
L 199.542857 -49.768119 
L 195.291429 -49.15735 
L 191.04 -51.37184 
L 186.788571 -52.45957 
L 182.537143 -52.070028 
L 178.285714 -53.271984 
L 174.034286 -53.625357 
L 169.782857 -55.075805 
L 165.531429 -55.049908 
L 161.28 -56.498196 
L 157.028571 -57.871286 
L 152.777143 -59.267897 
L 148.525714 -58.861085 
L 144.274286 -60.584598 
L 140.022857 -61.633515 
L 135.771429 -63.513763 
L 131.52 -64.331789 
L 127.268571 -65.418541 
L 123.017143 -66.621741 
L 118.765714 -68.457447 
L 114.514286 -69.333687 
L 110.262857 -72.261471 
L 106.011429 -72.877265 
L 101.76 -75.130392 
L 97.508571 -77.031771 
L 93.257143 -177.535385 
z
" id="m0c4efa2517" style="stroke:#808080;stroke-opacity:0.5;"/>
    </defs>
    <g clip-path="url(#p2f96851eb6)">
     <use style="fill:#808080;fill-opacity:0.5;stroke:#808080;stroke-opacity:0.5;" x="0" xlink:href="#m0c4efa2517" y="216"/>
    </g>
   </g>
   <g id="matplotlib.axis_1">
    <g id="xtick_1">
     <g id="line2d_4">
      <defs>
       <path d="M 0 0 
L 0 3.5 
" id="mcba41dd4b1" style="stroke:#000000;stroke-width:2.8;"/>
      </defs>
      <g>
       <use style="stroke:#000000;stroke-width:2.8;" x="93.257143" xlink:href="#mcba41dd4b1" y="189"/>
      </g>
     </g>
     <g id="text_1">
      <!-- 0 -->
      <defs>
       <path d="M 46 36.53125 
Q 46 50.203125 43.4375 55.78125 
Q 40.875 61.375 34.8125 61.375 
Q 28.765625 61.375 26.171875 55.78125 
Q 23.578125 50.203125 23.578125 36.53125 
Q 23.578125 22.703125 26.171875 17.03125 
Q 28.765625 11.375 34.8125 11.375 
Q 40.828125 11.375 43.40625 17.03125 
Q 46 22.703125 46 36.53125 
z
M 64.796875 36.375 
Q 64.796875 18.265625 56.984375 8.421875 
Q 49.171875 -1.421875 34.8125 -1.421875 
Q 20.40625 -1.421875 12.59375 8.421875 
Q 4.78125 18.265625 4.78125 36.375 
Q 4.78125 54.546875 12.59375 64.375 
Q 20.40625 74.21875 34.8125 74.21875 
Q 49.171875 74.21875 56.984375 64.375 
Q 64.796875 54.546875 64.796875 36.375 
z
" id="DejaVuSans-Bold-48"/>
      </defs>
      <g transform="translate(89.082455 205.118125)scale(0.12 -0.12)">
       <use xlink:href="#DejaVuSans-Bold-48"/>
      </g>
     </g>
    </g>
    <g id="xtick_2">
     <g id="line2d_5">
      <g>
       <use style="stroke:#000000;stroke-width:2.8;" x="178.285714" xlink:href="#mcba41dd4b1" y="189"/>
      </g>
     </g>
     <g id="text_2">
      <!-- 20 -->
      <defs>
       <path d="M 28.8125 13.8125 
L 60.890625 13.8125 
L 60.890625 0 
L 7.90625 0 
L 7.90625 13.8125 
L 34.515625 37.3125 
Q 38.09375 40.53125 39.796875 43.609375 
Q 41.5 46.6875 41.5 50 
Q 41.5 55.125 38.0625 58.25 
Q 34.625 61.375 28.90625 61.375 
Q 24.515625 61.375 19.28125 59.5 
Q 14.0625 57.625 8.109375 53.90625 
L 8.109375 69.921875 
Q 14.453125 72.015625 20.65625 73.109375 
Q 26.859375 74.21875 32.8125 74.21875 
Q 45.90625 74.21875 53.15625 68.453125 
Q 60.40625 62.703125 60.40625 52.390625 
Q 60.40625 46.4375 57.328125 41.28125 
Q 54.25 36.140625 44.390625 27.484375 
z
" id="DejaVuSans-Bold-50"/>
      </defs>
      <g transform="translate(169.936339 205.118125)scale(0.12 -0.12)">
       <use xlink:href="#DejaVuSans-Bold-50"/>
       <use x="69.580078" xlink:href="#DejaVuSans-Bold-48"/>
      </g>
     </g>
    </g>
    <g id="xtick_3">
     <g id="line2d_6">
      <g>
       <use style="stroke:#000000;stroke-width:2.8;" x="263.314286" xlink:href="#mcba41dd4b1" y="189"/>
      </g>
     </g>
     <g id="text_3">
      <!-- 40 -->
      <defs>
       <path d="M 36.8125 57.421875 
L 16.21875 26.90625 
L 36.8125 26.90625 
z
M 33.6875 72.90625 
L 54.59375 72.90625 
L 54.59375 26.90625 
L 64.984375 26.90625 
L 64.984375 13.28125 
L 54.59375 13.28125 
L 54.59375 0 
L 36.8125 0 
L 36.8125 13.28125 
L 4.5 13.28125 
L 4.5 29.390625 
z
" id="DejaVuSans-Bold-52"/>
      </defs>
      <g transform="translate(254.964911 205.118125)scale(0.12 -0.12)">
       <use xlink:href="#DejaVuSans-Bold-52"/>
       <use x="69.580078" xlink:href="#DejaVuSans-Bold-48"/>
      </g>
     </g>
    </g>
    <g id="xtick_4">
     <g id="line2d_7">
      <g>
       <use style="stroke:#000000;stroke-width:2.8;" x="348.342857" xlink:href="#mcba41dd4b1" y="189"/>
      </g>
     </g>
     <g id="text_4">
      <!-- 60 -->
      <defs>
       <path d="M 36.1875 35.984375 
Q 31.25 35.984375 28.78125 32.78125 
Q 26.3125 29.59375 26.3125 23.1875 
Q 26.3125 16.796875 28.78125 13.59375 
Q 31.25 10.40625 36.1875 10.40625 
Q 41.15625 10.40625 43.625 13.59375 
Q 46.09375 16.796875 46.09375 23.1875 
Q 46.09375 29.59375 43.625 32.78125 
Q 41.15625 35.984375 36.1875 35.984375 
z
M 59.421875 71 
L 59.421875 57.515625 
Q 54.78125 59.71875 50.671875 60.765625 
Q 46.578125 61.8125 42.671875 61.8125 
Q 34.28125 61.8125 29.59375 57.140625 
Q 24.90625 52.484375 24.125 43.3125 
Q 27.34375 45.703125 31.09375 46.890625 
Q 34.859375 48.09375 39.3125 48.09375 
Q 50.484375 48.09375 57.34375 41.546875 
Q 64.203125 35.015625 64.203125 24.421875 
Q 64.203125 12.703125 56.53125 5.640625 
Q 48.875 -1.421875 35.984375 -1.421875 
Q 21.78125 -1.421875 13.984375 8.171875 
Q 6.203125 17.78125 6.203125 35.40625 
Q 6.203125 53.46875 15.3125 63.796875 
Q 24.421875 74.125 40.28125 74.125 
Q 45.3125 74.125 50.046875 73.34375 
Q 54.78125 72.5625 59.421875 71 
z
" id="DejaVuSans-Bold-54"/>
      </defs>
      <g transform="translate(339.993482 205.118125)scale(0.12 -0.12)">
       <use xlink:href="#DejaVuSans-Bold-54"/>
       <use x="69.580078" xlink:href="#DejaVuSans-Bold-48"/>
      </g>
     </g>
    </g>
    <g id="xtick_5">
     <g id="line2d_8">
      <g>
       <use style="stroke:#000000;stroke-width:2.8;" x="433.371429" xlink:href="#mcba41dd4b1" y="189"/>
      </g>
     </g>
     <g id="text_5">
      <!-- 80 -->
      <defs>
       <path d="M 34.8125 32.625 
Q 29.546875 32.625 26.703125 29.734375 
Q 23.875 26.859375 23.875 21.484375 
Q 23.875 16.109375 26.703125 13.25 
Q 29.546875 10.40625 34.8125 10.40625 
Q 40.046875 10.40625 42.828125 13.25 
Q 45.609375 16.109375 45.609375 21.484375 
Q 45.609375 26.90625 42.828125 29.765625 
Q 40.046875 32.625 34.8125 32.625 
z
M 21.09375 38.8125 
Q 14.453125 40.828125 11.078125 44.96875 
Q 7.71875 49.125 7.71875 55.328125 
Q 7.71875 64.546875 14.59375 69.375 
Q 21.484375 74.21875 34.8125 74.21875 
Q 48.046875 74.21875 54.921875 69.40625 
Q 61.8125 64.59375 61.8125 55.328125 
Q 61.8125 49.125 58.421875 44.96875 
Q 55.03125 40.828125 48.390625 38.8125 
Q 55.8125 36.765625 59.59375 32.15625 
Q 63.375 27.546875 63.375 20.515625 
Q 63.375 9.671875 56.171875 4.125 
Q 48.96875 -1.421875 34.8125 -1.421875 
Q 20.609375 -1.421875 13.359375 4.125 
Q 6.109375 9.671875 6.109375 20.515625 
Q 6.109375 27.546875 9.890625 32.15625 
Q 13.671875 36.765625 21.09375 38.8125 
z
M 25.484375 53.421875 
Q 25.484375 49.078125 27.90625 46.734375 
Q 30.328125 44.390625 34.8125 44.390625 
Q 39.203125 44.390625 41.59375 46.734375 
Q 44 49.078125 44 53.421875 
Q 44 57.765625 41.59375 60.078125 
Q 39.203125 62.40625 34.8125 62.40625 
Q 30.328125 62.40625 27.90625 60.0625 
Q 25.484375 57.71875 25.484375 53.421875 
z
" id="DejaVuSans-Bold-56"/>
      </defs>
      <g transform="translate(425.022054 205.118125)scale(0.12 -0.12)">
       <use xlink:href="#DejaVuSans-Bold-56"/>
       <use x="69.580078" xlink:href="#DejaVuSans-Bold-48"/>
      </g>
     </g>
    </g>
    <g id="xtick_6">
     <g id="line2d_9">
      <g>
       <use style="stroke:#000000;stroke-width:2.8;" x="518.4" xlink:href="#mcba41dd4b1" y="189"/>
      </g>
     </g>
     <g id="text_6">
      <!-- 100 -->
      <defs>
       <path d="M 11.71875 12.984375 
L 28.328125 12.984375 
L 28.328125 60.109375 
L 11.28125 56.59375 
L 11.28125 69.390625 
L 28.21875 72.90625 
L 46.09375 72.90625 
L 46.09375 12.984375 
L 62.703125 12.984375 
L 62.703125 0 
L 11.71875 0 
z
" id="DejaVuSans-Bold-49"/>
      </defs>
      <g transform="translate(505.875937 205.118125)scale(0.12 -0.12)">
       <use xlink:href="#DejaVuSans-Bold-49"/>
       <use x="69.580078" xlink:href="#DejaVuSans-Bold-48"/>
       <use x="139.160156" xlink:href="#DejaVuSans-Bold-48"/>
      </g>
     </g>
    </g>
    <g id="text_7">
     <!-- Delay, $\tau$, (10 s) -->
     <defs>
      <path d="M 27.984375 58.6875 
L 27.984375 14.203125 
L 34.71875 14.203125 
Q 46.234375 14.203125 52.3125 19.921875 
Q 58.40625 25.640625 58.40625 36.53125 
Q 58.40625 47.359375 52.34375 53.015625 
Q 46.296875 58.6875 34.71875 58.6875 
z
M 9.1875 72.90625 
L 29 72.90625 
Q 45.609375 72.90625 53.734375 70.53125 
Q 61.859375 68.171875 67.671875 62.5 
Q 72.796875 57.5625 75.28125 51.109375 
Q 77.78125 44.671875 77.78125 36.53125 
Q 77.78125 28.265625 75.28125 21.796875 
Q 72.796875 15.328125 67.671875 10.40625 
Q 61.8125 4.734375 53.609375 2.359375 
Q 45.40625 0 29 0 
L 9.1875 0 
z
" id="DejaVuSans-Bold-68"/>
      <path d="M 62.984375 27.484375 
L 62.984375 22.515625 
L 22.125 22.515625 
Q 22.75 16.359375 26.5625 13.28125 
Q 30.375 10.203125 37.203125 10.203125 
Q 42.71875 10.203125 48.5 11.84375 
Q 54.296875 13.484375 60.40625 16.796875 
L 60.40625 3.328125 
Q 54.203125 0.984375 48 -0.21875 
Q 41.796875 -1.421875 35.59375 -1.421875 
Q 20.75 -1.421875 12.515625 6.125 
Q 4.296875 13.671875 4.296875 27.296875 
Q 4.296875 40.671875 12.375 48.328125 
Q 20.453125 56 34.625 56 
Q 47.515625 56 55.25 48.234375 
Q 62.984375 40.484375 62.984375 27.484375 
z
M 45.015625 33.296875 
Q 45.015625 38.28125 42.109375 41.328125 
Q 39.203125 44.390625 34.515625 44.390625 
Q 29.4375 44.390625 26.265625 41.53125 
Q 23.09375 38.671875 22.3125 33.296875 
z
" id="DejaVuSans-Bold-101"/>
      <path d="M 8.40625 75.984375 
L 25.875 75.984375 
L 25.875 0 
L 8.40625 0 
z
" id="DejaVuSans-Bold-108"/>
      <path d="M 32.90625 24.609375 
Q 27.4375 24.609375 24.671875 22.75 
Q 21.921875 20.90625 21.921875 17.28125 
Q 21.921875 13.96875 24.140625 12.078125 
Q 26.375 10.203125 30.328125 10.203125 
Q 35.25 10.203125 38.625 13.734375 
Q 42 17.28125 42 22.609375 
L 42 24.609375 
z
M 59.625 31.203125 
L 59.625 0 
L 42 0 
L 42 8.109375 
Q 38.484375 3.125 34.078125 0.84375 
Q 29.6875 -1.421875 23.390625 -1.421875 
Q 14.890625 -1.421875 9.59375 3.53125 
Q 4.296875 8.5 4.296875 16.40625 
Q 4.296875 26.03125 10.90625 30.515625 
Q 17.53125 35.015625 31.6875 35.015625 
L 42 35.015625 
L 42 36.375 
Q 42 40.53125 38.71875 42.453125 
Q 35.453125 44.390625 28.515625 44.390625 
Q 22.90625 44.390625 18.0625 43.265625 
Q 13.234375 42.140625 9.078125 39.890625 
L 9.078125 53.21875 
Q 14.703125 54.59375 20.359375 55.296875 
Q 26.03125 56 31.6875 56 
Q 46.484375 56 53.046875 50.171875 
Q 59.625 44.34375 59.625 31.203125 
z
" id="DejaVuSans-Bold-97"/>
      <path d="M 1.21875 54.6875 
L 18.703125 54.6875 
L 33.40625 17.578125 
L 45.90625 54.6875 
L 63.375 54.6875 
L 40.375 -5.171875 
Q 36.921875 -14.3125 32.296875 -17.9375 
Q 27.6875 -21.578125 20.125 -21.578125 
L 10.015625 -21.578125 
L 10.015625 -10.109375 
L 15.484375 -10.109375 
Q 19.921875 -10.109375 21.9375 -8.6875 
Q 23.96875 -7.28125 25.09375 -3.609375 
L 25.59375 -2.09375 
z
" id="DejaVuSans-Bold-121"/>
      <path d="M 10.203125 18.890625 
L 27.78125 18.890625 
L 27.78125 4 
L 15.71875 -14.203125 
L 5.328125 -14.203125 
L 10.203125 4 
z
" id="DejaVuSans-Bold-44"/>
      <path id="DejaVuSans-Bold-32"/>
      <path d="M 5.171875 42.1875 
L 7.625 54.6875 
L 66.703125 54.6875 
L 64.265625 42.1875 
L 43.453125 42.1875 
L 38.671875 17.671875 
Q 37.984375 14.0625 37.984375 12.296875 
Q 37.984375 10.546875 38.375 9.859375 
Q 39.265625 8.296875 42 8.296875 
Q 44.78125 8.296875 46.390625 8.5 
L 44.578125 -0.6875 
Q 41.359375 -1.90625 30.953125 -1.90625 
Q 27.6875 -1.90625 24.703125 -0.984375 
Q 19.34375 0.734375 19.34375 6.0625 
Q 19.34375 8.109375 19.96875 11.375 
L 25.984375 42.1875 
z
" id="DejaVuSans-BoldOblique-964"/>
      <path d="M 37.703125 -13.1875 
L 23.1875 -13.1875 
Q 15.71875 -1.125 12.15625 9.734375 
Q 8.59375 20.609375 8.59375 31.296875 
Q 8.59375 42 12.171875 52.953125 
Q 15.765625 63.921875 23.1875 75.875 
L 37.703125 75.875 
Q 31.453125 64.3125 28.328125 53.25 
Q 25.203125 42.1875 25.203125 31.390625 
Q 25.203125 20.609375 28.296875 9.515625 
Q 31.390625 -1.5625 37.703125 -13.1875 
z
" id="DejaVuSans-Bold-40"/>
      <path d="M 51.125 52.984375 
L 51.125 39.703125 
Q 45.515625 42.046875 40.28125 43.21875 
Q 35.0625 44.390625 30.421875 44.390625 
Q 25.4375 44.390625 23.015625 43.140625 
Q 20.609375 41.890625 20.609375 39.3125 
Q 20.609375 37.203125 22.4375 36.078125 
Q 24.265625 34.96875 29 34.421875 
L 32.078125 33.984375 
Q 45.515625 32.28125 50.140625 28.375 
Q 54.78125 24.46875 54.78125 16.109375 
Q 54.78125 7.375 48.328125 2.96875 
Q 41.890625 -1.421875 29.109375 -1.421875 
Q 23.6875 -1.421875 17.890625 -0.5625 
Q 12.109375 0.296875 6 2 
L 6 15.28125 
Q 11.234375 12.75 16.71875 11.46875 
Q 22.21875 10.203125 27.875 10.203125 
Q 33.015625 10.203125 35.59375 11.609375 
Q 38.1875 13.03125 38.1875 15.828125 
Q 38.1875 18.171875 36.40625 19.3125 
Q 34.625 20.453125 29.296875 21.09375 
L 26.21875 21.484375 
Q 14.546875 22.953125 9.859375 26.90625 
Q 5.171875 30.859375 5.171875 38.921875 
Q 5.171875 47.609375 11.125 51.796875 
Q 17.09375 56 29.390625 56 
Q 34.234375 56 39.546875 55.265625 
Q 44.875 54.546875 51.125 52.984375 
z
" id="DejaVuSans-Bold-115"/>
      <path d="M 8.015625 -13.1875 
Q 14.265625 -1.5625 17.390625 9.515625 
Q 20.515625 20.609375 20.515625 31.390625 
Q 20.515625 42.1875 17.390625 53.25 
Q 14.265625 64.3125 8.015625 75.875 
L 22.515625 75.875 
Q 29.9375 63.921875 33.515625 52.953125 
Q 37.109375 42 37.109375 31.296875 
Q 37.109375 20.609375 33.546875 9.734375 
Q 29.984375 -1.125 22.515625 -13.1875 
z
" id="DejaVuSans-Bold-41"/>
     </defs>
     <g transform="translate(244.02 224.73375)scale(0.12 -0.12)">
      <use transform="translate(0 0.015625)" xlink:href="#DejaVuSans-Bold-68"/>
      <use transform="translate(83.007812 0.015625)" xlink:href="#DejaVuSans-Bold-101"/>
      <use transform="translate(150.830078 0.015625)" xlink:href="#DejaVuSans-Bold-108"/>
      <use transform="translate(185.107422 0.015625)" xlink:href="#DejaVuSans-Bold-97"/>
      <use transform="translate(252.587891 0.015625)" xlink:href="#DejaVuSans-Bold-121"/>
      <use transform="translate(317.773438 0.015625)" xlink:href="#DejaVuSans-Bold-44"/>
      <use transform="translate(355.761719 0.015625)" xlink:href="#DejaVuSans-Bold-32"/>
      <use transform="translate(390.576172 0.015625)" xlink:href="#DejaVuSans-BoldOblique-964"/>
      <use transform="translate(454.394531 0.015625)" xlink:href="#DejaVuSans-Bold-44"/>
      <use transform="translate(492.382812 0.015625)" xlink:href="#DejaVuSans-Bold-32"/>
      <use transform="translate(527.197266 0.015625)" xlink:href="#DejaVuSans-Bold-40"/>
      <use transform="translate(572.900391 0.015625)" xlink:href="#DejaVuSans-Bold-49"/>
      <use transform="translate(642.480469 0.015625)" xlink:href="#DejaVuSans-Bold-48"/>
      <use transform="translate(712.060547 0.015625)" xlink:href="#DejaVuSans-Bold-32"/>
      <use transform="translate(746.875 0.015625)" xlink:href="#DejaVuSans-Bold-115"/>
      <use transform="translate(806.396484 0.015625)" xlink:href="#DejaVuSans-Bold-41"/>
     </g>
    </g>
   </g>
   <g id="matplotlib.axis_2">
    <g id="ytick_1">
     <g id="line2d_10">
      <defs>
       <path d="M 0 0 
L -3.5 0 
" id="mc9ba7f4efa" style="stroke:#000000;stroke-width:2.8;"/>
      </defs>
      <g>
       <use style="stroke:#000000;stroke-width:2.8;" x="72" xlink:href="#mc9ba7f4efa" y="163.910769"/>
      </g>
     </g>
     <g id="text_8">
      <!-- 0.00 -->
      <defs>
       <path d="M 10.203125 18.890625 
L 27.78125 18.890625 
L 27.78125 0 
L 10.203125 0 
z
" id="DejaVuSans-Bold-46"/>
      </defs>
      <g transform="translate(35.39375 168.469832)scale(0.12 -0.12)">
       <use xlink:href="#DejaVuSans-Bold-48"/>
       <use x="69.580078" xlink:href="#DejaVuSans-Bold-46"/>
       <use x="107.568359" xlink:href="#DejaVuSans-Bold-48"/>
       <use x="177.148438" xlink:href="#DejaVuSans-Bold-48"/>
      </g>
     </g>
    </g>
    <g id="ytick_2">
     <g id="line2d_11">
      <g>
       <use style="stroke:#000000;stroke-width:2.8;" x="72" xlink:href="#mc9ba7f4efa" y="132.549231"/>
      </g>
     </g>
     <g id="text_9">
      <!-- 0.25 -->
      <defs>
       <path d="M 10.59375 72.90625 
L 57.328125 72.90625 
L 57.328125 59.078125 
L 25.59375 59.078125 
L 25.59375 47.796875 
Q 27.734375 48.390625 29.90625 48.703125 
Q 32.078125 49.03125 34.421875 49.03125 
Q 47.75 49.03125 55.171875 42.359375 
Q 62.59375 35.6875 62.59375 23.78125 
Q 62.59375 11.96875 54.515625 5.265625 
Q 46.4375 -1.421875 32.078125 -1.421875 
Q 25.875 -1.421875 19.796875 -0.21875 
Q 13.71875 0.984375 7.71875 3.421875 
L 7.71875 18.21875 
Q 13.671875 14.796875 19.015625 13.078125 
Q 24.359375 11.375 29.109375 11.375 
Q 35.9375 11.375 39.859375 14.71875 
Q 43.796875 18.0625 43.796875 23.78125 
Q 43.796875 29.546875 39.859375 32.859375 
Q 35.9375 36.1875 29.109375 36.1875 
Q 25.046875 36.1875 20.453125 35.125 
Q 15.875 34.078125 10.59375 31.890625 
z
" id="DejaVuSans-Bold-53"/>
      </defs>
      <g transform="translate(35.39375 137.108293)scale(0.12 -0.12)">
       <use xlink:href="#DejaVuSans-Bold-48"/>
       <use x="69.580078" xlink:href="#DejaVuSans-Bold-46"/>
       <use x="107.568359" xlink:href="#DejaVuSans-Bold-50"/>
       <use x="177.148438" xlink:href="#DejaVuSans-Bold-53"/>
      </g>
     </g>
    </g>
    <g id="ytick_3">
     <g id="line2d_12">
      <g>
       <use style="stroke:#000000;stroke-width:2.8;" x="72" xlink:href="#mc9ba7f4efa" y="101.187692"/>
      </g>
     </g>
     <g id="text_10">
      <!-- 0.50 -->
      <g transform="translate(35.39375 105.746755)scale(0.12 -0.12)">
       <use xlink:href="#DejaVuSans-Bold-48"/>
       <use x="69.580078" xlink:href="#DejaVuSans-Bold-46"/>
       <use x="107.568359" xlink:href="#DejaVuSans-Bold-53"/>
       <use x="177.148438" xlink:href="#DejaVuSans-Bold-48"/>
      </g>
     </g>
    </g>
    <g id="ytick_4">
     <g id="line2d_13">
      <g>
       <use style="stroke:#000000;stroke-width:2.8;" x="72" xlink:href="#mc9ba7f4efa" y="69.826154"/>
      </g>
     </g>
     <g id="text_11">
      <!-- 0.75 -->
      <defs>
       <path d="M 6.6875 72.90625 
L 61.625 72.90625 
L 61.625 62.3125 
L 33.203125 0 
L 14.890625 0 
L 41.796875 59.078125 
L 6.6875 59.078125 
z
" id="DejaVuSans-Bold-55"/>
      </defs>
      <g transform="translate(35.39375 74.385216)scale(0.12 -0.12)">
       <use xlink:href="#DejaVuSans-Bold-48"/>
       <use x="69.580078" xlink:href="#DejaVuSans-Bold-46"/>
       <use x="107.568359" xlink:href="#DejaVuSans-Bold-55"/>
       <use x="177.148438" xlink:href="#DejaVuSans-Bold-53"/>
      </g>
     </g>
    </g>
    <g id="ytick_5">
     <g id="line2d_14">
      <g>
       <use style="stroke:#000000;stroke-width:2.8;" x="72" xlink:href="#mc9ba7f4efa" y="38.464615"/>
      </g>
     </g>
     <g id="text_12">
      <!-- 1.00 -->
      <g transform="translate(35.39375 43.023678)scale(0.12 -0.12)">
       <use xlink:href="#DejaVuSans-Bold-49"/>
       <use x="69.580078" xlink:href="#DejaVuSans-Bold-46"/>
       <use x="107.568359" xlink:href="#DejaVuSans-Bold-48"/>
       <use x="177.148438" xlink:href="#DejaVuSans-Bold-48"/>
      </g>
     </g>
    </g>
   </g>
   <g id="line2d_15">
    <path clip-path="url(#p2f96851eb6)" d="M 72 163.910769 
L 518.4 163.910769 
" style="fill:none;stroke:#808080;stroke-linecap:square;stroke-opacity:0.8;stroke-width:1.5;"/>
   </g>
   <g id="line2d_16">
    <path clip-path="url(#p2f96851eb6)" d="M 72 163.910769 
L 518.4 163.910769 
" style="fill:none;stroke:#808080;stroke-linecap:square;stroke-opacity:0.8;stroke-width:1.5;"/>
   </g>
   <g id="line2d_17">
    <path clip-path="url(#p2f96851eb6)" d="M 236.955429 189 
L 236.955429 25.92 
" style="fill:none;stroke:#808080;stroke-linecap:square;stroke-opacity:0.8;stroke-width:1.5;"/>
   </g>
   <g id="line2d_18">
    <path clip-path="url(#p2f96851eb6)" d="M 93.257143 38.464615 
L 97.508571 118.231946 
L 101.76 120.358408 
L 106.011429 122.733282 
L 110.262857 123.786494 
L 114.514286 126.911375 
L 118.765714 128.243645 
L 123.017143 130.414496 
L 135.771429 134.86953 
L 140.022857 137.079958 
L 144.274286 138.443144 
L 148.525714 140.755103 
L 152.777143 140.952682 
L 161.28 144.546389 
L 165.531429 146.418517 
L 169.782857 146.97344 
L 174.034286 148.990602 
L 178.285714 149.739216 
L 182.537143 151.407077 
L 186.788571 151.684354 
L 191.04 153.098977 
L 195.291429 155.512493 
L 199.542857 155.388638 
L 203.794286 156.708897 
L 208.045714 158.523178 
L 212.297143 158.424433 
L 216.548571 159.546685 
L 220.8 160.964221 
L 225.051429 162.959654 
L 229.302857 162.204334 
L 233.554286 163.897446 
L 237.805714 165.710836 
L 242.057143 166.893 
L 246.308571 166.358209 
L 250.56 167.171394 
L 254.811429 168.698466 
L 259.062857 169.343522 
L 263.314286 169.410497 
L 271.817143 171.620243 
L 276.068571 172.106094 
L 280.32 172.475985 
L 284.571429 172.180876 
L 288.822857 173.104041 
L 293.074286 173.163606 
L 297.325714 172.793388 
L 301.577143 173.143904 
L 305.828571 172.876332 
L 310.08 172.176977 
L 318.582857 172.106992 
L 327.085714 170.982461 
L 331.337143 171.031637 
L 335.588571 171.418443 
L 339.84 170.655533 
L 344.091429 170.620693 
L 348.342857 169.932293 
L 352.594286 169.780154 
L 356.845714 170.03945 
L 361.097143 169.352374 
L 365.348571 168.425693 
L 369.6 168.517719 
L 373.851429 169.111976 
L 386.605714 167.640452 
L 390.857143 167.282566 
L 395.108571 167.784586 
L 399.36 167.375575 
L 412.114286 167.632883 
L 416.365714 167.291803 
L 420.617143 166.32412 
L 429.12 166.46291 
L 433.371429 166.171455 
L 437.622857 165.588925 
L 441.874286 165.897153 
L 446.125714 165.769405 
L 450.377143 165.859295 
L 454.628571 164.929378 
L 458.88 165.0323 
L 463.131429 164.808154 
L 467.382857 164.851009 
L 475.885714 164.720984 
L 480.137143 164.260567 
L 484.388571 164.50598 
L 488.64 163.7185 
L 501.394286 163.983188 
L 505.645714 163.145177 
L 509.897143 163.437882 
L 514.148571 163.309146 
L 518.4 162.687503 
L 522.651429 162.872803 
L 526.902857 162.901653 
L 531.154286 162.481382 
L 535.405714 162.390566 
L 539.657143 162.084874 
L 543.908571 161.995624 
L 548.16 161.710358 
L 552.411429 161.998609 
L 556.662857 161.32697 
L 560.914286 161.666748 
L 565.165714 161.720389 
L 573.668571 161.025029 
L 577 160.908917 
L 577 160.908917 
" style="fill:none;stroke:#000000;stroke-linecap:square;stroke-width:1.5;"/>
   </g>
   <g id="patch_3">
    <path d="M 72 189 
L 72 25.92 
" style="fill:none;stroke:#000000;stroke-linecap:square;stroke-linejoin:miter;stroke-width:2.8;"/>
   </g>
   <g id="patch_4">
    <path d="M 518.4 189 
L 518.4 25.92 
" style="fill:none;stroke:#000000;stroke-linecap:square;stroke-linejoin:miter;stroke-width:2.8;"/>
   </g>
   <g id="patch_5">
    <path d="M 72 189 
L 518.4 189 
" style="fill:none;stroke:#000000;stroke-linecap:square;stroke-linejoin:miter;stroke-width:2.8;"/>
   </g>
   <g id="patch_6">
    <path d="M 72 25.92 
L 518.4 25.92 
" style="fill:none;stroke:#000000;stroke-linecap:square;stroke-linejoin:miter;stroke-width:2.8;"/>
   </g>
   <g id="text_13">
    <!-- Tau = 338s -->
    <defs>
     <path d="M 0.484375 72.90625 
L 67.671875 72.90625 
L 67.671875 58.6875 
L 43.5 58.6875 
L 43.5 0 
L 24.703125 0 
L 24.703125 58.6875 
L 0.484375 58.6875 
z
" id="DejaVuSans-Bold-84"/>
     <path d="M 7.8125 21.296875 
L 7.8125 54.6875 
L 25.390625 54.6875 
L 25.390625 49.21875 
Q 25.390625 44.78125 25.34375 38.0625 
Q 25.296875 31.34375 25.296875 29.109375 
Q 25.296875 22.515625 25.640625 19.609375 
Q 25.984375 16.703125 26.8125 15.375 
Q 27.875 13.671875 29.609375 12.734375 
Q 31.34375 11.8125 33.59375 11.8125 
Q 39.0625 11.8125 42.1875 16.015625 
Q 45.3125 20.21875 45.3125 27.6875 
L 45.3125 54.6875 
L 62.796875 54.6875 
L 62.796875 0 
L 45.3125 0 
L 45.3125 7.90625 
Q 41.359375 3.125 36.9375 0.84375 
Q 32.515625 -1.421875 27.203125 -1.421875 
Q 17.71875 -1.421875 12.765625 4.390625 
Q 7.8125 10.203125 7.8125 21.296875 
z
" id="DejaVuSans-Bold-117"/>
     <path d="M 10.59375 48.1875 
L 73.1875 48.1875 
L 73.1875 36.71875 
L 10.59375 36.71875 
z
M 10.59375 25.984375 
L 73.1875 25.984375 
L 73.1875 14.40625 
L 10.59375 14.40625 
z
" id="DejaVuSans-Bold-61"/>
     <path d="M 46.578125 39.3125 
Q 53.953125 37.40625 57.78125 32.6875 
Q 61.625 27.984375 61.625 20.703125 
Q 61.625 9.859375 53.3125 4.21875 
Q 45.015625 -1.421875 29.109375 -1.421875 
Q 23.484375 -1.421875 17.84375 -0.515625 
Q 12.203125 0.390625 6.6875 2.203125 
L 6.6875 16.703125 
Q 11.96875 14.0625 17.15625 12.71875 
Q 22.359375 11.375 27.390625 11.375 
Q 34.859375 11.375 38.84375 13.953125 
Q 42.828125 16.546875 42.828125 21.390625 
Q 42.828125 26.375 38.75 28.9375 
Q 34.671875 31.5 26.703125 31.5 
L 19.1875 31.5 
L 19.1875 43.609375 
L 27.09375 43.609375 
Q 34.1875 43.609375 37.640625 45.828125 
Q 41.109375 48.046875 41.109375 52.59375 
Q 41.109375 56.78125 37.734375 59.078125 
Q 34.375 61.375 28.21875 61.375 
Q 23.6875 61.375 19.046875 60.34375 
Q 14.40625 59.328125 9.8125 57.328125 
L 9.8125 71.09375 
Q 15.375 72.65625 20.84375 73.4375 
Q 26.3125 74.21875 31.59375 74.21875 
Q 45.796875 74.21875 52.84375 69.546875 
Q 59.90625 64.890625 59.90625 55.515625 
Q 59.90625 49.125 56.53125 45.046875 
Q 53.171875 40.96875 46.578125 39.3125 
z
" id="DejaVuSans-Bold-51"/>
    </defs>
    <g style="fill:#808080;opacity:0.8;" transform="translate(229.067839 116.227933)rotate(-90)scale(0.12 -0.12)">
     <use xlink:href="#DejaVuSans-Bold-84"/>
     <use x="55.337891" xlink:href="#DejaVuSans-Bold-97"/>
     <use x="122.818359" xlink:href="#DejaVuSans-Bold-117"/>
     <use x="194.009766" xlink:href="#DejaVuSans-Bold-32"/>
     <use x="228.824219" xlink:href="#DejaVuSans-Bold-61"/>
     <use x="312.613281" xlink:href="#DejaVuSans-Bold-32"/>
     <use x="347.427734" xlink:href="#DejaVuSans-Bold-51"/>
     <use x="417.007812" xlink:href="#DejaVuSans-Bold-51"/>
     <use x="486.587891" xlink:href="#DejaVuSans-Bold-56"/>
     <use x="556.167969" xlink:href="#DejaVuSans-Bold-115"/>
    </g>
   </g>
   <g id="text_14">
    <!-- P300 Autocorrelation -->
    <defs>
     <path d="M 9.1875 72.90625 
L 40.375 72.90625 
Q 54.296875 72.90625 61.734375 66.71875 
Q 69.1875 60.546875 69.1875 49.125 
Q 69.1875 37.640625 61.734375 31.46875 
Q 54.296875 25.296875 40.375 25.296875 
L 27.984375 25.296875 
L 27.984375 0 
L 9.1875 0 
z
M 27.984375 59.28125 
L 27.984375 38.921875 
L 38.375 38.921875 
Q 43.84375 38.921875 46.828125 41.578125 
Q 49.8125 44.234375 49.8125 49.125 
Q 49.8125 54 46.828125 56.640625 
Q 43.84375 59.28125 38.375 59.28125 
z
" id="DejaVuSans-Bold-80"/>
     <path d="M 53.421875 13.28125 
L 24.03125 13.28125 
L 19.390625 0 
L 0.484375 0 
L 27.484375 72.90625 
L 49.90625 72.90625 
L 76.90625 0 
L 58.015625 0 
z
M 28.71875 26.8125 
L 48.6875 26.8125 
L 38.71875 55.8125 
z
" id="DejaVuSans-Bold-65"/>
     <path d="M 27.484375 70.21875 
L 27.484375 54.6875 
L 45.515625 54.6875 
L 45.515625 42.1875 
L 27.484375 42.1875 
L 27.484375 19 
Q 27.484375 15.1875 29 13.84375 
Q 30.515625 12.5 35.015625 12.5 
L 44 12.5 
L 44 0 
L 29 0 
Q 18.65625 0 14.328125 4.3125 
Q 10.015625 8.640625 10.015625 19 
L 10.015625 42.1875 
L 1.3125 42.1875 
L 1.3125 54.6875 
L 10.015625 54.6875 
L 10.015625 70.21875 
z
" id="DejaVuSans-Bold-116"/>
     <path d="M 34.421875 43.5 
Q 28.609375 43.5 25.5625 39.328125 
Q 22.515625 35.15625 22.515625 27.296875 
Q 22.515625 19.4375 25.5625 15.25 
Q 28.609375 11.078125 34.421875 11.078125 
Q 40.140625 11.078125 43.15625 15.25 
Q 46.1875 19.4375 46.1875 27.296875 
Q 46.1875 35.15625 43.15625 39.328125 
Q 40.140625 43.5 34.421875 43.5 
z
M 34.421875 56 
Q 48.53125 56 56.46875 48.375 
Q 64.40625 40.765625 64.40625 27.296875 
Q 64.40625 13.8125 56.46875 6.1875 
Q 48.53125 -1.421875 34.421875 -1.421875 
Q 20.265625 -1.421875 12.28125 6.1875 
Q 4.296875 13.8125 4.296875 27.296875 
Q 4.296875 40.765625 12.28125 48.375 
Q 20.265625 56 34.421875 56 
z
" id="DejaVuSans-Bold-111"/>
     <path d="M 52.59375 52.984375 
L 52.59375 38.71875 
Q 49.03125 41.15625 45.4375 42.328125 
Q 41.84375 43.5 37.984375 43.5 
Q 30.671875 43.5 26.59375 39.234375 
Q 22.515625 34.96875 22.515625 27.296875 
Q 22.515625 19.625 26.59375 15.34375 
Q 30.671875 11.078125 37.984375 11.078125 
Q 42.09375 11.078125 45.78125 12.296875 
Q 49.46875 13.53125 52.59375 15.921875 
L 52.59375 1.609375 
Q 48.484375 0.09375 44.265625 -0.65625 
Q 40.046875 -1.421875 35.796875 -1.421875 
Q 21 -1.421875 12.640625 6.171875 
Q 4.296875 13.765625 4.296875 27.296875 
Q 4.296875 40.828125 12.640625 48.40625 
Q 21 56 35.796875 56 
Q 40.09375 56 44.265625 55.25 
Q 48.4375 54.5 52.59375 52.984375 
z
" id="DejaVuSans-Bold-99"/>
     <path d="M 49.03125 39.796875 
Q 46.734375 40.875 44.453125 41.375 
Q 42.1875 41.890625 39.890625 41.890625 
Q 33.15625 41.890625 29.515625 37.5625 
Q 25.875 33.25 25.875 25.203125 
L 25.875 0 
L 8.40625 0 
L 8.40625 54.6875 
L 25.875 54.6875 
L 25.875 45.703125 
Q 29.25 51.078125 33.609375 53.53125 
Q 37.984375 56 44.09375 56 
Q 44.96875 56 45.984375 55.921875 
Q 47.015625 55.859375 48.96875 55.609375 
z
" id="DejaVuSans-Bold-114"/>
     <path d="M 8.40625 54.6875 
L 25.875 54.6875 
L 25.875 0 
L 8.40625 0 
z
M 8.40625 75.984375 
L 25.875 75.984375 
L 25.875 61.71875 
L 8.40625 61.71875 
z
" id="DejaVuSans-Bold-105"/>
     <path d="M 63.375 33.296875 
L 63.375 0 
L 45.796875 0 
L 45.796875 5.421875 
L 45.796875 25.484375 
Q 45.796875 32.5625 45.484375 35.25 
Q 45.171875 37.9375 44.390625 39.203125 
Q 43.359375 40.921875 41.59375 41.875 
Q 39.84375 42.828125 37.59375 42.828125 
Q 32.125 42.828125 29 38.59375 
Q 25.875 34.375 25.875 26.90625 
L 25.875 0 
L 8.40625 0 
L 8.40625 54.6875 
L 25.875 54.6875 
L 25.875 46.6875 
Q 29.828125 51.46875 34.265625 53.734375 
Q 38.71875 56 44.09375 56 
Q 53.5625 56 58.46875 50.1875 
Q 63.375 44.390625 63.375 33.296875 
z
" id="DejaVuSans-Bold-110"/>
    </defs>
    <g transform="translate(235.195312 15.92)scale(0.1 -0.1)">
     <use xlink:href="#DejaVuSans-Bold-80"/>
     <use x="73.291016" xlink:href="#DejaVuSans-Bold-51"/>
     <use x="142.871094" xlink:href="#DejaVuSans-Bold-48"/>
     <use x="212.451172" xlink:href="#DejaVuSans-Bold-48"/>
     <use x="282.03125" xlink:href="#DejaVuSans-Bold-32"/>
     <use x="316.845703" xlink:href="#DejaVuSans-Bold-65"/>
     <use x="394.238281" xlink:href="#DejaVuSans-Bold-117"/>
     <use x="465.429688" xlink:href="#DejaVuSans-Bold-116"/>
     <use x="513.232422" xlink:href="#DejaVuSans-Bold-111"/>
     <use x="581.933594" xlink:href="#DejaVuSans-Bold-99"/>
     <use x="641.210938" xlink:href="#DejaVuSans-Bold-111"/>
     <use x="709.912109" xlink:href="#DejaVuSans-Bold-114"/>
     <use x="759.228516" xlink:href="#DejaVuSans-Bold-114"/>
     <use x="808.544922" xlink:href="#DejaVuSans-Bold-101"/>
     <use x="876.367188" xlink:href="#DejaVuSans-Bold-108"/>
     <use x="910.644531" xlink:href="#DejaVuSans-Bold-97"/>
     <use x="978.125" xlink:href="#DejaVuSans-Bold-116"/>
     <use x="1025.927734" xlink:href="#DejaVuSans-Bold-105"/>
     <use x="1060.205078" xlink:href="#DejaVuSans-Bold-111"/>
     <use x="1128.90625" xlink:href="#DejaVuSans-Bold-110"/>
    </g>
   </g>
   <g id="legend_1">
    <g id="patch_7">
     <path d="M 430.57125 70.7475 
L 510 70.7475 
Q 512.4 70.7475 512.4 68.3475 
L 512.4 34.32 
Q 512.4 31.92 510 31.92 
L 430.57125 31.92 
Q 428.17125 31.92 428.17125 34.32 
L 428.17125 68.3475 
Q 428.17125 70.7475 430.57125 70.7475 
z
" style="fill:#ffffff;opacity:0.8;stroke:#cccccc;stroke-linejoin:miter;"/>
    </g>
    <g id="line2d_19">
     <path d="M 432.97125 41.638125 
L 456.97125 41.638125 
" style="fill:none;stroke:#000000;stroke-linecap:square;stroke-width:1.5;"/>
    </g>
    <g id="line2d_20"/>
    <g id="text_15">
     <!-- Model -->
     <defs>
      <path d="M 9.1875 72.90625 
L 33.109375 72.90625 
L 49.703125 33.890625 
L 66.40625 72.90625 
L 90.28125 72.90625 
L 90.28125 0 
L 72.515625 0 
L 72.515625 53.328125 
L 55.71875 14.015625 
L 43.796875 14.015625 
L 27 53.328125 
L 27 0 
L 9.1875 0 
z
" id="DejaVuSans-Bold-77"/>
      <path d="M 45.609375 46.6875 
L 45.609375 75.984375 
L 63.1875 75.984375 
L 63.1875 0 
L 45.609375 0 
L 45.609375 7.90625 
Q 42 3.078125 37.640625 0.828125 
Q 33.296875 -1.421875 27.59375 -1.421875 
Q 17.484375 -1.421875 10.984375 6.609375 
Q 4.5 14.65625 4.5 27.296875 
Q 4.5 39.9375 10.984375 47.96875 
Q 17.484375 56 27.59375 56 
Q 33.25 56 37.625 53.734375 
Q 42 51.46875 45.609375 46.6875 
z
M 34.078125 11.28125 
Q 39.703125 11.28125 42.65625 15.375 
Q 45.609375 19.484375 45.609375 27.296875 
Q 45.609375 35.109375 42.65625 39.203125 
Q 39.703125 43.3125 34.078125 43.3125 
Q 28.515625 43.3125 25.5625 39.203125 
Q 22.609375 35.109375 22.609375 27.296875 
Q 22.609375 19.484375 25.5625 15.375 
Q 28.515625 11.28125 34.078125 11.28125 
z
" id="DejaVuSans-Bold-100"/>
     </defs>
     <g transform="translate(466.57125 45.838125)scale(0.12 -0.12)">
      <use xlink:href="#DejaVuSans-Bold-77"/>
      <use x="99.511719" xlink:href="#DejaVuSans-Bold-111"/>
      <use x="168.212891" xlink:href="#DejaVuSans-Bold-100"/>
      <use x="239.794922" xlink:href="#DejaVuSans-Bold-101"/>
      <use x="307.617188" xlink:href="#DejaVuSans-Bold-108"/>
     </g>
    </g>
    <g id="LineCollection_2">
     <path d="M 444.97125 65.251875 
L 444.97125 53.251875 
" style="fill:none;stroke:#ff479d;"/>
    </g>
    <g id="line2d_21">
     <g>
      <use style="fill:#ff479d;stroke:#ff479d;" x="444.97125" xlink:href="#mb9a470a450" y="65.251875"/>
     </g>
    </g>
    <g id="line2d_22">
     <g>
      <use style="fill:#ff479d;stroke:#ff479d;" x="444.97125" xlink:href="#mb9a470a450" y="53.251875"/>
     </g>
    </g>
    <g id="line2d_23"/>
    <g id="line2d_24">
     <g>
      <use style="fill:#ff479d;stroke:#ff479d;" x="444.97125" xlink:href="#mebc8fbd0fb" y="59.251875"/>
     </g>
    </g>
    <g id="text_16">
     <!-- Data -->
     <g transform="translate(466.57125 63.451875)scale(0.12 -0.12)">
      <use xlink:href="#DejaVuSans-Bold-68"/>
      <use x="83.007812" xlink:href="#DejaVuSans-Bold-97"/>
      <use x="150.488281" xlink:href="#DejaVuSans-Bold-116"/>
      <use x="198.291016" xlink:href="#DejaVuSans-Bold-97"/>
     </g>
    </g>
   </g>
  </g>
 </g>
 <defs>
  <clipPath id="p2f96851eb6">
   <rect height="163.08" width="446.4" x="72" y="25.92"/>
  </clipPath>
 </defs>
</svg>
